<svg width="36" height="37" viewBox="0 0 36 37" fill="none" xmlns="http://www.w3.org/2000/svg">
<path d="M27.1875 21.1252V16.6252H22.6875V14.3752H27.1875V9.8752H29.4375V14.3752H33.9375V16.6252H29.4375V21.1252H27.1875ZM13.5 18.0386C12.0563 18.0386 10.8204 17.5246 9.79238 16.4966C8.76413 15.4683 8.25 14.2323 8.25 12.7886C8.25 11.3448 8.76413 10.1089 9.79238 9.08095C10.8204 8.0527 12.0563 7.53857 13.5 7.53857C14.9438 7.53857 16.1796 8.0527 17.2076 9.08095C18.2359 10.1089 18.75 11.3448 18.75 12.7886C18.75 14.2323 18.2359 15.4683 17.2076 16.4966C16.1796 17.5246 14.9438 18.0386 13.5 18.0386ZM2.25 29.4618V26.1269C2.25 25.3925 2.4495 24.7122 2.8485 24.0862C3.2475 23.4602 3.78075 22.9789 4.44825 22.6424C5.93075 21.9157 7.42638 21.3706 8.93513 21.0071C10.4439 20.6436 11.9655 20.4618 13.5 20.4618C15.0345 20.4618 16.5561 20.6436 18.0649 21.0071C19.5736 21.3706 21.0693 21.9157 22.5518 22.6424C23.2193 22.9789 23.7525 23.4602 24.1515 24.0862C24.5505 24.7122 24.75 25.3925 24.75 26.1269V29.4618H2.25ZM4.5 27.2118H22.5V26.1269C22.5 25.8232 22.412 25.542 22.236 25.2832C22.06 25.0247 21.8211 24.8137 21.5194 24.6502C20.2269 24.0137 18.9091 23.5315 17.5661 23.2035C16.2229 22.8757 14.8675 22.7118 13.5 22.7118C12.1325 22.7118 10.7771 22.8757 9.43388 23.2035C8.09088 23.5315 6.77313 24.0137 5.48062 24.6502C5.17887 24.8137 4.94 25.0247 4.764 25.2832C4.588 25.542 4.5 25.8232 4.5 26.1269V27.2118ZM13.5 15.7886C14.325 15.7886 15.0313 15.4948 15.6188 14.9073C16.2063 14.3198 16.5 13.6136 16.5 12.7886C16.5 11.9636 16.2063 11.2573 15.6188 10.6698C15.0313 10.0823 14.325 9.78857 13.5 9.78857C12.675 9.78857 11.9688 10.0823 11.3813 10.6698C10.7938 11.2573 10.5 11.9636 10.5 12.7886C10.5 13.6136 10.7938 14.3198 11.3813 14.9073C11.9688 15.4948 12.675 15.7886 13.5 15.7886Z" fill="currentColor"/>
</svg>
