<svg xmlns="http://www.w3.org/2000/svg" width="7" height="8" viewBox="0 0 7 8" fill="none">
<path d="M0.5 8C0.223858 8 0 7.77614 0 7.5V0.5C0 0.223858 0.223858 0 0.5 0C0.776142 0 1 0.223858 1 0.5V7.5C1 7.77614 0.776142 8 0.5 8Z" fill="#0284C7"/>
<path d="M3.5 8C3.22386 8 3 7.77614 3 7.5V0.5C3 0.223858 3.22386 0 3.5 0C3.77614 0 4 0.223858 4 0.5V7.5C4 7.77614 3.77614 8 3.5 8Z" fill="#0284C7"/>
<path d="M6.5 8C6.22386 8 6 7.77614 6 7.5V0.5C6 0.223858 6.22386 0 6.5 0C6.77614 0 7 0.223858 7 0.5V7.5C7 7.77614 6.77614 8 6.5 8Z" fill="#0284C7"/>
</svg>