<svg width="8" height="8" viewBox="0 0 8 8" fill="none" xmlns="http://www.w3.org/2000/svg">
<path d="M1 8C0.723858 8 0.5 7.77614 0.5 7.5V0.5C0.5 0.223858 0.723858 0 1 0C1.27614 0 1.5 0.223858 1.5 0.5V7.5C1.5 7.77614 1.27614 8 1 8Z" fill="currentColor"/>
<path d="M4 8C3.72386 8 3.5 7.77614 3.5 7.5V0.5C3.5 0.223858 3.72386 0 4 0C4.27614 0 4.5 0.223858 4.5 0.5V7.5C4.5 7.77614 4.27614 8 4 8Z" fill="currentColor"/>
<path d="M7 8C6.72386 8 6.5 7.77614 6.5 7.5V0.5C6.5 0.223858 6.72386 0 7 0C7.27614 0 7.5 0.223858 7.5 0.5V7.5C7.5 7.77614 7.27614 8 7 8Z" fill="currentColor"/>
</svg>
