<svg width="10" height="11" viewBox="0 0 10 11" fill="none" xmlns="http://www.w3.org/2000/svg">
<rect x="0.176758" y="0.467163" width="9.6" height="9.6" rx="1.2" fill="#0284C7"/>
<g clip-path="url(#clip0_27835_74938)">
<path d="M3.77656 5.53731C3.86156 5.53731 3.93281 5.50856 3.99031 5.45106C4.04781 5.39356 4.07656 5.32231 4.07656 5.23731C4.07656 5.15231 4.04781 5.08106 3.99031 5.02356C3.93281 4.96606 3.86156 4.93731 3.77656 4.93731C3.69156 4.93731 3.62031 4.96606 3.56281 5.02356C3.50531 5.08106 3.47656 5.15231 3.47656 5.23731C3.47656 5.32231 3.50531 5.39356 3.56281 5.45106C3.62031 5.50856 3.69156 5.53731 3.77656 5.53731ZM4.97656 5.53731C5.06156 5.53731 5.13281 5.50856 5.19031 5.45106C5.24781 5.39356 5.27656 5.32231 5.27656 5.23731C5.27656 5.15231 5.24781 5.08106 5.19031 5.02356C5.13281 4.96606 5.06156 4.93731 4.97656 4.93731C4.89156 4.93731 4.82031 4.96606 4.76281 5.02356C4.70531 5.08106 4.67656 5.15231 4.67656 5.23731C4.67656 5.32231 4.70531 5.39356 4.76281 5.45106C4.82031 5.50856 4.89156 5.53731 4.97656 5.53731ZM6.17656 5.53731C6.26156 5.53731 6.33281 5.50856 6.39031 5.45106C6.44781 5.39356 6.47656 5.32231 6.47656 5.23731C6.47656 5.15231 6.44781 5.08106 6.39031 5.02356C6.33281 4.96606 6.26156 4.93731 6.17656 4.93731C6.09156 4.93731 6.02031 4.96606 5.96281 5.02356C5.90531 5.08106 5.87656 5.15231 5.87656 5.23731C5.87656 5.32231 5.90531 5.39356 5.96281 5.45106C6.02031 5.50856 6.09156 5.53731 6.17656 5.53731ZM1.97656 8.83731V3.43731C1.97656 3.27231 2.03531 3.13106 2.15281 3.01356C2.27031 2.89606 2.41156 2.83731 2.57656 2.83731H7.37656C7.54156 2.83731 7.68281 2.89606 7.80031 3.01356C7.91781 3.13106 7.97656 3.27231 7.97656 3.43731V7.03731C7.97656 7.20231 7.91781 7.34356 7.80031 7.46106C7.68281 7.57856 7.54156 7.63731 7.37656 7.63731H3.17656L1.97656 8.83731ZM2.92156 7.03731H7.37656V3.43731H2.57656V7.37481L2.92156 7.03731Z" fill="white"/>
</g>
<defs>
<clipPath id="clip0_27835_74938">
<rect width="7.2" height="7.2" fill="white" transform="translate(1.37695 2.2373)"/>
</clipPath>
</defs>
</svg>
