<svg width="24" height="24" viewBox="0 0 24 24" fill="none" xmlns="http://www.w3.org/2000/svg">
<path d="M5.72363 15.6718H4.18555V9.86609H2.25V8.328H5.72363V15.6718ZM12.918 8.328C13.2411 8.32802 13.5119 8.43749 13.7305 8.65613C13.9494 8.87479 14.0596 9.14623 14.0596 9.4696V11.4296C14.0595 11.7528 13.9493 12.0235 13.7305 12.2421C13.5118 12.4607 13.2413 12.5702 12.918 12.5702H10.1641V14.1337H14.0596V15.6718H8.62598V12.5702C8.62602 12.247 8.73562 11.9763 8.9541 11.7577C9.17277 11.539 9.4442 11.4296 9.76758 11.4296H12.5205V9.86609H8.62598V8.328H12.918ZM20.6084 8.328C20.9318 8.328 21.2032 8.43725 21.4219 8.65613C21.6408 8.87479 21.75 9.14623 21.75 9.4696V14.5302C21.75 14.8535 21.6408 15.125 21.4219 15.3436C21.2032 15.5625 20.9318 15.6718 20.6084 15.6718H16.3164V14.1337H20.2119V12.5702H17.6074V11.4296H20.2119V9.86609H16.3164V8.328H20.6084Z" fill="white"/>
</svg>
