<svg width="24" height="24" viewBox="0 0 24 24" fill="none" xmlns="http://www.w3.org/2000/svg">
<path d="M6.0293 8.61438C6.32747 8.61438 6.57767 8.71529 6.7793 8.91711C6.98087 9.11873 7.08203 9.36898 7.08203 9.66711V15.3859H5.66309V13.4874H2.91797V15.3859H1.5V9.66711C1.5 9.36894 1.60091 9.11874 1.80273 8.91711C2.00436 8.71529 2.25456 8.61438 2.55273 8.61438H6.0293ZM13.7383 8.61438C14.0365 8.61438 14.2867 8.71529 14.4883 8.91711C14.6901 9.11873 14.791 9.36896 14.791 9.66711V10.9933C14.791 11.277 14.7072 11.5103 14.54 11.6925C14.3731 11.8748 14.1437 11.9773 13.8525 12.0001C14.1437 12.0229 14.3731 12.1255 14.54 12.3077C14.7072 12.4899 14.791 12.7233 14.791 13.007V14.3331C14.791 14.6313 14.6901 14.8815 14.4883 15.0831C14.2867 15.285 14.0365 15.3859 13.7383 15.3859H9.20898V8.61438H13.7383ZM21.4473 8.61438C21.7454 8.61438 21.9956 8.71529 22.1973 8.91711C22.3991 9.11874 22.5 9.36894 22.5 9.66711V10.8107H21.082V10.0333H18.3369V13.9669H21.082V13.1896H22.5V14.3331C22.5 14.6313 22.3991 14.8815 22.1973 15.0831C21.9956 15.2849 21.7454 15.3859 21.4473 15.3859H17.9707C17.6725 15.3859 17.4223 15.285 17.2207 15.0831C17.0191 14.8815 16.918 14.6313 16.918 14.3331V9.66711C16.918 9.36898 17.0191 9.11873 17.2207 8.91711C17.4223 8.71529 17.6725 8.61438 17.9707 8.61438H21.4473ZM10.6279 13.9669H13.3721V12.7091H10.6279V13.9669ZM2.91797 12.0685H5.66309V10.0333H2.91797V12.0685ZM10.6279 11.2911H13.3721V10.0333H10.6279V11.2911Z" fill="white"/>
</svg>
