<svg width="24" height="24" viewBox="0 0 24 24" fill="none" xmlns="http://www.w3.org/2000/svg">
<path fill-rule="evenodd" clip-rule="evenodd" d="M10.1462 10.9985C10.6602 11.5125 11.2781 11.7695 12 11.7695C12.7219 11.7695 13.3398 11.5125 13.8538 10.9985C14.3679 10.4844 14.625 9.86641 14.625 9.14453C14.625 8.42266 14.3679 7.80472 13.8538 7.29072C13.3398 6.77659 12.7219 6.51953 12 6.51953C11.2781 6.51953 10.6602 6.77659 10.1462 7.29072C9.63206 7.80472 9.375 8.42266 9.375 9.14453C9.375 9.86641 9.63206 10.4844 10.1462 10.9985ZM6.375 15.8137L6.375 17.4812H11.2344L12.3594 16.3562H7.5V15.8137C7.5 15.6618 7.544 15.5212 7.632 15.3918C7.72 15.2626 7.83944 15.1571 7.99031 15.0753C8.63656 14.7571 9.29544 14.516 9.96694 14.352C10.6386 14.1881 11.3162 14.1062 12 14.1062C12.6838 14.1062 13.3614 14.1881 14.0331 14.352C14.1207 14.3734 14.2082 14.3961 14.2954 14.4201L15.1962 13.5194C14.8927 13.416 14.5881 13.3274 14.2824 13.2538C13.5281 13.072 12.7673 12.9812 12 12.9812C11.2327 12.9812 10.4719 13.072 9.71756 13.2538C8.96319 13.4355 8.21538 13.7081 7.47413 14.0715C7.14038 14.2397 6.87375 14.4803 6.67425 14.7933C6.47475 15.1063 6.375 15.4465 6.375 15.8137ZM13.0594 10.2039C12.7656 10.4977 12.4125 10.6445 12 10.6445C11.5875 10.6445 11.2344 10.4977 10.9406 10.2039C10.6469 9.91016 10.5 9.55703 10.5 9.14453C10.5 8.73203 10.6469 8.37891 10.9406 8.08516C11.2344 7.79141 11.5875 7.64453 12 7.64453C12.4125 7.64453 12.7656 7.79141 13.0594 8.08516C13.3531 8.37891 13.5 8.73203 13.5 9.14453C13.5 9.55703 13.3531 9.91016 13.0594 10.2039Z" fill="white"/>
<path fill-rule="evenodd" clip-rule="evenodd" d="M17.2124 15.5157V9.46877H18.4124V15.5157C18.4124 16.6754 17.4722 17.6157 16.3124 17.6157H14.0155C13.6842 17.6157 13.4155 17.347 13.4155 17.0156C13.4155 16.6843 13.6842 16.4156 14.0155 16.4156H16.3124C16.8095 16.4156 17.2124 16.0127 17.2124 15.5157Z" fill="white"/>
<path fill-rule="evenodd" clip-rule="evenodd" d="M17.3881 8.65816C17.6225 8.42384 18.0024 8.42384 18.2367 8.65816L20.358 10.7795C20.5923 11.0138 20.5923 11.3937 20.358 11.628C20.1237 11.8623 19.7438 11.8623 19.5095 11.628L17.8124 9.93095L16.1153 11.628C15.881 11.8623 15.5011 11.8623 15.2668 11.628C15.0325 11.3937 15.0325 11.0138 15.2668 10.7795L17.3881 8.65816Z" fill="currentColor"/>
</svg>
