<svg width="24" height="24" viewBox="0 0 24 24" fill="none" xmlns="http://www.w3.org/2000/svg">
<path d="M16.5762 11.2401C17.2002 11.0801 17.8482 10.9521 18.5202 10.8561C19.1975 10.7547 19.7682 10.7041 20.2322 10.7041C21.0642 10.7041 21.6802 10.8641 22.0802 11.1841C22.4855 11.4987 22.6882 11.9174 22.6882 12.4401C22.6882 13.2454 22.3095 13.8987 21.5522 14.4001C20.7948 14.9014 19.6802 15.2081 18.2082 15.3201L18.0082 14.3761C19.2402 14.2534 20.1495 14.0267 20.7362 13.6961C21.3282 13.3654 21.6242 12.9654 21.6242 12.4961C21.6242 11.9414 21.1442 11.6641 20.1842 11.6641C19.4108 11.6641 18.2828 11.8347 16.8002 12.1761L16.5762 11.2401ZM17.6962 9.61605L17.8162 8.68005C19.0908 8.85605 20.3335 8.94405 21.5442 8.94405V9.90405C20.3708 9.90405 19.0882 9.80805 17.6962 9.61605Z" fill="currentColor"/>
<path d="M13.4287 9.54398L14.4127 9.25598C15.1433 10.728 15.5087 12.456 15.5087 14.44H14.4447C14.4447 13.5813 14.354 12.7253 14.1727 11.872C13.9967 11.0186 13.7487 10.2426 13.4287 9.54398ZM10.4127 9.43198C10.1673 10.2746 10.0447 11.1706 10.0447 12.12C10.0447 12.712 10.138 13.2106 10.3247 13.616C10.5167 14.0213 10.706 14.224 10.8927 14.224C11.026 14.224 11.2047 14.072 11.4287 13.768C11.6527 13.464 11.874 13.0293 12.0927 12.464L13.0287 12.824C12.762 13.5973 12.4207 14.2026 12.0047 14.64C11.5887 15.0773 11.1913 15.296 10.8127 15.296C10.3593 15.296 9.93799 14.9866 9.54866 14.368C9.16466 13.7493 8.97266 13 8.97266 12.12C8.97266 11.1173 9.10599 10.1813 9.37266 9.31198L10.4127 9.43198Z" fill="currentColor"/>
<path d="M1.58442 9.37599H3.18442V8.46399H4.16842V9.37599H7.55242V10.224H4.16842V10.944C4.44042 10.912 4.72576 10.896 5.02442 10.896C5.94176 10.896 6.65109 11.096 7.15242 11.496C7.65376 11.896 7.90442 12.4427 7.90442 13.136C7.90442 13.7387 7.69642 14.256 7.28042 14.688C6.86442 15.1147 6.29909 15.3973 5.58442 15.536L5.31242 14.624C5.79242 14.5227 6.17376 14.336 6.45642 14.064C6.74442 13.792 6.88842 13.4827 6.88842 13.136C6.88842 12.6453 6.69376 12.288 6.30442 12.064C5.93642 13.0293 5.42976 13.784 4.78442 14.328C4.13909 14.8667 3.47242 15.136 2.78442 15.136C2.31509 15.136 1.93909 14.9973 1.65642 14.72C1.37376 14.4373 1.23242 14.0587 1.23242 13.584C1.23242 13.04 1.40309 12.5573 1.74442 12.136C2.08576 11.7147 2.56576 11.3947 3.18442 11.176V10.224H1.58442V9.37599ZM5.38442 11.816C5.23509 11.8053 5.11509 11.8 5.02442 11.8C4.72042 11.8 4.43509 11.824 4.16842 11.872V13.632C4.68042 13.1733 5.08576 12.568 5.38442 11.816ZM3.18442 12.2C2.56042 12.5307 2.24842 12.9573 2.24842 13.48C2.24842 13.72 2.30442 13.904 2.41642 14.032C2.52842 14.16 2.68576 14.224 2.88842 14.224C2.99509 14.224 3.09376 14.2133 3.18442 14.192V12.2Z" fill="currentColor"/>
</svg>
