<svg width="24" height="24" viewBox="0 0 24 24" fill="none" xmlns="http://www.w3.org/2000/svg">
<path d="M11.9955 13.9115L17.4148 8.27814C17.5991 8.08653 17.8172 7.99392 18.0691 8.00031C18.3211 8.0067 18.5392 8.10569 18.7235 8.2973C18.9078 8.48891 19 8.71565 19 8.97752C19 9.23938 18.9078 9.46612 18.7235 9.65773L13.0462 15.5401C12.8987 15.6934 12.7329 15.8084 12.5485 15.885C12.3642 15.9617 12.1799 16 11.9955 16C11.8112 16 11.6269 15.9617 11.4426 15.885C11.2582 15.8084 11.0923 15.6934 10.9449 15.5401L5.26757 9.63857C5.08324 9.44696 4.99415 9.22341 5.0003 8.96794C5.00644 8.71246 5.10168 8.48891 5.28601 8.2973C5.47033 8.10569 5.68845 8.00989 5.94037 8.00989C6.19228 8.00989 6.41041 8.10569 6.59473 8.2973L11.9955 13.9115Z" fill="currentColor"/>
</svg>
