<svg width="24" height="25" viewBox="0 0 24 25" fill="none" xmlns="http://www.w3.org/2000/svg">
<path d="M13.4567 10.8095V9.82285C13.8644 9.63348 14.2911 9.49141 14.7368 9.39666C15.1825 9.30191 15.6453 9.25454 16.125 9.25454C16.426 9.25454 16.7183 9.27598 17.0019 9.31885C17.2856 9.3616 17.5702 9.4181 17.8558 9.48835V10.4287C17.5751 10.3305 17.2959 10.2594 17.0184 10.2151C16.7411 10.1709 16.4433 10.1487 16.125 10.1487C15.6453 10.1487 15.1806 10.2057 14.7309 10.3197C14.2814 10.4337 13.8567 10.597 13.4567 10.8095ZM13.4567 14.92L13.4567 13.919C13.8548 13.7296 14.2803 13.5875 14.7332 13.4928C15.1861 13.3982 15.65 13.3509 16.125 13.3509C16.426 13.3509 16.7183 13.3722 17.0019 13.415C17.2856 13.4577 17.5702 13.5142 17.8558 13.5845V14.5248C17.5751 14.4267 17.2959 14.3555 17.0184 14.3112C16.7411 14.2671 16.4433 14.245 16.125 14.245C15.6453 14.245 15.1806 14.3025 14.7309 14.4174C14.2814 14.5322 13.8567 14.6998 13.4567 14.92ZM13.4567 12.872V11.8709C13.8644 11.6815 14.2911 11.5395 14.7368 11.4447C15.1825 11.35 15.6453 11.3026 16.125 11.3026C16.426 11.3026 16.7183 11.324 17.0019 11.3669C17.2856 11.4097 17.5702 11.4662 17.8558 11.5364V12.4767C17.5751 12.3786 17.2959 12.3074 17.0184 12.2632C16.7411 12.219 16.4433 12.197 16.125 12.197C15.6453 12.197 15.1806 12.2564 14.7309 12.3751C14.2814 12.4939 13.8567 12.6595 13.4567 12.872ZM7.875 15.5142C8.49613 15.5142 9.10044 15.5847 9.68794 15.7255C10.2754 15.8664 10.8586 16.0874 11.4375 16.3884V9.0151C10.9106 8.67185 10.3404 8.41441 9.72694 8.24279C9.11344 8.07116 8.49613 7.98535 7.875 7.98535C7.425 7.98535 7.00456 8.02066 6.61369 8.09129C6.22281 8.16204 5.82113 8.27766 5.40863 8.43816C5.351 8.45741 5.31012 8.4851 5.286 8.52123C5.262 8.55723 5.25 8.59685 5.25 8.6401L5.25 15.7334C5.25 15.8008 5.27406 15.8501 5.32219 15.8814C5.37019 15.9126 5.42306 15.9162 5.48081 15.892C5.83656 15.7709 6.212 15.6777 6.60713 15.6123C7.00238 15.5469 7.425 15.5142 7.875 15.5142ZM12.5625 16.3884C13.1414 16.0874 13.7246 15.8664 14.3121 15.7255C14.8996 15.5847 15.5039 15.5142 16.125 15.5142C16.575 15.5142 16.9976 15.5469 17.3929 15.6123C17.788 15.6777 18.1634 15.7709 18.5192 15.892C18.5769 15.9162 18.6298 15.9126 18.6778 15.8814C18.7259 15.8501 18.75 15.8008 18.75 15.7334V8.6401C18.75 8.59685 18.738 8.55841 18.714 8.52479C18.6899 8.49116 18.649 8.46229 18.5914 8.43816C18.1789 8.27766 17.7772 8.16204 17.3863 8.09129C16.9954 8.02066 16.575 7.98535 16.125 7.98535C15.5039 7.98535 14.8866 8.07116 14.2731 8.24279C13.6596 8.41441 13.0894 8.67185 12.5625 9.0151L12.5625 16.3884ZM12 18.0382C11.3953 17.592 10.7429 17.2474 10.0429 17.0041C9.34288 16.7609 8.62025 16.6392 7.875 16.6392C7.41738 16.6392 6.96788 16.6899 6.5265 16.7913C6.08513 16.8928 5.65963 17.0421 5.25 17.2392C4.98275 17.3622 4.72844 17.3427 4.48706 17.1807C4.24569 17.0187 4.125 16.7892 4.125 16.492L4.125 8.34891C4.125 8.18729 4.16663 8.0356 4.24988 7.89385C4.333 7.75198 4.45294 7.64979 4.60969 7.58729C5.11731 7.34016 5.64638 7.15723 6.19688 7.03848C6.74738 6.91973 7.30675 6.86035 7.875 6.86035C8.60475 6.86035 9.31775 6.9601 10.014 7.1596C10.7101 7.35923 11.3721 7.65373 12 8.0431C12.6279 7.65373 13.2899 7.35923 13.986 7.1596C14.6823 6.9601 15.3953 6.86035 16.125 6.86035C16.6933 6.86035 17.2526 6.91973 17.8031 7.03848C18.3536 7.15723 18.8827 7.34016 19.3903 7.58729C19.5471 7.64979 19.667 7.75198 19.7501 7.89385C19.8334 8.0356 19.875 8.18729 19.875 8.34891V16.492C19.875 16.7892 19.7495 17.0164 19.4985 17.1736C19.2475 17.3307 18.9836 17.3478 18.7067 17.2248C18.3019 17.0324 17.8825 16.8867 17.4484 16.7877C17.0143 16.6887 16.5731 16.6392 16.125 16.6392C15.3798 16.6392 14.6571 16.7609 13.9571 17.0041C13.2571 17.2474 12.6048 17.592 12 18.0382Z" fill="currentColor"/>
</svg>
