<svg width="18" height="20" viewBox="0 0 18 20" fill="none" xmlns="http://www.w3.org/2000/svg">
<path d="M2.73646 19.5C2.23129 19.5 1.80371 19.325 1.45371 18.975C1.10371 18.625 0.928711 18.1974 0.928711 17.6923V4.30777C0.928711 3.8026 1.10371 3.37502 1.45371 3.02502C1.80371 2.67502 2.23129 2.50002 2.73646 2.50002H4.12096V0.384766H5.65946V2.50002H13.2365V0.384766H14.7365V2.50002H16.121C16.6261 2.50002 17.0537 2.67502 17.4037 3.02502C17.7537 3.37502 17.9287 3.8026 17.9287 4.30777V17.6923C17.9287 18.1974 17.7537 18.625 17.4037 18.975C17.0537 19.325 16.6261 19.5 16.121 19.5H2.73646ZM2.73646 18H16.121C16.198 18 16.2685 17.9679 16.3325 17.9038C16.3966 17.8398 16.4287 17.7693 16.4287 17.6923V8.30777H2.42871V17.6923C2.42871 17.7693 2.46079 17.8398 2.52496 17.9038C2.58896 17.9679 2.65946 18 2.73646 18ZM2.42871 6.80777H16.4287V4.30777C16.4287 4.23077 16.3966 4.16026 16.3325 4.09626C16.2685 4.0321 16.198 4.00002 16.121 4.00002H2.73646C2.65946 4.00002 2.58896 4.0321 2.52496 4.09626C2.46079 4.16026 2.42871 4.23077 2.42871 4.30777V6.80777ZM9.42871 12.077C9.18388 12.077 8.97521 11.9908 8.80271 11.8183C8.63038 11.6459 8.54421 11.4373 8.54421 11.1923C8.54421 10.9474 8.63038 10.7388 8.80271 10.5663C8.97521 10.3939 9.18388 10.3078 9.42871 10.3078C9.67354 10.3078 9.88221 10.3939 10.0547 10.5663C10.227 10.7388 10.3132 10.9474 10.3132 11.1923C10.3132 11.4373 10.227 11.6459 10.0547 11.8183C9.88221 11.9908 9.67354 12.077 9.42871 12.077ZM5.42871 12.077C5.18388 12.077 4.97521 11.9908 4.80271 11.8183C4.63038 11.6459 4.54421 11.4373 4.54421 11.1923C4.54421 10.9474 4.63038 10.7388 4.80271 10.5663C4.97521 10.3939 5.18388 10.3078 5.42871 10.3078C5.67354 10.3078 5.88221 10.3939 6.05471 10.5663C6.22704 10.7388 6.31321 10.9474 6.31321 11.1923C6.31321 11.4373 6.22704 11.6459 6.05471 11.8183C5.88221 11.9908 5.67354 12.077 5.42871 12.077ZM13.4287 12.077C13.1839 12.077 12.9752 11.9908 12.8027 11.8183C12.6304 11.6459 12.5442 11.4373 12.5442 11.1923C12.5442 10.9474 12.6304 10.7388 12.8027 10.5663C12.9752 10.3939 13.1839 10.3078 13.4287 10.3078C13.6735 10.3078 13.8822 10.3939 14.0547 10.5663C14.227 10.7388 14.3132 10.9474 14.3132 11.1923C14.3132 11.4373 14.227 11.6459 14.0547 11.8183C13.8822 11.9908 13.6735 12.077 13.4287 12.077ZM9.42871 16C9.18388 16 8.97521 15.9138 8.80271 15.7413C8.63038 15.5689 8.54421 15.3603 8.54421 15.1155C8.54421 14.8705 8.63038 14.6618 8.80271 14.4895C8.97521 14.317 9.18388 14.2308 9.42871 14.2308C9.67354 14.2308 9.88221 14.317 10.0547 14.4895C10.227 14.6618 10.3132 14.8705 10.3132 15.1155C10.3132 15.3603 10.227 15.5689 10.0547 15.7413C9.88221 15.9138 9.67354 16 9.42871 16ZM5.42871 16C5.18388 16 4.97521 15.9138 4.80271 15.7413C4.63038 15.5689 4.54421 15.3603 4.54421 15.1155C4.54421 14.8705 4.63038 14.6618 4.80271 14.4895C4.97521 14.317 5.18388 14.2308 5.42871 14.2308C5.67354 14.2308 5.88221 14.317 6.05471 14.4895C6.22704 14.6618 6.31321 14.8705 6.31321 15.1155C6.31321 15.3603 6.22704 15.5689 6.05471 15.7413C5.88221 15.9138 5.67354 16 5.42871 16ZM13.4287 16C13.1839 16 12.9752 15.9138 12.8027 15.7413C12.6304 15.5689 12.5442 15.3603 12.5442 15.1155C12.5442 14.8705 12.6304 14.6618 12.8027 14.4895C12.9752 14.317 13.1839 14.2308 13.4287 14.2308C13.6735 14.2308 13.8822 14.317 14.0547 14.4895C14.227 14.6618 14.3132 14.8705 14.3132 15.1155C14.3132 15.3603 14.227 15.5689 14.0547 15.7413C13.8822 15.9138 13.6735 16 13.4287 16Z" fill="currentColor"/>
</svg>
