<svg width="20" height="20" viewBox="0 0 20 20" fill="none" xmlns="http://www.w3.org/2000/svg">
<path d="M6.527 14.527L5.473 13.473L9.25 9.696V5H10.75V10.3038L6.527 14.527ZM9.99825 19.5C11.3123 19.5 12.5473 19.2507 13.7035 18.752C14.8597 18.2533 15.8653 17.5766 16.7205 16.7218C17.5757 15.8669 18.2528 14.8617 18.7518 13.706C19.2506 12.5503 19.5 11.3156 19.5 10.0017C19.5 8.68775 19.2507 7.45267 18.752 6.2965C18.2533 5.14033 17.5766 4.13467 16.7217 3.2795C15.8669 2.42433 14.8617 1.74725 13.706 1.24825C12.5503 0.749417 11.3156 0.5 10.0017 0.5C8.68775 0.5 7.45267 0.749333 6.2965 1.248C5.14033 1.74667 4.13467 2.42342 3.2795 3.27825C2.42433 4.13308 1.74725 5.13833 1.24825 6.294C0.749416 7.44967 0.5 8.68442 0.5 9.99825C0.5 11.3123 0.749332 12.5473 1.248 13.7035C1.74667 14.8597 2.42342 15.8653 3.27825 16.7205C4.13308 17.5757 5.13833 18.2528 6.294 18.7518C7.44967 19.2506 8.68442 19.5 9.99825 19.5ZM10 18C7.78333 18 5.89583 17.2208 4.3375 15.6625C2.77917 14.1042 2 12.2167 2 10C2 7.78333 2.77917 5.89583 4.3375 4.3375C5.89583 2.77917 7.78333 2 10 2C12.2167 2 14.1042 2.77917 15.6625 4.3375C17.2208 5.89583 18 7.78333 18 10C18 12.2167 17.2208 14.1042 15.6625 15.6625C14.1042 17.2208 12.2167 18 10 18Z" fill="#171717"/>
</svg>
