<svg width="24" height="24" viewBox="0 0 24 24" fill="none" xmlns="http://www.w3.org/2000/svg">
<path fill-rule="evenodd" clip-rule="evenodd" d="M12.0001 20.5715C16.7339 20.5715 20.5715 16.7339 20.5715 12.0001C20.5715 7.2662 16.7339 3.42864 12.0001 3.42864C7.2662 3.42864 3.42864 7.2662 3.42864 12.0001C3.42864 16.7339 7.2662 20.5715 12.0001 20.5715ZM12.0001 22.2858C17.6807 22.2858 22.2858 17.6807 22.2858 12.0001C22.2858 6.31943 17.6807 1.71436 12.0001 1.71436C6.31943 1.71436 1.71436 6.31943 1.71436 12.0001C1.71436 17.6807 6.31943 22.2858 12.0001 22.2858Z" fill="#0284C7"/>
<path fill-rule="evenodd" clip-rule="evenodd" d="M12 18.8571C15.7871 18.8571 18.8571 15.7871 18.8571 12C18.8571 8.2129 15.7871 5.14286 12 5.14286C8.2129 5.14286 5.14286 8.2129 5.14286 12C5.14286 15.7871 8.2129 18.8571 12 18.8571ZM22.2857 12C22.2857 17.6806 17.6806 22.2857 12 22.2857C6.31936 22.2857 1.71429 17.6806 1.71429 12C1.71429 6.31936 6.31936 1.71429 12 1.71429C17.6806 1.71429 22.2857 6.31936 22.2857 12ZM12 20.5714C16.7339 20.5714 20.5714 16.7339 20.5714 12C20.5714 7.26613 16.7339 3.42857 12 3.42857C7.26613 3.42857 3.42857 7.26613 3.42857 12C3.42857 16.7339 7.26613 20.5714 12 20.5714ZM24 12C24 18.6274 18.6274 24 12 24C5.37258 24 0 18.6274 0 12C0 5.37258 5.37258 0 12 0C18.6274 0 24 5.37258 24 12Z" fill="white"/>
</svg>
