<svg width="25" height="24" viewBox="0 0 25 24" fill="none" xmlns="http://www.w3.org/2000/svg">
<path d="M17.0222 13.3128V11.0628H14.7722V9.93784H17.0222V7.68784H18.1472V9.93784H20.3972V11.0628H18.1472V13.3128H17.0222ZM10.1785 11.7695C9.45659 11.7695 8.83865 11.5125 8.32465 10.9985C7.81053 10.4844 7.55347 9.86641 7.55347 9.14453C7.55347 8.42266 7.81053 7.80472 8.32465 7.29072C8.83865 6.77659 9.45659 6.51953 10.1785 6.51953C10.9003 6.51953 11.5183 6.77659 12.0323 7.29072C12.5464 7.80472 12.8035 8.42266 12.8035 9.14453C12.8035 9.86641 12.5464 10.4844 12.0323 10.9985C11.5183 11.5125 10.9003 11.7695 10.1785 11.7695ZM4.55347 17.4812V15.8137C4.55347 15.4465 4.65322 15.1063 4.85272 14.7933C5.05222 14.4803 5.31884 14.2397 5.65259 14.0715C6.39384 13.7081 7.14165 13.4355 7.89603 13.2538C8.6504 13.072 9.41122 12.9812 10.1785 12.9812C10.9457 12.9812 11.7065 13.072 12.4609 13.2538C13.2153 13.4355 13.9631 13.7081 14.7043 14.0715C15.0381 14.2397 15.3047 14.4803 15.5042 14.7933C15.7037 15.1063 15.8035 15.4465 15.8035 15.8137V17.4812H4.55347ZM5.67847 16.3562H14.6785V15.8137C14.6785 15.6618 14.6345 15.5212 14.5465 15.3918C14.4585 15.2626 14.339 15.1571 14.1882 15.0753C13.5419 14.7571 12.883 14.516 12.2115 14.352C11.5399 14.1881 10.8622 14.1062 10.1785 14.1062C9.49472 14.1062 8.81703 14.1881 8.1454 14.352C7.4739 14.516 6.81503 14.7571 6.16878 15.0753C6.0179 15.1571 5.89847 15.2626 5.81047 15.3918C5.72247 15.5212 5.67847 15.6618 5.67847 15.8137V16.3562ZM10.1785 10.6445C10.591 10.6445 10.9441 10.4977 11.2378 10.2039C11.5316 9.91016 11.6785 9.55703 11.6785 9.14453C11.6785 8.73203 11.5316 8.37891 11.2378 8.08516C10.9441 7.79141 10.591 7.64453 10.1785 7.64453C9.76597 7.64453 9.41284 7.79141 9.11909 8.08516C8.82534 8.37891 8.67847 8.73203 8.67847 9.14453C8.67847 9.55703 8.82534 9.91016 9.11909 10.2039C9.41284 10.4977 9.76597 10.6445 10.1785 10.6445Z" fill="currentColor"/>
</svg>