<svg width="24" height="24" viewBox="0 0 24 24" fill="none" xmlns="http://www.w3.org/2000/svg">
    <path d="M15.3 10.1635L18.748 6.7L18.125 6.077L15.3 8.902L13.875 7.4865L13.252 8.125L15.3 10.1635ZM3.5 19.75V18.25H15V19.75H3.5ZM16.0015 12.75C14.6877 12.75 13.5673 12.287 12.6405 11.361C11.7135 10.435 11.25 9.31517 11.25 8.0015C11.25 6.68767 11.713 5.56733 12.639 4.6405C13.565 3.7135 14.6848 3.25 15.9985 3.25C17.3123 3.25 18.4327 3.713 19.3595 4.639C20.2865 5.565 20.75 6.68483 20.75 7.9985C20.75 9.31233 20.287 10.4327 19.361 11.3595C18.435 12.2865 17.3152 12.75 16.0015 12.75ZM3.5 11.75V10.25H9.3385C9.4295 10.527 9.53233 10.7888 9.647 11.0355C9.76183 11.2823 9.89875 11.5205 10.0578 11.75H3.5ZM3.5 15.75V14.25H12.8328C13.1584 14.4257 13.5027 14.575 13.8655 14.698C14.2283 14.8212 14.6065 14.9097 15 14.9635V15.75H3.5Z" fill="currentColor"/>
</svg>
