<svg width="24" height="24" viewBox="0 0 24 24" fill="none" xmlns="http://www.w3.org/2000/svg">
<path d="M12.3463 20.5L11.2923 19.4462L14.8422 15.8963L11.2923 12.3463L12.3463 11.2923L15.8962 14.8422L19.4462 11.2923L20.5 12.3463L16.95 15.8963L20.5 19.4462L19.4462 20.5L15.8962 16.95L12.3463 20.5ZM7.34625 20.5V18.8845H8.9615V20.5H7.34625ZM5.1155 5.1155H3.5C3.5 4.67117 3.65817 4.29083 3.9745 3.9745C4.29083 3.65817 4.67117 3.5 5.1155 3.5V5.1155ZM7.34625 5.1155V3.5H8.9615V5.1155H7.34625ZM11.1923 5.1155V3.5H12.8077V5.1155H11.1923ZM15.0385 5.1155V3.5H16.6538V5.1155H15.0385ZM18.8845 5.1155V3.5C19.3288 3.5 19.7092 3.65817 20.0255 3.9745C20.3418 4.29083 20.5 4.67117 20.5 5.1155H18.8845ZM5.1155 18.8845V20.5C4.67117 20.5 4.29083 20.3418 3.9745 20.0255C3.65817 19.7092 3.5 19.3288 3.5 18.8845H5.1155ZM3.5 16.6538V15.0385H5.1155V16.6538H3.5ZM3.5 12.8077V11.1923H5.1155V12.8077H3.5ZM3.5 8.9615V7.34625H5.1155V8.9615H3.5ZM18.8845 8.9615V7.34625H20.5V8.9615H18.8845Z" fill="white"/>
</svg>
