<svg width="24" height="25" viewBox="0 0 24 25" fill="none" xmlns="http://www.w3.org/2000/svg">
<path d="M6.5 20.1634C5.118 20.1634 3.93917 19.6832 2.9635 18.7229C1.98783 17.7627 1.5 16.5916 1.5 15.2096C1.5 13.9865 1.89167 12.8986 2.675 11.9461C3.45833 10.9935 4.45767 10.43 5.673 10.2556C5.89867 9.03647 6.56375 7.89647 7.66825 6.83564C8.77275 5.77464 9.96667 5.24414 11.25 5.24414C11.659 5.24414 12.0112 5.39189 12.3068 5.68739C12.6023 5.98289 12.75 6.33514 12.75 6.74414V13.4096L14.5807 11.6096L15.6345 12.6634L12 16.2979L8.3655 12.6634L9.41925 11.6096L11.25 13.4096V6.74414C9.98983 6.88781 8.96642 7.46664 8.17975 8.48064C7.39325 9.49481 7 10.5557 7 11.6634H6.5C5.53333 11.6634 4.70833 12.0051 4.025 12.6884C3.34167 13.3717 3 14.1967 3 15.1634C3 16.1301 3.34167 16.9551 4.025 17.6384C4.70833 18.3217 5.53333 18.6634 6.5 18.6634H18.5C19.2 18.6634 19.7917 18.4217 20.275 17.9384C20.7583 17.4551 21 16.8634 21 16.1634C21 15.4634 20.7583 14.8717 20.275 14.3884C19.7917 13.9051 19.2 13.6634 18.5 13.6634H17V11.6634C17 10.8506 16.8167 10.0983 16.45 9.40664C16.0833 8.71497 15.6 8.13389 15 7.66339V5.90564C16.0858 6.45697 16.9407 7.25056 17.5645 8.28639C18.1882 9.32239 18.5 10.4481 18.5 11.6634V12.1634H18.8078C19.8616 12.2454 20.7404 12.6691 21.4443 13.4346C22.1481 14.2 22.5 15.1096 22.5 16.1634C22.5 17.2787 22.1122 18.2242 21.3365 18.9999C20.5608 19.7756 19.6153 20.1634 18.5 20.1634H6.5Z" fill="white"/>
</svg>
