<svg width="25" height="24" viewBox="0 0 25 24" fill="none" xmlns="http://www.w3.org/2000/svg">
<path d="M8.30347 17.625C7.26697 17.625 6.38284 17.2649 5.65109 16.5446C4.91934 15.8245 4.55347 14.9462 4.55347 13.9097C4.55347 12.9923 4.84722 12.1764 5.43472 11.462C6.02222 10.7475 6.77172 10.3249 7.68322 10.1942C7.85247 9.2798 8.35128 8.4248 9.17965 7.62917C10.008 6.83342 10.9035 6.43555 11.866 6.43555C12.1727 6.43555 12.4369 6.54636 12.6585 6.76799C12.8802 6.98961 12.991 7.2538 12.991 7.56055V12.5597L14.364 11.2097L15.1543 12L12.4285 14.7259L9.70259 12L10.4929 11.2097L11.866 12.5597V7.56055C10.9208 7.6683 10.1533 8.10242 9.56328 8.86292C8.9734 9.62355 8.67847 10.4192 8.67847 11.25H8.30347C7.57847 11.25 6.95972 11.5062 6.44722 12.0187C5.93472 12.5312 5.67847 13.15 5.67847 13.875C5.67847 14.6 5.93472 15.2187 6.44722 15.7312C6.95972 16.2437 7.57847 16.5 8.30347 16.5H17.3035C17.8285 16.5 18.2722 16.3187 18.6347 15.9562C18.9972 15.5937 19.1785 15.15 19.1785 14.625C19.1785 14.1 18.9972 13.6562 18.6347 13.2937C18.2722 12.9312 17.8285 12.75 17.3035 12.75H16.1785V11.25C16.1785 10.6404 16.041 10.0762 15.766 9.55742C15.491 9.03867 15.1285 8.60286 14.6785 8.24998V6.93167C15.4928 7.34517 16.134 7.94036 16.6018 8.71723C17.0696 9.49423 17.3035 10.3385 17.3035 11.25V11.625H17.5343C18.3247 11.6865 18.9838 12.0043 19.5117 12.5784C20.0395 13.1524 20.3035 13.8346 20.3035 14.625C20.3035 15.4615 20.0126 16.1706 19.4308 16.7524C18.8491 17.3341 18.14 17.625 17.3035 17.625H8.30347Z" fill="currentColor"/>
</svg>
