<svg width="24" height="24" viewBox="0 0 24 24" fill="none" xmlns="http://www.w3.org/2000/svg">
<path fill-rule="evenodd" clip-rule="evenodd" d="M10.1462 10.9983C10.6602 11.5123 11.2781 11.7693 12 11.7693C12.7219 11.7693 13.3398 11.5123 13.8538 10.9983C14.3679 10.4842 14.625 9.86616 14.625 9.14429C14.625 8.42241 14.3679 7.80447 13.8538 7.29047C13.3398 6.77635 12.7219 6.51929 12 6.51929C11.2781 6.51929 10.6602 6.77635 10.1462 7.29047C9.63206 7.80447 9.375 8.42241 9.375 9.14429C9.375 9.86616 9.63206 10.4842 10.1462 10.9983ZM6.375 15.8135L6.375 17.4809H11.2344L12.3594 16.3559H7.5V15.8135C7.5 15.6616 7.544 15.521 7.632 15.3916C7.72 15.2624 7.83944 15.1568 7.99031 15.0751C8.63656 14.7568 9.29544 14.5157 9.96694 14.3517C10.6386 14.1878 11.3162 14.1059 12 14.1059C12.6838 14.1059 13.3614 14.1878 14.0331 14.3517C14.1207 14.3731 14.2082 14.3959 14.2954 14.4199L15.1962 13.5192C14.8927 13.4157 14.5881 13.3272 14.2824 13.2535C13.5281 13.0718 12.7673 12.9809 12 12.9809C11.2327 12.9809 10.4719 13.0718 9.71756 13.2535C8.96319 13.4353 8.21538 13.7078 7.47413 14.0712C7.14038 14.2395 6.87375 14.4801 6.67425 14.7931C6.47475 15.1061 6.375 15.4462 6.375 15.8135ZM13.0594 10.2037C12.7656 10.4974 12.4125 10.6443 12 10.6443C11.5875 10.6443 11.2344 10.4974 10.9406 10.2037C10.6469 9.90991 10.5 9.55679 10.5 9.14429C10.5 8.73179 10.6469 8.37866 10.9406 8.08491C11.2344 7.79116 11.5875 7.64429 12 7.64429C12.4125 7.64429 12.7656 7.79116 13.0594 8.08491C13.3531 8.37866 13.5 8.73179 13.5 9.14429C13.5 9.55679 13.3531 9.90991 13.0594 10.2037Z" fill="white"/>
<path d="M14.0505 18.4052H14.6018L17.6722 15.3349L17.1399 14.793L14.0505 17.8824V18.4052ZM12.8623 19.6029L12.8623 17.3786L17.8623 12.3786C17.951 12.2899 18.0508 12.2233 18.1617 12.179C18.2726 12.1346 18.3883 12.1124 18.5087 12.1124C18.6228 12.1124 18.7368 12.1346 18.8509 12.179C18.965 12.2233 19.0695 12.2899 19.1646 12.3786L20.0961 13.2911C20.1849 13.3799 20.2514 13.4828 20.2958 13.6001C20.3401 13.7173 20.3623 13.8361 20.3623 13.9565C20.3623 14.0769 20.3401 14.1942 20.2958 14.3082C20.2514 14.4223 20.1849 14.5237 20.0961 14.6124L15.1057 19.6029H12.8623ZM17.406 15.0592L17.1399 14.793L17.6722 15.3349L17.406 15.0592Z" fill="white"/>
</svg>
