<svg width="24" height="24" viewBox="0 0 24 24" fill="none" xmlns="http://www.w3.org/2000/svg">
<path d="M4.34863 17.4809L4.34863 15.8135C4.34863 15.427 4.44838 15.082 4.64788 14.7787C4.84738 14.4753 5.11382 14.2393 5.4472 14.0707C6.15995 13.722 6.87663 13.4532 7.59726 13.2642C8.31801 13.0754 9.11007 12.9809 9.97345 12.9809C10.8369 12.9809 11.629 13.0754 12.3496 13.2642C13.0704 13.4532 13.7871 13.722 14.4999 14.0707C14.8333 14.2393 15.0997 14.4753 15.2992 14.7787C15.4987 15.082 15.5984 15.427 15.5984 15.8135V17.4809H4.34863ZM17.0984 17.4809V15.7212C17.0984 15.229 16.9779 14.7598 16.7369 14.3137C16.4958 13.8677 16.1538 13.485 15.7109 13.1656C16.2138 13.2406 16.6913 13.3567 17.1433 13.5138C17.5951 13.671 18.0264 13.8568 18.437 14.0712C18.8245 14.278 19.1238 14.5217 19.3348 14.8023C19.5458 15.0828 19.6513 15.3891 19.6513 15.7212V17.4809H17.0984ZM9.97345 11.7693C9.25157 11.7693 8.63363 11.5123 8.11963 10.9983C7.60563 10.4842 7.34863 9.86616 7.34863 9.14429C7.34863 8.42241 7.60563 7.80447 8.11963 7.29047C8.63363 6.77635 9.25157 6.51929 9.97345 6.51929C10.6953 6.51929 11.3133 6.77635 11.8274 7.29047C12.3414 7.80447 12.5984 8.42241 12.5984 9.14429C12.5984 9.86616 12.3414 10.4842 11.8274 10.9983C11.3133 11.5123 10.6953 11.7693 9.97345 11.7693ZM16.4493 9.14429C16.4493 9.86616 16.1923 10.4842 15.6783 10.9983C15.1643 11.5123 14.5464 11.7693 13.8245 11.7693C13.7399 11.7693 13.6322 11.7597 13.5014 11.7404C13.3706 11.7212 13.2629 11.7 13.1784 11.677C13.4741 11.3214 13.7014 10.9269 13.8603 10.4935C14.0191 10.0602 14.0984 9.61016 14.0984 9.14354C14.0984 8.67679 14.0174 8.22847 13.8554 7.7986C13.6934 7.36885 13.4678 6.97322 13.1784 6.61172C13.286 6.57322 13.3937 6.54822 13.5014 6.53672C13.6091 6.5251 13.7168 6.51929 13.8245 6.51929C14.5464 6.51929 15.1643 6.77635 15.6783 7.29047C16.1923 7.80447 16.4493 8.42241 16.4493 9.14429ZM5.47345 16.3559H14.4734V15.8135C14.4734 15.6568 14.4343 15.5175 14.3559 15.3953C14.2776 15.2732 14.1534 15.1665 13.9831 15.0751C13.3659 14.7569 12.7303 14.5157 12.0764 14.3517C11.4226 14.1878 10.7216 14.1059 9.97345 14.1059C9.22545 14.1059 8.52451 14.1878 7.87063 14.3517C7.21676 14.5157 6.5812 14.7569 5.96395 15.0751C5.7937 15.1665 5.66938 15.2732 5.59101 15.3953C5.51263 15.5175 5.47345 15.6568 5.47345 15.8135V16.3559ZM9.97345 10.6443C10.3859 10.6443 10.7391 10.4974 11.0328 10.2037C11.3266 9.90991 11.4734 9.55679 11.4734 9.14429C11.4734 8.73179 11.3266 8.37866 11.0328 8.08491C10.7391 7.79116 10.3859 7.64429 9.97345 7.64429C9.56095 7.64429 9.20782 7.79116 8.91407 8.08491C8.62032 8.37866 8.47345 8.73179 8.47345 9.14429C8.47345 9.55679 8.62032 9.90991 8.91407 10.2037C9.20782 10.4974 9.56095 10.6443 9.97345 10.6443Z" fill="currentColor"/>
</svg>
