<svg width="25" height="24" viewBox="0 0 25 24" fill="none" xmlns="http://www.w3.org/2000/svg">
<path d="M6.15631 19H9.15631V14C9.15631 13.7167 9.25214 13.4792 9.44381 13.2875C9.63548 13.0958 9.87298 13 10.1563 13H14.1563C14.4396 13 14.6771 13.0958 14.8688 13.2875C15.0605 13.4792 15.1563 13.7167 15.1563 14V19H18.1563V10L12.1563 5.5L6.15631 10V19ZM4.15631 19V10C4.15631 9.68333 4.22714 9.38333 4.36881 9.1C4.51048 8.81667 4.70631 8.58333 4.95631 8.4L10.9563 3.9C11.3063 3.63333 11.7063 3.5 12.1563 3.5C12.6063 3.5 13.0063 3.63333 13.3563 3.9L19.3563 8.4C19.6063 8.58333 19.8021 8.81667 19.9438 9.1C20.0855 9.38333 20.1563 9.68333 20.1563 10V19C20.1563 19.55 19.9605 20.0208 19.5688 20.4125C19.1771 20.8042 18.7063 21 18.1563 21H14.1563C13.873 21 13.6355 20.9042 13.4438 20.7125C13.2521 20.5208 13.1563 20.2833 13.1563 20V15H11.1563V20C11.1563 20.2833 11.0605 20.5208 10.8688 20.7125C10.6771 20.9042 10.4396 21 10.1563 21H6.15631C5.60631 21 5.13548 20.8042 4.74381 20.4125C4.35214 20.0208 4.15631 19.55 4.15631 19Z" fill="currentColor"/>
</svg>
