<svg width="24" height="24" viewBox="0 0 24 24" fill="none" xmlns="http://www.w3.org/2000/svg">
<path d="M17.0195 5.625C17.3983 5.62508 17.719 5.75613 17.9814 6.01855C18.2439 6.28098 18.3749 6.60174 18.375 6.98047V17.0195C18.3749 17.3983 18.2439 17.719 17.9814 17.9814C17.719 18.2439 17.3983 18.3749 17.0195 18.375H6.98047C6.60174 18.3749 6.28098 18.2439 6.01855 17.9814C5.75613 17.719 5.62508 17.3983 5.625 17.0195V6.98047C5.62508 6.60174 5.75613 6.28098 6.01855 6.01855C6.28098 5.75613 6.60174 5.62508 6.98047 5.625H17.0195ZM6.98047 6.75C6.92285 6.7501 6.87017 6.77424 6.82227 6.82227C6.77424 6.87017 6.7501 6.92285 6.75 6.98047V17.0195C6.7501 17.0771 6.77424 17.1298 6.82227 17.1777C6.87017 17.2258 6.92285 17.2499 6.98047 17.25H17.0195C17.0771 17.2499 17.1298 17.2258 17.1777 17.1777C17.2258 17.1298 17.2499 17.0771 17.25 17.0195V6.98047C17.2499 6.92285 17.2258 6.87017 17.1777 6.82227C17.1298 6.77424 17.0771 6.7501 17.0195 6.75H6.98047ZM15.9951 15.5625H8.0625L9.92285 13.0957L11.4229 15.0146L13.5293 12.2744L15.9951 15.5625Z" fill="white"/>
</svg>
