<svg width="24" height="24" viewBox="0 0 24 24" fill="none" xmlns="http://www.w3.org/2000/svg">
<path opacity="0.6" d="M2.92114 4.13142L4.13167 2.9209L12.0001 10.7893L19.8685 2.9209L21.079 4.13142L13.2106 11.9998L21.079 19.8683L19.8685 21.0788L12.0001 13.2104L4.13167 21.0788L2.92115 19.8683L10.7896 11.9998L2.92114 4.13142Z" fill="#F43F5E"/>
<path fill-rule="evenodd" clip-rule="evenodd" d="M4.13158 0.5L12 8.36842L19.8684 0.5L23.5 4.13158L15.6316 12L23.5 19.8684L19.8684 23.5L12 15.6316L4.13158 23.5L0.500004 19.8684L8.36842 12L0.5 4.13158L4.13158 0.5ZM10.7895 12L2.92106 19.8684L4.13158 21.0789L12 13.2105L19.8684 21.0789L21.0789 19.8684L13.2105 12L21.0789 4.13158L19.8684 2.92105L12 10.7895L4.13158 2.92105L2.92105 4.13158L10.7895 12Z" fill="white"/>
<path d="M17.88 8.2L18.824 8.48C18.68 8.77333 18.5093 9.06133 18.312 9.344C18.1147 9.62667 17.9013 9.888 17.672 10.128C17.448 10.368 17.224 10.5787 17 10.76C16.9467 10.696 16.872 10.624 16.776 10.544C16.68 10.464 16.5813 10.3867 16.48 10.312C16.3787 10.2373 16.2907 10.176 16.216 10.128C16.5573 9.904 16.8773 9.62133 17.176 9.28C17.4747 8.93867 17.7093 8.57867 17.88 8.2ZM17.816 9.048H23.328V9.888H17.584L17.816 9.048ZM16.392 10.912H23.624V11.768H16.392V10.912ZM16.52 12.784H23.504V13.64H16.52V12.784ZM18.896 9.344H19.696V13.232H18.896V9.344ZM17.472 9.344H18.328V13.24H17.472V9.344ZM20.288 9.344H21.088V13.24H20.288V9.344ZM21.696 9.344H22.576V13.24H21.696V9.344ZM18.656 14.088L19.544 13.992C19.5973 14.232 19.6427 14.4933 19.68 14.776C19.7227 15.0587 19.7467 15.2987 19.752 15.496L18.808 15.632C18.808 15.504 18.8 15.352 18.784 15.176C18.7733 15 18.7573 14.816 18.736 14.624C18.7147 14.432 18.688 14.2533 18.656 14.088ZM20.248 14.112L21.144 13.96C21.2133 14.1147 21.28 14.2827 21.344 14.464C21.408 14.6453 21.464 14.8213 21.512 14.992C21.56 15.1627 21.5947 15.3173 21.616 15.456L20.656 15.64C20.6293 15.4427 20.576 15.2 20.496 14.912C20.4213 14.624 20.3387 14.3573 20.248 14.112ZM21.832 14.064L22.752 13.776C22.88 13.9413 23.008 14.12 23.136 14.312C23.264 14.504 23.3867 14.696 23.504 14.888C23.6213 15.0747 23.712 15.2427 23.776 15.392L22.792 15.72C22.7333 15.576 22.6507 15.408 22.544 15.216C22.4427 15.024 22.328 14.8293 22.2 14.632C22.0773 14.4293 21.9547 14.24 21.832 14.064ZM17.216 13.808L18.144 14.04C18.0533 14.344 17.928 14.648 17.768 14.952C17.608 15.256 17.4293 15.5147 17.232 15.728L16.312 15.352C16.4933 15.1813 16.6667 14.9547 16.832 14.672C16.9973 14.3893 17.1253 14.1013 17.216 13.808Z" fill="#BE123C"/>
</svg>
