<svg width="24" height="24" viewBox="0 0 24 24" fill="none" xmlns="http://www.w3.org/2000/svg">
<g opacity="0.6">
<path d="M2.92114 4.13142L4.13167 2.9209L12.0001 10.7893L19.8685 2.9209L21.079 4.13142L13.2106 11.9998L21.079 19.8683L19.8685 21.0788L12.0001 13.2104L4.13167 21.0788L2.92115 19.8683L10.7896 11.9998L2.92114 4.13142Z" fill="currentColor"/>
<path fill-rule="evenodd" clip-rule="evenodd" d="M4.13158 0.5L12 8.36842L19.8684 0.5L23.5 4.13158L15.6316 12L23.5 19.8684L19.8684 23.5L12 15.6316L4.13158 23.5L0.500004 19.8684L8.36842 12L0.5 4.13158L4.13158 0.5ZM10.7895 12L2.92106 19.8684L4.13158 21.0789L12 13.2105L19.8684 21.0789L21.0789 19.8684L13.2105 12L21.0789 4.13158L19.8684 2.92105L12 10.7895L4.13158 2.92105L2.92105 4.13158L10.7895 12Z" fill="currentColor"/>
</g>
</svg>
