<svg width="24" height="24" viewBox="0 0 24 24" fill="none" xmlns="http://www.w3.org/2000/svg">
<path d="M8.25 16.125C7.10413 16.125 6.13019 15.7241 5.32819 14.9224C4.52606 14.1206 4.125 13.1471 4.125 12.0017C4.125 10.8563 4.52606 9.88219 5.32819 9.07931C6.13019 8.27644 7.10413 7.875 8.25 7.875C9.02688 7.875 9.74706 8.08125 10.4106 8.49375C11.0741 8.90625 11.5769 9.45 11.9192 10.125H19.875V13.875H18.375V16.125H14.625V13.875H11.9192C11.5769 14.55 11.0741 15.0938 10.4106 15.5063C9.74706 15.9188 9.02688 16.125 8.25 16.125ZM8.25 15C9.075 15 9.7375 14.7469 10.2375 14.2406C10.7375 13.7344 11.0375 13.2375 11.1375 12.75H15.75V15H17.25V12.75H18.75V11.25H11.1375C11.0375 10.7625 10.7375 10.2656 10.2375 9.75938C9.7375 9.25313 9.075 9 8.25 9C7.425 9 6.71875 9.29375 6.13125 9.88125C5.54375 10.4688 5.25 11.175 5.25 12C5.25 12.825 5.54375 13.5312 6.13125 14.1188C6.71875 14.7063 7.425 15 8.25 15ZM8.25 13.2114C8.58313 13.2114 8.86831 13.0928 9.10556 12.8556C9.34281 12.6183 9.46144 12.3331 9.46144 12C9.46144 11.6669 9.34281 11.3817 9.10556 11.1444C8.86831 10.9072 8.58313 10.7886 8.25 10.7886C7.91688 10.7886 7.63169 10.9072 7.39444 11.1444C7.15719 11.3817 7.03856 11.6669 7.03856 12C7.03856 12.3331 7.15719 12.6183 7.39444 12.8556C7.63169 13.0928 7.91688 13.2114 8.25 13.2114Z" fill="currentColor"/>
</svg>
