<svg width="25" height="24" viewBox="0 0 25 24" fill="none" xmlns="http://www.w3.org/2000/svg">
<g clip-path="url(#clip0_22149_11901)">
<path d="M9.12792 18.6524C8.75667 18.6524 8.43882 18.5203 8.17437 18.256C7.91007 17.9915 7.77792 17.6737 7.77792 17.3024V15.0526H10.374V12.5774C9.82587 12.6224 9.28385 12.5552 8.7479 12.3758C8.21195 12.1964 7.74897 11.9071 7.35897 11.508V10.3794H6.20292L3.4856 7.66207C4.01405 7.08172 4.64112 6.66202 5.36682 6.40297C6.09267 6.14392 6.83172 6.01439 7.58397 6.01439C8.07492 6.01439 8.55215 6.07042 9.01565 6.18247C9.4793 6.29437 9.93207 6.47894 10.374 6.73619V5.29102H20.274V16.4024C20.274 17.0314 20.0562 17.5636 19.6206 17.999C19.185 18.4346 18.6528 18.6524 18.024 18.6524H9.12792ZM11.724 15.0526H17.124V16.4024C17.124 16.6574 17.2102 16.8712 17.3827 17.0437C17.5552 17.2162 17.769 17.3024 18.024 17.3024C18.279 17.3024 18.4927 17.2162 18.6652 17.0437C18.8377 16.8712 18.924 16.6574 18.924 16.4024V6.64102H11.724V7.63102L16.899 12.806V13.7544H15.9506L13.299 11.103L12.9545 11.4472C12.7619 11.64 12.5652 11.8073 12.3643 11.9492C12.1636 12.0911 11.9502 12.2071 11.724 12.2971V15.0526ZM6.77735 9.02939H8.70897V10.878C8.95242 11.0326 9.18897 11.1382 9.41862 11.1946C9.64827 11.2511 9.87792 11.2794 10.1076 11.2794C10.4848 11.2794 10.8266 11.2183 11.1329 11.096C11.4392 10.9738 11.7331 10.7719 12.0147 10.4903L12.3506 10.1544L10.9347 8.73869C10.4766 8.28059 9.96312 7.93702 9.39432 7.70797C8.82552 7.47892 8.22207 7.36439 7.58397 7.36439C7.21467 7.36439 6.85902 7.40422 6.51702 7.48387C6.17487 7.56352 5.85432 7.67144 5.55537 7.80764L6.77735 9.02939ZM15.774 16.4024H9.12792V17.3024H15.9783C15.9045 17.1733 15.852 17.0327 15.8208 16.8808C15.7896 16.729 15.774 16.5695 15.774 16.4024Z" fill="currentColor"/>
</g>
<defs>
<clipPath id="clip0_22149_11901">
<rect width="18" height="18" fill="white" transform="translate(3.5 3)"/>
</clipPath>
</defs>
</svg>
