<svg width="24" height="24" viewBox="0 0 24 24" fill="none" xmlns="http://www.w3.org/2000/svg">
<path d="M6.15 19.3125C5.97241 19.3125 5.82358 19.2524 5.70352 19.1322C5.58332 19.0121 5.52321 18.8633 5.52321 18.6857V17.8017H4.6875L4.6875 14.6678C4.6875 14.4902 4.7476 14.3414 4.86781 14.2213C4.98787 14.1011 5.1367 14.041 5.31429 14.041H6.35893L6.35893 7.82143C6.35893 6.95577 6.6648 6.217 7.27654 5.60511C7.88842 4.99337 8.6272 4.6875 9.49286 4.6875C10.3585 4.6875 11.0973 4.99337 11.7092 5.60511C12.3209 6.217 12.6268 6.95577 12.6268 7.82143L12.6268 16.1786C12.6268 16.7026 12.8092 17.147 13.174 17.5117C13.5388 17.8765 13.9831 18.0589 14.5071 18.0589C15.0311 18.0589 15.4755 17.8765 15.8403 17.5117C16.2051 17.147 16.3875 16.7026 16.3875 16.1786V9.95898L15.3429 9.95898C15.1653 9.95898 15.0164 9.89887 14.8964 9.77867C14.7762 9.65861 14.7161 9.50978 14.7161 9.33219V6.19826H15.5518V5.31429C15.5518 5.1367 15.6119 4.98787 15.7321 4.86781C15.8522 4.7476 16.001 4.6875 16.1786 4.6875H17.85C18.0276 4.6875 18.1764 4.7476 18.2965 4.86781C18.4167 4.98787 18.4768 5.1367 18.4768 5.31429V6.19826H19.3125V9.33219C19.3125 9.50978 19.2524 9.65861 19.1322 9.77867C19.0121 9.89887 18.8633 9.95898 18.6857 9.95898H17.6411V16.1786C17.6411 17.0442 17.3352 17.783 16.7235 18.3949C16.1116 19.0066 15.3728 19.3125 14.5071 19.3125C13.6415 19.3125 12.9027 19.0066 12.2908 18.3949C11.6791 17.783 11.3732 17.0442 11.3732 16.1786L11.3732 7.82143C11.3732 7.29744 11.1908 6.85304 10.826 6.48826C10.4612 6.12347 10.0168 5.94107 9.49286 5.94107C8.96886 5.94107 8.52447 6.12347 8.15968 6.48826C7.79489 6.85304 7.6125 7.29744 7.6125 7.82143L7.6125 14.041H8.65714C8.83473 14.041 8.98356 14.1011 9.10362 14.2213C9.22383 14.3414 9.28393 14.4902 9.28393 14.6678L9.28393 17.8017H8.44821V18.6857C8.44821 18.8633 8.38811 19.0121 8.26791 19.1322C8.14784 19.2524 7.99902 19.3125 7.82143 19.3125H6.15Z" fill="white"/>
</svg>
