<svg width="25" height="24" viewBox="0 0 25 24" fill="none" xmlns="http://www.w3.org/2000/svg">
<path d="M16.1211 10.1703L19.5579 6.71807L18.9369 6.09709L16.1211 8.9129L14.7007 7.50201L14.0798 8.13843L16.1211 10.1703ZM4.3595 19.7256V18.2305H15.8221V19.7256H4.3595ZM16.8203 12.7484C15.5107 12.7484 14.3941 12.2869 13.4702 11.3639C12.5463 10.4409 12.0843 9.32472 12.0843 8.01533C12.0843 6.70577 12.5458 5.58909 13.4687 4.66527C14.3917 3.74129 15.5079 3.2793 16.8173 3.2793C18.1269 3.2793 19.2436 3.74079 20.1674 4.66378C21.0914 5.58676 21.5533 6.70295 21.5533 8.01234C21.5533 9.3219 21.0919 10.4386 20.1689 11.3624C19.2459 12.2864 18.1297 12.7484 16.8203 12.7484ZM4.3595 11.7516V10.2565H10.179C10.2697 10.5326 10.3722 10.7936 10.4865 11.0395C10.6009 11.2855 10.7374 11.5229 10.8959 11.7516H4.3595ZM4.3595 15.7386V14.2435H13.6619C13.9865 14.4186 14.3296 14.5674 14.6913 14.69C15.0529 14.8128 15.4298 14.901 15.8221 14.9547V15.7386H4.3595Z" fill="white"/>
</svg>
