<svg width="27" height="27" viewBox="0 0 27 27" fill="none" xmlns="http://www.w3.org/2000/svg">
<path d="M7.52788 23.5335C6.99756 23.5335 6.54361 23.3447 6.16601 22.9671C5.78841 22.5895 5.59961 22.1356 5.59961 21.6053V11.5951C5.59961 11.0648 5.78841 10.6109 6.16601 10.2333C6.54361 9.85565 6.99756 9.66685 7.52788 9.66685H8.79961V7.53352C8.79961 6.20161 9.26663 5.06863 10.2007 4.13459C11.1347 3.20054 12.2677 2.73352 13.5996 2.73352C14.9315 2.73352 16.0645 3.20054 16.9985 4.13459C17.9326 5.06863 18.3996 6.20161 18.3996 7.53352V9.66685H19.6713C20.2017 9.66685 20.6556 9.85565 21.0332 10.2333C21.4108 10.6109 21.5996 11.0648 21.5996 11.5951V21.6053C21.5996 22.1356 21.4108 22.5895 21.0332 22.9671C20.6556 23.3447 20.2017 23.5335 19.6713 23.5335H7.52788ZM13.5996 18.4669C14.1178 18.4669 14.5585 18.2853 14.9217 17.9223C15.2848 17.5591 15.4663 17.1184 15.4663 16.6002C15.4663 16.082 15.2848 15.6413 14.9217 15.2781C14.5585 14.915 14.1178 14.7335 13.5996 14.7335C13.0814 14.7335 12.6407 14.915 12.2775 15.2781C11.9145 15.6413 11.7329 16.082 11.7329 16.6002C11.7329 17.1184 11.9145 17.5591 12.2775 17.9223C12.6407 18.2853 13.0814 18.4669 13.5996 18.4669ZM10.3996 9.66685H16.7996V7.53352C16.7996 6.64463 16.4885 5.88908 15.8663 5.26685C15.2441 4.64463 14.4885 4.33352 13.5996 4.33352C12.7107 4.33352 11.9552 4.64463 11.3329 5.26685C10.7107 5.88908 10.3996 6.64463 10.3996 7.53352V9.66685Z" fill="white"/>
</svg>
