<svg width="24" height="24" viewBox="0 0 24 24" fill="none" xmlns="http://www.w3.org/2000/svg">
<path d="M8.25 12C8.25 14.4853 6.90685 16.5 5.25 16.5C3.59315 16.5 2.25 14.4853 2.25 12C2.25 9.51472 3.59315 7.5 5.25 7.5C6.90685 7.5 8.25 9.51472 8.25 12Z" fill="white"/>
<path fill-rule="evenodd" clip-rule="evenodd" d="M13.1229 14.5163C13.5171 13.9249 13.8 13.0388 13.8 12C13.8 10.9612 13.5171 10.0751 13.1229 9.48366C12.723 8.88386 12.3024 8.7 12 8.7C11.6976 8.7 11.277 8.88386 10.8771 9.48366C10.4829 10.0751 10.2 10.9612 10.2 12C10.2 13.0388 10.4829 13.9249 10.8771 14.5163C11.277 15.1161 11.6976 15.3 12 15.3C12.3024 15.3 12.723 15.1161 13.1229 14.5163ZM12 16.5C13.6569 16.5 15 14.4853 15 12C15 9.51472 13.6569 7.5 12 7.5C10.3431 7.5 9 9.51472 9 12C9 14.4853 10.3431 16.5 12 16.5Z" fill="white"/>
<path fill-rule="evenodd" clip-rule="evenodd" d="M19.8729 14.5163C20.2671 13.9249 20.55 13.0388 20.55 12C20.55 10.9612 20.2671 10.0751 19.8729 9.48366C19.473 8.88386 19.0524 8.7 18.75 8.7C18.4476 8.7 18.027 8.88386 17.6271 9.48366C17.2329 10.0751 16.95 10.9612 16.95 12C16.95 13.0388 17.2329 13.9249 17.6271 14.5163C18.027 15.1161 18.4476 15.3 18.75 15.3C19.0524 15.3 19.473 15.1161 19.8729 14.5163ZM18.75 16.5C20.4069 16.5 21.75 14.4853 21.75 12C21.75 9.51472 20.4069 7.5 18.75 7.5C17.0931 7.5 15.75 9.51472 15.75 12C15.75 14.4853 17.0931 16.5 18.75 16.5Z" fill="white"/>
</svg>
