<svg width="24" height="24" viewBox="0 0 24 24" fill="none" xmlns="http://www.w3.org/2000/svg">
<path d="M8.66667 15.3333V16.375C8.66667 16.5556 8.72569 16.7049 8.84375 16.8229C8.96181 16.941 9.11111 17 9.29167 17C9.47222 17 9.62153 16.941 9.73958 16.8229C9.85764 16.7049 9.91667 16.5556 9.91667 16.375V15.3333H10.9583C11.1389 15.3333 11.2882 15.2743 11.4062 15.1562C11.5243 15.0382 11.5833 14.8889 11.5833 14.7083C11.5833 14.5278 11.5243 14.3785 11.4062 14.2604C11.2882 14.1424 11.1389 14.0833 10.9583 14.0833H9.91667V13.0417C9.91667 12.8611 9.85764 12.7118 9.73958 12.5938C9.62153 12.4757 9.47222 12.4167 9.29167 12.4167C9.11111 12.4167 8.96181 12.4757 8.84375 12.5938C8.72569 12.7118 8.66667 12.8611 8.66667 13.0417V14.0833H7.625C7.44444 14.0833 7.29514 14.1424 7.17708 14.2604C7.05903 14.3785 7 14.5278 7 14.7083C7 14.8889 7.05903 15.0382 7.17708 15.1562C7.29514 15.2743 7.44444 15.3333 7.625 15.3333H8.66667ZM13.4583 16.375H16.375C16.5556 16.375 16.7049 16.316 16.8229 16.1979C16.941 16.0799 17 15.9306 17 15.75C17 15.5694 16.941 15.4201 16.8229 15.3021C16.7049 15.184 16.5556 15.125 16.375 15.125H13.4583C13.2778 15.125 13.1285 15.184 13.0104 15.3021C12.8924 15.4201 12.8333 15.5694 12.8333 15.75C12.8333 15.9306 12.8924 16.0799 13.0104 16.1979C13.1285 16.316 13.2778 16.375 13.4583 16.375ZM13.4583 14.2917H16.375C16.5556 14.2917 16.7049 14.2326 16.8229 14.1146C16.941 13.9965 17 13.8472 17 13.6667C17 13.4861 16.941 13.3368 16.8229 13.2188C16.7049 13.1007 16.5556 13.0417 16.375 13.0417H13.4583C13.2778 13.0417 13.1285 13.1007 13.0104 13.2188C12.8924 13.3368 12.8333 13.4861 12.8333 13.6667C12.8333 13.8472 12.8924 13.9965 13.0104 14.1146C13.1285 14.2326 13.2778 14.2917 13.4583 14.2917ZM7.83333 9.66667H10.75C10.9306 9.66667 11.0799 9.60764 11.1979 9.48958C11.316 9.37153 11.375 9.22222 11.375 9.04167C11.375 8.86111 11.316 8.71181 11.1979 8.59375C11.0799 8.47569 10.9306 8.41667 10.75 8.41667H7.83333C7.65278 8.41667 7.50347 8.47569 7.38542 8.59375C7.26736 8.71181 7.20833 8.86111 7.20833 9.04167C7.20833 9.22222 7.26736 9.37153 7.38542 9.48958C7.50347 9.60764 7.65278 9.66667 7.83333 9.66667ZM6.16667 19.5C5.70833 19.5 5.31597 19.3368 4.98958 19.0104C4.66319 18.684 4.5 18.2917 4.5 17.8333V6.16667C4.5 5.70833 4.66319 5.31597 4.98958 4.98958C5.31597 4.66319 5.70833 4.5 6.16667 4.5H17.8333C18.2917 4.5 18.684 4.66319 19.0104 4.98958C19.3368 5.31597 19.5 5.70833 19.5 6.16667V17.8333C19.5 18.2917 19.3368 18.684 19.0104 19.0104C18.684 19.3368 18.2917 19.5 17.8333 19.5H6.16667ZM6.16667 17.8333H17.8333V6.16667H6.16667V17.8333ZM14.9167 9.95833L15.6458 10.6875C15.7708 10.8125 15.9167 10.875 16.0833 10.875C16.25 10.875 16.3958 10.8125 16.5208 10.6875C16.6319 10.5764 16.691 10.434 16.6979 10.2604C16.7049 10.0868 16.6528 9.9375 16.5417 9.8125L15.7917 9.04167L16.5208 8.3125C16.6458 8.1875 16.7083 8.04167 16.7083 7.875C16.7083 7.70833 16.6458 7.5625 16.5208 7.4375C16.3958 7.3125 16.25 7.25 16.0833 7.25C15.9167 7.25 15.7708 7.3125 15.6458 7.4375L14.9167 8.16667L14.1875 7.4375C14.0625 7.3125 13.9167 7.25 13.75 7.25C13.5833 7.25 13.4375 7.3125 13.3125 7.4375C13.1875 7.5625 13.125 7.70833 13.125 7.875C13.125 8.04167 13.1875 8.1875 13.3125 8.3125L14.0417 9.04167L13.2917 9.8125C13.1806 9.9375 13.125 10.0833 13.125 10.25C13.125 10.4167 13.1875 10.5625 13.3125 10.6875C13.4375 10.8125 13.5833 10.875 13.75 10.875C13.9167 10.875 14.0625 10.8125 14.1875 10.6875L14.9167 9.95833Z" fill="white"/>
</svg>
