<svg width="24" height="24" viewBox="0 0 24 24" fill="none" xmlns="http://www.w3.org/2000/svg">
<path d="M5.1155 18.8845V20.5C4.67117 20.5 4.29083 20.3418 3.9745 20.0255C3.65817 19.7092 3.5 19.3288 3.5 18.8845H5.1155ZM3.5 16.6538V15.0385H5.1155V16.6538H3.5ZM3.5 12.8077V11.1923H5.1155V12.8077H3.5ZM3.5 8.9615V7.34625H5.1155V8.9615H3.5ZM5.1155 5.1155H3.5C3.5 4.67117 3.65817 4.29083 3.9745 3.9745C4.29083 3.65817 4.67117 3.5 5.1155 3.5V5.1155ZM7.34625 20.5V18.8845H8.9615V20.5H7.34625ZM7.34625 5.1155V3.5H8.9615V5.1155H7.34625ZM11.1923 20.5V18.8845H12.8077V20.5H11.1923ZM11.1923 5.1155V3.5H12.8077V5.1155H11.1923ZM15.0385 20.5V18.8845H16.6538V20.5H15.0385ZM15.0385 5.1155V3.5H16.6538V5.1155H15.0385ZM18.8845 18.8845H20.5C20.5 19.3288 20.3418 19.7092 20.0255 20.0255C19.7092 20.3418 19.3288 20.5 18.8845 20.5V18.8845ZM18.8845 16.6538V15.0385H20.5V16.6538H18.8845ZM18.8845 12.8077V11.1923H20.5V12.8077H18.8845ZM18.8845 8.9615V7.34625H20.5V8.9615H18.8845ZM18.8845 5.1155V3.5C19.3288 3.5 19.7092 3.65817 20.0255 3.9745C20.3418 4.29083 20.5 4.67117 20.5 5.1155H18.8845Z" fill="white"/>
<path d="M11.1814 15.0384V16.6537H12.7969V15.0384H11.1814Z" fill="white"/>
<path d="M11.1814 11.1922V12.8077H12.7969V11.1922H11.1814Z" fill="white"/>
<path d="M11.1814 7.34619V8.96144H12.7969V7.34619H11.1814Z" fill="white"/>
</svg>
