<svg width="24" height="24" viewBox="0 0 24 24" fill="none" xmlns="http://www.w3.org/2000/svg">
<path fill-rule="evenodd" clip-rule="evenodd" d="M2.25 22.25V4.25C2.25 3.7 2.44583 3.22917 2.8375 2.8375C3.22917 2.44583 3.7 2.25 4.25 2.25H20.25C20.8 2.25 21.2708 2.44583 21.6625 2.8375C22.0542 3.22917 22.25 3.7 22.25 4.25V10.874L22.2354 10.8681C21.9912 10.7711 21.7414 10.7227 21.4859 10.7227C21.2469 10.7227 21.008 10.7643 20.7693 10.8475C20.5306 10.931 20.3088 11.0752 20.1038 11.2802L13.1021 18.25H6.25L2.25 22.25ZM8.96247 10.9623C8.7708 11.1539 8.5333 11.2498 8.24997 11.2498C7.96664 11.2498 7.72914 11.1539 7.53747 10.9623C7.3458 10.7706 7.24997 10.5331 7.24997 10.2498C7.24997 9.96642 7.3458 9.72892 7.53747 9.53726C7.72914 9.34559 7.96664 9.24976 8.24997 9.24976C8.5333 9.24976 8.7708 9.34559 8.96247 9.53726C9.15414 9.72892 9.24997 9.96642 9.24997 10.2498C9.24997 10.5331 9.15414 10.7706 8.96247 10.9623ZM12.9625 10.9623C12.7708 11.1539 12.5333 11.2498 12.25 11.2498C11.9666 11.2498 11.7291 11.1539 11.5375 10.9623C11.3458 10.7706 11.25 10.5331 11.25 10.2498C11.25 9.96642 11.3458 9.72892 11.5375 9.53726C11.7291 9.34559 11.9666 9.24976 12.25 9.24976C12.5333 9.24976 12.7708 9.34559 12.9625 9.53726C13.1541 9.72892 13.25 9.96642 13.25 10.2498C13.25 10.5331 13.1541 10.7706 12.9625 10.9623ZM16.25 11.2498C16.5333 11.2498 16.7708 11.1539 16.9625 10.9623C17.1541 10.7706 17.25 10.5331 17.25 10.2498C17.25 9.96642 17.1541 9.72892 16.9625 9.53726C16.7708 9.34559 16.5333 9.24976 16.25 9.24976C15.9666 9.24976 15.7291 9.34559 15.5375 9.53726C15.3458 9.72892 15.25 9.96642 15.25 10.2498C15.25 10.5331 15.3458 10.7706 15.5375 10.9623C15.7291 11.1539 15.9666 11.2498 16.25 11.2498Z" fill="white"/>
<path fill-rule="evenodd" clip-rule="evenodd" d="M15.4833 20.1564V17.6793L20.5727 12.613C20.6893 12.4964 20.8155 12.4144 20.9513 12.3669C21.087 12.3196 21.2229 12.2959 21.3588 12.2959C21.5041 12.2959 21.6462 12.3235 21.7852 12.3786C21.9239 12.4339 22.0486 12.5169 22.1592 12.6275L23.0264 13.5036C23.1273 13.6204 23.2055 13.7466 23.2608 13.8824C23.3161 14.0182 23.3438 14.1539 23.3438 14.2897C23.3438 14.4255 23.3185 14.5637 23.268 14.7043C23.2176 14.845 23.137 14.9736 23.0264 15.0901L17.9604 20.1564H15.4833ZM16.601 19.0385H17.4917L20.5348 15.9806L19.6676 15.0956L16.601 18.1478V19.0385Z" fill="white"/>
</svg>
