<svg width="24" height="24" viewBox="0 0 24 24" fill="none" xmlns="http://www.w3.org/2000/svg">
<path fill-rule="evenodd" clip-rule="evenodd" d="M19.5 4.5H15.75V8.25H19.5V4.5ZM10.125 4.5H13.875V8.25H10.125V4.5ZM8.25 4.5H4.5V8.25H8.25V4.5ZM4.5 10.125H8.25V13.875H4.5V10.125ZM10.125 10.125H13.875V13.875H10.125V10.125ZM15.75 10.125H19.5V11.5301C19.4231 11.5482 19.3462 11.5707 19.2694 11.5975C19.0306 11.681 18.8088 11.8252 18.6039 12.0302L16.7506 13.875H15.75V10.125ZM11.0999 19.5L13.875 16.7375V15.75H10.125V19.5H11.0999ZM4.5 15.75H8.25V19.5H4.5V15.75Z" fill="currentColor"/>
<path fill-rule="evenodd" clip-rule="evenodd" d="M13.9833 20.9064V18.4293L19.0727 13.363C19.1893 13.2464 19.3155 13.1644 19.4513 13.1169C19.587 13.0696 19.7229 13.0459 19.8588 13.0459C20.0041 13.0459 20.1462 13.0735 20.2852 13.1286C20.4239 13.1839 20.5486 13.2669 20.6592 13.3775L21.5264 14.2536C21.6273 14.3704 21.7055 14.4966 21.7608 14.6324C21.8161 14.7682 21.8438 14.9039 21.8438 15.0397C21.8438 15.1755 21.8185 15.3137 21.768 15.4543C21.7176 15.595 21.637 15.7236 21.5264 15.8401L16.4604 20.9064H13.9833ZM15.101 19.7885H15.9917L19.0348 16.7306L18.1676 15.8456L15.101 18.8978V19.7885Z" fill="currentColor"/>
</svg>
