<svg width="24" height="24" viewBox="0 0 24 24" fill="none" xmlns="http://www.w3.org/2000/svg">
<path d="M9.36773 8.89898V7.49273H17.4448V8.89898H9.36773ZM9.36773 11.6034V10.1972H17.4448V11.6034H9.36773ZM11.9278 20.9062H6.375C5.72 20.9062 5.16562 20.6794 4.71187 20.2256C4.25812 19.7719 4.03125 19.2175 4.03125 18.5625V15.8583H6.84375V3.09375H19.9688V11.0229C19.7283 11.0096 19.49 11.0243 19.2539 11.067C19.0177 11.1096 18.7872 11.1802 18.5625 11.2788V4.5H8.25V15.8583H13.5684L12.1622 17.2643H5.4375V18.5625C5.4375 18.8281 5.52734 19.0508 5.70703 19.2305C5.88672 19.4102 6.10938 19.5 6.375 19.5H11.9278V20.9062ZM13.9833 20.9062V18.4291L19.0727 13.3629C19.1893 13.2463 19.3155 13.1643 19.4513 13.1168C19.587 13.0695 19.7229 13.0458 19.8588 13.0458C20.0041 13.0458 20.1462 13.0734 20.2852 13.1285C20.4239 13.1838 20.5486 13.2668 20.6592 13.3774L21.5264 14.2535C21.6273 14.3702 21.7055 14.4965 21.7608 14.6323C21.8161 14.768 21.8438 14.9038 21.8438 15.0396C21.8438 15.1754 21.8185 15.3136 21.768 15.4542C21.7176 15.5948 21.637 15.7234 21.5264 15.84L16.4604 20.9062H13.9833ZM15.101 19.7885H15.9916L19.0348 16.7306L18.604 16.2853L18.1676 15.8456L15.101 18.8979V19.7885ZM18.604 16.2853L18.1676 15.8456L19.0348 16.7306L18.604 16.2853Z" fill="currentColor"/>
</svg>
