<svg width="24" height="24" viewBox="0 0 24 24" fill="none" xmlns="http://www.w3.org/2000/svg">
<g clip-path="url(#clip0_8478_285388)">
<path fill-rule="evenodd" clip-rule="evenodd" d="M9.18756 6.375H14.8126V15.8042L12.9834 17.625H9.18756V6.375ZM21.375 12.0378C21.3811 12.0437 21.3871 12.0497 21.3931 12.0557L22.9177 13.596C23.0952 13.8012 23.2325 14.0232 23.3298 14.2619C23.427 14.5006 23.4757 14.7393 23.4757 14.978C23.4757 15.2168 23.4313 15.4597 23.3426 15.707C23.3374 15.7214 23.332 15.7357 23.3265 15.75H25.125V8.25H21.375V12.0378ZM16.2189 14.4043L18.6039 12.0302C18.8088 11.8252 19.0306 11.681 19.2694 11.5975C19.5024 11.5163 19.7356 11.4747 19.9689 11.4727V8.25023H16.2189V14.4043ZM4.03125 8.25H7.78125V15.75H4.03125V8.25ZM-1.125 8.25H2.625V15.75H-1.125V8.25Z" fill="currentColor"/>
<path fill-rule="evenodd" clip-rule="evenodd" d="M13.9833 20.9064V18.4293L19.0727 13.363C19.1893 13.2464 19.3155 13.1644 19.4513 13.1169C19.587 13.0696 19.7229 13.0459 19.8588 13.0459C20.0041 13.0459 20.1462 13.0735 20.2852 13.1286C20.4239 13.1839 20.5486 13.2669 20.6592 13.3775L21.5264 14.2536C21.6273 14.3704 21.7055 14.4966 21.7608 14.6324C21.8161 14.7682 21.8438 14.9039 21.8438 15.0397C21.8438 15.1755 21.8185 15.3137 21.768 15.4543C21.7176 15.595 21.637 15.7236 21.5264 15.8401L16.4604 20.9064H13.9833ZM15.101 19.7885H15.9917L19.0348 16.7306L18.1676 15.8456L15.101 18.8978V19.7885Z" fill="currentColor"/>
</g>
<defs>
<clipPath id="clip0_8478_285388">
<rect width="22.5" height="22.5" fill="white" transform="matrix(-1 0 0 1 23.25 0.75)"/>
</clipPath>
</defs>
</svg>
