<svg width="25" height="24" viewBox="0 0 25 24" fill="none" xmlns="http://www.w3.org/2000/svg">
<path d="M4.6875 20C4.40417 20 4.16667 19.9042 3.975 19.7125C3.78333 19.5208 3.6875 19.2833 3.6875 19V18C3.6875 17.7167 3.78333 17.4792 3.975 17.2875C4.16667 17.0958 4.40417 17 4.6875 17C4.97083 17 5.20833 17.0958 5.4 17.2875C5.59167 17.4792 5.6875 17.7167 5.6875 18V19C5.6875 19.2833 5.59167 19.5208 5.4 19.7125C5.20833 19.9042 4.97083 20 4.6875 20ZM8.6875 20C8.40417 20 8.16667 19.9042 7.975 19.7125C7.78333 19.5208 7.6875 19.2833 7.6875 19V13.5C7.6875 13.2167 7.78333 12.9792 7.975 12.7875C8.16667 12.5958 8.40417 12.5 8.6875 12.5C8.97083 12.5 9.20833 12.5958 9.4 12.7875C9.59167 12.9792 9.6875 13.2167 9.6875 13.5V19C9.6875 19.2833 9.59167 19.5208 9.4 19.7125C9.20833 19.9042 8.97083 20 8.6875 20ZM12.6875 20C12.4042 20 12.1667 19.9042 11.975 19.7125C11.7833 19.5208 11.6875 19.2833 11.6875 19V15.5C11.6875 15.2167 11.7833 14.9792 11.975 14.7875C12.1667 14.5958 12.4042 14.5 12.6875 14.5C12.9708 14.5 13.2083 14.5958 13.4 14.7875C13.5917 14.9792 13.6875 15.2167 13.6875 15.5V19C13.6875 19.2833 13.5917 19.5208 13.4 19.7125C13.2083 19.9042 12.9708 20 12.6875 20ZM16.6875 20C16.4042 20 16.1667 19.9042 15.975 19.7125C15.7833 19.5208 15.6875 19.2833 15.6875 19V14C15.6875 13.7167 15.7833 13.4792 15.975 13.2875C16.1667 13.0958 16.4042 13 16.6875 13C16.9708 13 17.2083 13.0958 17.4 13.2875C17.5917 13.4792 17.6875 13.7167 17.6875 14V19C17.6875 19.2833 17.5917 19.5208 17.4 19.7125C17.2083 19.9042 16.9708 20 16.6875 20ZM20.6875 20C20.4042 20 20.1667 19.9042 19.975 19.7125C19.7833 19.5208 19.6875 19.2833 19.6875 19V9.99999C19.6875 9.71665 19.7833 9.47915 19.975 9.28749C20.1667 9.09582 20.4042 8.99999 20.6875 8.99999C20.9708 8.99999 21.2083 9.09582 21.4 9.28749C21.5917 9.47915 21.6875 9.71665 21.6875 9.99999V19C21.6875 19.2833 21.5917 19.5208 21.4 19.7125C21.2083 19.9042 20.9708 20 20.6875 20ZM14.6875 10.975C14.4208 10.975 14.1667 10.925 13.925 10.825C13.6833 10.725 13.4625 10.5833 13.2625 10.4L10.6875 7.82499L5.3875 13.125C5.1875 13.325 4.95 13.4208 4.675 13.4125C4.4 13.4042 4.1625 13.3 3.9625 13.1C3.77917 12.9 3.69167 12.6625 3.7 12.3875C3.70833 12.1125 3.80417 11.8833 3.9875 11.7L9.2625 6.42499C9.4625 6.22499 9.68333 6.07915 9.925 5.98749C10.1667 5.89582 10.4208 5.84999 10.6875 5.84999C10.9542 5.84999 11.2125 5.89582 11.4625 5.98749C11.7125 6.07915 11.9292 6.22499 12.1125 6.42499L14.6875 8.99999L19.9875 3.69999C20.1875 3.49999 20.425 3.40415 20.7 3.41249C20.975 3.42082 21.2125 3.52499 21.4125 3.72499C21.5958 3.92499 21.6833 4.16249 21.675 4.43749C21.6667 4.71249 21.5708 4.94165 21.3875 5.12499L16.1125 10.4C15.9292 10.5833 15.7125 10.725 15.4625 10.825C15.2125 10.925 14.9542 10.975 14.6875 10.975Z" fill="currentColor"/>
</svg>
