<svg width="25" height="24" viewBox="0 0 25 24" fill="none" xmlns="http://www.w3.org/2000/svg">
<path d="M8.74538 9.01029V20.0103H15.7454V17.0103C15.7454 16.727 15.8412 16.4895 16.0329 16.2978C16.2245 16.1061 16.462 16.0103 16.7454 16.0103H19.7454V9.01029H8.74538ZM6.74538 20.0103V8.98529C6.74538 8.43529 6.94537 7.96863 7.34538 7.58529C7.74538 7.20196 8.22038 7.01029 8.77038 7.01029H19.7454C20.2954 7.01029 20.7662 7.20613 21.1579 7.59779C21.5495 7.98946 21.7454 8.46029 21.7454 9.01029V16.1853C21.7454 16.452 21.6954 16.7061 21.5954 16.9478C21.4954 17.1895 21.3537 17.402 21.1704 17.5853L17.3204 21.4353C17.137 21.6186 16.9245 21.7603 16.6829 21.8603C16.4412 21.9603 16.187 22.0103 15.9204 22.0103H8.74538C8.19537 22.0103 7.72454 21.8145 7.33288 21.4228C6.94121 21.0311 6.74538 20.5603 6.74538 20.0103ZM1.77038 6.26029C1.67037 5.71029 1.77871 5.21446 2.09538 4.77279C2.41204 4.33113 2.84538 4.06029 3.39538 3.96029L14.2454 2.03529C14.7787 1.93529 15.262 2.04779 15.6954 2.37279C16.1287 2.69779 16.412 3.12696 16.5454 3.66029L16.7204 4.43529C16.8037 4.76863 16.7537 5.03529 16.5704 5.23529C16.387 5.43529 16.1704 5.55196 15.9204 5.58529C15.6704 5.61863 15.4329 5.57279 15.2079 5.44779C14.9829 5.32279 14.8287 5.09363 14.7454 4.76029L14.5704 4.01029L3.74538 5.93529L5.24538 14.5353C5.29538 14.8186 5.24538 15.0728 5.09538 15.2978C4.94538 15.5228 4.72871 15.6603 4.44538 15.7103C4.16204 15.7603 3.91204 15.7061 3.69538 15.5478C3.47871 15.3895 3.34537 15.1686 3.29537 14.8853L1.77038 6.26029Z" fill="currentColor"/>
</svg>
