<svg width="24" height="24" viewBox="0 0 24 24" fill="none" xmlns="http://www.w3.org/2000/svg">
<path d="M9.89419 9.51919V8.39419H16.3558V9.51919H9.89419ZM9.89419 11.6828V10.5578H16.3558V11.6828H9.89419ZM11.9423 19.125H7.5C6.976 19.125 6.5325 18.9435 6.1695 18.5805C5.8065 18.2175 5.625 17.774 5.625 17.25V15.0866H7.875V4.875H18.375V11.2183C18.1826 11.2077 17.992 11.2194 17.8031 11.2536C17.6141 11.2877 17.4298 11.3442 17.25 11.4231V6H9V15.0866H13.2547L12.1298 16.2114H6.75V17.25C6.75 17.4625 6.82188 17.6406 6.96563 17.7844C7.10938 17.9281 7.2875 18 7.5 18H11.9423V19.125ZM13.5866 19.125V17.1433L17.6582 13.0903C17.7514 12.9971 17.8524 12.9314 17.961 12.8934C18.0696 12.8556 18.1783 12.8366 18.2871 12.8366C18.4033 12.8366 18.517 12.8587 18.6281 12.9028C18.7391 12.9471 18.8389 13.0134 18.9274 13.1019L19.6211 13.8028C19.7019 13.8962 19.7644 13.9972 19.8086 14.1058C19.8529 14.2144 19.875 14.3231 19.875 14.4317C19.875 14.5403 19.8548 14.6509 19.8144 14.7634C19.7741 14.8759 19.7096 14.9788 19.6211 15.072L15.5683 19.125H13.5866ZM14.4808 18.2308H15.1933L17.6278 15.7845L17.2832 15.4282L16.9341 15.0765L14.4808 17.5183V18.2308ZM17.2832 15.4282L16.9341 15.0765L17.6278 15.7845L17.2832 15.4282Z" fill="currentColor"/>
</svg>
