<svg width="24" height="24" viewBox="0 0 24 24" fill="none" xmlns="http://www.w3.org/2000/svg">
<g clip-path="url(#clip0_6762_148727)">
<path d="M8.62768 18.6519C8.25643 18.6519 7.93858 18.5197 7.67413 18.2554C7.40983 17.991 7.27768 17.6731 7.27768 17.3019L7.27768 15.0521H9.87373V12.5769C9.32563 12.6219 8.7836 12.5547 8.24765 12.3753C7.7117 12.1959 7.24873 11.9066 6.85873 11.5074L6.85873 10.3788H5.70268L2.98535 7.66152C3.5138 7.08117 4.14088 6.66147 4.86658 6.40242C5.59243 6.14337 6.33148 6.01384 7.08373 6.01384C7.57468 6.01384 8.0519 6.06987 8.5154 6.18192C8.97905 6.29382 9.43183 6.47839 9.87373 6.73564V5.29047L19.7737 5.29047V16.4019C19.7737 17.0308 19.5559 17.563 19.1203 17.9985C18.6847 18.4341 18.1525 18.6519 17.5237 18.6519H8.62768ZM11.2237 15.0521H16.6237V16.4019C16.6237 16.6569 16.71 16.8706 16.8825 17.0431C17.055 17.2156 17.2687 17.3019 17.5237 17.3019C17.7787 17.3019 17.9925 17.2156 18.165 17.0431C18.3375 16.8706 18.4237 16.6569 18.4237 16.4019V6.64047L11.2237 6.64047V7.63047L16.3987 12.8055V13.7538H15.4504L12.7987 11.1024L12.4543 11.4467C12.2617 11.6394 12.0649 11.8068 11.8641 11.9487C11.6634 12.0906 11.4499 12.2065 11.2237 12.2965L11.2237 15.0521ZM6.2771 9.02884H8.20873V10.8774C8.45218 11.0321 8.68873 11.1376 8.91838 11.194C9.14803 11.2506 9.37768 11.2788 9.60733 11.2788C9.98458 11.2788 10.3264 11.2177 10.6327 11.0955C10.939 10.9732 11.2329 10.7713 11.5144 10.4898L11.8504 10.1538L10.4344 8.73814C9.97633 8.28004 9.46288 7.93647 8.89408 7.70742C8.32528 7.47837 7.72183 7.36384 7.08373 7.36384C6.71443 7.36384 6.35878 7.40367 6.01678 7.48332C5.67463 7.56297 5.35408 7.67089 5.05513 7.80709L6.2771 9.02884ZM15.2737 16.4019H8.62768V17.3019H15.478C15.4042 17.1727 15.3517 17.0322 15.3205 16.8802C15.2893 16.7284 15.2737 16.569 15.2737 16.4019Z" fill="white"/>
</g>
<defs>
<clipPath id="clip0_6762_148727">
<rect width="18" height="18" fill="white" transform="translate(3 3)"/>
</clipPath>
</defs>
</svg>
