<svg width="24" height="25" viewBox="0 0 24 25" fill="none" xmlns="http://www.w3.org/2000/svg">
<g clip-path="url(#clip0_10325_4985)">
<path d="M7.50357 21.7449C7.00857 21.7449 6.58477 21.5687 6.23217 21.2163C5.87977 20.8637 5.70357 20.4399 5.70357 19.9449V16.9452H9.16497V13.6449C8.43417 13.7049 7.71147 13.6153 6.99687 13.3761C6.28227 13.1369 5.66497 12.7512 5.14497 12.219V10.7142H3.60357L-0.0195312 7.09109C0.685069 6.31729 1.52117 5.75769 2.48877 5.41229C3.45657 5.06689 4.44197 4.89419 5.44497 4.89419C6.09957 4.89419 6.73587 4.96889 7.35387 5.11829C7.97207 5.26749 8.57577 5.51359 9.16497 5.85659V3.92969H22.365V18.7449C22.365 19.5835 22.0746 20.2931 21.4938 20.8737C20.913 21.4545 20.2034 21.7449 19.365 21.7449H7.50357ZM10.965 16.9452H18.165V18.7449C18.165 19.0849 18.28 19.3699 18.51 19.5999C18.74 19.8299 19.025 19.9449 19.365 19.9449C19.705 19.9449 19.99 19.8299 20.22 19.5999C20.45 19.3699 20.565 19.0849 20.565 18.7449V5.72969H10.965V7.04969L17.865 13.9497V15.2142H16.6005L13.065 11.679L12.6057 12.138C12.3489 12.395 12.0866 12.6181 11.8188 12.8073C11.5512 12.9965 11.2666 13.1511 10.965 13.2711V16.9452ZM4.36947 8.91419H6.94497V11.379C7.26957 11.5852 7.58497 11.7259 7.89117 11.8011C8.19737 11.8765 8.50357 11.9142 8.80977 11.9142C9.31277 11.9142 9.76847 11.8327 10.1769 11.6697C10.5853 11.5067 10.9772 11.2375 11.3526 10.8621L11.8005 10.4142L9.91257 8.52659C9.30177 7.91579 8.61717 7.45769 7.85877 7.15229C7.10037 6.84689 6.29577 6.69419 5.44497 6.69419C4.95257 6.69419 4.47837 6.74729 4.02237 6.85349C3.56617 6.95969 3.13877 7.10359 2.74017 7.28519L4.36947 8.91419ZM16.365 18.7449H7.50357V19.9449H16.6374C16.539 19.7727 16.469 19.5853 16.4274 19.3827C16.3858 19.1803 16.365 18.9677 16.365 18.7449Z" fill="currentColor"/>
</g>
<defs>
<clipPath id="clip0_10325_4985">
<rect width="24" height="24" fill="white" transform="translate(0 0.875)"/>
</clipPath>
</defs>
</svg>
