<svg width="25" height="24" viewBox="0 0 25 24" fill="none" xmlns="http://www.w3.org/2000/svg">
<path d="M18.4974 22.2477L13.8588 17.609L14.9245 16.5585L17.7498 19.384V12.127H19.2449V19.384L22.0704 16.5585L23.136 17.609L18.4974 22.2477Z" fill="white"/>
<path fill-rule="evenodd" clip-rule="evenodd" d="M4.82419 17.9542C5.17306 18.3031 5.59925 18.4775 6.10277 18.4775H12.6486V16.9824H6.10277C6.02602 16.9824 5.95575 16.9504 5.89196 16.8865C5.828 16.8227 5.79602 16.7524 5.79602 16.6757V5.32823C5.79602 5.25148 5.828 5.18121 5.89196 5.11742C5.95575 5.05346 6.02602 5.02148 6.10277 5.02148H17.4502C17.527 5.02148 17.5972 5.05346 17.661 5.11742C17.725 5.18121 17.757 5.25148 17.757 5.32823V10.6282H19.2521V5.32823C19.2521 4.82471 19.0776 4.39852 18.7288 4.04966C18.3799 3.7008 17.9537 3.52637 17.4502 3.52637H6.10277C5.59925 3.52637 5.17306 3.7008 4.82419 4.04966C4.47533 4.39852 4.3009 4.82471 4.3009 5.32823V16.6757C4.3009 17.1792 4.47533 17.6054 4.82419 17.9542Z" fill="white"/>
<path fill-rule="evenodd" clip-rule="evenodd" d="M7.86613 13.437H8.8245C9.07501 13.437 9.28458 13.3527 9.4532 13.184C9.62198 13.0153 9.70637 12.8057 9.70637 12.5553V9.44998C9.70637 9.19963 9.62198 8.99007 9.4532 8.82128C9.28458 8.65267 9.07501 8.56836 8.8245 8.56836H7.86613C7.31564 8.56836 6.86938 9.01462 6.86938 9.5651V12.4402C6.86938 12.9907 7.31564 13.437 7.86613 13.437ZM7.75103 12.5551V9.44976H8.82452V12.5551H7.75103Z" fill="white"/>
<path fill-rule="evenodd" clip-rule="evenodd" d="M13.8588 13.437H14.7404V11.4435H15.8523C16.1026 11.4435 16.3122 11.3592 16.481 11.1905C16.6496 11.0218 16.7339 10.8122 16.7339 10.5618V9.44998C16.7339 9.19963 16.6496 8.99007 16.481 8.82128C16.3122 8.65267 16.1026 8.56836 15.8523 8.56836H13.8588V13.437ZM14.7404 10.5616V9.44976H15.8523V10.5616H14.7404Z" fill="white"/>
<path d="M12.3193 13.437H11.3609C10.8104 13.437 10.3641 12.9907 10.3641 12.4402V9.5651C10.3641 9.01462 10.8104 8.56836 11.3609 8.56836H12.3193C12.5698 8.56836 12.7793 8.65267 12.9479 8.82128C13.1167 8.99007 13.2011 9.19963 13.2011 9.44998V10.0974H12.3193V9.44976H11.2458V12.5551H12.3193V11.9079H13.2011V12.5553C13.2011 12.8057 13.1167 13.0153 12.9479 13.184C12.7793 13.3527 12.5698 13.437 12.3193 13.437Z" fill="white"/>
<path d="M14.9624 10.5664H15.8384L17.0377 13.4364H16.1616L14.9624 10.5664Z" fill="white"/>
</svg>
