<svg width="24" height="24" viewBox="0 0 24 24" fill="none" xmlns="http://www.w3.org/2000/svg">
<path fill-rule="evenodd" clip-rule="evenodd" d="M12 4.73584L2.75684 20.7573H21.2431L12 4.73584ZM12 7.87118L5.5137 19.1141H18.4862L12 7.87118Z" fill="#14B8A6"/>
<path fill-rule="evenodd" clip-rule="evenodd" d="M12 1.6001L24 22.4001H0L12 1.6001ZM12 4.73544L21.2431 20.7569H2.75686L12 4.73544ZM18.4863 19.1137L12 7.87078L5.51373 19.1137H18.4863ZM8.27059 17.4704H15.7294L12 11.0061L8.27059 17.4704Z" fill="white"/>
<mask id="path-3-outside-1_12027_12636" maskUnits="userSpaceOnUse" x="4" y="6" width="16" height="12" fill="black">
<rect fill="white" x="4" y="6" width="16" height="12"/>
<path d="M8.58691 14.9697V13.1094H6.71191V11.8252H8.58691V9.96484H9.83691V11.8252H11.7168V13.1094H9.83691V14.9697H8.58691ZM17.1953 14.7256V16H12.3857C12.4378 15.5182 12.5941 15.0625 12.8545 14.6328C13.1149 14.1999 13.6292 13.627 14.3975 12.9141C15.016 12.3379 15.3952 11.9473 15.5352 11.7422C15.724 11.459 15.8184 11.179 15.8184 10.9023C15.8184 10.5964 15.7354 10.362 15.5693 10.1992C15.4066 10.0332 15.1803 9.9502 14.8906 9.9502C14.6042 9.9502 14.3763 10.0365 14.207 10.209C14.0378 10.3815 13.9401 10.668 13.9141 11.0684L12.5469 10.9316C12.6283 10.1764 12.8838 9.63444 13.3135 9.30566C13.7432 8.97689 14.2803 8.8125 14.9248 8.8125C15.6312 8.8125 16.1862 9.00293 16.5898 9.38379C16.9935 9.76465 17.1953 10.2383 17.1953 10.8047C17.1953 11.127 17.1367 11.4346 17.0195 11.7275C16.9056 12.0173 16.7233 12.3216 16.4727 12.6406C16.3066 12.8522 16.0072 13.1566 15.5742 13.5537C15.1413 13.9508 14.8662 14.2145 14.749 14.3447C14.6351 14.4749 14.5423 14.6019 14.4707 14.7256H17.1953Z"/>
</mask>
<path d="M8.58691 14.9697V13.1094H6.71191V11.8252H8.58691V9.96484H9.83691V11.8252H11.7168V13.1094H9.83691V14.9697H8.58691ZM17.1953 14.7256V16H12.3857C12.4378 15.5182 12.5941 15.0625 12.8545 14.6328C13.1149 14.1999 13.6292 13.627 14.3975 12.9141C15.016 12.3379 15.3952 11.9473 15.5352 11.7422C15.724 11.459 15.8184 11.179 15.8184 10.9023C15.8184 10.5964 15.7354 10.362 15.5693 10.1992C15.4066 10.0332 15.1803 9.9502 14.8906 9.9502C14.6042 9.9502 14.3763 10.0365 14.207 10.209C14.0378 10.3815 13.9401 10.668 13.9141 11.0684L12.5469 10.9316C12.6283 10.1764 12.8838 9.63444 13.3135 9.30566C13.7432 8.97689 14.2803 8.8125 14.9248 8.8125C15.6312 8.8125 16.1862 9.00293 16.5898 9.38379C16.9935 9.76465 17.1953 10.2383 17.1953 10.8047C17.1953 11.127 17.1367 11.4346 17.0195 11.7275C16.9056 12.0173 16.7233 12.3216 16.4727 12.6406C16.3066 12.8522 16.0072 13.1566 15.5742 13.5537C15.1413 13.9508 14.8662 14.2145 14.749 14.3447C14.6351 14.4749 14.5423 14.6019 14.4707 14.7256H17.1953Z" fill="#14B8A6"/>
<path d="M8.58691 14.9697H6.58691V16.9697H8.58691V14.9697ZM8.58691 13.1094H10.5869V11.1094H8.58691V13.1094ZM6.71191 13.1094H4.71191V15.1094H6.71191V13.1094ZM6.71191 11.8252V9.8252H4.71191V11.8252H6.71191ZM8.58691 11.8252V13.8252H10.5869V11.8252H8.58691ZM8.58691 9.96484V7.96484H6.58691V9.96484H8.58691ZM9.83691 9.96484H11.8369V7.96484H9.83691V9.96484ZM9.83691 11.8252H7.83691V13.8252H9.83691V11.8252ZM11.7168 11.8252H13.7168V9.8252H11.7168V11.8252ZM11.7168 13.1094V15.1094H13.7168V13.1094H11.7168ZM9.83691 13.1094V11.1094H7.83691V13.1094H9.83691ZM9.83691 14.9697V16.9697H11.8369V14.9697H9.83691ZM10.5869 14.9697V13.1094H6.58691V14.9697H10.5869ZM8.58691 11.1094H6.71191V15.1094H8.58691V11.1094ZM8.71191 13.1094V11.8252H4.71191V13.1094H8.71191ZM6.71191 13.8252H8.58691V9.8252H6.71191V13.8252ZM10.5869 11.8252V9.96484H6.58691V11.8252H10.5869ZM8.58691 11.9648H9.83691V7.96484H8.58691V11.9648ZM7.83691 9.96484V11.8252H11.8369V9.96484H7.83691ZM9.83691 13.8252H11.7168V9.8252H9.83691V13.8252ZM9.7168 11.8252V13.1094H13.7168V11.8252H9.7168ZM11.7168 11.1094H9.83691V15.1094H11.7168V11.1094ZM7.83691 13.1094V14.9697H11.8369V13.1094H7.83691ZM9.83691 12.9697H8.58691V16.9697H9.83691V12.9697ZM17.1953 14.7256H19.1953V12.7256H17.1953V14.7256ZM17.1953 16V18H19.1953V16H17.1953ZM12.3857 16L10.3973 15.785L10.1579 18H12.3857V16ZM12.8545 14.6328L14.5649 15.6694L14.5683 15.6637L12.8545 14.6328ZM14.3975 12.9141L15.7579 14.3801L15.7607 14.3775L14.3975 12.9141ZM15.5352 11.7422L17.1871 12.8697L17.1932 12.8607L17.1993 12.8516L15.5352 11.7422ZM15.5693 10.1992L14.1412 11.5994L14.1551 11.6135L14.1692 11.6274L15.5693 10.1992ZM13.9141 11.0684L13.7151 13.0584L15.7755 13.2645L15.9098 11.1982L13.9141 11.0684ZM12.5469 10.9316L10.5584 10.7174L10.3425 12.7212L12.3479 12.9217L12.5469 10.9316ZM17.0195 11.7275L15.1625 10.9847L15.1583 10.9956L17.0195 11.7275ZM16.4727 12.6406L14.9 11.405L14.8992 11.4061L16.4727 12.6406ZM15.5742 13.5537L16.9262 15.0276L15.5742 13.5537ZM14.749 14.3447L13.2624 13.0068L13.2531 13.0172L13.2439 13.0277L14.749 14.3447ZM14.4707 14.7256L12.7399 13.7235L11.0018 16.7256H14.4707V14.7256ZM15.1953 14.7256V16H19.1953V14.7256H15.1953ZM17.1953 14H12.3857V18H17.1953V14ZM14.3742 16.215C14.3936 16.0349 14.4504 15.8583 14.5649 15.6694L11.1441 13.5962C10.7378 14.2667 10.482 15.0015 10.3973 15.785L14.3742 16.215ZM14.5683 15.6637C14.6754 15.4858 15.0127 15.0716 15.7579 14.3801L13.037 11.448C12.2457 12.1823 11.5545 12.914 11.1406 13.6019L14.5683 15.6637ZM15.7607 14.3775C16.3359 13.8416 16.8968 13.2949 17.1871 12.8697L13.8833 10.6147C13.9106 10.5746 13.9172 10.5713 13.8776 10.6167C13.8431 10.6563 13.7892 10.715 13.7108 10.7958C13.5535 10.9579 13.3307 11.1744 13.0342 11.4507L15.7607 14.3775ZM17.1993 12.8516C17.5563 12.316 17.8184 11.6564 17.8184 10.9023H13.8184C13.8184 10.8091 13.8349 10.7327 13.8524 10.6808C13.869 10.6315 13.8826 10.6155 13.8711 10.6328L17.1993 12.8516ZM17.8184 10.9023C17.8184 10.2359 17.6293 9.41797 16.9695 8.77107L14.1692 11.6274C14.0198 11.4809 13.9238 11.3143 13.8708 11.1648C13.8212 11.0246 13.8184 10.9263 13.8184 10.9023H17.8184ZM16.9975 8.79908C16.3706 8.15963 15.5774 7.9502 14.8906 7.9502V11.9502C14.8466 11.9502 14.7358 11.944 14.5887 11.8901C14.4335 11.8331 14.2754 11.7362 14.1412 11.5994L16.9975 8.79908ZM14.8906 7.9502C14.1743 7.9502 13.3938 8.18214 12.7794 8.8083L15.6346 11.6097C15.5146 11.732 15.3678 11.8267 15.213 11.8853C15.0647 11.9415 14.9477 11.9502 14.8906 11.9502V7.9502ZM12.7794 8.8083C12.1146 9.48594 11.9564 10.3528 11.9183 10.9386L15.9098 11.1982C15.9149 11.1203 15.9228 11.1313 15.8999 11.1986C15.8758 11.2692 15.8058 11.4352 15.6346 11.6097L12.7794 8.8083ZM14.1131 9.07829L12.7459 8.94157L12.3479 12.9217L13.7151 13.0584L14.1131 9.07829ZM14.5354 11.1459C14.5583 10.9332 14.5973 10.8356 14.6086 10.8116C14.6133 10.8016 14.6105 10.8101 14.5956 10.829C14.5801 10.8487 14.5576 10.872 14.5288 10.894L12.0981 7.71729C11.0817 8.49501 10.6742 9.64234 10.5584 10.7174L14.5354 11.1459ZM14.5288 10.894C14.5464 10.8806 14.6328 10.8125 14.9248 10.8125V6.8125C13.9278 6.8125 12.9399 7.07319 12.0981 7.71729L14.5288 10.894ZM14.9248 10.8125C15.1008 10.8125 15.1908 10.8364 15.2218 10.8471C15.2455 10.8552 15.2345 10.8547 15.2173 10.8385L17.9624 7.92911C17.0941 7.10983 15.9966 6.8125 14.9248 6.8125V10.8125ZM15.2173 10.8385C15.2278 10.8484 15.228 10.8503 15.2229 10.8431C15.2175 10.8356 15.2104 10.8237 15.204 10.8087C15.1977 10.7938 15.1949 10.7826 15.1941 10.7783C15.1933 10.7744 15.1953 10.7822 15.1953 10.8047H19.1953C19.1953 9.70054 18.7758 8.69656 17.9624 7.92911L15.2173 10.8385ZM15.1953 10.8047C15.1953 10.8781 15.1832 10.9331 15.1626 10.9848L18.8765 12.4703C19.0902 11.936 19.1953 11.3758 19.1953 10.8047H15.1953ZM15.1583 10.9956C15.1333 11.059 15.0647 11.1953 14.9 11.405L18.0453 13.8763C18.3819 13.4479 18.6779 12.9755 18.8808 12.4595L15.1583 10.9956ZM14.8992 11.4061C14.8413 11.4799 14.6461 11.6911 14.2223 12.0799L16.9262 15.0276C17.3682 14.6221 17.772 14.2245 18.0461 13.8752L14.8992 11.4061ZM14.2223 12.0799C13.807 12.4608 13.456 12.7917 13.2624 13.0068L16.2356 15.6827C16.2333 15.6852 16.2464 15.6708 16.2837 15.6333C16.3186 15.5982 16.3658 15.5519 16.4272 15.4931C16.5501 15.3753 16.7154 15.2209 16.9262 15.0276L14.2223 12.0799ZM13.2439 13.0277C13.0618 13.2358 12.8882 13.4673 12.7399 13.7235L16.2016 15.7277C16.1965 15.7365 16.2084 15.7141 16.2542 15.6617L13.2439 13.0277ZM14.4707 16.7256H17.1953V12.7256H14.4707V16.7256Z" fill="white" mask="url(#path-3-outside-1_12027_12636)"/>
</svg>
