<svg width="25" height="24" viewBox="0 0 25 24" fill="none" xmlns="http://www.w3.org/2000/svg">
    <path
        d="M6.97425 21.5C6.46909 21.5 6.0415 21.325 5.6915 20.975C5.3415 20.625 5.1665 20.1974 5.1665 19.6923V4.30775C5.1665 3.80258 5.3415 3.375 5.6915 3.025C6.0415 2.675 6.46909 2.5 6.97425 2.5H16.9165L20.1665 5.75V19.6923C20.1665 20.1974 19.9915 20.625 19.6415 20.975C19.2915 21.325 18.8639 21.5 18.3588 21.5H6.97425ZM16.1665 6.5V4H6.97425C6.89725 4 6.82675 4.03208 6.76275 4.09625C6.69859 4.16025 6.6665 4.23075 6.6665 4.30775V19.6923C6.6665 19.7693 6.69859 19.8398 6.76275 19.9038C6.82675 19.9679 6.89725 20 6.97425 20H18.3588C18.4358 20 18.5063 19.9679 18.5703 19.9038C18.6344 19.8398 18.6665 19.7693 18.6665 19.6923V6.5H16.1665Z"
        fill="white" />
    <path d="M8.20605 5.54736L12.4487 9.79" stroke="white" />
    <path d="M11.0343 5.54727H8.2059V8.3757" stroke="white" />
    <path d="M17.1143 18.4377L12.8716 14.1951" stroke="white" />
    <path d="M14.2857 18.4378L17.1142 18.4378L17.1142 15.6094" stroke="white" />
</svg>