<svg width="24" height="25" viewBox="0 0 24 25" fill="none" xmlns="http://www.w3.org/2000/svg">
    <path d="M7.01928 20.4375C6.57726 20.4375 6.20312 20.2844 5.89688 19.9781C5.59063 19.6719 5.4375 19.2977 5.4375 18.8557V5.39428C5.4375 4.95226 5.59063 4.57813 5.89688 4.27188C6.20312 3.96563 6.57726 3.8125 7.01928 3.8125H15.7188L18.5625 6.65625V18.8557C18.5625 19.2977 18.4094 19.6719 18.1031 19.9781C17.7969 20.2844 17.4227 20.4375 16.9807 20.4375H7.01928ZM15.0625 7.3125V5.125H7.01928C6.95191 5.125 6.89022 5.15307 6.83422 5.20922C6.77807 5.26522 6.75 5.32691 6.75 5.39428V18.8557C6.75 18.9231 6.77807 18.9848 6.83422 19.0408C6.89022 19.0969 6.95191 19.125 7.01928 19.125H16.9807C17.0481 19.125 17.1098 19.0969 17.1658 19.0408C17.2219 18.9848 17.25 18.9231 17.25 18.8557V7.3125H15.0625Z" fill="currentColor"/>
    <path fill-rule="evenodd" clip-rule="evenodd" d="M10.8728 9.76628L7.93386 6.82737L8.3979 6.36333L11.3368 9.30224L10.8728 9.76628Z" fill="currentColor"/>
    <path fill-rule="evenodd" clip-rule="evenodd" d="M8.49401 6.92347L8.49401 9.07022L7.83776 9.07022L7.83776 6.26722L10.6408 6.26722V6.92347L8.49401 6.92347Z" fill="currentColor"/>
    <path fill-rule="evenodd" clip-rule="evenodd" d="M13.3196 14.7303L16.2585 17.6692L15.7945 18.1333L12.8556 15.1943L13.3196 14.7303Z" fill="currentColor"/>
    <path fill-rule="evenodd" clip-rule="evenodd" d="M15.6984 17.5731L15.6984 15.4264L16.3546 15.4264L16.3546 18.2294L13.5516 18.2294V17.5731L15.6984 17.5731Z" fill="currentColor"/>
</svg>
