<svg width="25" height="24" viewBox="0 0 25 24" fill="none" xmlns="http://www.w3.org/2000/svg">
<path d="M18.6016 22.2477L13.963 17.609L15.0288 16.5585L17.8541 19.384V12.127H19.3492V19.384L22.1747 16.5585L23.2402 17.609L18.6016 22.2477Z" fill="white"/>
<path fill-rule="evenodd" clip-rule="evenodd" d="M7.85538 13.4363H6.97376V8.56765H8.96725C9.2176 8.56765 9.42717 8.65196 9.59595 8.82058C9.76457 8.98936 9.84887 9.19893 9.84887 9.44927V10.5611C9.84887 10.8115 9.76457 11.0211 9.59595 11.1898C9.42717 11.3585 9.2176 11.4428 8.96725 11.4428H7.85538V13.4363ZM7.85538 9.44927V10.5611H8.96725V9.44927H7.85538ZM12.8199 13.4363H10.8648V8.56765H12.8199C13.0704 8.56765 13.28 8.65196 13.4486 8.82058C13.6174 8.98936 13.7018 9.19893 13.7018 9.44927V12.5546C13.7018 12.805 13.6174 13.0145 13.4486 13.1833C13.28 13.3519 13.0704 13.4363 12.8199 13.4363ZM11.7464 9.44927V12.5546H12.8199V9.44927H11.7464ZM15.6953 13.4363H14.8134V8.56765H16.8836V9.44927H15.6953V10.5611H16.8836V11.4428H15.6953V13.4363ZM4.92844 17.9542C5.2773 18.3031 5.70349 18.4775 6.20702 18.4775H12.7529V16.9824H6.20702C6.13027 16.9824 6.06 16.9504 5.99621 16.8865C5.93225 16.8227 5.90027 16.7524 5.90027 16.6757V5.32823C5.90027 5.25148 5.93225 5.18121 5.99621 5.11742C6.06 5.05346 6.13027 5.02148 6.20702 5.02148H17.5545C17.6312 5.02148 17.7015 5.05346 17.7653 5.11742C17.8292 5.18121 17.8612 5.25148 17.8612 5.32823V10.6282H19.3563V5.32823C19.3563 4.82471 19.1819 4.39852 18.833 4.04966C18.4842 3.7008 18.058 3.52637 17.5545 3.52637H6.20702C5.70349 3.52637 5.2773 3.7008 4.92844 4.04966C4.57958 4.39852 4.40515 4.82471 4.40515 5.32823V16.6757C4.40515 17.1792 4.57958 17.6054 4.92844 17.9542Z" fill="white"/>
</svg>
