<svg width="24" height="24" viewBox="0 0 24 24" fill="none" xmlns="http://www.w3.org/2000/svg">
    <g clip-path="url(#clip0_12782_21756)">
        <path d="M7.50357 20.8689C7.00857 20.8689 6.58477 20.6927 6.23217 20.3403C5.87977 19.9877 5.70357 19.5639 5.70357 19.0689V16.0692H9.16497V12.7689C8.43417 12.8289 7.71147 12.7393 6.99687 12.5001C6.28227 12.2609 5.66497 11.8752 5.14497 11.343V9.83821H3.60357L-0.0195312 6.21511C0.685069 5.44131 1.52117 4.88171 2.48877 4.53631C3.45657 4.19091 4.44197 4.01821 5.44497 4.01821C6.09957 4.01821 6.73587 4.09291 7.35387 4.24231C7.97207 4.39151 8.57577 4.63761 9.16497 4.98061V3.05371H22.365V17.8689C22.365 18.7075 22.0746 19.4171 21.4938 19.9977C20.913 20.5785 20.2034 20.8689 19.365 20.8689H7.50357ZM10.965 16.0692H18.165V17.8689C18.165 18.2089 18.28 18.4939 18.51 18.7239C18.74 18.9539 19.025 19.0689 19.365 19.0689C19.705 19.0689 19.99 18.9539 20.22 18.7239C20.45 18.4939 20.565 18.2089 20.565 17.8689V4.85371H10.965V6.17371L17.865 13.0737V14.3382H16.6005L13.065 10.803L12.6057 11.262C12.3489 11.519 12.0866 11.7421 11.8188 11.9313C11.5512 12.1205 11.2666 12.2751 10.965 12.3951V16.0692ZM4.36947 8.03821H6.94497V10.503C7.26957 10.7092 7.58497 10.8499 7.89117 10.9251C8.19737 11.0005 8.50357 11.0382 8.80977 11.0382C9.31277 11.0382 9.76847 10.9567 10.1769 10.7937C10.5853 10.6307 10.9772 10.3615 11.3526 9.98611L11.8005 9.53821L9.91257 7.65061C9.30177 7.03981 8.61717 6.58171 7.85877 6.27631C7.10037 5.97091 6.29577 5.81821 5.44497 5.81821C4.95257 5.81821 4.47837 5.87131 4.02237 5.97751C3.56617 6.08371 3.13877 6.22761 2.74017 6.40921L4.36947 8.03821ZM16.365 17.8689H7.50357V19.0689H16.6374C16.539 18.8967 16.469 18.7093 16.4274 18.5067C16.3858 18.3043 16.365 18.0917 16.365 17.8689Z" fill="currentColor"/>
    </g>
    <defs>
        <clipPath id="clip0_12782_21756">
            <rect width="24" height="24" fill="currentColor"/>
        </clipPath>
    </defs>
</svg>
