<svg width="24" height="24" viewBox="0 0 24 24" fill="none" xmlns="http://www.w3.org/2000/svg">
<path d="M16.0001 8.30774V5.30774H8.00007V8.30774H6.50007V3.80774H17.5001V8.30774H16.0001ZM17.8078 12.3077C18.0912 12.3077 18.3287 12.2119 18.5203 12.0202C18.712 11.8286 18.8078 11.5911 18.8078 11.3077C18.8078 11.0244 18.712 10.7869 18.5203 10.5952C18.3287 10.4036 18.0912 10.3077 17.8078 10.3077C17.5245 10.3077 17.287 10.4036 17.0953 10.5952C16.9037 10.7869 16.8078 11.0244 16.8078 11.3077C16.8078 11.5911 16.9037 11.8286 17.0953 12.0202C17.287 12.2119 17.5245 12.3077 17.8078 12.3077ZM16.0001 19V14.7307H8.00007V19H16.0001ZM17.5001 20.5H6.50007V16.5H2.78857V10.8077C2.78857 10.0994 3.03057 9.50566 3.51457 9.02649C3.99857 8.54732 4.58991 8.30774 5.28857 8.30774H18.7116C19.4199 8.30774 20.0137 8.54732 20.4928 9.02649C20.972 9.50566 21.2116 10.0994 21.2116 10.8077V16.5H17.5001V20.5ZM19.7116 15V10.8077C19.7116 10.5244 19.6157 10.2869 19.4241 10.0952C19.2324 9.90357 18.9949 9.80774 18.7116 9.80774H5.28857C5.00524 9.80774 4.76774 9.90357 4.57607 10.0952C4.38441 10.2869 4.28857 10.5244 4.28857 10.8077V15H6.50007V13.2307H17.5001V15H19.7116Z" fill="white"/>
</svg>
