<svg width="24" height="24" viewBox="0 0 24 24" fill="none" xmlns="http://www.w3.org/2000/svg">
<path d="M12.9756 15.0527H10.7344C10.7285 14.7305 10.7256 14.5342 10.7256 14.4639C10.7256 13.7373 10.8457 13.1396 11.0859 12.6709C11.3262 12.2021 11.8066 11.6748 12.5273 11.0889C13.248 10.5029 13.6787 10.1191 13.8193 9.9375C14.0361 9.65039 14.1445 9.33398 14.1445 8.98828C14.1445 8.50781 13.9512 8.09766 13.5645 7.75781C13.1836 7.41211 12.668 7.23926 12.0176 7.23926C11.3906 7.23926 10.8662 7.41797 10.4443 7.77539C10.0225 8.13281 9.73242 8.67773 9.57422 9.41016L7.30664 9.12891C7.37109 8.08008 7.81641 7.18945 8.64258 6.45703C9.47461 5.72461 10.5645 5.3584 11.9121 5.3584C13.3301 5.3584 14.458 5.73047 15.2959 6.47461C16.1338 7.21289 16.5527 8.07422 16.5527 9.05859C16.5527 9.60352 16.3975 10.1191 16.0869 10.6055C15.7822 11.0918 15.126 11.7539 14.1182 12.5918C13.5967 13.0254 13.2715 13.374 13.1426 13.6377C13.0195 13.9014 12.9639 14.373 12.9756 15.0527ZM10.7344 18.375V15.9053H13.2041V18.375H10.7344Z" fill="currentColor"/>
</svg>
