<svg width="24" height="25" viewBox="0 0 24 25" fill="none" xmlns="http://www.w3.org/2000/svg">
<path d="M5.1155 19.3845V21C4.67117 21 4.29083 20.8418 3.9745 20.5255C3.65817 20.2092 3.5 19.8288 3.5 19.3845H5.1155ZM3.5 17.1538L3.5 15.5385H5.1155V17.1538H3.5ZM3.5 13.3077L3.5 11.6923H5.1155V13.3077H3.5ZM3.5 9.4615L3.5 7.84625H5.1155L5.1155 9.4615H3.5ZM5.1155 5.6155H3.5C3.5 5.17117 3.65817 4.79083 3.9745 4.4745C4.29083 4.15817 4.67117 4 5.1155 4V5.6155ZM7.34625 21V19.3845H8.9615V21H7.34625ZM7.34625 5.6155V4L8.9615 4V5.6155L7.34625 5.6155ZM11.1923 21V19.3845H12.8077V21H11.1923ZM11.1923 5.6155V4L12.8077 4V5.6155H11.1923ZM15.0385 21V19.3845H16.6538V21H15.0385ZM15.0385 5.6155V4L16.6538 4V5.6155H15.0385ZM18.8845 19.3845H20.5C20.5 19.8288 20.3418 20.2092 20.0255 20.5255C19.7092 20.8418 19.3288 21 18.8845 21V19.3845ZM18.8845 17.1538V15.5385H20.5V17.1538H18.8845ZM18.8845 13.3077V11.6923H20.5V13.3077H18.8845ZM18.8845 9.4615V7.84625H20.5V9.4615H18.8845ZM18.8845 5.6155V4C19.3288 4 19.7092 4.15817 20.0255 4.4745C20.3418 4.79083 20.5 5.17117 20.5 5.6155H18.8845Z" fill="white"/>
<path d="M7.19226 11.6924V13.3079L16.8078 13.3079V11.6924L7.19226 11.6924Z" fill="white"/>
<path d="M11.1921 17.3076L12.8076 17.3076L12.8076 7.69212L11.1921 7.69212L11.1921 17.3076Z" fill="white"/>
</svg>
