<svg width="24" height="24" viewBox="0 0 24 24" fill="none" xmlns="http://www.w3.org/2000/svg">
<path d="M18.7183 13.6515L13.6515 18.7183C13.5153 18.8538 13.3619 18.9555 13.1916 19.0234C13.0212 19.0911 12.8513 19.125 12.6819 19.125C12.5124 19.125 12.3429 19.0911 12.1734 19.0234C12.0039 18.9555 11.8514 18.8538 11.7159 18.7183L5.27025 12.2798C5.14238 12.1568 5.0445 12.0124 4.97662 11.8466C4.90887 11.6809 4.875 11.5065 4.875 11.3235L4.875 6.23794C4.875 5.86319 5.00744 5.54231 5.27231 5.27531C5.53731 5.00844 5.85919 4.875 6.23794 4.875L11.3235 4.875C11.5046 4.875 11.6801 4.91175 11.8498 4.98525C12.0197 5.05863 12.1669 5.15744 12.2914 5.28169L18.7183 11.7203C18.8557 11.8565 18.9559 12.0098 19.0189 12.18C19.0819 12.3504 19.1134 12.5212 19.1134 12.6924C19.1134 12.8637 19.0819 13.0321 19.0189 13.1976C18.9559 13.3632 18.8557 13.5145 18.7183 13.6515ZM12.8496 17.9278L17.9164 12.861C17.9644 12.813 17.9884 12.7565 17.9884 12.6915C17.9884 12.6266 17.9644 12.5702 17.9164 12.5222L11.4058 6.00713L6.23794 6.00713C6.17069 6.00713 6.11419 6.02881 6.06844 6.07219C6.02281 6.11544 6 6.17069 6 6.23794L6 11.3121C6 11.3409 6.00481 11.3698 6.01444 11.3985C6.02406 11.4274 6.04088 11.4538 6.06488 11.4778L12.5106 17.9278C12.5587 17.9759 12.6152 18 12.6801 18C12.7449 18 12.8014 17.9759 12.8496 17.9278ZM7.89375 8.83406C8.15525 8.83406 8.37738 8.74294 8.56013 8.56069C8.74275 8.37844 8.83406 8.15706 8.83406 7.89656C8.83406 7.63419 8.74294 7.41119 8.56069 7.22756C8.37844 7.04381 8.15706 6.95194 7.89656 6.95194C7.63419 6.95194 7.41119 7.0435 7.22756 7.22662C7.04381 7.40975 6.95194 7.63213 6.95194 7.89375C6.95194 8.15525 7.0435 8.37737 7.22663 8.56012C7.40975 8.74275 7.63213 8.83406 7.89375 8.83406Z" fill="currentColor"/>
</svg>
