<svg width="24" height="24" viewBox="0 0 24 24" fill="none" xmlns="http://www.w3.org/2000/svg">
<path d="M13.7241 18.75V17.3036H9.80365C8.79726 17.3036 7.93125 16.9713 7.20562 16.3067C6.47984 15.6423 6.11695 14.8218 6.11695 13.8452C6.11695 12.8685 6.47984 12.0494 7.20562 11.3879C7.93125 10.7266 8.79726 10.3959 9.80365 10.3959H16.5739L13.8908 13.0793L14.9069 14.0954L19.3296 9.6727L14.9069 5.25L13.8908 6.26612L16.5739 8.94948H9.80365C8.39306 8.94948 7.18489 9.42021 6.17914 10.3617C5.17339 11.3031 4.67052 12.4643 4.67052 13.8452C4.67052 15.226 5.17339 16.3887 6.17914 17.3332C7.18489 18.2777 8.39306 18.75 9.80365 18.75H13.7241Z" fill="white"/>
</svg>
