<svg width="24" height="25" viewBox="0 0 24 25" fill="none" xmlns="http://www.w3.org/2000/svg">
<g clip-path="url(#clip0_14513_22241)">
<path fill-rule="evenodd" clip-rule="evenodd" d="M11.5317 17.7079H15.1348V19.6406H21.5V14.2849H15.1348V16.2079H12.75V15.5977L11.5317 17.7079ZM14.7904 8.0636H12.75V11.5977L11.25 14.1957V12.8906H8.85575V14.8136H2.5V9.45785H8.85575V11.3906H11.25V6.5636H15.1348V4.6311H16.7721L14.7904 8.0636ZM15.9839 9.99635H21.5V4.6311H19.0815L18.2155 6.1311H20V8.49635H16.8499L15.9839 9.99635ZM20 18.1406H16.6345V15.7849H20V18.1406ZM7.35575 13.3136H4V10.9579H7.35575V13.3136Z" fill="white"/>
<rect x="4.90332" y="21.2639" width="24" height="2" rx="1" transform="rotate(-60 4.90332 21.2639)" fill="white"/>
</g>
<defs>
<clipPath id="clip0_14513_22241">
<rect width="24" height="24" fill="white" transform="translate(0 0.140625)"/>
</clipPath>
</defs>
</svg>
