<svg width="24" height="24" viewBox="0 0 24 24" fill="none" xmlns="http://www.w3.org/2000/svg">
<path d="M11.9653 18.75C13.8498 18.75 15.4459 18.0962 16.7536 16.7887C18.0614 15.4811 18.7153 13.8854 18.7153 12.0014C18.7153 10.1174 18.0614 8.52112 16.7536 7.21267C15.4459 5.90422 13.8498 5.25 11.9653 5.25C10.9131 5.25 9.91731 5.48393 8.97801 5.95178C8.03886 6.41978 7.25773 7.08007 6.63463 7.93267V5.25H5.28463V10.7537H10.7884V9.40395H7.23336C7.70766 8.535 8.36541 7.85047 9.2066 7.35037C10.0477 6.85012 10.9672 6.6 11.9653 6.6C13.4653 6.6 14.7403 7.125 15.7903 8.175C16.8403 9.225 17.3653 10.5 17.3653 12C17.3653 13.5 16.8403 14.775 15.7903 15.825C14.7403 16.875 13.4653 17.4 11.9653 17.4C10.8103 17.4 9.76783 17.07 8.83783 16.41C7.90783 15.75 7.25533 14.88 6.88033 13.8H5.45765C5.8661 15.2688 6.67063 16.461 7.87123 17.3766C9.07183 18.2922 10.4365 18.75 11.9653 18.75Z" fill="currentColor"/>
</svg>
