<svg width="24" height="24" viewBox="0 0 24 24" fill="none" xmlns="http://www.w3.org/2000/svg">
<g clip-path="url(#clip0_11050_9425)">
<path d="M7 7V6.5H6.5V7H7ZM17.3536 7.35355C17.5488 7.15829 17.5488 6.84171 17.3536 6.64645L14.1716 3.46447C13.9763 3.2692 13.6597 3.2692 13.4645 3.46447C13.2692 3.65973 13.2692 3.97631 13.4645 4.17157L16.2929 7L13.4645 9.82843C13.2692 10.0237 13.2692 10.3403 13.4645 10.5355C13.6597 10.7308 13.9763 10.7308 14.1716 10.5355L17.3536 7.35355ZM6.64645 17.3536C6.84171 17.5488 7.15829 17.5488 7.35355 17.3536L10.5355 14.1716C10.7308 13.9763 10.7308 13.6597 10.5355 13.4645C10.3403 13.2692 10.0237 13.2692 9.82843 13.4645L7 16.2929L4.17157 13.4645C3.97631 13.2692 3.65973 13.2692 3.46447 13.4645C3.2692 13.6597 3.2692 13.9763 3.46447 14.1716L6.64645 17.3536ZM7 7.5H17V6.5H7V7.5ZM7.5 17V7H6.5V17H7.5Z" fill="white"/>
</g>
<defs>
<clipPath id="clip0_11050_9425">
<rect width="24" height="24" rx="4" fill="white"/>
</clipPath>
</defs>
</svg>
