<svg width="24" height="24" viewBox="0 0 24 24" fill="none" xmlns="http://www.w3.org/2000/svg">
<path d="M17.6567 18.4333L12.9461 13.7225C12.5711 14.0321 12.1399 14.2744 11.6524 14.4494C11.1649 14.6244 10.6605 14.7119 10.1394 14.7119C8.85754 14.7119 7.77267 14.2681 6.88479 13.3805C5.99692 12.4929 5.55298 11.4082 5.55298 10.1266C5.55298 8.84512 5.99679 7.76013 6.88442 6.87163C7.77204 5.98325 8.85667 5.53906 10.1383 5.53906C11.4198 5.53906 12.5048 5.983 13.3933 6.87087C14.2817 7.75875 14.7259 8.84362 14.7259 10.1255C14.7259 10.6611 14.636 11.1727 14.4562 11.6602C14.2764 12.1477 14.0364 12.5717 13.7364 12.9322L18.447 17.6427L17.6567 18.4333ZM10.1394 13.5871C11.1058 13.5871 11.9243 13.2517 12.5949 12.581C13.2657 11.9104 13.601 11.0919 13.601 10.1255C13.601 9.15912 13.2657 8.34062 12.5949 7.67C11.9243 6.99925 11.1058 6.66387 10.1394 6.66387C9.17304 6.66387 8.35454 6.99925 7.68392 7.67C7.01317 8.34062 6.67779 9.15912 6.67779 10.1255C6.67779 11.0919 7.01317 11.9104 7.68392 12.581C8.35454 13.2517 9.17304 13.5871 10.1394 13.5871Z" fill="white"/>
</svg>
