<svg width="25" height="25" viewBox="0 0 25 25" fill="none" xmlns="http://www.w3.org/2000/svg">
<g clip-path="url(#clip0_24369_1245)">
<path d="M19.2714 24.1659L14.6328 19.5273L15.6986 18.4768L18.5239 21.3023V15.042H20.019V21.3023L22.8445 18.4768L23.91 19.5273L19.2714 24.1659Z" fill="white"/>
<path fill-rule="evenodd" clip-rule="evenodd" d="M3.1686 20.3096C3.55899 20.7 4.02829 20.8952 4.5765 20.8952H13.5472L13.5472 19.2349L13.5472 18.9017L13.5472 13.915L13.5472 6.94076H20.5244V13.9225H22.5179V6.94076C22.5179 6.39255 22.3227 5.92324 21.9323 5.53285C21.5419 5.14246 21.0726 4.94727 20.5244 4.94727H4.5765C4.02829 4.94727 3.55899 5.14246 3.1686 5.53285C2.7782 5.92324 2.58301 6.39255 2.58301 6.94076V18.9017C2.58301 19.4499 2.7782 19.9192 3.1686 20.3096ZM19.5277 13.915V11.9245H14.5439V13.915H19.5277ZM11.5537 18.9017H4.5765V6.94076H11.5537V18.9017ZM10.557 16.9082H5.57324V14.9147H10.557V16.9082ZM10.557 13.918H5.57324V11.9245H10.557V13.918ZM10.557 10.9277H5.57324V8.93424H10.557V10.9277ZM19.5277 10.9277H14.5439V8.93424H19.5277V10.9277Z" fill="white"/>
</g>
<defs>
<clipPath id="clip0_24369_1245">
<rect width="23.9219" height="23.9219" fill="white" transform="translate(0.5896 0.960938)"/>
</clipPath>
</defs>
</svg>
