<svg width="25" height="25" viewBox="0 0 25 25" fill="none" xmlns="http://www.w3.org/2000/svg">
<g clip-path="url(#clip0_24369_1273)">
<path d="M19.1672 24.1659L14.5286 19.5273L15.5943 18.4768L18.4196 21.3023V15.042H19.9147V21.3023L22.7402 18.4768L23.8058 19.5273L19.1672 24.1659Z" fill="white"/>
<path fill-rule="evenodd" clip-rule="evenodd" d="M8.57148 14.3049C8.81236 14.5457 9.10723 14.6662 9.4561 14.6662C9.80496 14.6662 10.0998 14.5457 10.3407 14.3049C10.5816 14.064 10.702 13.7691 10.702 13.4202C10.702 13.0714 10.5816 12.7765 10.3407 12.5356C10.0998 12.2948 9.80496 12.1743 9.4561 12.1743C9.10723 12.1743 8.81236 12.2948 8.57148 12.5356C8.3306 12.7765 8.21016 13.0714 8.21016 13.4202C8.21016 13.7691 8.3306 14.064 8.57148 14.3049ZM14.552 14.3049C14.7928 14.5457 15.0877 14.6662 15.4366 14.6662C15.7854 14.6662 16.0803 14.5457 16.3212 14.3049C16.5621 14.064 16.6825 13.7691 16.6825 13.4202C16.6825 13.0714 16.5621 12.7765 16.3212 12.5356C16.0803 12.2948 15.7854 12.1743 15.4366 12.1743C15.0877 12.1743 14.7928 12.2948 14.552 12.5356C14.3111 12.7765 14.1906 13.0714 14.1906 13.4202C14.1906 13.7691 14.3111 14.064 14.552 14.3049ZM13.443 20.3433C13.1188 20.3794 12.7865 20.3975 12.4463 20.3975C10.2203 20.3975 8.33476 19.625 6.7898 18.08C5.24485 16.5351 4.47237 14.6496 4.47237 12.4235V12.274C5.78475 11.7922 6.93516 11.0737 7.9236 10.1185C8.91204 9.16332 9.67206 8.03783 10.2037 6.74206C11.1506 7.90493 12.2968 8.8103 13.6424 9.45819C14.988 10.1061 16.4167 10.43 17.9284 10.43C18.3105 10.43 18.676 10.4092 19.0248 10.3677C19.3737 10.3262 19.7226 10.2639 20.0714 10.1808C20.2043 10.5297 20.2957 10.891 20.3455 11.2648C20.3954 11.6386 20.4203 12.0248 20.4203 12.4235C20.4203 12.8095 20.3971 13.1852 20.3506 13.5507H22.3535C22.3937 13.1813 22.4138 12.8056 22.4138 12.4235C22.4138 11.0447 22.1521 9.7489 21.6288 8.5362C21.1056 7.32349 20.3954 6.2686 19.4983 5.37153C18.6012 4.47446 17.5463 3.76428 16.3336 3.24099C15.1209 2.7177 13.8252 2.45605 12.4463 2.45605C11.0675 2.45605 9.77173 2.7177 8.55903 3.24099C7.34632 3.76428 6.29143 4.47446 5.39436 5.37153C4.49729 6.2686 3.78711 7.32349 3.26382 8.5362C2.74053 9.7489 2.47888 11.0447 2.47888 12.4235C2.47888 13.8023 2.74053 15.0981 3.26382 16.3108C3.78711 17.5235 4.49729 18.5784 5.39436 19.4755C6.29143 20.3725 7.34632 21.0827 8.55903 21.606C9.77173 22.1293 11.0675 22.391 12.4463 22.391C12.7835 22.391 13.1158 22.3753 13.443 22.344L13.443 20.3433ZM13.9414 7.37748C12.7454 6.67145 11.7984 5.73701 11.1007 4.57414C11.3333 4.54091 11.5576 4.51184 11.7735 4.48692C11.9895 4.462 12.2138 4.44954 12.4463 4.44954C13.9082 4.44954 15.2372 4.80256 16.4333 5.50859C17.6294 6.21461 18.5763 7.14906 19.274 8.31193C19.0415 8.34516 18.8172 8.37423 18.6012 8.39915C18.3853 8.42406 18.161 8.43652 17.9284 8.43652C16.4665 8.43652 15.1375 8.08351 13.9414 7.37748ZM7.11375 8.03783C6.48247 8.802 5.74322 9.42496 4.89599 9.90672C5.21162 8.95982 5.68508 8.10428 6.31635 7.3401C6.94762 6.57593 7.68687 5.95297 8.53411 5.47121C8.21847 6.41812 7.74502 7.27365 7.11375 8.03783Z" fill="white"/>
</g>
<defs>
<clipPath id="clip0_24369_1273">
<rect width="23.9219" height="23.9219" fill="white" transform="translate(0.485352 0.960938)"/>
</clipPath>
</defs>
</svg>
