<svg width="25" height="24" viewBox="0 0 25 24" fill="none" xmlns="http://www.w3.org/2000/svg">
<path d="M5.93757 5.95669V4.83169H11.5626V5.95669H5.93757ZM8.18757 11.0625V7.83169H5.93757V6.70669H11.5626V7.83169H9.31257V11.0625H8.18757ZM13.7751 18.9403L12.9848 18.15L18.5751 12.5597L19.3654 13.35L13.7751 18.9403ZM14.3768 14.8558C14.0939 14.8558 13.8594 14.7633 13.6734 14.5783C13.4873 14.3934 13.3943 14.1596 13.3943 13.8767C13.3943 13.5938 13.4868 13.3594 13.6718 13.1734C13.8566 12.9873 14.0905 12.8942 14.3734 12.8942C14.6563 12.8942 14.8907 12.9867 15.0767 13.1717C15.2628 13.3566 15.3559 13.5904 15.3559 13.8733C15.3559 14.1562 15.2634 14.3906 15.0784 14.5766C14.8935 14.7628 14.6596 14.8558 14.3768 14.8558ZM18.1268 18.6058C17.8439 18.6058 17.6094 18.5133 17.4234 18.3283C17.2373 18.1434 17.1443 17.9096 17.1443 17.6267C17.1443 17.3438 17.2368 17.1094 17.4218 16.9234C17.6066 16.7373 17.8405 16.6442 18.1234 16.6442C18.4063 16.6442 18.6407 16.7367 18.8267 16.9217C19.0128 17.1066 19.1059 17.3404 19.1059 17.6233C19.1059 17.9062 19.0134 18.1406 18.8284 18.3266C18.6435 18.5128 18.4096 18.6058 18.1268 18.6058ZM15.1539 11.0625C14.6943 11.0625 14.3029 10.9009 13.9798 10.5778C13.6568 10.2548 13.4953 9.8635 13.4953 9.40387C13.4953 8.94425 13.6568 8.54906 13.9798 8.21831C14.3029 7.88756 14.6943 7.72219 15.1539 7.72219C15.3039 7.72219 15.4407 7.73512 15.5642 7.761C15.6878 7.787 15.8059 7.83075 15.9184 7.89225V5.25C15.9184 5.09063 15.9723 4.95706 16.08 4.84931C16.1879 4.74144 16.3215 4.6875 16.4809 4.6875H19.0626V5.8125H16.8126V9.40387C16.8126 9.8635 16.651 10.2548 16.3279 10.5778C16.0049 10.9009 15.6136 11.0625 15.1539 11.0625ZM7.60519 19.3196C7.14444 19.3196 6.7465 19.1484 6.41138 18.8061C6.07625 18.4636 5.90869 18.0622 5.90869 17.6019C5.90869 17.3958 5.95438 17.1868 6.04575 16.9749C6.13713 16.7632 6.26932 16.5731 6.44232 16.4047L7.35975 15.5019L6.96732 15.1024C6.79907 14.9341 6.67288 14.7478 6.58875 14.5434C6.50463 14.3392 6.46257 14.1247 6.46257 13.8999C6.46257 13.4391 6.6285 13.0447 6.96038 12.7168C7.29225 12.3889 7.68882 12.225 8.15007 12.225C8.61932 12.225 9.01788 12.3866 9.34575 12.7097C9.67363 13.0327 9.83757 13.4278 9.83757 13.8951C9.83757 14.1231 9.80057 14.3392 9.72657 14.5434C9.65244 14.7478 9.53125 14.9341 9.363 15.1024L8.96344 15.5019L9.74813 16.2866L10.7981 15.2366L11.5884 16.05L10.5458 17.0929L11.5884 18.1356L10.7981 18.9259L9.75544 17.8832L8.838 18.8004C8.66575 18.9736 8.47344 19.1034 8.26107 19.1899C8.04857 19.2764 7.82994 19.3196 7.60519 19.3196ZM8.15007 14.7116L8.54963 14.3121C8.61113 14.2506 8.65369 14.1916 8.67732 14.1353C8.70082 14.079 8.71257 14.004 8.71257 13.9103C8.71257 13.7415 8.65632 13.6059 8.54382 13.5036C8.43132 13.4012 8.30007 13.35 8.15007 13.35C8.00682 13.35 7.87725 13.4016 7.76138 13.5047C7.6455 13.6078 7.58757 13.7438 7.58757 13.9125C7.58757 13.9885 7.60175 14.0599 7.63013 14.1266C7.6585 14.1935 7.70075 14.2554 7.75688 14.3124L8.15007 14.7116ZM7.58044 18.1948C7.64669 18.1948 7.72188 18.1818 7.806 18.1558C7.89025 18.1298 7.96313 18.0861 8.02463 18.0246L8.96494 17.1071L8.17313 16.3153L7.2255 17.2254C7.164 17.2869 7.11663 17.3523 7.08338 17.4216C7.05025 17.4908 7.03369 17.5663 7.03369 17.6481C7.03369 17.7962 7.08775 17.9243 7.19588 18.0324C7.30413 18.1407 7.43232 18.1948 7.58044 18.1948Z" fill="white"/>
</svg>
