<svg width="24" height="24" viewBox="0 0 24 24" fill="none" xmlns="http://www.w3.org/2000/svg">
<path d="M16.125 6.36133C16.6931 6.36133 17.2524 6.42037 17.8027 6.53906C18.3532 6.65781 18.883 6.84077 19.3906 7.08789C19.5472 7.15037 19.6669 7.25281 19.75 7.39453C19.8332 7.53623 19.875 7.68804 19.875 7.84961V15.9932C19.8749 16.2902 19.749 16.5176 19.498 16.6748C19.2473 16.8316 18.9836 16.8484 18.707 16.7256C18.3023 16.5332 17.8824 16.3881 17.4482 16.2891C17.0141 16.1901 16.5731 16.1396 16.125 16.1396C15.3798 16.1396 14.657 16.2616 13.957 16.5049C13.2571 16.7481 12.6047 17.093 12 17.5391C11.3953 17.093 10.7429 16.7481 10.043 16.5049C9.34297 16.2616 8.62025 16.1396 7.875 16.1396C7.41737 16.1396 6.96774 16.1906 6.52637 16.292C6.08503 16.3935 5.6596 16.5431 5.25 16.7402C4.98284 16.8632 4.7286 16.8435 4.4873 16.6816C4.246 16.5197 4.12507 16.2902 4.125 15.9932L4.125 7.84961C4.12503 7.68804 4.16678 7.53623 4.25 7.39453C4.33309 7.25281 4.45278 7.15037 4.60938 7.08789C5.117 6.84077 5.64677 6.65781 6.19727 6.53906C6.74763 6.42037 7.3069 6.36133 7.875 6.36133C8.60462 6.36133 9.31754 6.46073 10.0137 6.66016C10.7098 6.85978 11.3721 7.15457 12 7.54395C12.6279 7.15457 13.2902 6.85978 13.9863 6.66016C14.6825 6.46073 15.3954 6.36133 16.125 6.36133ZM7.875 7.48633C7.425 7.48633 7.00416 7.52117 6.61328 7.5918C6.22251 7.66255 5.82059 7.779 5.4082 7.93945C5.35085 7.9587 5.31019 7.98644 5.28613 8.02246C5.26228 8.05832 5.25006 8.09758 5.25 8.14062L5.25 15.2344C5.25003 15.3016 5.27424 15.3506 5.32227 15.3818C5.37022 15.4131 5.42279 15.4166 5.48047 15.3926C5.83622 15.2715 6.2123 15.1787 6.60742 15.1133C7.0026 15.0479 7.4251 15.0146 7.875 15.0146C8.49599 15.0146 9.10012 15.0857 9.6875 15.2266C10.275 15.3674 10.8586 15.5886 11.4375 15.8896V8.51562C10.9107 8.17242 10.34 7.91477 9.72656 7.74316C9.11322 7.57163 8.49597 7.48633 7.875 7.48633ZM16.125 7.48633C15.504 7.48633 14.8868 7.57163 14.2734 7.74316C13.66 7.91477 13.0893 8.17242 12.5625 8.51562L12.5625 15.8896C13.1414 15.5886 13.725 15.3674 14.3125 15.2266C14.8999 15.0857 15.504 15.0146 16.125 15.0146C16.5749 15.0146 16.9974 15.0479 17.3926 15.1133C17.7877 15.1787 18.1638 15.2715 18.5195 15.3926C18.5772 15.4166 18.6298 15.4131 18.6777 15.3818C18.7258 15.3506 18.75 15.3016 18.75 15.2344V8.14062C18.7499 8.09751 18.7378 8.05893 18.7139 8.02539C18.6898 7.99196 18.649 7.96348 18.5918 7.93945C18.1794 7.779 17.7775 7.66255 17.3867 7.5918C16.9958 7.52117 16.575 7.48633 16.125 7.48633ZM16.125 12.8516C16.426 12.8516 16.7183 12.8733 17.002 12.916C17.2854 12.9587 17.57 13.0148 17.8555 13.085V14.0254C17.5749 13.9274 17.2959 13.8567 17.0186 13.8125C16.7412 13.7684 16.4433 13.7461 16.125 13.7461C15.6453 13.7461 15.1801 13.8031 14.7305 13.918C14.2812 14.0328 13.8568 14.2008 13.457 14.4209L13.457 13.4199C13.8551 13.2306 14.2806 13.0879 14.7334 12.9932C15.1862 12.8986 15.6501 12.8516 16.125 12.8516ZM16.125 10.8037C16.426 10.8037 16.7183 10.8253 17.002 10.8682C17.2854 10.9109 17.57 10.9669 17.8555 11.0371V11.9775C17.5748 11.8795 17.2959 11.8079 17.0186 11.7637C16.7412 11.7195 16.4433 11.6982 16.125 11.6982C15.6453 11.6982 15.1801 11.7572 14.7305 11.876C14.2812 11.9947 13.8568 12.1607 13.457 12.373V11.3721C13.8646 11.1828 14.2909 11.04 14.7363 10.9453C15.1821 10.8506 15.6453 10.8037 16.125 10.8037ZM16.125 8.75586C16.426 8.75586 16.7183 8.77647 17.002 8.81934C17.2855 8.86207 17.5699 8.91904 17.8555 8.98926V9.92969C17.5748 9.83162 17.2959 9.76006 17.0186 9.71582C16.7412 9.67157 16.4433 9.64941 16.125 9.64941C15.6453 9.64941 15.1801 9.70631 14.7305 9.82031C14.2812 9.93429 13.8569 10.0982 13.457 10.3105V9.32324C13.8645 9.13403 14.291 8.99218 14.7363 8.89746C15.1821 8.80271 15.6453 8.75586 16.125 8.75586Z" fill="white"/>
</svg>
