<svg width="24" height="24" viewBox="0 0 24 24" fill="none" xmlns="http://www.w3.org/2000/svg">
<path d="M12 22.6442L10.9462 21.575L13.0307 19.5H6.75C6.26417 19.5 5.851 19.3298 5.5105 18.9895C5.17017 18.649 5 18.2358 5 17.75V8.25771L6.5 9.75771V17.6922C6.5 17.782 6.52883 17.8558 6.5865 17.9135C6.64417 17.9711 6.71792 18 6.80775 18H13.0212L10.9557 15.925L12 14.8557L15.8942 18.75L12 22.6442ZM19 15.752L17.5 14.252V6.30771C17.5 6.21788 17.4712 6.14413 17.4135 6.08646C17.3558 6.0288 17.2821 5.99996 17.1923 5.99996H10.9787L13.0442 8.07496L12 9.14421L8.10575 5.24996L12 1.35571L13.0537 2.42496L10.9692 4.49996H17.25C17.7358 4.49996 18.149 4.67013 18.4895 5.01046C18.8298 5.35096 19 5.76413 19 6.24996V15.752Z" fill="white"/>
</svg>
