<svg width="24" height="24" viewBox="0 0 24 24" fill="none" xmlns="http://www.w3.org/2000/svg">
<path d="M12 23.5C10.2013 23.5 8.66833 22.8663 7.401 21.599C6.13367 20.3316 5.5 18.7986 5.5 17V11.0385C5.5 9.23979 6.13367 7.70679 7.401 6.43945C8.66833 5.17212 10.2013 4.53845 12 4.53845C13.7987 4.53845 15.3317 5.17212 16.599 6.43945C17.8663 7.70679 18.5 9.23979 18.5 11.0385V17C18.5 18.7986 17.8663 20.3316 16.599 21.599C15.3317 22.8663 13.7987 23.5 12 23.5ZM12.75 11.0385H17C17 9.78079 16.592 8.6872 15.776 7.7577C14.96 6.8282 13.9513 6.27562 12.75 6.09995V11.0385ZM7 11.0385H11.25V6.09995C10.0487 6.27562 9.04 6.8282 8.224 7.7577C7.408 8.6872 7 9.78079 7 11.0385ZM12 22C13.3833 22 14.5625 21.5125 15.5375 20.5375C16.5125 19.5625 17 18.3833 17 17V12.5385H7V17C7 18.3833 7.4875 19.5625 8.4625 20.5375C9.4375 21.5125 10.6167 22 12 22Z" fill="currentColor"/>
<path d="M11.8555 11.8114V5.31616C11.8555 5.31616 8.91111 5.81933 7.7812 7.08761C6.65129 8.35588 6.06885 11.8114 6.06885 11.8114H11.8555Z" fill="currentColor" fill-opacity="0.4"/>
<path d="M11.1729 3.75V0H9.67285V3.75H11.1729ZM5.72285 5.827L6.7921 4.75775L4.14785 2.1135L3.0786 3.18275L5.72285 5.827ZM4.7151 10.2078V8.70775H0.965102V10.2078H4.7151Z" fill="currentColor"/>
</svg>
