<svg width="24" height="24" viewBox="0 0 24 24" fill="none" xmlns="http://www.w3.org/2000/svg">
<path d="M7.82128 23.5C7.31611 23.5 6.83853 23.3936 6.38853 23.1808C5.93853 22.9679 5.56228 22.6622 5.25978 22.2635L0.165527 15.6653L0.534777 15.2713C0.784777 15.0046 1.08378 14.8443 1.43178 14.7905C1.77978 14.7365 2.10569 14.8025 2.40953 14.9885L4.84628 16.2963V8.38477C4.84628 8.17227 4.9182 7.9941 5.06203 7.85027C5.2057 7.7066 5.38386 7.63477 5.59653 7.63477C5.80919 7.63477 5.98986 7.7066 6.13853 7.85027C6.2872 7.9941 6.36153 8.17227 6.36153 8.38477V18.9443L3.35953 17.3095L6.47878 21.375C6.64294 21.5813 6.84294 21.7371 7.07878 21.8423C7.31478 21.9474 7.56228 22 7.82128 22H12.7403C13.3673 22 13.9007 21.7818 14.3405 21.3453C14.7802 20.9086 15 20.3768 15 19.75V15.9808C15 15.6374 14.8839 15.3497 14.6518 15.1175C14.4194 14.8853 14.1317 14.7693 13.7885 14.7693H8.74628V13.2693H13.7885C14.5417 13.2693 15.1819 13.5328 15.709 14.06C16.2364 14.5873 16.5 15.2276 16.5 15.9808V19.7493C16.5 20.7856 16.1319 21.6698 15.3955 22.402C14.6594 23.134 13.7743 23.5 12.7403 23.5H7.82128Z" fill="currentColor"/>
<path d="M22 0C22.5523 1.93276e-07 23 0.447715 23 1V11C23 11.5523 22.5523 12 22 12H7.61426V8.57617C7.61419 7.47166 6.71879 6.57617 5.61426 6.57617C4.50979 6.57624 3.61432 7.4717 3.61426 8.57617V12H2C1.44772 12 1 11.5523 1 11V1C1 0.447715 1.44772 1.61064e-08 2 0H22ZM12 2.40039C10.0118 2.40039 8.40039 4.01178 8.40039 6C8.40039 7.98822 10.0118 9.59961 12 9.59961C13.9882 9.59961 15.5996 7.98822 15.5996 6C15.5996 4.01178 13.9882 2.40039 12 2.40039ZM12 3.59961C13.3255 3.59961 14.4004 4.67452 14.4004 6C14.4004 7.32548 13.3255 8.40039 12 8.40039C10.6745 8.40039 9.59961 7.32548 9.59961 6C9.59961 4.67452 10.6745 3.59961 12 3.59961Z" fill="currentColor"/>
</svg>
