<svg width="24" height="24" viewBox="0 0 24 24" fill="none" xmlns="http://www.w3.org/2000/svg">
<path d="M10.2759 18.75V17.3036H14.1963C15.2027 17.3036 16.0688 16.9713 16.7944 16.3067C17.5202 15.6423 17.8831 14.8218 17.8831 13.8452C17.8831 12.8685 17.5202 12.0494 16.7944 11.3879C16.0688 10.7266 15.2027 10.3959 14.1963 10.3959H7.4261L10.1092 13.0793L9.09311 14.0954L4.67041 9.6727L9.09311 5.25L10.1092 6.26612L7.4261 8.94948H14.1963C15.6069 8.94948 16.8151 9.42021 17.8209 10.3617C18.8266 11.3031 19.3295 12.4643 19.3295 13.8452C19.3295 15.226 18.8266 16.3887 17.8209 17.3332C16.8151 18.2777 15.6069 18.75 14.1963 18.75H10.2759Z" fill="currentColor"/>
</svg>
