<svg width="24" height="24" viewBox="0 0 40 37" fill="none" xmlns="http://www.w3.org/2000/svg">
     <path fill-rule="evenodd" clip-rule="evenodd" d="M14.6608 3.67043C16.8534 -0.136236 22.3466 -0.13624 24.5393 3.67043L38.3541 27.6546C40.5429 31.4546 37.8002 36.1996 33.4149 36.1996H5.78515C1.39986 36.1996 -1.34288 31.4546 0.845915 27.6546L14.6608 3.67043ZM22.4596 4.86833C21.1902 2.66446 18.0099 2.66446 16.7405 4.86833L2.92559 28.8525C1.65839 31.0525 3.24629 33.7996 5.78515 33.7996H33.4149C35.9538 33.7996 37.5417 31.0525 36.2745 28.8525L22.4596 4.86833Z" fill="currentColor"/>
     <path d="M18.6743 24.4059L17.8188 15.6871V11.6559H21.3813V15.6871L20.5376 24.4059H18.6743ZM17.9594 28.8355V25.5426H21.2524V28.8355H17.9594Z" fill="currentColor"/>
</svg>