<svg width="24" height="25" viewBox="0 0 24 25" fill="none" xmlns="http://www.w3.org/2000/svg">
    <path d="M19.125 20.5625L13.2188 14.6562C12.75 15.0312 12.2109 15.3281 11.6016 15.5469C10.9922 15.7656 10.3438 15.875 9.65625 15.875C7.95312 15.875 6.51172 15.2852 5.33203 14.1055C4.15234 12.9258 3.5625 11.4844 3.5625 9.78125C3.5625 8.07812 4.15234 6.63672 5.33203 5.45703C6.51172 4.27734 7.95312 3.6875 9.65625 3.6875C11.3594 3.6875 12.8008 4.27734 13.9805 5.45703C15.1602 6.63672 15.75 8.07812 15.75 9.78125C15.75 10.4688 15.6406 11.1172 15.4219 11.7266C15.2031 12.3359 14.9062 12.875 14.5312 13.3438L20.4375 19.25L19.125 20.5625ZM9.65625 14C10.8281 14 11.8242 13.5898 12.6445 12.7695C13.4648 11.9492 13.875 10.9531 13.875 9.78125C13.875 8.60938 13.4648 7.61328 12.6445 6.79297C11.8242 5.97266 10.8281 5.5625 9.65625 5.5625C8.48438 5.5625 7.48828 5.97266 6.66797 6.79297C5.84766 7.61328 5.4375 8.60938 5.4375 9.78125C5.4375 10.9531 5.84766 11.9492 6.66797 12.7695C7.48828 13.5898 8.48438 14 9.65625 14ZM7.3125 10.7188V8.84375H12V10.7188H7.3125Z" fill="currentColor"/>
</svg>
