<svg width="56" height="57" viewBox="0 0 56 57" fill="none" xmlns="http://www.w3.org/2000/svg">
<path d="M10.2222 46.9311C9.59259 46.9311 9.06481 46.7181 8.63889 46.2922C8.21296 45.8663 8 45.3385 8 44.7089V42.4866C8 41.857 8.21296 41.3292 8.63889 40.9033C9.06481 40.4774 9.59259 40.2644 10.2222 40.2644C10.8519 40.2644 11.3796 40.4774 11.8056 40.9033C12.2315 41.3292 12.4444 41.857 12.4444 42.4866V44.7089C12.4444 45.3385 12.2315 45.8663 11.8056 46.2922C11.3796 46.7181 10.8519 46.9311 10.2222 46.9311ZM19.1111 46.9311C18.4815 46.9311 17.9537 46.7181 17.5278 46.2922C17.1019 45.8663 16.8889 45.3385 16.8889 44.7089V32.4866C16.8889 31.857 17.1019 31.3292 17.5278 30.9033C17.9537 30.4774 18.4815 30.2644 19.1111 30.2644C19.7407 30.2644 20.2685 30.4774 20.6944 30.9033C21.1204 31.3292 21.3333 31.857 21.3333 32.4866V44.7089C21.3333 45.3385 21.1204 45.8663 20.6944 46.2922C20.2685 46.7181 19.7407 46.9311 19.1111 46.9311ZM28 46.9311C27.3704 46.9311 26.8426 46.7181 26.4167 46.2922C25.9907 45.8663 25.7778 45.3385 25.7778 44.7089V36.9311C25.7778 36.3014 25.9907 35.7737 26.4167 35.3477C26.8426 34.9218 27.3704 34.7089 28 34.7089C28.6296 34.7089 29.1574 34.9218 29.5833 35.3477C30.0093 35.7737 30.2222 36.3014 30.2222 36.9311V44.7089C30.2222 45.3385 30.0093 45.8663 29.5833 46.2922C29.1574 46.7181 28.6296 46.9311 28 46.9311ZM36.8889 46.9311C36.2593 46.9311 35.7315 46.7181 35.3056 46.2922C34.8796 45.8663 34.6667 45.3385 34.6667 44.7089V33.5977C34.6667 32.9681 34.8796 32.4403 35.3056 32.0144C35.7315 31.5885 36.2593 31.3755 36.8889 31.3755C37.5185 31.3755 38.0463 31.5885 38.4722 32.0144C38.8981 32.4403 39.1111 32.9681 39.1111 33.5977V44.7089C39.1111 45.3385 38.8981 45.8663 38.4722 46.2922C38.0463 46.7181 37.5185 46.9311 36.8889 46.9311ZM45.7778 46.9311C45.1481 46.9311 44.6204 46.7181 44.1944 46.2922C43.7685 45.8663 43.5556 45.3385 43.5556 44.7089V24.7088C43.5556 24.0792 43.7685 23.5514 44.1944 23.1255C44.6204 22.6996 45.1481 22.4866 45.7778 22.4866C46.4074 22.4866 46.9352 22.6996 47.3611 23.1255C47.787 23.5514 48 24.0792 48 24.7088V44.7089C48 45.3385 47.787 45.8663 47.3611 46.2922C46.9352 46.7181 46.4074 46.9311 45.7778 46.9311ZM32.4444 26.8755C31.8519 26.8755 31.287 26.7644 30.75 26.5422C30.213 26.32 29.7222 26.0051 29.2778 25.5977L23.5556 19.8755L11.7778 31.6533C11.3333 32.0977 10.8056 32.3107 10.1944 32.2922C9.58333 32.2737 9.05556 32.0422 8.61111 31.5977C8.2037 31.1533 8.00926 30.6255 8.02778 30.0144C8.0463 29.4033 8.25926 28.894 8.66667 28.4866L20.3889 16.7644C20.8333 16.32 21.3241 15.9959 21.8611 15.7922C22.3981 15.5885 22.963 15.4866 23.5556 15.4866C24.1481 15.4866 24.7222 15.5885 25.2778 15.7922C25.8333 15.9959 26.3148 16.32 26.7222 16.7644L32.4444 22.4866L44.2222 10.7088C44.6667 10.2644 45.1944 10.0514 45.8056 10.07C46.4167 10.0885 46.9444 10.32 47.3889 10.7644C47.7963 11.2088 47.9907 11.7366 47.9722 12.3477C47.9537 12.9588 47.7407 13.4681 47.3333 13.8755L35.6111 25.5977C35.2037 26.0051 34.7222 26.32 34.1667 26.5422C33.6111 26.7644 33.037 26.8755 32.4444 26.8755Z" fill="#525252"/>
</svg>
