<svg width="64" height="64" viewBox="0 0 64 64" fill="none" xmlns="http://www.w3.org/2000/svg">
<path fill-rule="evenodd" clip-rule="evenodd" d="M27.0565 29.3288C28.4272 30.6994 30.075 31.3848 32 31.3848C33.925 31.3848 35.5728 30.6994 36.9435 29.3288C38.3145 27.9578 39 26.3098 39 24.3848C39 22.4598 38.3145 20.8119 36.9435 19.4413C35.5728 18.0703 33.925 17.3848 32 17.3848C30.075 17.3848 28.4272 18.0703 27.0565 19.4413C25.6855 20.8119 25 22.4598 25 24.3848C25 26.3098 25.6855 27.9578 27.0565 29.3288ZM17 42.1693V46.6158H29.9584L32.9584 43.6158H20V42.1693C20 41.7643 20.1173 41.3893 20.352 41.0443C20.5867 40.6996 20.9052 40.4183 21.3075 40.2003C23.0308 39.3516 24.7878 38.7086 26.5785 38.2713C28.3695 37.8343 30.1767 37.6158 32 37.6158C33.8233 37.6158 35.6305 37.8343 37.4215 38.2713C37.6553 38.3284 37.8885 38.389 38.1211 38.4531L40.5231 36.0511C39.7138 35.7753 38.9016 35.5391 38.0865 35.3428C36.0748 34.8581 34.046 34.6158 32 34.6158C29.954 34.6158 27.9252 34.8581 25.9135 35.3428C23.9018 35.8274 21.9077 36.5543 19.931 37.5233C19.041 37.9719 18.33 38.6136 17.798 39.4483C17.266 40.2829 17 41.1899 17 42.1693ZM34.825 27.2098C34.0417 27.9931 33.1 28.3848 32 28.3848C30.9 28.3848 29.9583 27.9931 29.175 27.2098C28.3917 26.4264 28 25.4848 28 24.3848C28 23.2848 28.3917 22.3431 29.175 21.5598C29.9583 20.7764 30.9 20.3848 32 20.3848C33.1 20.3848 34.0417 20.7764 34.825 21.5598C35.6083 22.3431 36 23.2848 36 24.3848C36 25.4848 35.6083 26.4264 34.825 27.2098Z" fill="#525252"/>
<path d="M37.4684 49.0805H38.9386L47.1262 40.893L45.7066 39.4481L37.4684 47.6864V49.0805ZM34.2998 52.2745V46.3429L47.6331 33.0096C47.8697 32.773 48.1359 32.5955 48.4316 32.4772C48.7274 32.359 49.0358 32.2998 49.3568 32.2998C49.661 32.2998 49.9652 32.359 50.2694 32.4772C50.5736 32.5955 50.8524 32.773 51.1059 33.0096L53.59 35.443C53.8266 35.6796 54.0041 35.9542 54.1224 36.2669C54.2407 36.5795 54.2998 36.8963 54.2998 37.2174C54.2998 37.5385 54.2407 37.8511 54.1224 38.1553C54.0041 38.4595 53.8266 38.7299 53.59 38.9665L40.2821 52.2745H34.2998ZM46.4164 40.1579L45.7066 39.4481L47.1262 40.893L46.4164 40.1579Z" fill="#525252"/>
</svg>
