<svg width="64" height="65" viewBox="0 0 64 65" fill="none" xmlns="http://www.w3.org/2000/svg">
<path d="M16.4 52C15.9264 52 15.5296 51.8397 15.2094 51.5192C14.8888 51.199 14.7286 50.8021 14.7286 50.3286V47.9713H12.5V39.6142C12.5 39.1406 12.6603 38.7437 12.9808 38.4235C13.301 38.103 13.6979 37.9427 14.1714 37.9427H16.9571V21.3571C16.9571 19.0487 17.7728 17.0787 19.4041 15.447C21.0358 13.8157 23.0059 13 25.3143 13C27.6227 13 29.5928 13.8157 31.2245 15.447C32.8558 17.0787 33.6714 19.0487 33.6714 21.3571V43.6429C33.6714 45.0402 34.1578 46.2252 35.1306 47.198C36.1034 48.1708 37.2884 48.6571 38.6857 48.6571C40.083 48.6571 41.2681 48.1708 42.2408 47.198C43.2136 46.2252 43.7 45.0402 43.7 43.6429V27.0573H40.9143C40.4407 27.0573 40.0438 26.897 39.7237 26.5765C39.4031 26.2563 39.2429 25.8594 39.2429 25.3858V17.0287H41.4714V14.6714C41.4714 14.1979 41.6317 13.801 41.9522 13.4808C42.2724 13.1603 42.6693 13 43.1429 13H47.6C48.0736 13 48.4704 13.1603 48.7906 13.4808C49.1112 13.801 49.2714 14.1979 49.2714 14.6714V17.0287H51.5V25.3858C51.5 25.8594 51.3397 26.2563 51.0192 26.5765C50.699 26.897 50.3021 27.0573 49.8286 27.0573H47.0429V43.6429C47.0429 45.9513 46.2272 47.9213 44.5959 49.553C42.9642 51.1843 40.9941 52 38.6857 52C36.3773 52 34.4072 51.1843 32.7755 49.553C31.1442 47.9213 30.3286 45.9513 30.3286 43.6429V21.3571C30.3286 19.9598 29.8422 18.7748 28.8694 17.802C27.8966 16.8292 26.7116 16.3429 25.3143 16.3429C23.917 16.3429 22.7319 16.8292 21.7592 17.802C20.7864 18.7748 20.3 19.9598 20.3 21.3571V37.9427H23.0857C23.5593 37.9427 23.9562 38.103 24.2763 38.4235C24.5969 38.7437 24.7571 39.1406 24.7571 39.6142V47.9713H22.5286V50.3286C22.5286 50.8021 22.3683 51.199 22.0478 51.5192C21.7276 51.8397 21.3307 52 20.8571 52H16.4Z" fill="#737373"/>
</svg>
