<svg width="64" height="65" viewBox="0 0 64 65" fill="none" xmlns="http://www.w3.org/2000/svg">
<path d="M24 34.3008C24.5667 34.3008 25.0417 34.1091 25.425 33.7258C25.8083 33.3424 26 32.8674 26 32.3008C26 31.7341 25.8083 31.2591 25.425 30.8758C25.0417 30.4924 24.5667 30.3008 24 30.3008C23.4333 30.3008 22.9583 30.4924 22.575 30.8758C22.1917 31.2591 22 31.7341 22 32.3008C22 32.8674 22.1917 33.3424 22.575 33.7258C22.9583 34.1091 23.4333 34.3008 24 34.3008ZM32 34.3008C32.5667 34.3008 33.0417 34.1091 33.425 33.7258C33.8083 33.3424 34 32.8674 34 32.3008C34 31.7341 33.8083 31.2591 33.425 30.8758C33.0417 30.4924 32.5667 30.3008 32 30.3008C31.4333 30.3008 30.9583 30.4924 30.575 30.8758C30.1917 31.2591 30 31.7341 30 32.3008C30 32.8674 30.1917 33.3424 30.575 33.7258C30.9583 34.1091 31.4333 34.3008 32 34.3008ZM40 34.3008C40.5667 34.3008 41.0417 34.1091 41.425 33.7258C41.8083 33.3424 42 32.8674 42 32.3008C42 31.7341 41.8083 31.2591 41.425 30.8758C41.0417 30.4924 40.5667 30.3008 40 30.3008C39.4333 30.3008 38.9583 30.4924 38.575 30.8758C38.1917 31.2591 38 31.7341 38 32.3008C38 32.8674 38.1917 33.3424 38.575 33.7258C38.9583 34.1091 39.4333 34.3008 40 34.3008ZM12 56.3008V20.3008C12 19.2008 12.3917 18.2591 13.175 17.4758C13.9583 16.6924 14.9 16.3008 16 16.3008H48C49.1 16.3008 50.0417 16.6924 50.825 17.4758C51.6083 18.2591 52 19.2008 52 20.3008V44.3008C52 45.4008 51.6083 46.3424 50.825 47.1258C50.0417 47.9091 49.1 48.3008 48 48.3008H20L12 56.3008ZM18.3 44.3008H48V20.3008H16V46.5508L18.3 44.3008Z" fill="#525252"/>
</svg>
