<svg width="64" height="64" viewBox="0 0 64 64" fill="none" xmlns="http://www.w3.org/2000/svg">
<path fill-rule="evenodd" clip-rule="evenodd" d="M18 42C23.5228 42 28 37.5228 28 32C28 26.4772 23.5228 22 18 22C12.4772 22 8 26.4772 8 32C8 37.5228 12.4772 42 18 42ZM18 44C24.6274 44 30 38.6274 30 32C30 25.3726 24.6274 20 18 20C11.3726 20 6 25.3726 6 32C6 38.6274 11.3726 44 18 44Z" fill="currentColor"/>
<path fill-rule="evenodd" clip-rule="evenodd" d="M18 40C22.4183 40 26 36.4183 26 32C26 27.5817 22.4183 24 18 24C13.5817 24 10 27.5817 10 32C10 36.4183 13.5817 40 18 40ZM30 32C30 38.6274 24.6274 44 18 44C11.3726 44 6 38.6274 6 32C6 25.3726 11.3726 20 18 20C24.6274 20 30 25.3726 30 32ZM18 42C23.5228 42 28 37.5228 28 32C28 26.4772 23.5228 22 18 22C12.4772 22 8 26.4772 8 32C8 37.5228 12.4772 42 18 42ZM32 32C32 39.732 25.732 46 18 46C10.268 46 4 39.732 4 32C4 24.268 10.268 18 18 18C25.732 18 32 24.268 32 32Z" fill="currentColor"/>
<path d="M35.4072 22.8201L36.8195 21.4078L45.9993 30.5877L55.1792 21.4078L56.5914 22.8201L47.4116 31.9999L56.5914 41.1798L55.1792 42.592L45.9993 33.4122L36.8195 42.592L35.4072 41.1798L44.5871 31.9999L35.4072 22.8201Z" fill="currentColor"/>
<path fill-rule="evenodd" clip-rule="evenodd" d="M36.8198 18.5833L45.9997 27.7632L55.1795 18.5833L59.4163 22.8202L50.2365 32L59.4163 41.1798L55.1795 45.4167L45.9997 36.2369L36.8199 45.4167L32.583 41.1798L41.7628 32L32.583 22.8202L36.8198 18.5833ZM44.5874 32L35.4076 41.1798L36.8199 42.5921L45.9997 33.4123L55.1795 42.5921L56.5918 41.1798L47.412 32L56.5918 22.8202L55.1795 21.4079L45.9997 30.5877L36.8198 21.4079L35.4076 22.8202L44.5874 32Z" fill="currentColor"/>
</svg>
