<svg width="64" height="64" viewBox="0 0 64 64" fill="none" xmlns="http://www.w3.org/2000/svg">
<path fill-rule="evenodd" clip-rule="evenodd" d="M14.0595 49.9405C14.7662 50.6468 15.6182 51 16.6155 51H32.9375V48H16.7695C16.5515 48 16.3687 47.9327 16.221 47.798C16.0737 47.6633 16 47.4935 16 47.2885V25.3845H44V31.0625H47V24.9885C47.587 24.6858 48.0672 24.2557 48.4405 23.698C48.8135 23.1403 49 22.4973 49 21.769V16.6155C49 15.6182 48.6468 14.7662 47.9405 14.0595C47.2338 13.3532 46.3818 13 45.3845 13H14.6155C13.6182 13 12.7662 13.3532 12.0595 14.0595C11.3532 14.7662 11 15.6182 11 16.6155V21.769C11 22.4973 11.1865 23.1403 11.5595 23.698C11.9328 24.2557 12.413 24.6858 13 24.9885V47.3845C13 48.3818 13.3532 49.2338 14.0595 49.9405ZM32.9375 32H24.3845V34.8655H32.9375V32ZM45.3845 22.3845H14.6155C14.4358 22.3845 14.2883 22.3268 14.173 22.2115C14.0577 22.0962 14 21.9487 14 21.769V16.6155C14 16.4358 14.0577 16.2883 14.173 16.173C14.2883 16.0577 14.4358 16 14.6155 16H45.3845C45.5642 16 45.7117 16.0577 45.827 16.173C45.9423 16.2883 46 16.4358 46 16.6155V21.769C46 21.9487 45.9423 22.0962 45.827 22.2115C45.7117 22.3268 45.5642 22.3845 45.3845 22.3845Z" fill="#737373"/>
<path d="M42.2754 47.675H45.7254L45.1254 44.35C45.4587 44.15 45.7212 43.8833 45.9129 43.55C46.1046 43.2166 46.2004 42.8583 46.2004 42.475C46.2004 41.8583 45.9879 41.3375 45.5629 40.9125C45.1379 40.4875 44.6171 40.275 44.0004 40.275C43.3837 40.275 42.8629 40.4875 42.4379 40.9125C42.0129 41.3375 41.8004 41.8583 41.8004 42.475C41.8004 42.8583 41.8962 43.2166 42.0879 43.55C42.2796 43.8833 42.5421 44.15 42.8754 44.35L42.2754 47.675ZM44.0004 55.35C41.4337 54.7166 39.3171 53.2791 37.6504 51.0375C35.9837 48.7958 35.1504 46.3083 35.1504 43.575V36.9L44.0004 33.6L52.8504 36.9V43.575C52.8504 46.3083 52.0171 48.7958 50.3504 51.0375C48.6837 53.2791 46.5671 54.7166 44.0004 55.35ZM44.0004 52.1C45.6171 51.45 46.9712 50.35 48.0629 48.8C49.1546 47.25 49.7004 45.5083 49.7004 43.575V39.075L44.0004 36.95L38.3004 39.075V43.575C38.3004 45.5083 38.8462 47.25 39.9379 48.8C41.0296 50.35 42.3837 51.45 44.0004 52.1Z" fill="#737373"/>
</svg>
