<svg width="64" height="64" viewBox="0 0 64 64" fill="none" xmlns="http://www.w3.org/2000/svg">
<path d="M32.0245 25.5C30.2219 25.5 28.6879 26.1326 27.4225 27.398C26.1572 28.6633 25.5245 30.1973 25.5245 32C25.5245 33.4415 25.9183 34.7081 26.7059 35.7998C27.4935 36.8914 28.5358 37.6692 29.8329 38.1333V34.4667C29.5162 34.1778 29.2608 33.8006 29.0665 33.3352C28.8718 32.8701 28.7745 32.425 28.7745 32C28.7745 31.0972 29.0905 30.3298 29.7224 29.6979C30.3544 29.0659 31.1217 28.75 32.0245 28.75C32.9273 28.75 33.6891 29.0659 34.3098 29.6979C34.9309 30.3298 35.2415 31.0972 35.2415 32H38.5245C38.5245 30.1973 37.8919 28.6633 36.6265 27.398C35.3612 26.1326 33.8272 25.5 32.0245 25.5ZM26.9995 52.5833L26.1745 45.9831C25.5942 45.7888 24.9991 45.5167 24.3892 45.1668C23.7796 44.8165 23.2345 44.4415 22.7539 44.0418L16.6412 46.625L11.6416 37.9583L16.9288 33.9624C16.879 33.6403 16.8436 33.3168 16.8226 32.9918C16.8017 32.6668 16.7912 32.343 16.7912 32.0205C16.7912 31.7125 16.8017 31.3994 16.8226 31.0813C16.8436 30.7632 16.879 30.4152 16.9288 30.0375L11.6416 26.0416L16.6412 17.4167L22.7328 19.9793C23.2553 19.5655 23.813 19.187 24.406 18.844C24.9989 18.5009 25.5816 18.2252 26.1539 18.0168L26.9995 11.4166H36.9997L37.8247 18.0374C38.4747 18.2736 39.0628 18.5493 39.5889 18.8645C40.1154 19.1798 40.6468 19.5514 41.183 19.9793L47.358 17.4167L52.3576 26.0416L46.987 30.0998C47.0646 30.4497 47.107 30.7769 47.1143 31.0813C47.1211 31.3853 47.1246 31.6916 47.1246 32H43.8329C43.8108 31.3417 43.7637 30.7612 43.6915 30.2585C43.6193 29.7555 43.5109 29.2553 43.3665 28.7581L48.1077 25.175L45.9746 21.4916L40.5287 23.7872C39.8036 23.0123 38.9349 22.3276 37.9227 21.7332C36.9102 21.1388 35.8859 20.7179 34.8499 20.4706L34.1663 14.6666H29.8665L29.1494 20.45C28.044 20.7111 27.0233 21.111 26.0873 21.6498C25.1509 22.1889 24.2577 22.8833 23.4077 23.733L18.0246 21.4916L15.8915 25.175L20.5704 28.6622C20.3899 29.1764 20.2635 29.7112 20.1913 30.2666C20.119 30.822 20.0829 31.4067 20.0829 32.0205C20.0829 32.5846 20.119 33.1375 20.1913 33.6791C20.2635 34.2208 20.383 34.7556 20.5499 35.2835L15.8915 38.825L18.0246 42.5083L23.3871 40.2333C24.2538 41.1224 25.2322 41.8634 26.3224 42.4563C27.4126 43.0492 28.5828 43.4569 29.8329 43.6794V52.5833H26.9995Z" fill="currentColor"/>
<path fill-rule="evenodd" clip-rule="evenodd" d="M35.3545 36.0625C34.2499 36.0625 33.3545 36.9579 33.3545 38.0625V56C33.3545 57.1046 34.2499 58 35.3545 58H53.292C54.3966 58 55.292 57.1046 55.292 56V38.0625C55.292 36.9579 54.3966 36.0625 53.292 36.0625H35.3545ZM42.6864 40.8779L38.3184 53.5313H40.9877L41.8926 50.6366H46.7514L47.661 53.5313H50.3304L45.9624 40.8779H42.6864ZM46.0869 48.5219L44.333 42.9406H44.2984L42.5536 48.5219H46.0869Z" fill="currentColor"/>
</svg>
