<svg width="16" height="16" viewBox="0 0 16 16" fill="none" xmlns="http://www.w3.org/2000/svg">
<path d="M7.97681 12.5C9.23311 12.5 10.2972 12.0641 11.169 11.1924C12.0409 10.3207 12.4768 9.2569 12.4768 8.0009C12.4768 6.7449 12.0409 5.68075 11.169 4.80845C10.2972 3.93615 9.23311 3.5 7.97681 3.5C7.27531 3.5 6.61146 3.65595 5.98526 3.96785C5.35916 4.27985 4.83841 4.72005 4.42301 5.28845V3.5H3.52301V7.16915L7.19216 7.16915L7.19216 6.2693L4.82216 6.2693C5.13836 5.69 5.57686 5.23365 6.13766 4.90025C6.69836 4.56675 7.31141 4.4 7.97681 4.4C8.97681 4.4 9.82681 4.75 10.5268 5.45C11.2268 6.15 11.5768 7 11.5768 8C11.5768 9 11.2268 9.85 10.5268 10.55C9.82681 11.25 8.97681 11.6 7.97681 11.6C7.20681 11.6 6.51181 11.38 5.89181 10.94C5.27181 10.5 4.83681 9.92 4.58681 9.2H3.63836C3.91066 10.1792 4.44701 10.974 5.24741 11.5844C6.04781 12.1948 6.95761 12.5 7.97681 12.5Z" fill="currentColor"/>
</svg>
