<svg width="17" height="16" viewBox="0 0 17 16" fill="none" xmlns="http://www.w3.org/2000/svg">
    <rect x="0.375" width="16" height="16" rx="8" fill="currentColor" fill-opacity="0.05"/>
    <path d="M7.875 4.5C7.875 4.22386 8.09886 4 8.375 4C8.65114 4 8.875 4.22386 8.875 4.5V11.5C8.875 11.7761 8.65114 12 8.375 12C8.09886 12 7.875 11.7761 7.875 11.5V4.5Z" fill="currentColor"/>
    <path d="M4.875 8.5C4.59886 8.5 4.375 8.27614 4.375 8C4.375 7.72386 4.59886 7.5 4.875 7.5H11.875C12.1511 7.5 12.375 7.72386 12.375 8C12.375 8.27614 12.1511 8.5 11.875 8.5H4.875Z" fill="currentColor"/>
</svg>
