<svg width="17" height="16" viewBox="0 0 17 16" fill="none" xmlns="http://www.w3.org/2000/svg">
<path d="M3.50016 13.6668V11.4168L12.2963 2.631C12.3998 2.52755 12.5134 2.45211 12.6373 2.40466C12.7613 2.35722 12.8853 2.3335 13.0092 2.3335C13.1399 2.3335 13.2667 2.35722 13.3893 2.40466C13.5119 2.45211 13.6193 2.52755 13.7117 2.631L14.536 3.45533C14.6394 3.54766 14.7149 3.65511 14.7623 3.77766C14.8098 3.90033 14.8335 4.02705 14.8335 4.15783C14.8335 4.28172 14.8098 4.40566 14.7623 4.52966C14.7149 4.65355 14.6394 4.76722 14.536 4.87066L5.75016 13.6668H3.50016ZM4.50016 12.6668H5.3245L12.1182 5.8835L11.7092 5.45783L11.2835 5.04883L4.50016 11.8425V12.6668ZM11.7092 5.45783L11.2835 5.04883L12.1182 5.8835L11.7092 5.45783ZM9.92333 13.6668C10.7028 13.6668 11.4254 13.4762 12.0912 13.095C12.7569 12.7138 13.0898 12.1822 13.0898 11.5002C13.0898 11.1087 12.9726 10.7664 12.738 10.4732C12.5033 10.1801 12.1741 9.93222 11.7502 9.72966L11.004 10.4758C11.345 10.6041 11.6112 10.7551 11.8027 10.929C11.9942 11.1029 12.09 11.2933 12.09 11.5002C12.09 11.8155 11.8733 12.0888 11.44 12.32C11.0067 12.5512 10.5011 12.6668 9.92333 12.6668C9.78144 12.6668 9.66261 12.7147 9.56683 12.8105C9.47116 12.9062 9.42333 13.0249 9.42333 13.1668C9.42333 13.3087 9.47116 13.4275 9.56683 13.5232C9.66261 13.6189 9.78144 13.6668 9.92333 13.6668ZM3.89633 8.95783L4.64 8.20783C4.37922 8.09761 4.17961 7.9835 4.04116 7.8655C3.90272 7.74761 3.8335 7.62583 3.8335 7.50016C3.8335 7.33261 3.94527 7.16722 4.16883 7.004C4.39227 6.84077 4.83688 6.616 5.50266 6.32966C6.42922 5.93311 7.04933 5.57433 7.363 5.25333C7.67666 4.93244 7.8335 4.57027 7.8335 4.16683C7.8335 3.61983 7.60294 3.17755 7.14183 2.84C6.68072 2.50233 6.07794 2.3335 5.3335 2.3335C4.87627 2.3335 4.45577 2.416 4.072 2.581C3.68822 2.74588 3.40144 2.94761 3.21166 3.18616C3.11944 3.29638 3.08122 3.41794 3.097 3.55083C3.11277 3.68372 3.17583 3.79288 3.28616 3.87833C3.39639 3.96644 3.51689 4.00255 3.64766 3.98666C3.77844 3.97088 3.88994 3.91683 3.98216 3.8245C4.15061 3.65616 4.34422 3.53222 4.563 3.45266C4.78177 3.37322 5.03861 3.3335 5.3335 3.3335C5.82327 3.3335 6.19572 3.41616 6.45083 3.5815C6.70594 3.74694 6.8335 3.94205 6.8335 4.16683C6.8335 4.36083 6.72344 4.53672 6.50333 4.6945C6.28333 4.85216 5.81689 5.09211 5.104 5.41433C4.245 5.79033 3.65183 6.12705 3.3245 6.4245C2.99716 6.72194 2.8335 7.0805 2.8335 7.50016C2.8335 7.81294 2.92688 8.08794 3.11366 8.32516C3.30044 8.56238 3.56133 8.77327 3.89633 8.95783Z" fill="currentColor"/>
</svg>
