<svg xmlns="http://www.w3.org/2000/svg" width="12" height="12" viewBox="0 0 12 12" fill="none">
    <path d="M2.5 9.5H3.13075L8.249 4.38175L7.61825 3.751L2.5 8.86925V9.5ZM1.75 10.25L1.75 8.55775L8.34525 1.96537C8.42083 1.89671 8.50429 1.84367 8.59563 1.80625C8.68704 1.76875 8.78288 1.75 8.88313 1.75C8.98338 1.75 9.08046 1.76779 9.17438 1.80338C9.26838 1.83896 9.35158 1.89554 9.424 1.97312L10.0346 2.59137C10.1122 2.66379 10.1675 2.74712 10.2005 2.84137C10.2335 2.93562 10.25 3.02987 10.25 3.12412C10.25 3.22471 10.2328 3.32067 10.1985 3.412C10.1642 3.50342 10.1095 3.58692 10.0346 3.6625L3.44225 10.25H1.75ZM7.92812 4.07188L7.61825 3.751L8.249 4.38175L7.92812 4.07188Z" fill="currentColor"/>
</svg>