<svg width="17" height="16" viewBox="0 0 17 16" fill="none" xmlns="http://www.w3.org/2000/svg">
<path d="M11.8207 12.0001H14.9617V13.0001H10.8207L11.8207 12.0001ZM3.60267 13.0001L2.42334 11.8206C2.18911 11.5864 2.06923 11.3018 2.06367 10.9668C2.05811 10.6318 2.17245 10.3416 2.40667 10.0963L9.45784 2.77827C9.69206 2.53305 9.97495 2.41149 10.3065 2.4136C10.6382 2.41571 10.9211 2.53388 11.1553 2.7681L14.177 5.78993C14.4112 6.02405 14.5294 6.30971 14.5315 6.64693C14.5336 6.98405 14.4176 7.26971 14.1835 7.50393L8.82067 13.0001H3.60267ZM8.395 12.0001L13.4808 6.78093C13.5151 6.74671 13.5322 6.69755 13.5322 6.63343C13.5322 6.56932 13.5151 6.52016 13.4808 6.48594L10.4693 3.47444C10.4352 3.44032 10.3872 3.42327 10.3252 3.42327C10.2632 3.42327 10.2151 3.44249 10.1808 3.48093L3.10917 10.7859C3.07495 10.8244 3.05784 10.8746 3.05784 10.9366C3.05784 10.9986 3.07495 11.0467 3.10917 11.0809L4.02834 12.0001H8.395Z" fill="white"/>
</svg>
