<svg width="17" height="16" viewBox="0 0 17 16" fill="none" xmlns="http://www.w3.org/2000/svg">
<path d="M3.37167 12.3332C3.03489 12.3332 2.74984 12.2165 2.5165 11.9832C2.28317 11.7498 2.1665 11.4648 2.1665 11.128V4.87167C2.1665 4.53489 2.28317 4.24984 2.5165 4.0165C2.74984 3.78317 3.03489 3.6665 3.37167 3.6665H13.628C13.9648 3.6665 14.2498 3.78317 14.4832 4.0165C14.7165 4.24984 14.8332 4.53489 14.8332 4.87167V11.128C14.8332 11.4648 14.7165 11.7498 14.4832 11.9832C14.2498 12.2165 13.9648 12.3332 13.628 12.3332H3.37167ZM3.37167 11.3332H13.628C13.6793 11.3332 13.7263 11.3118 13.769 11.269C13.8118 11.2263 13.8332 11.1793 13.8332 11.128V4.87167C13.8332 4.82034 13.8118 4.77334 13.769 4.73067C13.7263 4.68789 13.6793 4.6665 13.628 4.6665H3.37167C3.32034 4.6665 3.27334 4.68789 3.23067 4.73067C3.18789 4.77334 3.1665 4.82034 3.1665 4.87167V11.128C3.1665 11.1793 3.18789 11.2263 3.23067 11.269C3.27334 11.3118 3.32034 11.3332 3.37167 11.3332ZM5.91017 10.5895H11.0895V9.41017H5.91017V10.5895ZM3.91017 8.5895H5.0895V7.41017H3.91017V8.5895ZM5.91017 8.5895H7.0895V7.41017H5.91017V8.5895ZM7.91017 8.5895H9.0895V7.41017H7.91017V8.5895ZM9.91017 8.5895H11.0895V7.41017H9.91017V8.5895ZM11.9102 8.5895H13.0895V7.41017H11.9102V8.5895ZM3.91017 6.5895H5.0895V5.41017H3.91017V6.5895ZM5.91017 6.5895H7.0895V5.41017H5.91017V6.5895ZM7.91017 6.5895H9.0895V5.41017H7.91017V6.5895ZM9.91017 6.5895H11.0895V5.41017H9.91017V6.5895ZM11.9102 6.5895H13.0895V5.41017H11.9102V6.5895Z" fill="white"/>
</svg>
