<svg width="16" height="17" viewBox="0 0 16 17" fill="none" xmlns="http://www.w3.org/2000/svg">
<rect y="0.333496" width="16" height="16" rx="2" fill="currentColor" fill-opacity="0.2"/>
<path d="M6 8.78369C6.14167 8.78369 6.26042 8.73577 6.35625 8.63994C6.45208 8.54411 6.5 8.42536 6.5 8.28369C6.5 8.14202 6.45208 8.02327 6.35625 7.92744C6.26042 7.83161 6.14167 7.78369 6 7.78369C5.85833 7.78369 5.73958 7.83161 5.64375 7.92744C5.54792 8.02327 5.5 8.14202 5.5 8.28369C5.5 8.42536 5.54792 8.54411 5.64375 8.63994C5.73958 8.73577 5.85833 8.78369 6 8.78369ZM8 8.78369C8.14167 8.78369 8.26042 8.73577 8.35625 8.63994C8.45208 8.54411 8.5 8.42536 8.5 8.28369C8.5 8.14202 8.45208 8.02327 8.35625 7.92744C8.26042 7.83161 8.14167 7.78369 8 7.78369C7.85833 7.78369 7.73958 7.83161 7.64375 7.92744C7.54792 8.02327 7.5 8.14202 7.5 8.28369C7.5 8.42536 7.54792 8.54411 7.64375 8.63994C7.73958 8.73577 7.85833 8.78369 8 8.78369ZM10 8.78369C10.1417 8.78369 10.2604 8.73577 10.3563 8.63994C10.4521 8.54411 10.5 8.42536 10.5 8.28369C10.5 8.14202 10.4521 8.02327 10.3563 7.92744C10.2604 7.83161 10.1417 7.78369 10 7.78369C9.85833 7.78369 9.73958 7.83161 9.64375 7.92744C9.54792 8.02327 9.5 8.14202 9.5 8.28369C9.5 8.42536 9.54792 8.54411 9.64375 8.63994C9.73958 8.73577 9.85833 8.78369 10 8.78369ZM3 14.2837V5.28369C3 5.00869 3.09792 4.77327 3.29375 4.57744C3.48958 4.38161 3.725 4.28369 4 4.28369H12C12.275 4.28369 12.5104 4.38161 12.7063 4.57744C12.9021 4.77327 13 5.00869 13 5.28369V11.2837C13 11.5587 12.9021 11.7941 12.7063 11.9899C12.5104 12.1858 12.275 12.2837 12 12.2837H5L3 14.2837ZM4.575 11.2837H12V5.28369H4V11.8462L4.575 11.2837Z" fill="currentColor"/>
</svg>
