<svg width="17" height="17" viewBox="0 0 17 17" fill="none" xmlns="http://www.w3.org/2000/svg">
<path fill-rule="evenodd" clip-rule="evenodd" d="M1.5 2.83333V14.8333L4.16667 12.1667H10.3222V13.4376H11.9736L13.2444 12.1667H13.5C13.8667 12.1667 14.1806 12.0361 14.4417 11.775C14.7028 11.5139 14.8333 11.2 14.8333 10.8333V10.5777L15.3509 10.0601C15.4247 9.98237 15.4784 9.89664 15.512 9.80289C15.5457 9.70914 15.5625 9.61701 15.5625 9.52648C15.5625 9.43596 15.5441 9.34544 15.5072 9.25492C15.4703 9.1644 15.4182 9.08023 15.3509 9.00242L14.8333 8.4795V2.83333C14.8333 2.46667 14.7028 2.15278 14.4417 1.89167C14.1806 1.63056 13.8667 1.5 13.5 1.5H2.83333C2.46667 1.5 2.15278 1.63056 1.89167 1.89167C1.63056 2.15278 1.5 2.46667 1.5 2.83333Z" fill="white"/>
<path fill-rule="evenodd" clip-rule="evenodd" d="M0.699951 16.7649V2.83353C0.699951 2.253 0.915989 1.73612 1.32593 1.32618C1.73588 0.916233 2.25276 0.700195 2.83328 0.700195H13.5C14.0805 0.700195 14.5974 0.916233 15.0073 1.32618C15.4172 1.73612 15.6333 2.253 15.6333 2.83353V8.15071L15.9384 8.45896L15.956 8.47932C16.0773 8.61959 16.1766 8.7779 16.248 8.9533C16.3208 9.13195 16.3625 9.32467 16.3625 9.52668C16.3625 9.7181 16.3266 9.90155 16.265 10.0733C16.1911 10.2792 16.0755 10.4589 15.9312 10.611L15.924 10.6186L15.632 10.9105C15.6137 11.4598 15.399 11.9492 15.0073 12.3409C14.6156 12.7326 14.1263 12.9473 13.5771 12.9656L12.3049 14.2378H9.52214V12.9669H4.49799L0.699951 16.7649ZM4.16662 12.1669H10.3221V13.4378H11.9735L13.2444 12.1669H13.5C13.8666 12.1669 14.1805 12.0363 14.4416 11.7752C14.7027 11.5141 14.8333 11.2002 14.8333 10.8335V10.5779L15.3509 10.0603C15.4246 9.98256 15.4783 9.89684 15.512 9.80309C15.5456 9.70934 15.5625 9.6172 15.5625 9.52668C15.5625 9.43616 15.544 9.34564 15.5071 9.25512C15.4703 9.1646 15.4182 9.08043 15.3509 9.00262L14.8333 8.47969V2.83353C14.8333 2.46686 14.7027 2.15297 14.4416 1.89186C14.1805 1.63075 13.8666 1.5002 13.5 1.5002H2.83328C2.46662 1.5002 2.15273 1.63075 1.89162 1.89186C1.63051 2.15297 1.49995 2.46686 1.49995 2.83353V14.8335L4.16662 12.1669Z" fill="white"/>
<path fill-rule="evenodd" clip-rule="evenodd" d="M1.5 14.8333V2.83333C1.5 2.46667 1.63056 2.15278 1.89167 1.89167C2.15278 1.63056 2.46667 1.5 2.83333 1.5H13.5C13.8667 1.5 14.1806 1.63056 14.4417 1.89167C14.7028 2.15278 14.8333 2.46667 14.8333 2.83333V7.24933L14.8236 7.24541C14.6608 7.18076 14.4942 7.14844 14.3239 7.14844C14.1646 7.14844 14.0054 7.17618 13.8462 7.23167C13.6871 7.28735 13.5392 7.38349 13.4026 7.52011L8.73473 12.1667H4.16667L1.5 14.8333ZM5.97498 7.30817C5.8472 7.43595 5.68887 7.49984 5.49998 7.49984C5.31109 7.49984 5.15276 7.43595 5.02498 7.30817C4.8972 7.18039 4.83331 7.02206 4.83331 6.83317C4.83331 6.64428 4.8972 6.48595 5.02498 6.35817C5.15276 6.23039 5.31109 6.1665 5.49998 6.1665C5.68887 6.1665 5.8472 6.23039 5.97498 6.35817C6.10276 6.48595 6.16665 6.64428 6.16665 6.83317C6.16665 7.02206 6.10276 7.18039 5.97498 7.30817ZM8.64165 7.30817C8.51387 7.43595 8.35554 7.49984 8.16665 7.49984C7.97776 7.49984 7.81942 7.43595 7.69165 7.30817C7.56387 7.18039 7.49998 7.02206 7.49998 6.83317C7.49998 6.64428 7.56387 6.48595 7.69165 6.35817C7.81942 6.23039 7.97776 6.1665 8.16665 6.1665C8.35554 6.1665 8.51387 6.23039 8.64165 6.35817C8.76942 6.48595 8.83331 6.64428 8.83331 6.83317C8.83331 7.02206 8.76942 7.18039 8.64165 7.30817ZM10.8333 7.49984C11.0222 7.49984 11.1805 7.43595 11.3083 7.30817C11.4361 7.18039 11.5 7.02206 11.5 6.83317C11.5 6.64428 11.4361 6.48595 11.3083 6.35817C11.1805 6.23039 11.0222 6.1665 10.8333 6.1665C10.6444 6.1665 10.4861 6.23039 10.3583 6.35817C10.2305 6.48595 10.1666 6.64428 10.1666 6.83317C10.1666 7.02206 10.2305 7.18039 10.3583 7.30817C10.4861 7.43595 10.6444 7.49984 10.8333 7.49984Z" fill="#EAB308"/>
<path fill-rule="evenodd" clip-rule="evenodd" d="M10.3222 13.4376V11.7862L13.7152 8.40867C13.7929 8.33096 13.877 8.27628 13.9675 8.24461C14.058 8.21305 14.1486 8.19727 14.2392 8.19727C14.3361 8.19727 14.4308 8.21565 14.5234 8.25242C14.6159 8.2893 14.6991 8.34461 14.7728 8.41836L15.3509 9.00242C15.4182 9.08023 15.4703 9.1644 15.5072 9.25492C15.5441 9.34544 15.5625 9.43596 15.5625 9.52648C15.5625 9.61701 15.5457 9.70914 15.512 9.80289C15.4784 9.89664 15.4247 9.98237 15.3509 10.0601L11.9736 13.4376H10.3222ZM11.0674 12.6923H11.6611L13.6899 10.6537L13.1117 10.0637L11.0674 12.0986V12.6923Z" fill="#EAB308"/>
</svg>
