<svg width="16" height="16" viewBox="0 0 16 16" fill="none" xmlns="http://www.w3.org/2000/svg">
<rect x="0.5" y="0.5" width="15" height="15" rx="1.5" stroke="white" stroke-opacity="0.2"/>
<path d="M8.65039 10.0352H7.15625C7.15234 9.82031 7.15039 9.68945 7.15039 9.64258C7.15039 9.1582 7.23047 8.75977 7.39062 8.44727C7.55078 8.13477 7.87109 7.7832 8.35156 7.39258C8.83203 7.00195 9.11914 6.74609 9.21289 6.625C9.35742 6.43359 9.42969 6.22266 9.42969 5.99219C9.42969 5.67188 9.30078 5.39844 9.04297 5.17188C8.78906 4.94141 8.44531 4.82617 8.01172 4.82617C7.59375 4.82617 7.24414 4.94531 6.96289 5.18359C6.68164 5.42188 6.48828 5.78516 6.38281 6.27344L4.87109 6.08594C4.91406 5.38672 5.21094 4.79297 5.76172 4.30469C6.31641 3.81641 7.04297 3.57227 7.94141 3.57227C8.88672 3.57227 9.63867 3.82031 10.1973 4.31641C10.7559 4.80859 11.0352 5.38281 11.0352 6.03906C11.0352 6.40234 10.9316 6.74609 10.7246 7.07031C10.5215 7.39453 10.084 7.83594 9.41211 8.39453C9.06445 8.68359 8.84766 8.91602 8.76172 9.0918C8.67969 9.26758 8.64258 9.58203 8.65039 10.0352ZM7.15625 12.25V10.6035H8.80273V12.25H7.15625Z" fill="currentColor"/>
</svg>
