<svg width="16" height="14" viewBox="0 0 16 14" fill="none" xmlns="http://www.w3.org/2000/svg">
<path d="M6.2764 13.5601V12.1136H10.1968C11.2032 12.1136 12.0692 11.7814 12.7949 11.1168C13.5206 10.4524 13.8835 9.63188 13.8835 8.65522C13.8835 7.67856 13.5206 6.85948 12.7949 6.19798C12.0692 5.53664 11.2032 5.20597 10.1968 5.20597H3.42659L6.10971 7.88934L5.0936 8.90545L0.670898 4.48276L5.0936 0.0600586L6.10971 1.07618L3.42659 3.75954H10.1968C11.6074 3.75954 12.8156 4.23027 13.8213 5.17174C14.8271 6.1132 15.33 7.27436 15.33 8.65522C15.33 10.0361 14.8271 11.1988 13.8213 12.1433C12.8156 13.0878 11.6074 13.5601 10.1968 13.5601H6.2764Z" fill="#171717"/>
</svg>
