<svg width="17" height="16" viewBox="0 0 17 16" fill="none" xmlns="http://www.w3.org/2000/svg">
<path d="M2.08984 7.14082L5.17951 1.66016L8.26918 7.14082H2.08984ZM5.18584 13.8395C4.49107 13.8395 3.89962 13.5955 3.41151 13.1075C2.92351 12.6195 2.67951 12.0289 2.67951 11.3358C2.67951 10.6324 2.92351 10.0383 3.41151 9.55366C3.89962 9.0691 4.49107 8.82682 5.18584 8.82682C5.88073 8.82682 6.47218 9.07082 6.96018 9.55882C7.44829 10.0468 7.69234 10.6383 7.69234 11.3332C7.69234 12.028 7.44829 12.6195 6.96018 13.1075C6.47218 13.5955 5.88073 13.8395 5.18584 13.8395ZM5.18584 12.8397C5.60384 12.8397 5.9594 12.693 6.25251 12.3998C6.54573 12.1067 6.69234 11.7512 6.69234 11.3332C6.69234 10.9152 6.54573 10.5596 6.25251 10.2665C5.9594 9.97327 5.60384 9.82666 5.18584 9.82666C4.76795 9.82666 4.4124 9.97327 4.11918 10.2665C3.82607 10.5596 3.67951 10.9152 3.67951 11.3332C3.67951 11.7512 3.82607 12.1067 4.11918 12.3998C4.4124 12.693 4.76795 12.8397 5.18584 12.8397ZM3.79868 6.14082H6.56668L5.17951 3.71132L3.79868 6.14082ZM9.33984 13.8395V8.82682H14.3525V13.8395H9.33984ZM10.3397 12.8397H13.3525V9.82666H10.3397V12.8397ZM11.8462 7.14082C11.324 6.71005 10.8703 6.33271 10.4853 6.00882C10.1002 5.68493 9.78206 5.38727 9.53084 5.11582C9.27951 4.84449 9.0919 4.58232 8.96801 4.32932C8.84401 4.07632 8.78201 3.80882 8.78201 3.52682C8.78201 3.07805 8.93462 2.70282 9.23984 2.40116C9.54495 2.09938 9.92868 1.94849 10.391 1.94849C10.6739 1.94849 10.9384 2.01582 11.1845 2.15049C11.4307 2.28516 11.6513 2.47893 11.8462 2.73182C12.0411 2.48316 12.2637 2.29043 12.5142 2.15366C12.7645 2.01688 13.029 1.94849 13.3077 1.94849C13.7641 1.94849 14.1453 2.10277 14.4513 2.41132C14.7572 2.71988 14.9102 3.0981 14.9102 3.54599C14.9102 3.82377 14.8482 4.0881 14.7243 4.33899C14.6005 4.58977 14.4128 4.84977 14.1615 5.11899C13.9103 5.38832 13.5921 5.68493 13.207 6.00882C12.822 6.33271 12.3684 6.71005 11.8462 7.14082ZM11.8462 5.83316C12.6334 5.20071 13.1742 4.7221 13.4687 4.39732C13.7631 4.07255 13.9103 3.79349 13.9103 3.56016C13.9103 3.38149 13.8558 3.23488 13.7468 3.12032C13.6378 3.00577 13.4962 2.94849 13.3218 2.94849C13.1945 2.94849 13.0703 2.98549 12.9493 3.05949C12.8285 3.13338 12.6688 3.26949 12.4705 3.46782L11.8462 4.07166L11.2218 3.46782C11.0193 3.26527 10.8588 3.12805 10.7403 3.05616C10.622 2.98438 10.4987 2.94849 10.3705 2.94849C10.1918 2.94849 10.0491 3.00255 9.94234 3.11066C9.83545 3.21877 9.78201 3.36432 9.78201 3.54732C9.78201 3.78921 9.92923 4.07255 10.2237 4.39732C10.5181 4.7221 11.059 5.20071 11.8462 5.83316Z" fill="white"/>
</svg>
