<svg width="15" height="16" viewBox="0 0 15 16" fill="none" xmlns="http://www.w3.org/2000/svg">
    <path d="M4.89419 5.51919V4.39419H11.3558V5.51919H4.89419ZM4.89419 7.68275V6.55775H11.3558V7.68275H4.89419ZM6.94225 15.125H2.5C1.976 15.125 1.5325 14.9435 1.1695 14.5805C0.8065 14.2175 0.625 13.774 0.625 13.25V11.0866H2.875V0.875H13.375V7.21831C13.1826 7.20769 12.992 7.21944 12.8031 7.25356C12.6141 7.28769 12.4298 7.34419 12.25 7.42306V2H4V11.0866H8.25475L7.12975 12.2114H1.75V13.25C1.75 13.4625 1.82188 13.6406 1.96563 13.7844C2.10938 13.9281 2.2875 14 2.5 14H6.94225V15.125ZM8.58663 15.125V13.1433L12.6582 9.09031C12.7514 8.99706 12.8524 8.93144 12.961 8.89344C13.0696 8.85556 13.1783 8.83663 13.2871 8.83663C13.4033 8.83663 13.517 8.85869 13.6281 8.90281C13.7391 8.94706 13.8389 9.01344 13.9274 9.10194L14.6211 9.80281C14.7019 9.89619 14.7644 9.99719 14.8086 10.1058C14.8529 10.2144 14.875 10.3231 14.875 10.4317C14.875 10.5403 14.8548 10.6509 14.8144 10.7634C14.7741 10.8759 14.7096 10.9788 14.6211 11.072L10.5683 15.125H8.58663ZM9.48081 14.2308H10.1933L12.6278 11.7845L12.2832 11.4282L11.9341 11.0765L9.48081 13.5183V14.2308ZM12.2832 11.4282L11.9341 11.0765L12.6278 11.7845L12.2832 11.4282Z" fill="currentColor"/>
</svg>
