<svg width="22" height="22" viewBox="0 0 22 22" fill="none" xmlns="http://www.w3.org/2000/svg">
<path d="M5 17C4.5875 17 4.23438 16.8531 3.94063 16.5594C3.64687 16.2656 3.5 15.9125 3.5 15.5V6.5C3.5 6.0875 3.64687 5.73438 3.94063 5.44063C4.23438 5.14687 4.5875 5 5 5H17C17.4125 5 17.7656 5.14687 18.0594 5.44063C18.3531 5.73438 18.5 6.0875 18.5 6.5V15.5C18.5 15.9125 18.3531 16.2656 18.0594 16.5594C17.7656 16.8531 17.4125 17 17 17H5ZM5 15.5H17V6.5H5V15.5ZM7.30625 13.25C7.43125 13.25 7.53438 13.2094 7.61563 13.1281C7.69688 13.0469 7.7375 12.9438 7.7375 12.8188V9.2375C7.7375 9.1 7.69063 8.98438 7.59688 8.89063C7.50313 8.79688 7.3875 8.75 7.25 8.75C7.1875 8.75 7.12813 8.75938 7.07188 8.77813C7.01563 8.79688 6.9625 8.825 6.9125 8.8625L6.06875 9.4625C5.98125 9.525 5.92813 9.60625 5.90938 9.70625C5.89062 9.80625 5.9125 9.90625 5.975 10.0063C6.0375 10.1063 6.12188 10.1656 6.22813 10.1844C6.33438 10.2031 6.4375 10.1813 6.5375 10.1188L6.875 9.875V12.8188C6.875 12.9438 6.91563 13.0469 6.99688 13.1281C7.07813 13.2094 7.18125 13.25 7.30625 13.25ZM9.575 13.25H11.75C11.85 13.25 11.9375 13.2125 12.0125 13.1375C12.0875 13.0625 12.125 12.975 12.125 12.875C12.125 12.775 12.0875 12.6875 12.0125 12.6125C11.9375 12.5375 11.85 12.5 11.75 12.5H10.3625L10.325 12.4625C10.5875 12.2125 10.8031 12 10.9719 11.825C11.1406 11.65 11.275 11.5125 11.375 11.4125C11.6 11.1875 11.7688 10.9625 11.8813 10.7375C11.9938 10.5125 12.05 10.275 12.05 10.025C12.05 9.6625 11.9125 9.35938 11.6375 9.11563C11.3625 8.87188 11.0125 8.75 10.5875 8.75C10.3375 8.75 10.1 8.80938 9.875 8.92813C9.65 9.04688 9.46875 9.2125 9.33125 9.425C9.26875 9.5125 9.2625 9.60625 9.3125 9.70625C9.3625 9.80625 9.4375 9.875 9.5375 9.9125C9.6375 9.95 9.7375 9.95 9.8375 9.9125C9.9375 9.875 10.025 9.81875 10.1 9.74375C10.1625 9.68125 10.2344 9.63125 10.3156 9.59375C10.3969 9.55625 10.4875 9.5375 10.5875 9.5375C10.775 9.5375 10.9281 9.5875 11.0469 9.6875C11.1656 9.7875 11.225 9.9125 11.225 10.0625C11.225 10.2 11.2 10.3281 11.15 10.4469C11.1 10.5656 10.9875 10.7125 10.8125 10.8875L10.5688 11.1313L10.2125 11.4875L9.3125 12.3875C9.2875 12.4125 9.25 12.5 9.2 12.65V12.875C9.2 12.975 9.2375 13.0625 9.3125 13.1375C9.3875 13.2125 9.475 13.25 9.575 13.25ZM14.75 13.25C15.2 13.25 15.5625 13.125 15.8375 12.875C16.1125 12.625 16.25 12.3 16.25 11.9C16.25 11.675 16.1875 11.475 16.0625 11.3C15.9375 11.125 15.7625 10.9875 15.5375 10.8875V10.85C15.7125 10.75 15.85 10.6219 15.95 10.4656C16.05 10.3094 16.1 10.125 16.1 9.9125C16.1 9.575 15.9688 9.29688 15.7063 9.07812C15.4438 8.85938 15.1125 8.75 14.7125 8.75C14.4625 8.75 14.2313 8.80938 14.0188 8.92813C13.8063 9.04688 13.6313 9.19375 13.4938 9.36875C13.4313 9.45625 13.425 9.54375 13.475 9.63125C13.525 9.71875 13.6 9.7875 13.7 9.8375C13.8 9.875 13.9 9.87813 14 9.84688C14.1 9.81563 14.1875 9.7625 14.2625 9.6875C14.325 9.625 14.3938 9.57812 14.4688 9.54688C14.5438 9.51562 14.625 9.5 14.7125 9.5C14.875 9.5 15.0094 9.54688 15.1156 9.64062C15.2219 9.73438 15.275 9.85 15.275 9.9875C15.275 10.1625 15.2125 10.3 15.0875 10.4C14.9625 10.5 14.8 10.55 14.6 10.55C14.5 10.55 14.4125 10.5875 14.3375 10.6625C14.2625 10.7375 14.225 10.825 14.225 10.925C14.225 11.025 14.2625 11.1125 14.3375 11.1875C14.4125 11.2625 14.5 11.3 14.6 11.3C14.85 11.3 15.05 11.35 15.2 11.45C15.35 11.55 15.425 11.6875 15.425 11.8625C15.425 12.025 15.3563 12.1656 15.2188 12.2844C15.0813 12.4031 14.925 12.4625 14.75 12.4625C14.6 12.4625 14.475 12.4375 14.375 12.3875C14.275 12.3375 14.1875 12.2563 14.1125 12.1438C14.05 12.0563 13.9719 11.9969 13.8781 11.9656C13.7844 11.9344 13.6875 11.9375 13.5875 11.975C13.475 12.025 13.3938 12.0969 13.3438 12.1906C13.2938 12.2844 13.2938 12.3813 13.3438 12.4813C13.4813 12.7313 13.6688 12.9219 13.9062 13.0531C14.1438 13.1844 14.425 13.25 14.75 13.25Z" fill="currentColor"/>
</svg>
