<svg width="21" height="21" viewBox="0 0 21 21" fill="none" xmlns="http://www.w3.org/2000/svg">
<path d="M12.6142 6.50195C13.0881 6.50195 13.4586 6.67104 13.7255 7.00923C14.0437 7.40971 14.2028 8.07384 14.2028 9.00162C14.2028 9.92717 14.0426 10.5924 13.7222 10.9973C13.4574 11.3311 13.0881 11.4979 12.6142 11.4979C12.1381 11.4979 11.7543 11.3155 11.4628 10.9506C11.1714 10.5835 11.0256 9.93051 11.0256 8.99161C11.0256 8.0705 11.1858 7.40748 11.5062 7.00255C11.771 6.66882 12.1403 6.50195 12.6142 6.50195ZM12.6142 7.27955C12.5007 7.27955 12.3995 7.31626 12.3105 7.38968C12.2215 7.46088 12.1525 7.58992 12.1036 7.77682C12.0391 8.01933 12.0068 8.4276 12.0068 9.00162C12.0068 9.57564 12.0357 9.97056 12.0936 10.1864C12.1514 10.4 12.2237 10.5424 12.3105 10.6136C12.3995 10.6847 12.5007 10.7203 12.6142 10.7203C12.7277 10.7203 12.8289 10.6847 12.9179 10.6136C13.0069 10.5401 13.0759 10.41 13.1248 10.2231C13.1893 9.98279 13.2216 9.57564 13.2216 9.00162C13.2216 8.4276 13.1927 8.03379 13.1348 7.8202C13.077 7.60439 13.0036 7.46088 12.9146 7.38968C12.8278 7.31626 12.7277 7.27955 12.6142 7.27955Z" fill="currentColor"/>
<path d="M8.80976 6.50195C9.28366 6.50195 9.65411 6.67104 9.9211 7.00923C10.2393 7.40971 10.3983 8.07384 10.3983 9.00162C10.3983 9.92717 10.2381 10.5924 9.91776 10.9973C9.653 11.3311 9.28366 11.4979 8.80976 11.4979C8.33364 11.4979 7.94984 11.3155 7.65838 10.9506C7.36692 10.5835 7.22119 9.93051 7.22119 8.99161C7.22119 8.0705 7.38138 7.40748 7.70177 7.00255C7.96653 6.66882 8.33586 6.50195 8.80976 6.50195ZM8.80976 7.27955C8.69629 7.27955 8.59506 7.31626 8.50607 7.38968C8.41707 7.46088 8.3481 7.58992 8.29915 7.77682C8.23463 8.01933 8.20237 8.4276 8.20237 9.00162C8.20237 9.57564 8.23129 9.97056 8.28914 10.1864C8.34699 10.4 8.41929 10.5424 8.50607 10.6136C8.59506 10.6847 8.69629 10.7203 8.80976 10.7203C8.92323 10.7203 9.02447 10.6847 9.11346 10.6136C9.20246 10.5401 9.27143 10.41 9.32038 10.2231C9.3849 9.98279 9.41716 9.57564 9.41716 9.00162C9.41716 8.4276 9.38823 8.03379 9.33039 7.8202C9.27254 7.60439 9.19912 7.46088 9.11012 7.38968C9.02335 7.31626 8.92323 7.27955 8.80976 7.27955Z" fill="currentColor"/>
<path d="M6.59334 11.4145H5.65554V7.88027C5.31291 8.20066 4.90909 8.43761 4.44409 8.59113V7.7401C4.68883 7.66001 4.9547 7.50872 5.24172 7.28623C5.52873 7.06151 5.72563 6.80009 5.83242 6.50195H6.59334V11.4145Z" fill="white"/>
<path d="M3.03149 15.9007C3.03149 15.9901 3.06874 16.072 3.14326 16.1463C3.21758 16.2208 3.29945 16.2581 3.38887 16.2581H14.8676C14.9571 16.2581 15.0389 16.2208 15.1133 16.1463C15.1878 16.072 15.225 15.9901 15.225 15.9007V2.09932C15.225 2.0099 15.1878 1.92803 15.1133 1.85371C15.0389 1.77919 14.9571 1.74194 14.8676 1.74194H3.38887C3.29945 1.74194 3.21758 1.77919 3.14326 1.85371C3.06874 1.92803 3.03149 2.0099 3.03149 2.09932V15.9007ZM3.38887 18C2.80223 18 2.30568 17.7968 1.89923 17.3903C1.49278 16.9839 1.28955 16.4873 1.28955 15.9007V2.09932C1.28955 1.51268 1.49278 1.01613 1.89923 0.609677C2.30568 0.203226 2.80223 0 3.38887 0H14.8676C15.4543 0 15.9508 0.203226 16.3573 0.609677C16.7637 1.01613 16.967 1.51268 16.967 2.09932V15.9007C16.967 16.4873 16.7637 16.9839 16.3573 17.3903C15.9508 17.7968 15.4543 18 14.8676 18H3.38887ZM3.03149 15.9007V1.74194V16.2581V15.9007Z" fill="white"/>
</svg>
