<svg width="22" height="22" viewBox="0 0 22 22" fill="none" xmlns="http://www.w3.org/2000/svg">
<path d="M3.39541 16.625C3.15022 16.625 2.94469 16.5421 2.77883 16.3762C2.61296 16.2103 2.53003 16.0048 2.53003 15.7596C2.53003 15.5144 2.61296 15.3089 2.77883 15.143C2.94469 14.9772 3.15022 14.8942 3.39541 14.8942H10.3185C10.5637 14.8942 10.7692 14.9772 10.9351 15.143C11.1009 15.3089 11.1839 15.5144 11.1839 15.7596C11.1839 16.0048 11.1009 16.2103 10.9351 16.3762C10.7692 16.5421 10.5637 16.625 10.3185 16.625H3.39541ZM3.39541 12.2981C3.15022 12.2981 2.94469 12.2151 2.77883 12.0493C2.61296 11.8834 2.53003 11.6779 2.53003 11.4327C2.53003 11.1875 2.61296 10.982 2.77883 10.8161C2.94469 10.6502 3.15022 10.5673 3.39541 10.5673H5.99157C6.23676 10.5673 6.44229 10.6502 6.60815 10.8161C6.77402 10.982 6.85695 11.1875 6.85695 11.4327C6.85695 11.6779 6.77402 11.8834 6.60815 12.0493C6.44229 12.2151 6.23676 12.2981 5.99157 12.2981H3.39541ZM3.39541 7.97115C3.15022 7.97115 2.94469 7.88822 2.77883 7.72236C2.61296 7.55649 2.53003 7.35096 2.53003 7.10577C2.53003 6.86058 2.61296 6.65505 2.77883 6.48918C2.94469 6.32332 3.15022 6.24038 3.39541 6.24038H5.99157C6.23676 6.24038 6.44229 6.32332 6.60815 6.48918C6.77402 6.65505 6.85695 6.86058 6.85695 7.10577C6.85695 7.35096 6.77402 7.55649 6.60815 7.72236C6.44229 7.88822 6.23676 7.97115 5.99157 7.97115H3.39541ZM12.9146 14.0288C11.7175 14.0288 10.6971 13.607 9.85335 12.7632C9.0096 11.9195 8.58772 10.899 8.58772 9.70192C8.58772 8.50481 9.0096 7.48438 9.85335 6.64062C10.6971 5.79688 11.7175 5.375 12.9146 5.375C14.1118 5.375 15.1322 5.79688 15.9759 6.64062C16.8197 7.48438 17.2416 8.50481 17.2416 9.70192C17.2416 10.1202 17.1803 10.5349 17.0577 10.9459C16.9351 11.357 16.7512 11.7356 16.506 12.0817L19.232 14.8077C19.3906 14.9663 19.4699 15.1683 19.4699 15.4135C19.4699 15.6587 19.3906 15.8606 19.232 16.0192C19.0733 16.1779 18.8714 16.2572 18.6262 16.2572C18.381 16.2572 18.1791 16.1779 18.0204 16.0192L15.2945 13.2933C14.9483 13.5385 14.5697 13.7224 14.1586 13.845C13.7476 13.9675 13.3329 14.0288 12.9146 14.0288ZM12.9146 12.2981C13.6358 12.2981 14.2488 12.0457 14.7536 11.5409C15.2584 11.0361 15.5108 10.4231 15.5108 9.70192C15.5108 8.98077 15.2584 8.36779 14.7536 7.86298C14.2488 7.35817 13.6358 7.10577 12.9146 7.10577C12.1935 7.10577 11.5805 7.35817 11.0757 7.86298C10.5709 8.36779 10.3185 8.98077 10.3185 9.70192C10.3185 10.4231 10.5709 11.0361 11.0757 11.5409C11.5805 12.0457 12.1935 12.2981 12.9146 12.2981Z" fill="currentColor"/>
</svg>
