<svg width="22" height="22" viewBox="0 0 22 22" fill="none" xmlns="http://www.w3.org/2000/svg">
<path d="M4.33333 17.9117C4.09722 17.9117 3.89931 17.8319 3.73958 17.6721C3.57986 17.5124 3.5 17.3145 3.5 17.0784V16.245C3.5 16.0089 3.57986 15.811 3.73958 15.6513C3.89931 15.4916 4.09722 15.4117 4.33333 15.4117C4.56944 15.4117 4.76736 15.4916 4.92708 15.6513C5.08681 15.811 5.16667 16.0089 5.16667 16.245V17.0784C5.16667 17.3145 5.08681 17.5124 4.92708 17.6721C4.76736 17.8319 4.56944 17.9117 4.33333 17.9117ZM7.66667 17.9117C7.43056 17.9117 7.23264 17.8319 7.07292 17.6721C6.91319 17.5124 6.83333 17.3145 6.83333 17.0784V12.495C6.83333 12.2589 6.91319 12.061 7.07292 11.9013C7.23264 11.7416 7.43056 11.6617 7.66667 11.6617C7.90278 11.6617 8.10069 11.7416 8.26042 11.9013C8.42014 12.061 8.5 12.2589 8.5 12.495V17.0784C8.5 17.3145 8.42014 17.5124 8.26042 17.6721C8.10069 17.8319 7.90278 17.9117 7.66667 17.9117ZM11 17.9117C10.7639 17.9117 10.566 17.8319 10.4062 17.6721C10.2465 17.5124 10.1667 17.3145 10.1667 17.0784V14.1617C10.1667 13.9256 10.2465 13.7277 10.4062 13.568C10.566 13.4082 10.7639 13.3284 11 13.3284C11.2361 13.3284 11.434 13.4082 11.5938 13.568C11.7535 13.7277 11.8333 13.9256 11.8333 14.1617V17.0784C11.8333 17.3145 11.7535 17.5124 11.5938 17.6721C11.434 17.8319 11.2361 17.9117 11 17.9117ZM14.3333 17.9117C14.0972 17.9117 13.8993 17.8319 13.7396 17.6721C13.5799 17.5124 13.5 17.3145 13.5 17.0784V12.9117C13.5 12.6756 13.5799 12.4777 13.7396 12.318C13.8993 12.1582 14.0972 12.0784 14.3333 12.0784C14.5694 12.0784 14.7674 12.1582 14.9271 12.318C15.0868 12.4777 15.1667 12.6756 15.1667 12.9117V17.0784C15.1667 17.3145 15.0868 17.5124 14.9271 17.6721C14.7674 17.8319 14.5694 17.9117 14.3333 17.9117ZM17.6667 17.9117C17.4306 17.9117 17.2326 17.8319 17.0729 17.6721C16.9132 17.5124 16.8333 17.3145 16.8333 17.0784V9.57838C16.8333 9.34227 16.9132 9.14435 17.0729 8.98463C17.2326 8.82491 17.4306 8.74505 17.6667 8.74505C17.9028 8.74505 18.1007 8.82491 18.2604 8.98463C18.4201 9.14435 18.5 9.34227 18.5 9.57838V17.0784C18.5 17.3145 18.4201 17.5124 18.2604 17.6721C18.1007 17.8319 17.9028 17.9117 17.6667 17.9117ZM12.6667 10.3909C12.4444 10.3909 12.2326 10.3492 12.0312 10.2659C11.8299 10.1825 11.6458 10.0645 11.4792 9.91171L9.33333 7.76588L4.91667 12.1825C4.75 12.3492 4.55208 12.4291 4.32292 12.4221C4.09375 12.4152 3.89583 12.3284 3.72917 12.1617C3.57639 11.995 3.50347 11.7971 3.51042 11.568C3.51736 11.3388 3.59722 11.1478 3.75 10.995L8.14583 6.59921C8.3125 6.43255 8.49653 6.31102 8.69792 6.23463C8.89931 6.15824 9.11111 6.12005 9.33333 6.12005C9.55556 6.12005 9.77083 6.15824 9.97917 6.23463C10.1875 6.31102 10.3681 6.43255 10.5208 6.59921L12.6667 8.74505L17.0833 4.32838C17.25 4.16171 17.4479 4.08185 17.6771 4.0888C17.9062 4.09574 18.1042 4.18255 18.2708 4.34921C18.4236 4.51588 18.4965 4.7138 18.4896 4.94296C18.4826 5.17213 18.4028 5.3631 18.25 5.51588L13.8542 9.91171C13.7014 10.0645 13.5208 10.1825 13.3125 10.2659C13.1042 10.3492 12.8889 10.3909 12.6667 10.3909Z" fill="currentColor"/>
</svg>
