<svg width="22" height="22" viewBox="0 0 22 22" fill="none" xmlns="http://www.w3.org/2000/svg">
<path d="M3.5 11.8333V5.16667C3.5 4.70833 3.66319 4.31597 3.98958 3.98958C4.31597 3.66319 4.70833 3.5 5.16667 3.5H10.1667V11.8333H3.5ZM11.8333 3.5H16.8333C17.2917 3.5 17.684 3.66319 18.0104 3.98958C18.3368 4.31597 18.5 4.70833 18.5 5.16667V8.5H11.8333V3.5ZM11.8333 18.5V10.1667H18.5V16.8333C18.5 17.2917 18.3368 17.684 18.0104 18.0104C17.684 18.3368 17.2917 18.5 16.8333 18.5H11.8333ZM3.5 13.5H10.1667V18.5H5.16667C4.70833 18.5 4.31597 18.3368 3.98958 18.0104C3.66319 17.684 3.5 17.2917 3.5 16.8333V13.5ZM5.16667 10.1667H8.5V5.16667H5.16667V10.1667ZM13.5 6.83333H16.8333V5.16667H13.5V6.83333ZM13.5 11.8333V16.8333H16.8333V11.8333H13.5ZM5.16667 15.1667V16.8333H8.5V15.1667H5.16667Z" fill="currentColor"/>
</svg>
