<svg width="22" height="22" viewBox="0 0 22 22" fill="none" xmlns="http://www.w3.org/2000/svg">
<path d="M7.66667 14.3333V15.375C7.66667 15.5556 7.72569 15.7049 7.84375 15.8229C7.96181 15.941 8.11111 16 8.29167 16C8.47222 16 8.62153 15.941 8.73958 15.8229C8.85764 15.7049 8.91667 15.5556 8.91667 15.375V14.3333H9.95833C10.1389 14.3333 10.2882 14.2743 10.4062 14.1562C10.5243 14.0382 10.5833 13.8889 10.5833 13.7083C10.5833 13.5278 10.5243 13.3785 10.4062 13.2604C10.2882 13.1424 10.1389 13.0833 9.95833 13.0833H8.91667V12.0417C8.91667 11.8611 8.85764 11.7118 8.73958 11.5938C8.62153 11.4757 8.47222 11.4167 8.29167 11.4167C8.11111 11.4167 7.96181 11.4757 7.84375 11.5938C7.72569 11.7118 7.66667 11.8611 7.66667 12.0417V13.0833H6.625C6.44444 13.0833 6.29514 13.1424 6.17708 13.2604C6.05903 13.3785 6 13.5278 6 13.7083C6 13.8889 6.05903 14.0382 6.17708 14.1562C6.29514 14.2743 6.44444 14.3333 6.625 14.3333H7.66667ZM12.4583 15.375H15.375C15.5556 15.375 15.7049 15.316 15.8229 15.1979C15.941 15.0799 16 14.9306 16 14.75C16 14.5694 15.941 14.4201 15.8229 14.3021C15.7049 14.184 15.5556 14.125 15.375 14.125H12.4583C12.2778 14.125 12.1285 14.184 12.0104 14.3021C11.8924 14.4201 11.8333 14.5694 11.8333 14.75C11.8333 14.9306 11.8924 15.0799 12.0104 15.1979C12.1285 15.316 12.2778 15.375 12.4583 15.375ZM12.4583 13.2917H15.375C15.5556 13.2917 15.7049 13.2326 15.8229 13.1146C15.941 12.9965 16 12.8472 16 12.6667C16 12.4861 15.941 12.3368 15.8229 12.2188C15.7049 12.1007 15.5556 12.0417 15.375 12.0417H12.4583C12.2778 12.0417 12.1285 12.1007 12.0104 12.2188C11.8924 12.3368 11.8333 12.4861 11.8333 12.6667C11.8333 12.8472 11.8924 12.9965 12.0104 13.1146C12.1285 13.2326 12.2778 13.2917 12.4583 13.2917ZM6.83333 8.66667H9.75C9.93056 8.66667 10.0799 8.60764 10.1979 8.48958C10.316 8.37153 10.375 8.22222 10.375 8.04167C10.375 7.86111 10.316 7.71181 10.1979 7.59375C10.0799 7.47569 9.93056 7.41667 9.75 7.41667H6.83333C6.65278 7.41667 6.50347 7.47569 6.38542 7.59375C6.26736 7.71181 6.20833 7.86111 6.20833 8.04167C6.20833 8.22222 6.26736 8.37153 6.38542 8.48958C6.50347 8.60764 6.65278 8.66667 6.83333 8.66667ZM5.16667 18.5C4.70833 18.5 4.31597 18.3368 3.98958 18.0104C3.66319 17.684 3.5 17.2917 3.5 16.8333V5.16667C3.5 4.70833 3.66319 4.31597 3.98958 3.98958C4.31597 3.66319 4.70833 3.5 5.16667 3.5H16.8333C17.2917 3.5 17.684 3.66319 18.0104 3.98958C18.3368 4.31597 18.5 4.70833 18.5 5.16667V16.8333C18.5 17.2917 18.3368 17.684 18.0104 18.0104C17.684 18.3368 17.2917 18.5 16.8333 18.5H5.16667ZM5.16667 16.8333H16.8333V5.16667H5.16667V16.8333ZM13.9167 8.95833L14.6458 9.6875C14.7708 9.8125 14.9167 9.875 15.0833 9.875C15.25 9.875 15.3958 9.8125 15.5208 9.6875C15.6319 9.57639 15.691 9.43403 15.6979 9.26042C15.7049 9.08681 15.6528 8.9375 15.5417 8.8125L14.7917 8.04167L15.5208 7.3125C15.6458 7.1875 15.7083 7.04167 15.7083 6.875C15.7083 6.70833 15.6458 6.5625 15.5208 6.4375C15.3958 6.3125 15.25 6.25 15.0833 6.25C14.9167 6.25 14.7708 6.3125 14.6458 6.4375L13.9167 7.16667L13.1875 6.4375C13.0625 6.3125 12.9167 6.25 12.75 6.25C12.5833 6.25 12.4375 6.3125 12.3125 6.4375C12.1875 6.5625 12.125 6.70833 12.125 6.875C12.125 7.04167 12.1875 7.1875 12.3125 7.3125L13.0417 8.04167L12.2917 8.8125C12.1806 8.9375 12.125 9.08333 12.125 9.25C12.125 9.41667 12.1875 9.5625 12.3125 9.6875C12.4375 9.8125 12.5833 9.875 12.75 9.875C12.9167 9.875 13.0625 9.8125 13.1875 9.6875L13.9167 8.95833Z" fill="currentColor"/>
</svg>
