<svg width="22" height="22" viewBox="0 0 22 22" fill="none" xmlns="http://www.w3.org/2000/svg">
<path d="M6.5 18.5C5.875 18.5 5.34375 18.2813 4.90625 17.8438C4.46875 17.4063 4.25 16.875 4.25 16.25V5.75C4.25 5.125 4.46875 4.59375 4.90625 4.15625C5.34375 3.71875 5.875 3.5 6.5 3.5H13.25C13.6625 3.5 14.0156 3.64687 14.3094 3.94063C14.6031 4.23438 14.75 4.5875 14.75 5V14C14.75 14.4125 14.6031 14.7656 14.3094 15.0594C14.0156 15.3531 13.6625 15.5 13.25 15.5H6.5C6.2875 15.5 6.10938 15.5719 5.96563 15.7156C5.82188 15.8594 5.75 16.0375 5.75 16.25C5.75 16.4625 5.82188 16.6406 5.96563 16.7844C6.10938 16.9281 6.2875 17 6.5 17H16.25V5.75C16.25 5.5375 16.3219 5.35938 16.4656 5.21563C16.6094 5.07188 16.7875 5 17 5C17.2125 5 17.3906 5.07188 17.5344 5.21563C17.6781 5.35938 17.75 5.5375 17.75 5.75V17C17.75 17.4125 17.6031 17.7656 17.3094 18.0594C17.0156 18.3531 16.6625 18.5 16.25 18.5H6.5ZM6.5 14H13.25V5H6.5C6.2875 5 6.10938 5.07188 5.96563 5.21563C5.82188 5.35938 5.75 5.5375 5.75 5.75V14.1313C5.875 14.0938 5.99688 14.0625 6.11563 14.0375C6.23438 14.0125 6.3625 14 6.5 14ZM7.6625 12.125C7.7625 12.125 7.84688 12.1 7.91563 12.05C7.98438 12 8.03125 11.9313 8.05625 11.8438L8.45 10.775H10.5688L10.9438 11.8438C10.9688 11.9313 11.0188 12 11.0938 12.05C11.1688 12.1 11.25 12.125 11.3375 12.125C11.4875 12.125 11.6063 12.0625 11.6938 11.9375C11.7813 11.8125 11.7938 11.6813 11.7313 11.5438L10.0813 7.15625C10.0563 7.06875 10.0063 7 9.93125 6.95C9.85625 6.9 9.76875 6.875 9.66875 6.875H9.33125C9.23125 6.875 9.14375 6.9 9.06875 6.95C8.99375 7 8.94375 7.06875 8.91875 7.15625L7.26875 11.5625C7.21875 11.7 7.23438 11.8281 7.31563 11.9469C7.39688 12.0656 7.5125 12.125 7.6625 12.125ZM8.7125 10.025L9.48125 7.85H9.51875L10.2875 10.025H8.7125Z" fill="currentColor"/>
</svg>
