<svg width="22" height="22" viewBox="0 0 22 22" fill="none" xmlns="http://www.w3.org/2000/svg">
<path d="M4.8125 18.5C4.65 18.5 4.51562 18.4469 4.40938 18.3406C4.30313 18.2344 4.25 18.1 4.25 17.9375C4.25 17.775 4.30313 17.6406 4.40938 17.5344C4.51562 17.4281 4.65 17.375 4.8125 17.375H6.125V16.8125H5.5625C5.4 16.8125 5.26562 16.7594 5.15938 16.6531C5.05313 16.5469 5 16.4125 5 16.25C5 16.0875 5.05313 15.9531 5.15938 15.8469C5.26562 15.7406 5.4 15.6875 5.5625 15.6875H6.125V15.125H4.8125C4.65 15.125 4.51562 15.0719 4.40938 14.9656C4.30313 14.8594 4.25 14.725 4.25 14.5625C4.25 14.4 4.30313 14.2656 4.40938 14.1594C4.51562 14.0531 4.65 14 4.8125 14H6.5C6.7125 14 6.89062 14.0719 7.03438 14.2156C7.17813 14.3594 7.25 14.5375 7.25 14.75V15.5C7.25 15.7125 7.17813 15.8906 7.03438 16.0344C6.89062 16.1781 6.7125 16.25 6.5 16.25C6.7125 16.25 6.89062 16.3219 7.03438 16.4656C7.17813 16.6094 7.25 16.7875 7.25 17V17.75C7.25 17.9625 7.17813 18.1406 7.03438 18.2844C6.89062 18.4281 6.7125 18.5 6.5 18.5H4.8125ZM4.8125 13.25C4.65 13.25 4.51562 13.1969 4.40938 13.0906C4.30313 12.9844 4.25 12.85 4.25 12.6875V11.1875C4.25 10.975 4.32188 10.7969 4.46563 10.6531C4.60938 10.5094 4.7875 10.4375 5 10.4375H6.125V9.875H4.8125C4.65 9.875 4.51562 9.82188 4.40938 9.71563C4.30313 9.60938 4.25 9.475 4.25 9.3125C4.25 9.15 4.30313 9.01562 4.40938 8.90938C4.51562 8.80313 4.65 8.75 4.8125 8.75H6.5C6.7125 8.75 6.89062 8.82188 7.03438 8.96563C7.17813 9.10938 7.25 9.2875 7.25 9.5V10.8125C7.25 11.025 7.17813 11.2031 7.03438 11.3469C6.89062 11.4906 6.7125 11.5625 6.5 11.5625H5.375V12.125H6.6875C6.85 12.125 6.98438 12.1781 7.09063 12.2844C7.19688 12.3906 7.25 12.525 7.25 12.6875C7.25 12.85 7.19688 12.9844 7.09063 13.0906C6.98438 13.1969 6.85 13.25 6.6875 13.25H4.8125ZM5.9375 8C5.775 8 5.64062 7.94688 5.53438 7.84063C5.42813 7.73438 5.375 7.6 5.375 7.4375V4.625H4.8125C4.65 4.625 4.51562 4.57188 4.40938 4.46563C4.30313 4.35938 4.25 4.225 4.25 4.0625C4.25 3.9 4.30313 3.76562 4.40938 3.65938C4.51562 3.55313 4.65 3.5 4.8125 3.5H5.9375C6.1 3.5 6.23438 3.55313 6.34063 3.65938C6.44688 3.76562 6.5 3.9 6.5 4.0625V7.4375C6.5 7.6 6.44688 7.73438 6.34063 7.84063C6.23438 7.94688 6.1 8 5.9375 8ZM9.5 16.25C9.2875 16.25 9.10938 16.1781 8.96563 16.0344C8.82188 15.8906 8.75 15.7125 8.75 15.5C8.75 15.2875 8.82188 15.1094 8.96563 14.9656C9.10938 14.8219 9.2875 14.75 9.5 14.75H17C17.2125 14.75 17.3906 14.8219 17.5344 14.9656C17.6781 15.1094 17.75 15.2875 17.75 15.5C17.75 15.7125 17.6781 15.8906 17.5344 16.0344C17.3906 16.1781 17.2125 16.25 17 16.25H9.5ZM9.5 11.75C9.2875 11.75 9.10938 11.6781 8.96563 11.5344C8.82188 11.3906 8.75 11.2125 8.75 11C8.75 10.7875 8.82188 10.6094 8.96563 10.4656C9.10938 10.3219 9.2875 10.25 9.5 10.25H17C17.2125 10.25 17.3906 10.3219 17.5344 10.4656C17.6781 10.6094 17.75 10.7875 17.75 11C17.75 11.2125 17.6781 11.3906 17.5344 11.5344C17.3906 11.6781 17.2125 11.75 17 11.75H9.5ZM9.5 7.25C9.2875 7.25 9.10938 7.17813 8.96563 7.03438C8.82188 6.89063 8.75 6.7125 8.75 6.5C8.75 6.2875 8.82188 6.10938 8.96563 5.96563C9.10938 5.82188 9.2875 5.75 9.5 5.75H17C17.2125 5.75 17.3906 5.82188 17.5344 5.96563C17.6781 6.10938 17.75 6.2875 17.75 6.5C17.75 6.7125 17.6781 6.89063 17.5344 7.03438C17.3906 7.17813 17.2125 7.25 17 7.25H9.5Z" fill="currentColor"/>
</svg>
