<svg width="29" height="29" viewBox="0 0 29 29" fill="none" xmlns="http://www.w3.org/2000/svg">
<path d="M15.0003 28.6377C14.5321 28.6377 14.1181 28.5143 13.7584 28.2676C13.3987 28.0206 13.1471 27.6968 13.0036 27.296H12.667C12.1898 27.296 11.7789 27.1237 11.4341 26.7789C11.0894 26.4342 10.917 26.0232 10.917 25.546V21.7185C9.73983 21.0051 8.81359 20.0486 8.13828 18.8491C7.46298 17.6494 7.12533 16.3652 7.12533 14.9967C7.12533 12.8011 7.88891 10.9397 9.41608 9.41249C10.9432 7.88533 12.8047 7.12174 15.0003 7.12174C17.196 7.12174 19.0574 7.88533 20.5846 9.41249C22.1117 10.9397 22.8753 12.8011 22.8753 14.9967C22.8753 16.3892 22.5377 17.6792 21.8624 18.8669C21.1871 20.0545 20.2608 21.0051 19.0837 21.7185V25.546C19.0837 26.0232 18.9113 26.4342 18.5665 26.7789C18.2218 27.1237 17.8108 27.296 17.3337 27.296H16.9971C16.8536 27.6968 16.602 28.0206 16.2422 28.2676C15.8825 28.5143 15.4685 28.6377 15.0003 28.6377ZM12.667 25.546H17.3337V24.4511H12.667V25.546ZM12.667 23.4192H17.3337V22.2884H12.667V23.4192ZM12.4337 20.5384H14.3047V17.1417L11.8054 14.6424L12.7837 13.6641L15.0003 15.8808L17.217 13.6641L18.1952 14.6424L15.696 17.1417V20.5384H17.567C18.617 20.0329 19.4725 19.2891 20.1337 18.3072C20.7948 17.3252 21.1253 16.2217 21.1253 14.9967C21.1253 13.2856 20.5323 11.837 19.3462 10.6509C18.16 9.4648 16.7114 8.87174 15.0003 8.87174C13.2892 8.87174 11.8406 9.4648 10.6545 10.6509C9.46838 11.837 8.87533 13.2856 8.87533 14.9967C8.87533 16.2217 9.20588 17.3252 9.86699 18.3072C10.5281 19.2891 11.3837 20.0329 12.4337 20.5384Z" fill="#525252"/>
<path d="M5.35449 15.9447H0.979492V14.1947H5.35449V15.9447ZM28.8962 16.1322H24.5212V14.3822H28.8962V16.1322ZM14.1253 5.17383V0.798828H15.8753V5.17383H14.1253ZM7.50216 8.74283L4.76953 6.10441L6.00591 4.8097L8.63762 7.51316L7.50216 8.74283ZM21.3272 7.57149L23.9656 4.83887L25.2603 6.07524L22.5568 8.70695L21.3272 7.57149Z" fill="#525252"/>
</svg>
