<svg width="45" height="45" viewBox="0 0 45 45" fill="none" xmlns="http://www.w3.org/2000/svg">
    <g filter="url(#filter0_d_11437_11932)">
        <path d="M23.0001 36.7632C22.5319 36.7632 22.1179 36.6398 21.7582 36.3931C21.3984 36.1461 21.1468 35.8223 21.0033 35.4215H20.6667C20.1896 35.4215 19.7786 35.2491 19.4339 34.9044C19.0891 34.5597 18.9167 34.1487 18.9167 33.6715V29.844C17.7396 29.1306 16.8133 28.1741 16.138 26.9746C15.4627 25.7748 15.1251 24.4907 15.1251 23.1222C15.1251 20.9266 15.8887 19.0651 17.4158 17.538C18.943 16.0108 20.8044 15.2472 23.0001 15.2472C25.1957 15.2472 27.0572 16.0108 28.5843 17.538C30.1115 19.0651 30.8751 20.9266 30.8751 23.1222C30.8751 24.5146 30.5374 25.8047 29.8621 26.9924C29.1868 28.18 28.2606 29.1306 27.0834 29.844V33.6715C27.0834 34.1487 26.911 34.5597 26.5663 34.9044C26.2215 35.2491 25.8106 35.4215 25.3334 35.4215H24.9968C24.8533 35.8223 24.6017 36.1461 24.242 36.3931C23.8823 36.6398 23.4683 36.7632 23.0001 36.7632ZM20.6667 33.6715H25.3334V32.5766H20.6667V33.6715ZM20.6667 31.5447H25.3334V30.4139H20.6667V31.5447ZM20.4334 28.6639H22.3045V25.2671L19.8052 22.7679L20.7834 21.7896L23.0001 24.0063L25.2167 21.7896L26.195 22.7679L23.6957 25.2671V28.6639H25.5667C26.6167 28.1583 27.4723 27.4146 28.1334 26.4326C28.7945 25.4507 29.1251 24.3472 29.1251 23.1222C29.1251 21.4111 28.532 19.9625 27.3459 18.7764C26.1598 17.5903 24.7112 16.9972 23.0001 16.9972C21.289 16.9972 19.8404 17.5903 18.6542 18.7764C17.4681 19.9625 16.8751 21.4111 16.8751 23.1222C16.8751 24.3472 17.2056 25.4507 17.8667 26.4326C18.5279 27.4146 19.3834 28.1583 20.4334 28.6639Z" fill="#FFE23D"/>
        <path d="M13.3542 24.0701H8.97925V22.3201H13.3542V24.0701ZM36.8959 24.2576H32.5209V22.5076H36.8959V24.2576ZM22.1251 13.2993V8.92432H23.8751V13.2993H22.1251ZM15.5019 16.8683L12.7693 14.2299L14.0057 12.9352L16.6374 15.6386L15.5019 16.8683ZM29.3269 15.697L31.9653 12.9644L33.26 14.2007L30.5566 16.8324L29.3269 15.697Z" fill="#FFE23D"/>
    </g>
    <defs>
        <filter id="filter0_d_11437_11932" x="0.979248" y="0.924316" width="43.9167" height="43.8389" filterUnits="userSpaceOnUse" color-interpolation-filters="sRGB">
            <feFlood flood-opacity="0" result="BackgroundImageFix"/>
            <feColorMatrix in="SourceAlpha" type="matrix" values="0 0 0 0 0 0 0 0 0 0 0 0 0 0 0 0 0 0 127 0" result="hardAlpha"/>
            <feOffset/>
            <feGaussianBlur stdDeviation="4"/>
            <feComposite in2="hardAlpha" operator="out"/>
            <feColorMatrix type="matrix" values="0 0 0 0 1 0 0 0 0 0.886275 0 0 0 0 0.239216 0 0 0 0.5 0"/>
            <feBlend mode="normal" in2="BackgroundImageFix" result="effect1_dropShadow_11437_11932"/>
            <feBlend mode="normal" in="SourceGraphic" in2="effect1_dropShadow_11437_11932" result="shape"/>
        </filter>
    </defs>
</svg>
