<svg width="32" height="32" viewBox="0 0 32 32" fill="none" xmlns="http://www.w3.org/2000/svg">
<path d="M9.62302 25.976C9.06605 25.976 8.58927 25.7777 8.19269 25.3811C7.79611 24.9845 7.59782 24.5077 7.59782 23.9508V20.6546H9.27825V23.9508C9.27825 24.0514 9.31055 24.134 9.37516 24.1986C9.43976 24.2632 9.52238 24.2955 9.62302 24.2955H22.377C22.4776 24.2955 22.5602 24.2632 22.6248 24.1986C22.6894 24.134 22.7217 24.0514 22.7217 23.9508V20.6546H24.4022V23.9508C24.4022 24.5077 24.2039 24.9845 23.8073 25.3811C23.4107 25.7777 22.934 25.976 22.377 25.976H9.62302ZM7.59782 14.493V6.71564C7.59782 6.15866 7.79611 5.68189 8.19269 5.2853C8.58927 4.88872 9.06605 4.69043 9.62302 4.69043H18.5207L24.4022 10.572V14.493H22.7217V11.4122H17.6804V6.37087H9.62302C9.52238 6.37087 9.43976 6.40317 9.37516 6.46777C9.31055 6.53238 9.27825 6.615 9.27825 6.71564V14.493H7.59782ZM4 18.414V16.7336H28V18.414H4Z" fill="#171717"/>
</svg>
