<svg width="32" height="32" viewBox="0 0 32 32" fill="none" xmlns="http://www.w3.org/2000/svg">
<path d="M10.023 21.2923C10.873 20.6616 11.799 20.1635 12.801 19.798C13.8028 19.4327 14.8692 19.25 16 19.25C17.1308 19.25 18.1972 19.4327 19.199 19.798C20.201 20.1635 21.127 20.6616 21.977 21.2923C22.5987 20.6089 23.0912 19.8179 23.4548 18.9192C23.8183 18.0206 24 17.0475 24 16C24 13.7833 23.2208 11.8958 21.6625 10.3375C20.1042 8.77917 18.2167 8 16 8C13.7833 8 11.8958 8.77917 10.3375 10.3375C8.77917 11.8958 8 13.7833 8 16C8 17.0475 8.18175 18.0206 8.54525 18.9192C8.90875 19.8179 9.40133 20.6089 10.023 21.2923ZM16.0003 16.75C15.0873 16.75 14.3173 16.4367 13.6905 15.81C13.0635 15.1832 12.75 14.4133 12.75 13.5003C12.75 12.5873 13.0633 11.8173 13.69 11.1905C14.3168 10.5635 15.0868 10.25 15.9998 10.25C16.9128 10.25 17.6827 10.5633 18.3095 11.19C18.9365 11.8168 19.25 12.5868 19.25 13.4997C19.25 14.4127 18.9367 15.1827 18.31 15.8095C17.6832 16.4365 16.9132 16.75 16.0003 16.75ZM16 25.5C14.6808 25.5 13.4433 25.2519 12.2875 24.7558C11.1317 24.2596 10.1263 23.5839 9.27125 22.7288C8.41608 21.8738 7.74042 20.8683 7.24425 19.7125C6.74808 18.5567 6.5 17.3192 6.5 16C6.5 14.6808 6.74808 13.4433 7.24425 12.2875C7.74042 11.1317 8.41608 10.1262 9.27125 9.27125C10.1263 8.41608 11.1317 7.74042 12.2875 7.24425C13.4433 6.74808 14.6808 6.5 16 6.5C17.3192 6.5 18.5567 6.74808 19.7125 7.24425C20.8683 7.74042 21.8738 8.41608 22.7288 9.27125C23.5839 10.1262 24.2596 11.1317 24.7558 12.2875C25.2519 13.4433 25.5 14.6808 25.5 16C25.5 17.3192 25.2519 18.5567 24.7558 19.7125C24.2596 20.8683 23.5839 21.8738 22.7288 22.7288C21.8738 23.5839 20.8683 24.2596 19.7125 24.7558C18.5567 25.2519 17.3192 25.5 16 25.5ZM16 24C16.9025 24 17.7727 23.8548 18.6105 23.5645C19.4483 23.274 20.1923 22.8679 20.8422 22.3462C20.1923 21.8436 19.458 21.4519 18.6395 21.1712C17.8208 20.8904 16.941 20.75 16 20.75C15.059 20.75 14.1776 20.8888 13.3558 21.1663C12.5339 21.4439 11.8012 21.8372 11.1578 22.3462C11.8078 22.8679 12.5517 23.274 13.3895 23.5645C14.2273 23.8548 15.0975 24 16 24ZM16 15.25C16.4975 15.25 16.9135 15.0827 17.248 14.748C17.5827 14.4135 17.75 13.9975 17.75 13.5C17.75 13.0025 17.5827 12.5865 17.248 12.252C16.9135 11.9173 16.4975 11.75 16 11.75C15.5025 11.75 15.0865 11.9173 14.752 12.252C14.4173 12.5865 14.25 13.0025 14.25 13.5C14.25 13.9975 14.4173 14.4135 14.752 14.748C15.0865 15.0827 15.5025 15.25 16 15.25Z" fill="#171717"/>
</svg>
