<svg width="32" height="32" viewBox="0 0 32 32" fill="none" xmlns="http://www.w3.org/2000/svg">
<path d="M6.61548 13.9135C6.61548 12.4392 6.92856 11.0782 7.55473 9.83075C8.18106 8.58342 9.02631 7.53025 10.0905 6.67125L11.0152 7.8385C10.1242 8.559 9.41815 9.44233 8.89698 10.4885C8.37598 11.5347 8.11548 12.6763 8.11548 13.9135H6.61548ZM23.8845 13.9135C23.8845 12.6763 23.624 11.5331 23.103 10.4837C22.5818 9.43442 21.8757 8.54942 20.9847 7.82875L21.9095 6.67125C22.9736 7.53025 23.8189 8.58342 24.4452 9.83075C25.0714 11.0782 25.3845 12.4392 25.3845 13.9135H23.8845ZM8.49998 22.8845V21.3848H10.3077V13.923C10.3077 12.5782 10.7228 11.3891 11.553 10.3557C12.383 9.32242 13.4486 8.6615 14.75 8.373V7.75C14.75 7.40383 14.8718 7.109 15.1155 6.8655C15.359 6.62183 15.6538 6.5 16 6.5C16.3461 6.5 16.641 6.62183 16.8845 6.8655C17.1281 7.109 17.25 7.40383 17.25 7.75V8.373C18.5513 8.6615 19.617 9.32242 20.447 10.3557C21.2771 11.3891 21.6922 12.5782 21.6922 13.923V21.3848H23.5V22.8845H8.49998ZM16 25.6923C15.5013 25.6923 15.0754 25.5157 14.7222 25.1625C14.3689 24.8093 14.1922 24.3833 14.1922 23.8845H17.8077C17.8077 24.3833 17.6311 24.8093 17.2777 25.1625C16.9246 25.5157 16.4986 25.6923 16 25.6923ZM11.8077 21.3848H20.1922V13.923C20.1922 12.7653 19.783 11.7772 18.9645 10.9587C18.1458 10.1401 17.1576 9.73075 16 9.73075C14.8423 9.73075 13.8541 10.1401 13.0355 10.9587C12.217 11.7772 11.8077 12.7653 11.8077 13.923V21.3848Z" fill="#171717"/>
</svg>
