<svg width="16" height="16" viewBox="0 0 16 16" fill="none" xmlns="http://www.w3.org/2000/svg">
    <path d="M14.7183 9.6515L9.6515 14.7183C9.51525 14.8538 9.36194 14.9555 9.19156 15.0234C9.02119 15.0911 8.85131 15.125 8.68194 15.125C8.51244 15.125 8.34294 15.0911 8.17344 15.0234C8.00394 14.9555 7.85144 14.8538 7.71594 14.7183L1.27025 8.27975C1.14238 8.15675 1.0445 8.01238 0.976625 7.84663C0.908875 7.68088 0.875 7.5065 0.875 7.3235L0.875 2.23794C0.875 1.86319 1.00744 1.54231 1.27231 1.27531C1.53731 1.00844 1.85919 0.875 2.23794 0.875L7.3235 0.875C7.50463 0.875 7.68006 0.91175 7.84981 0.98525C8.01969 1.05863 8.16688 1.15744 8.29138 1.28169L14.7183 7.72025C14.8557 7.8565 14.9559 8.00975 15.0189 8.18C15.0819 8.35038 15.1134 8.52119 15.1134 8.69244C15.1134 8.86369 15.0819 9.03206 15.0189 9.19756C14.9559 9.36319 14.8557 9.5145 14.7183 9.6515ZM8.84956 13.9278L13.9164 8.861C13.9644 8.813 13.9884 8.7565 13.9884 8.6915C13.9884 8.62663 13.9644 8.57019 13.9164 8.52219L7.40581 2.00713L2.23794 2.00713C2.17069 2.00713 2.11419 2.02881 2.06844 2.07219C2.02281 2.11544 2 2.17069 2 2.23794L2 7.31206C2 7.34094 2.00481 7.36975 2.01444 7.3985C2.02406 7.42737 2.04088 7.45381 2.06488 7.47781L8.51056 13.9278C8.55869 13.9759 8.61519 14 8.68006 14C8.74494 14 8.80144 13.9759 8.84956 13.9278ZM3.89375 4.83406C4.15525 4.83406 4.37738 4.74294 4.56013 4.56069C4.74275 4.37844 4.83406 4.15706 4.83406 3.89656C4.83406 3.63419 4.74294 3.41119 4.56069 3.22756C4.37844 3.04381 4.15706 2.95194 3.89656 2.95194C3.63419 2.95194 3.41119 3.0435 3.22756 3.22662C3.04381 3.40975 2.95194 3.63213 2.95194 3.89375C2.95194 4.15525 3.0435 4.37737 3.22663 4.56012C3.40975 4.74275 3.63213 4.83406 3.89375 4.83406Z" fill="currentColor"/>
</svg>
