<svg width="32" height="32" viewBox="0 0 32 32" fill="none" xmlns="http://www.w3.org/2000/svg">
<path d="M22.125 17.7501V14.7501H19.125V13.2501H22.125V10.2501H23.625V13.2501H26.625V14.7501H23.625V17.7501H22.125ZM13 15.6924C12.0375 15.6924 11.2136 15.3497 10.5283 14.6644C9.84275 13.9789 9.5 13.1549 9.5 12.1924C9.5 11.2299 9.84275 10.406 10.5283 9.72063C11.2136 9.03513 12.0375 8.69238 13 8.69238C13.9625 8.69238 14.7864 9.03513 15.4718 9.72063C16.1573 10.406 16.5 11.2299 16.5 12.1924C16.5 13.1549 16.1573 13.9789 15.4718 14.6644C14.7864 15.3497 13.9625 15.6924 13 15.6924ZM5.5 23.3079V21.0846C5.5 20.595 5.633 20.1415 5.899 19.7241C6.165 19.3068 6.5205 18.986 6.9655 18.7616C7.95383 18.2771 8.95092 17.9137 9.95675 17.6714C10.9626 17.429 11.977 17.3079 13 17.3079C14.023 17.3079 15.0374 17.429 16.0433 17.6714C17.0491 17.9137 18.0462 18.2771 19.0345 18.7616C19.4795 18.986 19.835 19.3068 20.101 19.7241C20.367 20.1415 20.5 20.595 20.5 21.0846V23.3079H5.5ZM7 21.8079H19V21.0846C19 20.8821 18.9413 20.6946 18.824 20.5221C18.7067 20.3498 18.5474 20.2091 18.3462 20.1001C17.4846 19.6758 16.6061 19.3543 15.7107 19.1356C14.8153 18.9171 13.9117 18.8079 13 18.8079C12.0883 18.8079 11.1848 18.9171 10.2893 19.1356C9.39392 19.3543 8.51542 19.6758 7.65375 20.1001C7.45258 20.2091 7.29333 20.3498 7.176 20.5221C7.05867 20.6946 7 20.8821 7 21.0846V21.8079ZM13 14.1924C13.55 14.1924 14.0208 13.9965 14.4125 13.6049C14.8042 13.2132 15 12.7424 15 12.1924C15 11.6424 14.8042 11.1715 14.4125 10.7799C14.0208 10.3882 13.55 10.1924 13 10.1924C12.45 10.1924 11.9792 10.3882 11.5875 10.7799C11.1958 11.1715 11 11.6424 11 12.1924C11 12.7424 11.1958 13.2132 11.5875 13.6049C11.9792 13.9965 12.45 14.1924 13 14.1924Z" fill="currentColor"/>
</svg>
