<svg width="16" height="12" viewBox="0 0 16 12" fill="none" xmlns="http://www.w3.org/2000/svg">
    <path d="M10.3222 11.625L10.3222 6.82219L15.125 6.82219L15.125 11.625H10.3222ZM7.32219 5.17781L7.32219 0.375L15.125 0.375V5.17781L7.32219 5.17781ZM0.875 11.625L0.875 6.82219L8.67781 6.82219L8.67781 11.625L0.875 11.625ZM0.875 5.17781L0.875 0.375L5.67781 0.375L5.67781 5.17781L0.875 5.17781ZM8.447 4.053L14 4.053V1.5L8.447 1.5V4.053ZM2 10.5H7.553V7.947L2 7.947L2 10.5ZM11.447 10.5H14V7.947L11.447 7.947V10.5ZM2 4.053H4.553V1.5L2 1.5L2 4.053Z" fill="currentColor"/>
</svg>
