<svg width="32" height="32" viewBox="0 0 32 32" fill="none" xmlns="http://www.w3.org/2000/svg">
    <path d="M11.3077 24.4997C10.8091 24.4997 10.3831 24.3232 10.0298 23.97C9.67658 23.6167 9.5 23.1907 9.5 22.692V9.99973H8.5V8.49973H13V7.61523H19V8.49973H23.5V9.99973H22.5V22.692C22.5 23.1972 22.325 23.6247 21.975 23.9747C21.625 24.3247 21.1974 24.4997 20.6923 24.4997H11.3077ZM21 9.99973H11V22.692C11 22.7818 11.0288 22.8556 11.0865 22.9132C11.1442 22.9709 11.2179 22.9997 11.3077 22.9997H20.6923C20.7692 22.9997 20.8398 22.9677 20.9038 22.9035C20.9679 22.8395 21 22.769 21 22.692V9.99973ZM13.404 20.9997H14.9037V11.9997H13.404V20.9997ZM17.0962 20.9997H18.596V11.9997H17.0962V20.9997Z" fill="currentColor"/>
</svg>
