<svg width="32" height="32" viewBox="0 0 32 32" fill="none" xmlns="http://www.w3.org/2000/svg">
<path d="M10.5 23.4993C9.118 23.4993 7.93917 23.0192 6.9635 22.0588C5.98783 21.0987 5.5 19.9276 5.5 18.5456C5.5 17.3224 5.89167 16.2346 6.675 15.2821C7.45833 14.3294 8.45767 13.7659 9.673 13.5916C9.89867 12.3724 10.5638 11.2324 11.6683 10.1716C12.7728 9.11058 13.9667 8.58008 15.25 8.58008C15.659 8.58008 16.0112 8.72783 16.3068 9.02333C16.6023 9.31883 16.75 9.67108 16.75 10.0801V16.7456L18.5807 14.9456L19.6345 15.9993L16 19.6338L12.3655 15.9993L13.4193 14.9456L15.25 16.7456V10.0801C13.9898 10.2237 12.9664 10.8026 12.1797 11.8166C11.3932 12.8307 11 13.8917 11 14.9993H10.5C9.53333 14.9993 8.70833 15.341 8.025 16.0243C7.34167 16.7077 7 17.5327 7 18.4993C7 19.466 7.34167 20.291 8.025 20.9743C8.70833 21.6577 9.53333 21.9993 10.5 21.9993H22.5C23.2 21.9993 23.7917 21.7577 24.275 21.2743C24.7583 20.791 25 20.1993 25 19.4993C25 18.7993 24.7583 18.2077 24.275 17.7243C23.7917 17.241 23.2 16.9993 22.5 16.9993H21V14.9993C21 14.1865 20.8167 13.4342 20.45 12.7426C20.0833 12.0509 19.6 11.4698 19 10.9993V9.24158C20.0858 9.79291 20.9407 10.5865 21.5645 11.6223C22.1882 12.6583 22.5 13.784 22.5 14.9993V15.4993H22.8078C23.8616 15.5813 24.7404 16.0051 25.4443 16.7706C26.1481 17.5359 26.5 18.4455 26.5 19.4993C26.5 20.6147 26.1122 21.5602 25.3365 22.3358C24.5608 23.1115 23.6153 23.4993 22.5 23.4993H10.5Z" fill="currentColor"/>
</svg>
