<svg width="32" height="33" viewBox="0 0 32 33" fill="none" xmlns="http://www.w3.org/2000/svg">
<path d="M9 23.125H10.2615L20.498 12.8885L19.2365 11.627L9 21.8635V23.125ZM7.5 24.625V21.2405L20.6905 8.05575C20.8417 7.91842 21.0086 7.81233 21.1913 7.7375C21.3741 7.6625 21.5658 7.625 21.7663 7.625C21.9668 7.625 22.1609 7.66058 22.3488 7.73175C22.5368 7.80292 22.7032 7.91608 22.848 8.07125L24.0693 9.30775C24.2244 9.45258 24.335 9.61925 24.401 9.80775C24.467 9.99625 24.5 10.1847 24.5 10.3732C24.5 10.5744 24.4657 10.7663 24.397 10.949C24.3283 11.1318 24.2191 11.2988 24.0693 11.45L10.8845 24.625H7.5ZM19.8562 12.2688L19.2365 11.627L20.498 12.8885L19.8562 12.2688Z" fill="currentColor"/>
</svg>
