<svg width="48" height="49" viewBox="0 0 48 49" fill="none" xmlns="http://www.w3.org/2000/svg">
<path d="M4.49992 15.7305H11.0768V22.3074H4.49992V15.7305Z" fill="currentColor"/>
<path d="M15.4615 15.7305H22.0384V22.3074H15.4615V15.7305Z" fill="currentColor"/>
<path d="M11.0768 26.692H4.49992V33.2689H11.0768V26.692Z" fill="currentColor"/>
<path d="M15.4615 26.692H22.0384V33.2689H15.4615V26.692Z" fill="currentColor"/>
<path d="M26.423 15.7305H32.9999V22.3074H26.423V15.7305Z" fill="currentColor"/>
<path d="M26.423 26.692H32.9999V33.2689H26.423V26.692Z" fill="currentColor"/>
<path d="M36.9231 15.7305H43.5001V22.3074H36.9231V15.7305Z" fill="currentColor"/>
<path d="M36.9231 26.692H43.5001V33.2689H36.9231V26.692Z" fill="currentColor"/>
<path d="M11.0768 21.2119H4.49992V27.7888H11.0768V21.2119Z" fill="currentColor"/>
<path d="M15.4615 21.2119H22.0384V27.7888H15.4615V21.2119Z" fill="currentColor"/>
<path d="M26.423 21.2119H32.9999V27.7888H26.423V21.2119Z" fill="currentColor"/>
<path d="M36.9231 21.2119H43.5001V27.7888H36.9231V21.2119Z" fill="currentColor"/>
</svg>

