<svg width="32" height="32" viewBox="0 0 32 32" fill="none" xmlns="http://www.w3.org/2000/svg">
<path d="M26.8154 27.7499L23.9482 13.4769L26.3252 14.4269V17.7402H27.8252V13.4442L23.0829 11.4287C22.8496 11.3287 22.6165 11.2688 22.3837 11.2489C22.151 11.2291 21.9277 11.2513 21.7137 11.3154C21.4995 11.3794 21.3011 11.4784 21.1184 11.6124C20.9358 11.7464 20.7809 11.9205 20.6539 12.1347L19.8079 13.4844C19.3104 14.2934 18.6844 14.9438 17.9299 15.4354C17.1754 15.9271 16.3296 16.1922 15.3924 16.2307V17.7307C16.5334 17.6793 17.5511 17.3896 18.4454 16.8614C19.3396 16.3333 20.1085 15.6364 20.7522 14.7709L21.5212 18.5962L19.3924 20.7307V27.7499H20.8924V21.5672L23.3387 19.4769L25.2539 27.7499H26.8154ZM20.6424 10.7653C21.1539 10.7653 21.5895 10.5854 21.9492 10.2258C22.3089 9.86609 22.4887 9.4305 22.4887 8.919C22.4887 8.4075 22.3089 7.97192 21.9492 7.61225C21.5895 7.25259 21.1539 7.07275 20.6424 7.07275C20.1309 7.07275 19.6954 7.25259 19.3357 7.61225C18.976 7.97192 18.7962 8.4075 18.7962 8.919C18.7962 9.4305 18.976 9.86609 19.3357 10.2258C19.6954 10.5854 20.1309 10.7653 20.6424 10.7653Z" fill="#171717"/>
<path fill-rule="evenodd" clip-rule="evenodd" d="M4.19995 7.00019C4.19995 5.4538 5.45355 4.2002 6.99995 4.2002H17V5.8002H6.99995C6.33721 5.8002 5.79995 6.33745 5.79995 7.00019V25.0002C5.79995 25.6629 6.33721 26.2002 6.99995 26.2002H17V27.8002H6.99995C5.45355 27.8002 4.19995 26.5466 4.19995 25.0002V7.00019Z" fill="#171717"/>
</svg>
