<svg width="32" height="32" viewBox="0 0 32 32" fill="none" xmlns="http://www.w3.org/2000/svg">
<path d="M29.7334 11.6C30.1334 10.9333 29.8668 10.1333 29.2001 9.73335C28.5334 9.33335 27.7334 9.60002 27.3334 10.2667C24.8001 14.6667 20.5334 17.2 15.8668 17.2C11.2001 17.2 6.93344 14.6667 4.4001 10.2667C4.0001 9.60002 3.2001 9.46668 2.53344 9.73335C1.86677 10.1333 1.73344 10.9333 2.0001 11.6C3.2001 13.6 4.66677 15.3333 6.4001 16.6667L3.33344 19.7333C2.8001 20.2667 2.8001 21.0667 3.33344 21.6C3.86677 22.1333 4.66677 22.1333 5.2001 21.6L8.4001 18.4C8.4001 18.4 8.53344 18.1333 8.66677 18.1333C10.4001 19.0667 12.4001 19.7333 14.4001 19.8667V24.2667C14.4001 25.0667 15.0668 25.6 15.7334 25.6C16.4001 25.6 17.0668 24.9333 17.0668 24.2667V19.8667C19.0668 19.7333 21.0668 19.0667 22.8001 18.1333C22.8001 18.1333 22.8001 18.4 23.0668 18.4L26.2668 21.6C26.8001 22.1333 27.6001 22.1333 28.1334 21.6C28.6668 21.0667 28.6668 20.2667 28.1334 19.7333L25.0668 16.6667C26.8001 15.3333 28.2668 13.7333 29.4668 11.6H29.7334Z" fill="currentColor"/>
</svg>
