<svg width="32" height="32" viewBox="0 0 32 32" fill="none" xmlns="http://www.w3.org/2000/svg">
<path d="M16 21.3333C17.6666 21.3333 19.0833 20.75 20.25 19.5833C21.4166 18.4167 22 17 22 15.3333C22 13.6667 21.4166 12.25 20.25 11.0833C19.0833 9.91668 17.6666 9.33334 16 9.33334C14.3333 9.33334 12.9166 9.91668 11.75 11.0833C10.5833 12.25 9.99995 13.6667 9.99995 15.3333C9.99995 17 10.5833 18.4167 11.75 19.5833C12.9166 20.75 14.3333 21.3333 16 21.3333ZM16 18.9333C15 18.9333 14.15 18.5833 13.45 17.8833C12.75 17.1833 12.4 16.3333 12.4 15.3333C12.4 14.3333 12.75 13.4833 13.45 12.7833C14.15 12.0833 15 11.7333 16 11.7333C17 11.7333 17.85 12.0833 18.55 12.7833C19.25 13.4833 19.6 14.3333 19.6 15.3333C19.6 16.3333 19.25 17.1833 18.55 17.8833C17.85 18.5833 17 18.9333 16 18.9333ZM16 25.3333C13.0222 25.3333 10.3055 24.5333 7.84995 22.9333C5.3944 21.3333 3.45551 19.2222 2.03328 16.6C1.92217 16.4 1.83884 16.1945 1.78328 15.9833C1.72773 15.7722 1.69995 15.5556 1.69995 15.3333C1.69995 15.1111 1.72773 14.8945 1.78328 14.6833C1.83884 14.4722 1.92217 14.2667 2.03328 14.0667C3.45551 11.4445 5.3944 9.33334 7.84995 7.73334C10.3055 6.13334 13.0222 5.33334 16 5.33334C18.9777 5.33334 21.6944 6.13334 24.15 7.73334C26.6055 9.33334 28.5444 11.4445 29.9666 14.0667C30.0777 14.2667 30.1611 14.4722 30.2166 14.6833C30.2722 14.8945 30.3 15.1111 30.3 15.3333C30.3 15.5556 30.2722 15.7722 30.2166 15.9833C30.1611 16.1945 30.0777 16.4 29.9666 16.6C28.5444 19.2222 26.6055 21.3333 24.15 22.9333C21.6944 24.5333 18.9777 25.3333 16 25.3333ZM16 22.6667C18.5111 22.6667 20.8166 22.0056 22.9166 20.6833C25.0166 19.3611 26.6222 17.5778 27.7333 15.3333C26.6222 13.0889 25.0166 11.3056 22.9166 9.98334C20.8166 8.66112 18.5111 8.00001 16 8.00001C13.4888 8.00001 11.1833 8.66112 9.08328 9.98334C6.98328 11.3056 5.37773 13.0889 4.26662 15.3333C5.37773 17.5778 6.98328 19.3611 9.08328 20.6833C11.1833 22.0056 13.4888 22.6667 16 22.6667Z" fill="currentColor"/>
</svg>
