<svg width="32" height="32" viewBox="0 0 32 32" fill="currentColor" xmlns="http://www.w3.org/2000/svg">
<path d="M13.1923 12.6923V11.1923H21.8077V12.6923H13.1923ZM13.1923 15.577V14.077H21.8077V15.577H13.1923ZM15.923 25.5H10C9.30133 25.5 8.71 25.258 8.226 24.774C7.742 24.29 7.5 23.6987 7.5 23V20.1155H10.5V6.5H24.5V14.9578C24.2435 14.9436 23.9893 14.9593 23.7375 15.0048C23.4855 15.0503 23.2397 15.1256 23 15.2308V8H12V20.1155H17.673L16.173 21.6152H9V23C9 23.2833 9.09583 23.5208 9.2875 23.7125C9.47917 23.9042 9.71667 24 10 24H15.923V25.5ZM18.1155 25.5V22.8577L23.5443 17.4537C23.6686 17.3294 23.8032 17.2419 23.948 17.1912C24.0928 17.1407 24.2378 17.1155 24.3827 17.1155C24.5378 17.1155 24.6893 17.1449 24.8375 17.2037C24.9855 17.2627 25.1185 17.3512 25.2365 17.4692L26.1615 18.4038C26.2692 18.5282 26.3525 18.6629 26.4115 18.8077C26.4705 18.9526 26.5 19.0974 26.5 19.2423C26.5 19.3871 26.4731 19.5345 26.4193 19.6845C26.3654 19.8345 26.2795 19.9717 26.1615 20.096L20.7578 25.5H18.1155ZM19.3077 24.3078H20.2578L23.5038 21.046L23.0443 20.571L22.5788 20.102L19.3077 23.3577V24.3078ZM23.0443 20.571L22.5788 20.102L23.5038 21.046L23.0443 20.571Z" fill="currentColor"/>
</svg>
