<svg width="36" height="37" viewBox="0 0 36 37" fill="none" xmlns="http://www.w3.org/2000/svg">
<path d="M31.4366 21.803L21.303 31.9366C21.0305 32.2076 20.7239 32.411 20.3831 32.5468C20.0424 32.6823 19.7026 32.75 19.3639 32.75C19.0249 32.75 18.6859 32.6823 18.3469 32.5468C18.0079 32.411 17.7029 32.2076 17.4319 31.9366L4.5405 19.0595C4.28475 18.8135 4.089 18.5248 3.95325 18.1933C3.81775 17.8618 3.75 17.513 3.75 17.147V6.97588C3.75 6.22638 4.01488 5.58462 4.54463 5.05062C5.07463 4.51687 5.71838 4.25 6.47588 4.25H16.647C17.0093 4.25 17.3601 4.3235 17.6996 4.4705C18.0394 4.61725 18.3338 4.81488 18.5828 5.06338L31.4366 17.9405C31.7114 18.213 31.9118 18.5195 32.0378 18.86C32.1638 19.2008 32.2268 19.5424 32.2268 19.8849C32.2268 20.2274 32.1638 20.5641 32.0378 20.8951C31.9118 21.2264 31.7114 21.529 31.4366 21.803ZM19.6991 30.3556L29.8328 20.222C29.9288 20.126 29.9768 20.013 29.9768 19.883C29.9768 19.7533 29.9288 19.6404 29.8328 19.5444L16.8116 6.51425H6.47588C6.34138 6.51425 6.22838 6.55762 6.13688 6.64437C6.04562 6.73087 6 6.84138 6 6.97588V17.1241C6 17.1819 6.00963 17.2395 6.02888 17.297C6.04813 17.3547 6.08175 17.4076 6.12975 17.4556L19.0211 30.3556C19.1174 30.4519 19.2304 30.5 19.3601 30.5C19.4899 30.5 19.6029 30.4519 19.6991 30.3556ZM9.7875 12.1681C10.3105 12.1681 10.7548 11.9859 11.1203 11.6214C11.4855 11.2569 11.6681 10.8141 11.6681 10.2931C11.6681 9.76838 11.4859 9.32237 11.1214 8.95512C10.7569 8.58762 10.3141 8.40388 9.79313 8.40388C9.26838 8.40388 8.82238 8.587 8.45513 8.95325C8.08763 9.3195 7.90388 9.76425 7.90388 10.2875C7.90388 10.8105 8.087 11.2547 8.45325 11.6202C8.8195 11.9855 9.26425 12.1681 9.7875 12.1681Z" fill="currentColor"/>
</svg>
