<svg width="37" height="37" viewBox="0 0 37 37" fill="none" xmlns="http://www.w3.org/2000/svg">
<path d="M21.4134 15.1199V13.1467C22.2289 12.7679 23.0823 12.4838 23.9735 12.2943C24.865 12.1048 25.7905 12.0101 26.75 12.0101C27.352 12.0101 27.9366 12.0529 28.5039 12.1387C29.0711 12.2242 29.6404 12.3372 30.2116 12.4777V14.3583C29.6501 14.1621 29.0919 14.0197 28.5369 13.9312C27.9821 13.8427 27.3865 13.7984 26.75 13.7984C25.7905 13.7984 24.8611 13.9124 23.9619 14.1404C23.0629 14.3684 22.2134 14.6949 21.4134 15.1199ZM21.4134 23.3411V21.3389C22.2096 20.9602 23.0606 20.6761 23.9664 20.4866C24.8721 20.2973 25.8 20.2027 26.75 20.2027C27.352 20.2027 27.9366 20.2454 28.5039 20.3309C29.0711 20.4164 29.6404 20.5294 30.2116 20.6699V22.5506C29.6501 22.3543 29.0919 22.2119 28.5369 22.1234C27.9821 22.0352 27.3865 21.9911 26.75 21.9911C25.7905 21.9911 24.8611 22.1059 23.9619 22.3357C23.0629 22.5654 22.2134 22.9006 21.4134 23.3411ZM21.4134 19.2449V17.2428C22.2289 16.8641 23.0823 16.5799 23.9735 16.3904C24.865 16.2009 25.7905 16.1062 26.75 16.1062C27.352 16.1062 27.9366 16.1491 28.5039 16.2348C29.0711 16.3203 29.6404 16.4333 30.2116 16.5738V18.4544C29.6501 18.2582 29.0919 18.1158 28.5369 18.0273C27.9821 17.9391 27.3865 17.8949 26.75 17.8949C25.7905 17.8949 24.8611 18.0137 23.9619 18.2512C23.0629 18.4887 22.2134 18.8199 21.4134 19.2449ZM10.25 24.5294C11.4923 24.5294 12.7009 24.6703 13.8759 24.9521C15.0509 25.2338 16.2173 25.6757 17.375 26.2777V11.5312C16.3213 10.8447 15.1809 10.3298 13.9539 9.98656C12.7269 9.64331 11.4923 9.47168 10.25 9.47168C9.35 9.47168 8.50913 9.54231 7.72738 9.68356C6.94562 9.82506 6.14225 10.0563 5.31725 10.3773C5.202 10.4158 5.12025 10.4712 5.072 10.5434C5.024 10.6154 5 10.6947 5 10.7812V24.9678C5 25.1026 5.04813 25.2012 5.14438 25.2637C5.24038 25.3262 5.34613 25.3333 5.46163 25.2851C6.17313 25.0428 6.924 24.8563 7.71425 24.7256C8.50475 24.5948 9.35 24.5294 10.25 24.5294ZM19.625 26.2777C20.7828 25.6757 21.9491 25.2338 23.1241 24.9521C24.2991 24.6703 25.5078 24.5294 26.75 24.5294C27.65 24.5294 28.4953 24.5948 29.2858 24.7256C30.076 24.8563 30.8269 25.0428 31.5384 25.2851C31.6539 25.3333 31.7596 25.3262 31.8556 25.2637C31.9519 25.2012 32 25.1026 32 24.9678V10.7812C32 10.6947 31.976 10.6178 31.928 10.5506C31.8798 10.4833 31.798 10.4256 31.6828 10.3773C30.8577 10.0563 30.0544 9.82506 29.2726 9.68356C28.4909 9.54231 27.65 9.47168 26.75 9.47168C25.5078 9.47168 24.2731 9.64331 23.0461 9.98656C21.8191 10.3298 20.6788 10.8447 19.625 11.5312V26.2777ZM18.5 29.5773C17.2905 28.6851 15.9858 27.9957 14.5858 27.5092C13.1858 27.0227 11.7405 26.7794 10.25 26.7794C9.33475 26.7794 8.43575 26.8808 7.553 27.0836C6.67025 27.2866 5.81925 27.5852 5 27.9794C4.4655 28.2254 3.95687 28.1864 3.47412 27.8624C2.99137 27.5384 2.75 27.0793 2.75 26.4851V10.1988C2.75 9.87556 2.83325 9.57218 2.99975 9.28868C3.166 9.00493 3.40587 8.80056 3.71937 8.67556C4.73462 8.18131 5.79275 7.81543 6.89375 7.57793C7.99475 7.34043 9.1135 7.22168 10.25 7.22168C11.7095 7.22168 13.1355 7.42118 14.528 7.82018C15.9202 8.21943 17.2443 8.80843 18.5 9.58718C19.7558 8.80843 21.0798 8.21943 22.472 7.82018C23.8645 7.42118 25.2905 7.22168 26.75 7.22168C27.8865 7.22168 29.0053 7.34043 30.1063 7.57793C31.2073 7.81543 32.2654 8.18131 33.2806 8.67556C33.5941 8.80056 33.834 9.00493 34.0003 9.28868C34.1668 9.57218 34.25 9.87556 34.25 10.1988V26.4851C34.25 27.0793 33.999 27.5337 33.497 27.8482C32.995 28.1624 32.4671 28.1966 31.9134 27.9506C31.1039 27.5658 30.265 27.2744 29.3968 27.0764C28.5285 26.8784 27.6463 26.7794 26.75 26.7794C25.2595 26.7794 23.8143 27.0227 22.4143 27.5092C21.0143 27.9957 19.7095 28.6851 18.5 29.5773Z" fill="currentColor"/>
</svg>
