<svg width="45" height="45" viewBox="0 0 45 45" fill="none" xmlns="http://www.w3.org/2000/svg">
  <g filter="url(#filter0_d_33370_39666)">
  <path d="M23.0003 36.6377C22.5321 36.6377 22.1181 36.5143 21.7584 36.2676C21.3987 36.0206 21.1471 35.6968 21.0036 35.296H20.667C20.1898 35.296 19.7789 35.1237 19.4341 34.7789C19.0894 34.4342 18.917 34.0232 18.917 33.546V29.7185C17.7398 29.0051 16.8136 28.0486 16.1383 26.8491C15.463 25.6494 15.1253 24.3652 15.1253 22.9967C15.1253 20.8011 15.8889 18.9397 17.4161 17.4125C18.9432 15.8853 20.8047 15.1217 23.0003 15.1217C25.196 15.1217 27.0574 15.8853 28.5846 17.4125C30.1117 18.9397 30.8753 20.8011 30.8753 22.9967C30.8753 24.3892 30.5377 25.6792 29.8624 26.8669C29.1871 28.0545 28.2608 29.0051 27.0837 29.7185V33.546C27.0837 34.0232 26.9113 34.4342 26.5665 34.7789C26.2218 35.1237 25.8108 35.296 25.3337 35.296H24.9971C24.8536 35.6968 24.602 36.0206 24.2422 36.2676C23.8825 36.5143 23.4685 36.6377 23.0003 36.6377ZM20.667 33.546H25.3337V32.4511H20.667V33.546ZM20.667 31.4192H25.3337V30.2884H20.667V31.4192ZM20.4337 28.5384H22.3047V25.1417L19.8054 22.6424L20.7837 21.6641L23.0003 23.8808L25.217 21.6641L26.1952 22.6424L23.696 25.1417V28.5384H25.567C26.617 28.0329 27.4725 27.2891 28.1337 26.3072C28.7948 25.3252 29.1253 24.2217 29.1253 22.9967C29.1253 21.2856 28.5323 19.837 27.3462 18.6509C26.16 17.4648 24.7114 16.8717 23.0003 16.8717C21.2892 16.8717 19.8406 17.4648 18.6545 18.6509C17.4684 19.837 16.8753 21.2856 16.8753 22.9967C16.8753 24.2217 17.2059 25.3252 17.867 26.3072C18.5281 27.2891 19.3837 28.0329 20.4337 28.5384Z" fill="#FFE23D"/>
  <path d="M13.3545 23.9447H8.97949V22.1947H13.3545V23.9447ZM36.8962 24.1322H32.5212V22.3822H36.8962V24.1322ZM22.1253 13.1738V8.79883H23.8753V13.1738H22.1253ZM15.5022 16.7428L12.7695 14.1044L14.0059 12.8097L16.6376 15.5132L15.5022 16.7428ZM29.3272 15.5715L31.9656 12.8389L33.2603 14.0752L30.5568 16.707L29.3272 15.5715Z" fill="#FFE23D"/>
  </g>
  <defs>
  <filter id="filter0_d_33370_39666" x="0.979492" y="0.798828" width="43.917" height="43.8389" filterUnits="userSpaceOnUse" color-interpolation-filters="sRGB">
  <feFlood flood-opacity="0" result="BackgroundImageFix"/>
  <feColorMatrix in="SourceAlpha" type="matrix" values="0 0 0 0 0 0 0 0 0 0 0 0 0 0 0 0 0 0 127 0" result="hardAlpha"/>
  <feOffset/>
  <feGaussianBlur stdDeviation="4"/>
  <feComposite in2="hardAlpha" operator="out"/>
  <feColorMatrix type="matrix" values="0 0 0 0 1 0 0 0 0 0.886275 0 0 0 0 0.239216 0 0 0 0.5 0"/>
  <feBlend mode="normal" in2="BackgroundImageFix" result="effect1_dropShadow_33370_39666"/>
  <feBlend mode="normal" in="SourceGraphic" in2="effect1_dropShadow_33370_39666" result="shape"/>
  </filter>
  </defs>
  </svg>
  