<svg width="32" height="32" viewBox="0 0 32 32" fill="none" xmlns="http://www.w3.org/2000/svg">
<path d="M11 21.5C9.47217 21.5 8.17358 20.9655 7.10425 19.8965C6.03475 18.8275 5.5 17.5294 5.5 16.0023C5.5 14.4751 6.03475 13.1762 7.10425 12.1057C8.17358 11.0352 9.47217 10.5 11 10.5C12.0358 10.5 12.9961 10.775 13.8808 11.325C14.7654 11.875 15.4359 12.6 15.8923 13.5H26.5V18.5H24.5V21.5H19.5V18.5H15.8923C15.4359 19.4 14.7654 20.125 13.8808 20.675C12.9961 21.225 12.0358 21.5 11 21.5ZM11 20C12.1 20 12.9833 19.6625 13.65 18.9875C14.3167 18.3125 14.7167 17.65 14.85 17H21V20H23V17H25V15H14.85C14.7167 14.35 14.3167 13.6875 13.65 13.0125C12.9833 12.3375 12.1 12 11 12C9.9 12 8.95833 12.3917 8.175 13.175C7.39167 13.9583 7 14.9 7 16C7 17.1 7.39167 18.0417 8.175 18.825C8.95833 19.6083 9.9 20 11 20ZM11 17.6152C11.4442 17.6152 11.8244 17.4571 12.1408 17.1408C12.4571 16.8244 12.6152 16.4442 12.6152 16C12.6152 15.5558 12.4571 15.1756 12.1408 14.8593C11.8244 14.5429 11.4442 14.3848 11 14.3848C10.5558 14.3848 10.1756 14.5429 9.85925 14.8593C9.54292 15.1756 9.38475 15.5558 9.38475 16C9.38475 16.4442 9.54292 16.8244 9.85925 17.1408C10.1756 17.4571 10.5558 17.6152 11 17.6152Z" fill="#171717"/>
</svg>
