<svg width="36" height="37" viewBox="0 0 36 37" fill="none" xmlns="http://www.w3.org/2000/svg">
<path d="M9.0345 26.4384C10.3095 25.4924 11.6985 24.7453 13.2015 24.197C14.7043 23.649 16.3038 23.375 18 23.375C19.6963 23.375 21.2958 23.649 22.7985 24.197C24.3015 24.7453 25.6905 25.4924 26.9655 26.4384C27.898 25.4134 28.6369 24.2269 29.1821 22.8789C29.7274 21.5309 30 20.0713 30 18.5C30 15.175 28.8313 12.3438 26.4938 10.0063C24.1562 7.66875 21.325 6.5 18 6.5C14.675 6.5 11.8438 7.66875 9.50625 10.0063C7.16875 12.3438 6 15.175 6 18.5C6 20.0713 6.27262 21.5309 6.81788 22.8789C7.36313 24.2269 8.102 25.4134 9.0345 26.4384ZM18.0004 19.625C16.6309 19.625 15.476 19.155 14.5358 18.215C13.5953 17.2748 13.125 16.1199 13.125 14.7504C13.125 13.3809 13.595 12.226 14.535 11.2857C15.4753 10.3453 16.6301 9.875 17.9996 9.875C19.3691 9.875 20.524 10.345 21.4643 11.285C22.4048 12.2252 22.875 13.3801 22.875 14.7496C22.875 16.1191 22.405 17.274 21.465 18.2143C20.5248 19.1548 19.3699 19.625 18.0004 19.625ZM18 32.75C16.0213 32.75 14.165 32.3779 12.4313 31.6336C10.6975 30.8894 9.18938 29.8759 7.90688 28.5931C6.62413 27.3106 5.61063 25.8025 4.86638 24.0688C4.12213 22.335 3.75 20.4788 3.75 18.5C3.75 16.5213 4.12213 14.665 4.86638 12.9313C5.61063 11.1975 6.62413 9.68937 7.90688 8.40687C9.18938 7.12412 10.6975 6.11063 12.4313 5.36638C14.165 4.62213 16.0213 4.25 18 4.25C19.9788 4.25 21.835 4.62213 23.5688 5.36638C25.3025 6.11063 26.8106 7.12412 28.0931 8.40687C29.3759 9.68937 30.3894 11.1975 31.1336 12.9313C31.8779 14.665 32.25 16.5213 32.25 18.5C32.25 20.4788 31.8779 22.335 31.1336 24.0688C30.3894 25.8025 29.3759 27.3106 28.0931 28.5931C26.8106 29.8759 25.3025 30.8894 23.5688 31.6336C21.835 32.3779 19.9788 32.75 18 32.75ZM18 30.5C19.3538 30.5 20.659 30.2823 21.9158 29.8468C23.1725 29.411 24.2884 28.8019 25.2634 28.0194C24.2884 27.2654 23.187 26.6779 21.9593 26.2569C20.7313 25.8356 19.4115 25.625 18 25.625C16.5885 25.625 15.2664 25.8331 14.0336 26.2494C12.8009 26.6659 11.7019 27.2559 10.7366 28.0194C11.7116 28.8019 12.8275 29.411 14.0842 29.8468C15.341 30.2823 16.6463 30.5 18 30.5ZM18 17.375C18.7463 17.375 19.3702 17.124 19.872 16.622C20.374 16.1202 20.625 15.4963 20.625 14.75C20.625 14.0038 20.374 13.3798 19.872 12.878C19.3702 12.376 18.7463 12.125 18 12.125C17.2538 12.125 16.6298 12.376 16.128 12.878C15.626 13.3798 15.375 14.0038 15.375 14.75C15.375 15.4963 15.626 16.1202 16.128 16.622C16.6298 17.124 17.2538 17.375 18 17.375Z" fill="currentColor"/>
</svg>
