<svg width="32" height="32" viewBox="0 0 32 32" fill="none" xmlns="http://www.w3.org/2000/svg">
<path d="M8.41033 28.6663C7.73678 28.6663 7.16667 28.433 6.7 27.9663C6.23333 27.4997 6 26.9296 6 26.256V5.74334C6 5.06979 6.23333 4.49967 6.7 4.03301C7.16667 3.56634 7.73678 3.33301 8.41033 3.33301H19L26 10.333V26.256C26 26.9296 25.7667 27.4997 25.3 27.9663C24.8333 28.433 24.2632 28.6663 23.5897 28.6663H8.41033ZM18 11.333V5.33301H8.41033C8.30767 5.33301 8.21367 5.37578 8.12833 5.46134C8.04278 5.54667 8 5.64067 8 5.74334V26.256C8 26.3587 8.04278 26.4527 8.12833 26.538C8.21367 26.6236 8.30767 26.6663 8.41033 26.6663H23.5897C23.6923 26.6663 23.7863 26.6236 23.8717 26.538C23.9572 26.4527 24 26.3587 24 26.256V11.333H18Z" fill="#171717"/>
<path fill-rule="evenodd" clip-rule="evenodd" d="M12.6665 8.66681C13.9814 8.66681 15.0474 7.60082 15.0474 6.28585C15.0474 4.97089 13.9814 3.9049 12.6665 3.9049C11.3515 3.9049 10.2855 4.97089 10.2855 6.28585C10.2855 7.60082 11.3515 8.66681 12.6665 8.66681ZM12.6665 9.143C14.2444 9.143 15.5236 7.86381 15.5236 6.28585C15.5236 4.7079 14.2444 3.42871 12.6665 3.42871C11.0885 3.42871 9.80933 4.7079 9.80933 6.28585C9.80933 7.86381 11.0885 9.143 12.6665 9.143Z" fill="#171717"/>
<path d="M16.8115 5.04231L17.1478 4.70605L19.3335 6.89173L21.5191 4.70605L21.8554 5.04231L19.6697 7.22798L21.8554 9.41366L21.5191 9.74991L19.3335 7.56424L17.1478 9.74991L16.8115 9.41366L18.9972 7.22798L16.8115 5.04231Z" fill="#171717"/>
</svg>
