<svg width="32" height="32" viewBox="0 0 32 32" fill="none" xmlns="http://www.w3.org/2000/svg">
<path d="M8 10.5C8 9.94772 8.44772 9.5 9 9.5H23C23.5523 9.5 24 9.94772 24 10.5C24 11.0523 23.5523 11.5 23 11.5H9C8.44772 11.5 8 11.0523 8 10.5Z" fill="#737373"/>
<path d="M8 16C8 15.4477 8.44772 15 9 15H23C23.5523 15 24 15.4477 24 16C24 16.5523 23.5523 17 23 17H9C8.44772 17 8 16.5523 8 16Z" fill="#737373"/>
<path d="M9 20.5C8.44772 20.5 8 20.9477 8 21.5C8 22.0523 8.44772 22.5 9 22.5H23C23.5523 22.5 24 22.0523 24 21.5C24 20.9477 23.5523 20.5 23 20.5H9Z" fill="#737373"/>
</svg>
