<svg width="32" height="32" viewBox="0 0 32 32" fill="none" xmlns="http://www.w3.org/2000/svg">
<path d="M12.6502 15.1637L15.1642 12.6324L13.2063 10.6569L11.9263 11.9369L10.7317 10.7422L11.9941 9.46227L10.2498 7.71805L7.71854 10.2493L12.6502 15.1637ZM21.7397 24.2702L24.2707 21.7389L22.5265 19.9947L21.2468 21.2571L20.0522 20.0625L21.3146 18.7828L19.3501 16.8356L16.8361 19.3497L21.7397 24.2702ZM10.6642 25.5326H6.46721V21.3356L11.4383 16.3649L5.3335 10.2493L10.2498 5.33301L16.3937 11.4658L21.066 6.77622C21.2419 6.60031 21.4352 6.47022 21.6459 6.38594C21.8566 6.30167 22.0768 6.25953 22.3066 6.25953C22.5362 6.25953 22.7563 6.30167 22.967 6.38594C23.1778 6.47022 23.3711 6.60031 23.5469 6.77622L25.2236 8.50315C25.3995 8.67887 25.5277 8.87217 25.6082 9.08304C25.6889 9.29372 25.7292 9.51385 25.7292 9.74343C25.7292 9.97319 25.6889 10.1887 25.6082 10.3899C25.5277 10.5912 25.3995 10.7797 25.2236 10.9557L20.5731 15.6345L26.6668 21.75L21.7505 26.6663L15.635 20.5616L10.6642 25.5326ZM8.16777 23.8321H9.94033L21.0615 12.7282L19.2716 10.9384L8.16777 22.0595V23.8321ZM20.1809 11.8365L19.2716 10.9384L21.0615 12.7282L20.1809 11.8365Z" fill="#171717"/>
</svg>
