<svg width="42" height="43" viewBox="0 0 42 43" fill="none" xmlns="http://www.w3.org/2000/svg">
<path d="M6 23.1667V9.83333C6 8.91667 6.32639 8.13194 6.97917 7.47917C7.63194 6.82639 8.41667 6.5 9.33333 6.5H19.3333V23.1667H6ZM22.6667 6.5H32.6667C33.5833 6.5 34.3681 6.82639 35.0208 7.47917C35.6736 8.13194 36 8.91667 36 9.83333V16.5H22.6667V6.5ZM22.6667 36.5V19.8333H36V33.1667C36 34.0833 35.6736 34.8681 35.0208 35.5208C34.3681 36.1736 33.5833 36.5 32.6667 36.5H22.6667ZM6 26.5H19.3333V36.5H9.33333C8.41667 36.5 7.63194 36.1736 6.97917 35.5208C6.32639 34.8681 6 34.0833 6 33.1667V26.5ZM9.33333 19.8333H16V9.83333H9.33333V19.8333ZM26 13.1667H32.6667V9.83333H26V13.1667ZM26 23.1667V33.1667H32.6667V23.1667H26ZM9.33333 29.8333V33.1667H16V29.8333H9.33333Z" fill="currentColor"/>
</svg>
