<svg width="10" height="14" viewBox="0 0 10 14" fill="none" xmlns="http://www.w3.org/2000/svg">
    <path d="M5.97559 10.0527H3.73438C3.72852 9.73047 3.72559 9.53418 3.72559 9.46387C3.72559 8.7373 3.8457 8.13965 4.08594 7.6709C4.32617 7.20215 4.80664 6.6748 5.52734 6.08887C6.24805 5.50293 6.67871 5.11914 6.81934 4.9375C7.03613 4.65039 7.14453 4.33398 7.14453 3.98828C7.14453 3.50781 6.95117 3.09766 6.56445 2.75781C6.18359 2.41211 5.66797 2.23926 5.01758 2.23926C4.39062 2.23926 3.86621 2.41797 3.44434 2.77539C3.02246 3.13281 2.73242 3.67773 2.57422 4.41016L0.306641 4.12891C0.371094 3.08008 0.816406 2.18945 1.64258 1.45703C2.47461 0.724609 3.56445 0.358398 4.91211 0.358398C6.33008 0.358398 7.45801 0.730469 8.2959 1.47461C9.13379 2.21289 9.55273 3.07422 9.55273 4.05859C9.55273 4.60352 9.39746 5.11914 9.08691 5.60547C8.78223 6.0918 8.12598 6.75391 7.11816 7.5918C6.59668 8.02539 6.27148 8.37402 6.14258 8.6377C6.01953 8.90137 5.96387 9.37305 5.97559 10.0527ZM3.73438 13.375V10.9053H6.2041V13.375H3.73438Z" fill="currentColor"/>
</svg>
