<svg width="24" height="25" viewBox="0 0 24 25" fill="none" xmlns="http://www.w3.org/2000/svg">
<path d="M12.0352 19.4141C10.1507 19.4141 8.55463 18.7603 7.24693 17.4527C5.93908 16.1452 5.28516 14.5494 5.28516 12.6654C5.28516 10.7814 5.93908 9.18519 7.24693 7.87674C8.55463 6.56829 10.1507 5.91406 12.0352 5.91406C13.0874 5.91406 14.0832 6.14799 15.0225 6.61584C15.9616 7.08384 16.7428 7.74414 17.3659 8.59674V5.91406H18.7159V11.4178H13.2121V10.068H16.7671C16.2928 9.19906 15.6351 8.51454 14.7939 8.01444C13.9528 7.51419 13.0333 7.26406 12.0352 7.26406C10.5352 7.26406 9.26016 7.78906 8.21016 8.83906C7.16016 9.88906 6.63516 11.1641 6.63516 12.6641C6.63516 14.1641 7.16016 15.4391 8.21016 16.4891C9.26016 17.5391 10.5352 18.0641 12.0352 18.0641C13.1902 18.0641 14.2327 17.7341 15.1627 17.0741C16.0927 16.4141 16.7452 15.5441 17.1202 14.4641H18.5428C18.1344 15.9329 17.3299 17.1251 16.1293 18.0407C14.9287 18.9563 13.564 19.4141 12.0352 19.4141Z" fill="#737373"/>
</svg>
