<svg width="32" height="32" viewBox="0 0 32 32" fill="none" xmlns="http://www.w3.org/2000/svg">
<path d="M16.0206 28.2667C14.4247 28.2667 12.9153 27.9826 11.4923 27.4145C10.0694 26.8463 8.80682 26.0589 7.7046 25.0523C6.60238 24.0459 5.70051 22.8596 4.999 21.4934C4.29749 20.1272 3.87562 18.6516 3.7334 17.0667H5.3334C5.47562 18.3809 5.83153 19.6055 6.40113 20.7406C6.97073 21.8757 7.7054 22.8699 8.60513 23.7233C9.50504 24.5766 10.5372 25.2586 11.7017 25.7694C12.8661 26.2802 14.1089 26.5683 15.4299 26.6339L13.5713 24.7755L14.6955 23.6513L18.9417 27.8974C18.4602 28.0384 17.9762 28.1352 17.4894 28.1878C17.0025 28.2404 16.5129 28.2667 16.0206 28.2667ZM19.2001 22.9334V20.8001H13.1283C12.5964 20.8001 12.142 20.6117 11.7651 20.235C11.3884 19.8581 11.2001 19.4037 11.2001 18.8718V12.8001H9.06673V11.2001H11.2001V9.06673H12.8001V18.8718C12.8001 18.9539 12.8343 19.0291 12.9027 19.0974C12.971 19.1658 13.0462 19.2001 13.1283 19.2001H23.4667V20.8001H20.8001V22.9334H19.2001ZM19.2001 17.6001V13.1283C19.2001 13.0462 19.1658 12.971 19.0974 12.9027C19.0291 12.8343 18.9539 12.8001 18.8718 12.8001H14.4001V11.2001H18.8718C19.4037 11.2001 19.8581 11.3884 20.235 11.7651C20.6117 12.142 20.8001 12.5964 20.8001 13.1283V17.6001H19.2001ZM26.6667 14.9334C26.5355 13.6193 26.1824 12.3946 25.6073 11.2595C25.0322 10.1244 24.2947 9.1302 23.395 8.27687C22.4951 7.42353 21.4629 6.74149 20.2985 6.23073C19.134 5.71998 17.8913 5.4318 16.5702 5.3662L18.4289 7.2246L17.3046 8.34887L13.0585 4.10273C13.5399 3.96175 14.024 3.86495 14.5107 3.81233C14.9977 3.75971 15.4873 3.7334 15.9795 3.7334C17.5754 3.7334 19.0849 4.01749 20.5078 4.58567C21.9307 5.15384 23.1933 5.94122 24.2955 6.9478C25.3978 7.9542 26.2996 9.14051 27.0011 10.5067C27.7026 11.873 28.1245 13.3485 28.2667 14.9334H26.6667Z" fill="#171717"/>
</svg>
