<svg width="32" height="32" viewBox="0 0 32 32" fill="currentColor" xmlns="http://www.w3.org/2000/svg">
<path d="M6.71387 25V11H12.7139V9L15.7139 6L18.7139 9V15H24.7139V25H6.71387ZM8.71387 23H10.7139V21H8.71387V23ZM8.71387 19H10.7139V17H8.71387V19ZM8.71387 15H10.7139V13H8.71387V15ZM14.7139 23H16.7139V21H14.7139V23ZM14.7139 19H16.7139V17H14.7139V19ZM14.7139 15H16.7139V13H14.7139V15ZM14.7139 11H16.7139V9H14.7139V11ZM20.7139 23H22.7139V21H20.7139V23ZM20.7139 19H22.7139V17H20.7139V19Z" fill="currentColor"/>
</svg>
