<svg width="32" height="32" viewBox="0 0 32 32" fill="none" xmlns="http://www.w3.org/2000/svg">
<path d="M8.41033 28.6663C7.73678 28.6663 7.16667 28.433 6.7 27.9663C6.23333 27.4997 6 26.9296 6 26.256V5.74334C6 5.06979 6.23333 4.49967 6.7 4.03301C7.16667 3.56634 7.73678 3.33301 8.41033 3.33301H19L26 10.333V14.0637H24V11.333H18V5.33301H8.41033C8.30767 5.33301 8.21367 5.37578 8.12833 5.46134C8.04278 5.54667 8 5.64067 8 5.74334V26.256C8 26.3587 8.04278 26.4527 8.12833 26.538C8.21367 26.6236 8.30767 26.6663 8.41033 26.6663H15.5127V28.6663H8.41033Z" fill="#171717"/>
<path d="M21.3847 27.9442L21.1732 26.2519C21.0244 26.2021 20.8718 26.1323 20.7154 26.0426C20.5591 25.9527 20.4193 25.8566 20.2961 25.7541L18.7287 26.4164L17.4468 24.1942L18.8025 23.1696C18.7897 23.0871 18.7806 23.0041 18.7752 22.9208C18.7699 22.8374 18.7672 22.7544 18.7672 22.6717C18.7672 22.5927 18.7699 22.5125 18.7752 22.4309C18.7806 22.3493 18.7897 22.2601 18.8025 22.1633L17.4468 21.1387L18.7287 18.9271L20.2907 19.5842C20.4246 19.4781 20.5677 19.3811 20.7197 19.2931C20.8717 19.2052 21.0211 19.1345 21.1679 19.081L21.3847 17.3887H23.9489L24.1604 19.0863C24.3271 19.1469 24.4778 19.2176 24.6127 19.2984C24.7477 19.3792 24.884 19.4745 25.0215 19.5842L26.6048 18.9271L27.8868 21.1387L26.5097 22.1792C26.5296 22.2689 26.5405 22.3528 26.5423 22.4309C26.5441 22.5089 26.545 22.5874 26.545 22.6664C26.545 22.7419 26.5432 22.8187 26.5396 22.8967C26.536 22.9747 26.5233 23.0639 26.5012 23.1644L27.8676 24.1942L26.5855 26.4164L25.0215 25.7487C24.884 25.8584 24.7437 25.9554 24.6005 26.0398C24.4574 26.1242 24.3107 26.1932 24.1604 26.2466L23.9489 27.9442H21.3847ZM22.6732 24.3331C23.1354 24.3331 23.5287 24.1709 23.8532 23.8464C24.1776 23.522 24.3398 23.1287 24.3398 22.6664C24.3398 22.2042 24.1776 21.8109 23.8532 21.4864C23.5287 21.162 23.1354 20.9998 22.6732 20.9998C22.2052 20.9998 21.8104 21.162 21.4889 21.4864C21.1673 21.8109 21.0065 22.2042 21.0065 22.6664C21.0065 23.1287 21.1673 23.522 21.4889 23.8464C21.8104 24.1709 22.2052 24.3331 22.6732 24.3331Z" fill="#171717"/>
</svg>
