<svg width="32" height="33" viewBox="0 0 32 33" fill="none" xmlns="http://www.w3.org/2000/svg">
<path d="M23.5423 24.702L17.2616 18.421C16.7616 18.8338 16.1866 19.1569 15.5366 19.3903C14.8866 19.6236 14.2141 19.7403 13.5193 19.7403C11.8101 19.7403 10.3636 19.1485 9.1798 17.965C7.99597 16.7815 7.40405 15.3353 7.40405 13.6265C7.40405 11.9178 7.9958 10.4712 9.1793 9.28652C10.3628 8.10202 11.809 7.50977 13.5178 7.50977C15.2265 7.50977 16.6731 8.10168 17.8578 9.28551C19.0423 10.4693 19.6346 11.9158 19.6346 13.625C19.6346 14.3392 19.5147 15.0213 19.2751 15.6713C19.0352 16.3213 18.7153 16.8866 18.3153 17.3673L24.5961 23.648L23.5423 24.702ZM13.5193 18.2405C14.8078 18.2405 15.8991 17.7933 16.7933 16.899C17.6876 16.0048 18.1348 14.9135 18.1348 13.625C18.1348 12.3365 17.6876 11.2452 16.7933 10.351C15.8991 9.45668 14.8078 9.00952 13.5193 9.00952C12.2308 9.00952 11.1395 9.45668 10.2453 10.351C9.35097 11.2452 8.9038 12.3365 8.9038 13.625C8.9038 14.9135 9.35097 16.0048 10.2453 16.899C11.1395 17.7933 12.2308 18.2405 13.5193 18.2405Z" fill="currentColor"/>
</svg>
