<svg width="36" height="37" viewBox="0 0 36 37" fill="none" xmlns="http://www.w3.org/2000/svg">
<path d="M14.5384 32.75L13.9673 28.1806C13.5655 28.0461 13.1535 27.8578 12.7313 27.6155C12.3093 27.373 11.9319 27.1134 11.5991 26.8366L7.36726 28.625L3.90601 22.625L7.56638 19.8586C7.53188 19.6356 7.50738 19.4116 7.49288 19.1866C7.47838 18.9616 7.47113 18.7375 7.47113 18.5143C7.47113 18.301 7.47838 18.0843 7.49288 17.864C7.50738 17.6438 7.53188 17.4029 7.56638 17.1414L3.90601 14.375L7.36726 8.40388L11.5845 10.178C11.9463 9.8915 12.3324 9.6295 12.7429 9.392C13.1534 9.1545 13.5568 8.96362 13.953 8.81937L14.5384 4.25H21.4616L22.0328 8.83362C22.4828 8.99712 22.8899 9.188 23.2541 9.40625C23.6186 9.6245 23.9865 9.88175 24.3578 10.178L28.6328 8.40388L32.094 14.375L28.3759 17.1845C28.4296 17.4268 28.459 17.6533 28.464 17.864C28.4688 18.0745 28.4711 18.2865 28.4711 18.5C28.4711 18.7038 28.4663 18.911 28.4565 19.1217C28.447 19.3322 28.4125 19.5731 28.353 19.8444L32.0423 22.625L28.5806 28.625L24.3578 26.822C23.9865 27.1183 23.6076 27.3803 23.2211 27.608C22.8346 27.836 22.4385 28.0221 22.0328 28.1664L21.4616 32.75H14.5384ZM16.5 30.5H19.4483L19.9875 26.4819C20.753 26.2819 21.4525 25.9978 22.086 25.6295C22.7198 25.261 23.3309 24.7874 23.9194 24.2086L27.6461 25.775L29.1233 23.225L25.8694 20.7733C25.9944 20.3848 26.0794 20.0039 26.1244 19.6306C26.1696 19.2576 26.1923 18.8808 26.1923 18.5C26.1923 18.1095 26.1696 17.7326 26.1244 17.3694C26.0794 17.0059 25.9944 16.6346 25.8694 16.2556L29.1518 13.775L27.675 11.225L23.9048 12.8143C23.4028 12.2778 22.8014 11.8038 22.1006 11.3923C21.3996 10.9808 20.6905 10.6894 19.9733 10.5181L19.5 6.5H16.5233L16.0268 10.5039C15.2615 10.6846 14.5549 10.9615 13.9069 11.3345C13.2586 11.7077 12.6403 12.1885 12.0518 12.7768L8.32501 11.225L6.84826 13.775L10.0875 16.1893C9.96251 16.5453 9.87501 16.9155 9.82501 17.3C9.77501 17.6845 9.75001 18.0893 9.75001 18.5143C9.75001 18.9048 9.77501 19.2875 9.82501 19.6625C9.87501 20.0375 9.95776 20.4078 10.0733 20.7733L6.84826 23.225L8.32501 25.775L12.0375 24.2C12.6068 24.7845 13.2154 25.2634 13.8634 25.6366C14.5116 26.0096 15.228 26.2961 16.0125 26.4961L16.5 30.5ZM18.0173 23C19.2653 23 20.3273 22.562 21.2033 21.686C22.0793 20.81 22.5173 19.748 22.5173 18.5C22.5173 17.252 22.0793 16.19 21.2033 15.314C20.3273 14.438 19.2653 14 18.0173 14C16.7538 14 15.6879 14.438 14.8196 15.314C13.9514 16.19 13.5173 17.252 13.5173 18.5C13.5173 19.748 13.9514 20.81 14.8196 21.686C15.6879 22.562 16.7538 23 18.0173 23Z" fill="currentColor"/>
</svg>
