<svg width="36" height="37" viewBox="0 0 36 37" fill="none" xmlns="http://www.w3.org/2000/svg">
<g clip-path="url(#clip0_10334_2984)">
<path d="M11.2558 31.8039C10.5133 31.8039 9.87764 31.5396 9.34874 31.011C8.82014 30.4821 8.55584 29.8464 8.55584 29.1039V24.6043H13.7479V19.6539C12.6517 19.7439 11.5677 19.6095 10.4958 19.2507C9.42389 18.8919 8.49794 18.3133 7.71794 17.515V15.2578H5.40584L-0.0288086 9.82315C1.02809 8.66246 2.28224 7.82306 3.73364 7.30496C5.18534 6.78686 6.66344 6.52781 8.16794 6.52781C9.14984 6.52781 10.1043 6.63985 11.0313 6.86395C11.9586 7.08775 12.8641 7.45691 13.7479 7.97141V5.08105H33.5479V27.3039C33.5479 28.5618 33.1123 29.6262 32.2411 30.4971C31.3699 31.3683 30.3055 31.8039 29.0479 31.8039H11.2558ZM16.4479 24.6043H27.2479V27.3039C27.2479 27.8139 27.4204 28.2414 27.7654 28.5864C28.1104 28.9314 28.5379 29.1039 29.0479 29.1039C29.5579 29.1039 29.9854 28.9314 30.3304 28.5864C30.6754 28.2414 30.8479 27.8139 30.8479 27.3039V7.78105H16.4479V9.76105L26.7979 20.1111V22.0078H24.9012L19.5979 16.705L18.909 17.3935C18.5238 17.779 18.1303 18.1137 17.7286 18.3975C17.3272 18.6813 16.9003 18.9132 16.4479 19.0932V24.6043ZM6.55469 12.5578H10.4179V16.255C10.9048 16.5643 11.3779 16.7754 11.8372 16.8882C12.2965 17.0013 12.7558 17.0578 13.2151 17.0578C13.9696 17.0578 14.6532 16.9356 15.2658 16.6911C15.8784 16.4466 16.4662 16.0428 17.0293 15.4797L17.7012 14.8078L14.8693 11.9764C13.9531 11.0602 12.9262 10.3731 11.7886 9.91496C10.651 9.45686 9.44414 9.22781 8.16794 9.22781C7.42934 9.22781 6.71804 9.30746 6.03404 9.46676C5.34974 9.62606 4.70864 9.84191 4.11074 10.1143L6.55469 12.5578ZM24.5479 27.3039H11.2558V29.1039H24.9565C24.8089 28.8456 24.7039 28.5645 24.6415 28.2606C24.5791 27.957 24.5479 27.6381 24.5479 27.3039Z" fill="currentColor"/>
</g>
<defs>
<clipPath id="clip0_10334_2984">
<rect width="36" height="36" fill="white" transform="translate(0 0.5)"/>
</clipPath>
</defs>
</svg>
