<svg width="32" height="32" viewBox="0 0 32 32" fill="none" xmlns="http://www.w3.org/2000/svg">
<path d="M17.9423 13.7465V12.431C18.4859 12.1785 19.0548 11.989 19.649 11.8627C20.2433 11.7364 20.8603 11.6732 21.5 11.6732C21.9013 11.6732 22.2911 11.7018 22.6693 11.759C23.0474 11.816 23.4269 11.8913 23.8078 11.985V13.2387C23.4334 13.1079 23.0613 13.013 22.6913 12.954C22.3214 12.895 21.9243 12.8655 21.5 12.8655C20.8603 12.8655 20.2408 12.9415 19.6413 13.0935C19.0419 13.2455 18.4756 13.4631 17.9423 13.7465ZM17.9423 19.2272V17.8925C18.4731 17.64 19.0404 17.4505 19.6443 17.3242C20.2481 17.198 20.8667 17.135 21.5 17.135C21.9013 17.135 22.2911 17.1635 22.6693 17.2205C23.0474 17.2775 23.4269 17.3528 23.8078 17.4465V18.7002C23.4334 18.5694 23.0613 18.4745 22.6913 18.4155C22.3214 18.3566 21.9243 18.3272 21.5 18.3272C20.8603 18.3272 20.2408 18.4038 19.6413 18.557C19.0419 18.7101 18.4756 18.9335 17.9423 19.2272ZM17.9423 16.4965V15.1617C18.4859 14.9092 19.0548 14.7198 19.649 14.5935C20.2433 14.4671 20.8603 14.404 21.5 14.404C21.9013 14.404 22.2911 14.4325 22.6693 14.4897C23.0474 14.5467 23.4269 14.622 23.8078 14.7157V15.9695C23.4334 15.8386 23.0613 15.7437 22.6913 15.6847C22.3214 15.6259 21.9243 15.5965 21.5 15.5965C20.8603 15.5965 20.2408 15.6756 19.6413 15.834C19.0419 15.9923 18.4756 16.2131 17.9423 16.4965ZM10.5 20.0195C11.3282 20.0195 12.1339 20.1134 12.9173 20.3012C13.7006 20.489 14.4782 20.7836 15.25 21.185V11.354C14.5475 10.8963 13.7872 10.553 12.9692 10.3242C12.1512 10.0954 11.3282 9.98096 10.5 9.98096C9.9 9.98096 9.33942 10.028 8.81825 10.1222C8.29708 10.2165 7.7615 10.3707 7.2115 10.5847C7.13467 10.6104 7.08017 10.6473 7.048 10.6955C7.016 10.7435 7 10.7963 7 10.854V20.3117C7 20.4015 7.03208 20.4673 7.09625 20.509C7.16025 20.5506 7.23075 20.5554 7.30775 20.5232C7.78208 20.3617 8.28267 20.2374 8.8095 20.1502C9.3365 20.063 9.9 20.0195 10.5 20.0195ZM16.75 21.185C17.5218 20.7836 18.2994 20.489 19.0828 20.3012C19.8661 20.1134 20.6718 20.0195 21.5 20.0195C22.1 20.0195 22.6635 20.063 23.1905 20.1502C23.7173 20.2374 24.2179 20.3617 24.6923 20.5232C24.7693 20.5554 24.8398 20.5506 24.9038 20.509C24.9679 20.4673 25 20.4015 25 20.3117V10.854C25 10.7963 24.984 10.745 24.952 10.7002C24.9198 10.6554 24.8653 10.6169 24.7885 10.5847C24.2385 10.3707 23.7029 10.2165 23.1818 10.1222C22.6606 10.028 22.1 9.98096 21.5 9.98096C20.6718 9.98096 19.8488 10.0954 19.0307 10.3242C18.2127 10.553 17.4525 10.8963 16.75 11.354V21.185ZM16 23.3847C15.1937 22.7899 14.3238 22.3303 13.3905 22.006C12.4572 21.6816 11.4937 21.5195 10.5 21.5195C9.88983 21.5195 9.2905 21.587 8.702 21.7222C8.1135 21.8575 7.54617 22.0566 7 22.3195C6.64367 22.4835 6.30458 22.4575 5.98275 22.2415C5.66092 22.0255 5.5 21.7194 5.5 21.3232V10.4657C5.5 10.2502 5.5555 10.048 5.6665 9.85896C5.77733 9.66979 5.93725 9.53354 6.14625 9.45021C6.82308 9.12071 7.5285 8.87679 8.2625 8.71846C8.9965 8.56012 9.74233 8.48096 10.5 8.48096C11.473 8.48096 12.4237 8.61396 13.352 8.87996C14.2802 9.14612 15.1628 9.53879 16 10.058C16.8372 9.53879 17.7198 9.14612 18.648 8.87996C19.5763 8.61396 20.527 8.48096 21.5 8.48096C22.2577 8.48096 23.0035 8.56012 23.7375 8.71846C24.4715 8.87679 25.1769 9.12071 25.8538 9.45021C26.0628 9.53354 26.2227 9.66979 26.3335 9.85896C26.4445 10.048 26.5 10.2502 26.5 10.4657V21.3232C26.5 21.7194 26.3327 22.0223 25.998 22.232C25.6633 22.4415 25.3114 22.4642 24.9423 22.3002C24.4026 22.0437 23.8433 21.8495 23.2645 21.7175C22.6857 21.5855 22.0975 21.5195 21.5 21.5195C20.5063 21.5195 19.5428 21.6816 18.6095 22.006C17.6762 22.3303 16.8063 22.7899 16 23.3847Z" fill="#171717"/>
</svg>
