<svg width="32" height="32" viewBox="0 0 32 32" fill="none" xmlns="http://www.w3.org/2000/svg">
<path d="M9.92593 25.3333C9.38035 25.3333 8.92484 25.1506 8.55941 24.7852C8.19398 24.4198 8.01126 23.9642 8.01126 23.4187V9.92593C8.01126 9.38035 8.19398 8.92484 8.55941 8.55941C8.92484 8.19398 9.38035 8.01126 9.92593 8.01126H23.4187C23.9642 8.01126 24.4198 8.19398 24.7852 8.55941C25.1506 8.92484 25.3333 9.38035 25.3333 9.92593V23.4187C25.3333 23.9642 25.1506 24.4198 24.7852 24.7852C24.4198 25.1506 23.9642 25.3333 23.4187 25.3333H9.92593ZM9.92593 24.1481H16.0797V19.5215H9.19644V23.4187C9.19644 23.6314 9.26489 23.8062 9.40178 23.9431C9.53847 24.0798 9.71319 24.1481 9.92593 24.1481ZM17.2649 24.1481H23.4187C23.6314 24.1481 23.8062 24.0798 23.9431 23.9431C24.0798 23.8062 24.1481 23.6314 24.1481 23.4187V19.5215H17.2649V24.1481ZM4 20.8661V5.91467C4 5.36909 4.18272 4.91358 4.54815 4.54815C4.91358 4.18272 5.36909 4 5.91467 4H20.8661V5.18519H5.91467C5.70193 5.18519 5.52711 5.25353 5.39022 5.39022C5.25353 5.52711 5.18519 5.70193 5.18519 5.91467V20.8661H4ZM9.19644 18.3363H16.0797V13.6865H9.19644V18.3363ZM17.2649 18.3363H24.1481V13.6865H17.2649V18.3363ZM9.19644 12.5013H24.1481V9.92593C24.1481 9.71319 24.0798 9.53847 23.9431 9.40178C23.8062 9.26489 23.6314 9.19644 23.4187 9.19644H9.92593C9.71319 9.19644 9.53847 9.26489 9.40178 9.40178C9.26489 9.53847 9.19644 9.71319 9.19644 9.92593V12.5013Z" fill="#171717"/>
</svg>
