<svg width="32" height="32" viewBox="0 0 32 32" fill="none" xmlns="http://www.w3.org/2000/svg">
<g clip-path="url(#clip0_3336_214877)">
<path d="M24.1985 23.0064C23.6996 22.1556 22.9279 21.6432 22.1849 21.3014C21.4415 20.9599 20.7068 20.776 20.2642 20.6092C19.9144 20.4791 19.5318 20.2757 19.2601 20.0557C19.1234 19.9466 19.0157 19.8337 18.9501 19.7353C18.8838 19.6366 18.8627 19.5599 18.8634 19.5085C18.8634 19.1567 18.8634 18.9975 18.8634 18.4624C19.3319 17.9403 20.0063 17.132 20.2824 15.85C20.3795 15.8065 20.4751 15.7575 20.567 15.6929C20.7966 15.5348 20.9913 15.3052 21.156 14.9927C21.3218 14.6788 21.4685 14.2776 21.6252 13.7283C21.705 13.45 21.7416 13.2083 21.7416 12.9929C21.7419 12.7446 21.6911 12.5299 21.5972 12.3545C21.5882 12.3386 21.5776 12.3269 21.5679 12.3116C21.7713 11.0959 22.5616 5.20118 18.7529 5.34752C17.8548 4.36765 15.5685 3.14299 13.0373 4.85759C10.2713 6.73137 9.77898 11.0745 10.5624 12.1341C10.503 12.1967 10.4474 12.2698 10.4029 12.3548C10.3089 12.5298 10.2575 12.7449 10.2582 12.9932C10.2582 13.2083 10.2952 13.4503 10.3742 13.7286C10.5841 14.4596 10.774 14.9315 11.0191 15.2779C11.1421 15.4502 11.2812 15.5883 11.4331 15.6929C11.5257 15.7574 11.6213 15.8065 11.7177 15.85C11.9946 17.1319 12.6678 17.9402 13.1368 18.4623C13.1368 18.9974 13.1368 19.1566 13.1368 19.5085C13.1374 19.5523 13.1157 19.6327 13.0432 19.7366C12.9372 19.8924 12.7293 20.0778 12.4876 20.2346C12.2463 20.3923 11.9721 20.5259 11.7425 20.6067C11.4432 20.7127 11.0133 20.8301 10.5427 20.9966C9.83593 21.2469 9.02556 21.6077 8.37681 22.2551C7.72702 22.9004 7.26507 23.8461 7.26882 25.1439C7.26882 25.309 7.27571 25.4802 7.29127 25.657C7.30093 25.7675 7.3396 25.859 7.3862 25.937C7.47629 26.0824 7.59751 26.1953 7.74981 26.3099C8.01634 26.5077 8.38717 26.7025 8.86881 26.8945C10.3086 27.4666 12.7444 27.9993 16.0004 28C18.6458 28 20.7513 27.6471 22.219 27.209C22.9534 26.9891 23.5269 26.7494 23.9388 26.5122C24.1456 26.3931 24.3121 26.2751 24.4435 26.1469C24.5092 26.0824 24.5665 26.0154 24.6138 25.937C24.6611 25.859 24.6998 25.7675 24.7094 25.6574C24.7239 25.4802 24.7312 25.31 24.7312 25.1453C24.732 24.2804 24.5311 23.5723 24.1985 23.0064ZM15.4149 27.2722C15.4035 27.2719 15.3917 27.2715 15.3804 27.2715L14.2303 24.5726L14.2451 24.5843L15.291 23.2764L15.4625 23.9983H15.5085L15.4149 27.2722ZM14.0058 24.0463L12.6865 20.9517C12.8519 20.8561 13.0146 20.7504 13.1637 20.632C13.2549 20.5588 13.3415 20.4818 13.4213 20.3999L15.6258 22.0206L14.0058 24.0463ZM15.9998 21.647L13.732 19.9804C13.8049 19.8385 13.8546 19.6818 13.8553 19.5085C13.8553 19.1273 13.8553 18.9781 13.8553 18.3249V18.1868L13.7627 18.0845C13.2728 17.5387 12.6099 16.8143 12.3796 15.5271L12.3433 15.321L12.1469 15.2513C12.0219 15.2067 11.927 15.1612 11.8434 15.1031C11.7208 15.0165 11.6093 14.8981 11.4791 14.6557C11.3507 14.4143 11.2143 14.0542 11.0651 13.5311C10.9999 13.3029 10.9764 13.1251 10.9764 12.9932C10.9771 12.8396 11.0064 12.7504 11.0364 12.6935C11.0817 12.6113 11.1369 12.5761 11.2081 12.5478C11.2084 12.5474 11.2091 12.5474 11.2098 12.5471C11.7878 13.083 12.5474 14.6554 12.5474 14.6554L12.3841 12.0427C12.3841 12.0427 15.9769 11.2261 18.4263 8.94012C19.2429 9.75668 19.7328 13.0226 19.7328 13.0226L19.8961 14.1657L20.6468 12.5195H20.6495C20.6782 12.5195 20.7852 12.5319 20.8581 12.5802C20.8995 12.6068 20.9326 12.6376 20.9634 12.6935C20.9931 12.7504 21.0225 12.8396 21.0231 12.9928C21.0231 13.1251 20.9996 13.3029 20.9344 13.5315C20.7369 14.2289 20.5588 14.635 20.3961 14.8601C20.3147 14.9741 20.2397 15.0452 20.1568 15.1031C20.074 15.1612 19.9783 15.2067 19.8534 15.2513L19.6569 15.321L19.6206 15.5271C19.3907 16.8143 18.7267 17.5387 18.2368 18.0845L18.1449 18.1868V18.3249C18.1449 18.9781 18.1449 19.1273 18.1449 19.5085C18.1449 19.6811 18.1929 19.8396 18.2651 19.9828L15.9998 21.647ZM16.6185 27.2746C16.6071 27.2753 16.5967 27.2756 16.5854 27.276L16.4911 23.9984H16.5387L16.7096 23.2764L17.7558 24.5839L17.7706 24.5726L16.6185 27.2746ZM17.9944 24.0463L16.3744 22.0206L18.5769 20.402C18.7274 20.5557 18.901 20.6938 19.0892 20.8178C19.1617 20.8651 19.2398 20.9044 19.3154 20.9472L17.9944 24.0463Z" fill="#171717"/>
</g>
<defs>
<clipPath id="clip0_3336_214877">
<rect width="24" height="24" fill="white" transform="translate(4 4)"/>
</clipPath>
</defs>
</svg>
