<svg width="32" height="32" viewBox="0 0 32 32" fill="none" xmlns="http://www.w3.org/2000/svg">
<path d="M8.41033 28.6663C7.73678 28.6663 7.16667 28.433 6.7 27.9663C6.23333 27.4997 6 26.9296 6 26.256V5.74334C6 5.06979 6.23333 4.49967 6.7 4.03301C7.16667 3.56634 7.73678 3.33301 8.41033 3.33301H19L26 10.333V14.0637H24V11.333H18V5.33301H8.41033C8.30767 5.33301 8.21367 5.37578 8.12833 5.46134C8.04278 5.54667 8 5.64067 8 5.74334V26.256C8 26.3587 8.04278 26.4527 8.12833 26.538C8.21367 26.6236 8.30767 26.6663 8.41033 26.6663H15.5127V28.6663H8.41033Z" fill="#171717"/>
<g clip-path="url(#clip0_3336_214788)">
<g clip-path="url(#clip1_3336_214788)">
</g>
</g>
<path d="M30.1575 29.4297C30.095 29.1953 30.0066 28.9849 29.8972 28.7974C29.7058 28.4688 29.4519 28.2129 29.1721 28.0098C28.9627 27.8574 28.7381 27.7339 28.5105 27.627C28.1687 27.4668 27.8191 27.3438 27.4968 27.2246C27.1741 27.106 26.8787 26.9893 26.6501 26.854C26.5661 26.8047 26.4905 26.753 26.4251 26.6993C26.3274 26.6172 26.2522 26.5308 26.197 26.4336C26.1418 26.3365 26.1047 26.2276 26.0906 26.0908C26.0803 25.9937 26.0759 25.9014 26.0759 25.8145C26.0759 25.5567 26.114 25.3325 26.1624 25.104C26.3069 24.9409 26.4387 24.7471 26.5637 24.5147C26.6887 24.2823 26.8079 24.0093 26.9261 23.6866C27.0022 23.6519 27.0784 23.6104 27.1536 23.5606C27.324 23.4453 27.4856 23.2862 27.6204 23.0733C27.7552 22.8604 27.8636 22.5957 27.9373 22.2691C27.9578 22.1787 27.9676 22.0884 27.9676 22.0001C27.9676 21.8145 27.9241 21.6377 27.8504 21.48C27.7996 21.3712 27.7347 21.2706 27.659 21.1792C27.6976 21.0372 27.7444 20.8453 27.786 20.6212C27.8436 20.3096 27.8914 19.9361 27.8914 19.5421C27.8914 19.2887 27.8719 19.0269 27.8201 18.7677C27.7811 18.5738 27.7249 18.3814 27.6444 18.1968C27.5242 17.92 27.3494 17.6593 27.1058 17.4439C26.8807 17.2442 26.5985 17.086 26.2581 16.9835C26.1141 16.8111 25.9652 16.6651 25.8114 16.5426C25.5526 16.336 25.2801 16.1973 25.0023 16.1138C24.7244 16.0303 24.4431 16 24.1624 16C24.0144 16 23.867 16.0083 23.7185 16.0215C23.5798 16.0342 23.4646 16.0483 23.3616 16.0659C23.2073 16.0918 23.0803 16.126 22.9573 16.1685C22.8337 16.2109 22.7151 16.2607 22.5593 16.3218C22.5002 16.3452 22.4231 16.3794 22.3294 16.4268C22.1663 16.5088 21.9553 16.6308 21.7307 16.7988C21.3928 17.0503 21.0198 17.4062 20.7298 17.8877C20.5843 18.1279 20.4602 18.4004 20.3728 18.7046C20.2849 19.0098 20.2341 19.3457 20.2341 19.7134C20.2341 19.9419 20.2546 20.1841 20.2966 20.4375C20.2966 20.4551 20.2976 20.4727 20.2986 20.4893C20.3006 20.5205 20.304 20.5537 20.3074 20.5879C20.3128 20.6382 20.3186 20.6904 20.323 20.7344C20.3255 20.7559 20.3274 20.7754 20.3289 20.791C20.3289 20.7983 20.3294 20.8047 20.3299 20.8096V20.8145V20.8159V20.8164V20.8453L20.3919 21.1211C20.303 21.2183 20.2258 21.3277 20.1658 21.4473C20.0823 21.6143 20.0325 21.8018 20.033 22.0005C20.033 22.0884 20.0423 22.1787 20.0628 22.2691C20.1121 22.4873 20.1766 22.6778 20.2542 22.8428C20.3704 23.0918 20.5169 23.2852 20.68 23.4307C20.8059 23.5435 20.9407 23.626 21.0745 23.6871C21.1926 24.0093 21.3113 24.2818 21.4368 24.5147C21.5613 24.7471 21.6931 24.9405 21.8377 25.1036C21.8855 25.3316 21.9241 25.5562 21.9241 25.8145C21.9241 25.9019 21.9202 25.9937 21.91 26.0909C21.9002 26.1846 21.8792 26.2657 21.8494 26.3389C21.805 26.4478 21.7405 26.5406 21.6521 26.629C21.5642 26.7159 21.4514 26.7969 21.3186 26.8726C21.1834 26.9493 21.0271 27.0206 20.8567 27.0894C20.5584 27.21 20.219 27.3243 19.8743 27.461C19.6155 27.5646 19.3542 27.6818 19.1047 27.8292C18.9177 27.9391 18.7376 28.0665 18.572 28.2183C18.3245 28.4444 18.1101 28.7276 17.9626 29.0787C17.8142 29.4288 17.7317 29.8433 17.7322 30.3336C17.7322 30.4024 17.7468 30.4688 17.7707 30.5294C17.7932 30.586 17.8235 30.6392 17.8596 30.6881C17.9275 30.7808 18.0159 30.8633 18.1233 30.9434C18.3123 31.0831 18.5632 31.2135 18.8884 31.3365C19.3757 31.5201 20.0291 31.6847 20.8733 31.8053C21.7171 31.9249 22.7522 32.0001 24.0003 32.0001C25.0813 32.0001 26.0037 31.9434 26.7796 31.8502C27.3621 31.7808 27.8621 31.69 28.2869 31.5865C28.6053 31.5083 28.8811 31.4229 29.118 31.3331C29.2957 31.2662 29.452 31.1963 29.5872 31.1241C29.6883 31.0694 29.7786 31.0147 29.8577 30.9571C29.9769 30.8711 30.0721 30.7822 30.1448 30.6817C30.1805 30.6314 30.2112 30.5777 30.2332 30.52C30.2547 30.4619 30.2679 30.3984 30.2679 30.3335C30.2678 29.9981 30.2293 29.6982 30.1575 29.4297ZM23.4544 29.6655L21.6096 27.3071C21.7058 27.251 21.7971 27.1899 21.8826 27.1216C21.9744 27.0478 22.0589 26.9663 22.1331 26.8735L23.4744 27.4961L23.1883 27.9736L23.6316 28.4438L23.4544 29.6655ZM22.323 26.5586C22.3772 26.4321 22.4143 26.2939 22.429 26.1445C22.4412 26.0293 22.4466 25.9189 22.4466 25.8144C22.4466 25.4726 22.3899 25.1846 22.3338 24.9238L22.3177 24.853L22.2679 24.8003C22.1414 24.6665 22.0193 24.4951 21.8968 24.2675C21.7747 24.0395 21.6526 23.7558 21.5271 23.4023L21.4861 23.2866L21.3709 23.2441C21.2908 23.2148 21.2131 23.1772 21.1384 23.1269C21.0261 23.0507 20.9192 22.9477 20.8211 22.7939C20.7234 22.6401 20.6355 22.4336 20.572 22.1543C20.5603 22.101 20.5549 22.0498 20.5549 22.0004C20.5549 21.8886 20.5823 21.7827 20.6331 21.6806C20.6751 21.5966 20.7336 21.5166 20.8049 21.4453C20.9251 21.6269 21.0237 21.7705 21.0603 21.8061C21.1775 21.9238 21.1409 21.8877 21.1799 21.8296C21.1799 21.8296 21.3132 21.6421 22.0183 20.2705C23.429 20.5839 25.8938 18.4653 25.8938 18.4653C25.8938 18.4653 25.9236 19.1494 26.3938 19.7763C26.8396 20.371 27.094 21.767 27.094 21.767C27.094 21.767 27.1546 21.6523 27.2449 21.498C27.2991 21.561 27.344 21.6293 27.3767 21.7002C27.4216 21.7963 27.4451 21.896 27.4451 22C27.4451 22.0498 27.4397 22.101 27.428 22.1538C27.3855 22.3398 27.3328 22.4941 27.2727 22.6211C27.1834 22.8125 27.0803 22.9438 26.9724 23.0405C26.864 23.1372 26.7493 23.2002 26.6296 23.2441L26.5144 23.2861L26.4734 23.4018C26.3479 23.7558 26.2258 24.04 26.1037 24.2676C25.9812 24.4961 25.8586 24.667 25.7321 24.8008L25.6823 24.8535L25.6667 24.9248C25.6101 25.1846 25.5534 25.4732 25.5534 25.8145C25.5534 25.919 25.5588 26.0293 25.5705 26.1446C25.5847 26.2803 25.6155 26.4073 25.6623 26.5244C25.6643 26.5298 25.6667 26.5352 25.6692 26.5401L24.0818 27.375L22.323 26.5586ZM24.6736 29.751L24.4837 28.4438L24.9275 27.9736L24.6404 27.4941L25.8538 26.8564C25.8875 26.8999 25.9226 26.9414 25.9607 26.98C26.0813 27.1035 26.22 27.2056 26.3689 27.2944L24.6736 29.751Z" fill="#171717"/>
<defs>
<clipPath id="clip0_3336_214788">
<rect width="16" height="16" fill="white" transform="translate(16 16)"/>
</clipPath>
<clipPath id="clip1_3336_214788">
<rect width="16" height="16" fill="white" transform="translate(16 16)"/>
</clipPath>
</defs>
</svg>
