<svg width="32" height="32" viewBox="0 0 32 32" fill="none" xmlns="http://www.w3.org/2000/svg">
<path d="M9.74367 27.333C9.07878 27.333 8.51078 27.0975 8.03967 26.6266C7.56878 26.1555 7.33333 25.5875 7.33333 24.9226V7.99965H6V5.99965H12V4.82031H20V5.99965H26V7.99965H24.6667V24.9226C24.6667 25.5962 24.4333 26.1663 23.9667 26.633C23.5 27.0996 22.9299 27.333 22.2563 27.333H9.74367ZM22.6667 7.99965H9.33333V24.9226C9.33333 25.0424 9.37178 25.1408 9.44867 25.2176C9.52556 25.2945 9.62389 25.333 9.74367 25.333H22.2563C22.359 25.333 22.453 25.2902 22.5383 25.2046C22.6239 25.1193 22.6667 25.0253 22.6667 24.9226V7.99965ZM12.5387 22.6663H14.5383V10.6663H12.5387V22.6663ZM17.4617 22.6663H19.4613V10.6663H17.4617V22.6663Z" fill="#171717"/>
</svg>
