<svg width="32" height="32" viewBox="0 0 32 32" fill="none" xmlns="http://www.w3.org/2000/svg">
<g clip-path="url(#clip0_10856_29749)">
<rect width="32" height="32" rx="16" transform="matrix(-1 0 0 1 32 0)" fill="#BAE6FD"/>
<path d="M19.6221 21.5111C19.6221 21.5111 19.5521 21.3161 19.1399 21.291L19.2629 22.1865L19.6218 21.5111H19.6221Z" fill="#FAFAFA"/>
<path d="M12.4799 21.4622C12.4799 21.4622 12.5498 21.2862 12.9565 21.2822L12.8391 22.1376L12.4802 21.4622H12.4799Z" fill="#FAFAFA"/>
<path d="M12.1724 25.5443C12.5965 27.5321 13.2199 29.6995 13.9327 31.8673C14.0576 31.8837 14.1827 31.8982 14.3086 31.9114C14.4999 30.7235 14.6902 29.4121 14.8887 28.5591L14.8842 28.5475C14.5326 27.9022 14.3281 27.1835 14.2888 26.4567L14.2893 26.4282L14.2861 26.4255C14.1492 26.5905 14.0169 26.756 13.8932 26.9146C13.7258 27.1289 13.5738 27.3305 13.4463 27.5021C13.4149 27.463 13.3545 27.3902 13.2753 27.2907C12.9953 26.9389 12.4793 26.2527 12.1785 25.543L12.1724 25.5443Z" fill="#FAFAFA"/>
<path d="M17.1841 28.5465C17.1852 28.5517 17.1865 28.5567 17.1876 28.562C17.1939 28.5889 17.2 28.6161 17.206 28.6438C17.2147 28.6824 17.2234 28.7222 17.2327 28.7634C17.2483 28.8336 17.2644 28.9075 17.2807 28.984C17.2892 29.0223 17.2973 29.0614 17.3058 29.1012C17.3142 29.1408 17.3229 29.1812 17.3314 29.2221C17.339 29.2577 17.3467 29.2939 17.3541 29.3306C17.3551 29.3361 17.3565 29.3416 17.3575 29.3469C17.3665 29.3892 17.3752 29.4319 17.3842 29.4752C17.3976 29.5401 17.4111 29.6064 17.4248 29.6737C17.4338 29.7183 17.443 29.7634 17.452 29.8091C17.4612 29.8547 17.4705 29.9006 17.4797 29.9471C17.4868 29.9832 17.4942 30.0197 17.5014 30.0563C17.5164 30.1326 17.5314 30.2097 17.5465 30.2873C17.5512 30.3113 17.5557 30.3353 17.5605 30.3593C17.5613 30.3636 17.5621 30.368 17.5628 30.3723L17.5882 30.5045C17.6067 30.6019 17.6251 30.6995 17.6433 30.7974C17.6481 30.822 17.6526 30.8465 17.6571 30.8711C17.666 30.9202 17.675 30.9695 17.684 31.0183C17.6885 31.0429 17.693 31.0672 17.6974 31.0917C17.7027 31.1213 17.708 31.1508 17.7133 31.1799C17.7212 31.2239 17.7291 31.268 17.7368 31.3118C17.7463 31.3665 17.7558 31.4208 17.7653 31.4747C17.7729 31.5174 17.7801 31.5599 17.7874 31.6024C17.8001 31.6763 17.8125 31.7497 17.8244 31.8222C17.8286 31.8468 17.8328 31.8713 17.8368 31.8956C17.9991 31.8771 18.1606 31.856 18.3214 31.8328C19.001 29.8117 19.5409 27.594 19.9263 25.5058L19.8946 25.5C19.5977 26.1994 19.0841 26.9043 18.7991 27.272C18.7138 27.3818 18.6492 27.4615 18.6167 27.5021C18.4921 27.3345 18.3441 27.1382 18.1815 26.9294C18.0619 26.7761 17.9342 26.6161 17.802 26.4562L17.7948 26.462L17.7816 26.6003C17.7246 27.278 17.5243 27.9447 17.1963 28.5475C17.192 28.5475 17.1883 28.5467 17.1841 28.5465Z" fill="#FAFAFA"/>
<path d="M19.2824 22.0005C18.7166 22.7994 18.0071 23.6445 16.0338 24.8746L16.0436 24.8915C16.5157 25.0108 17.2059 25.7342 17.8021 26.4566C18.1143 26.8342 18.4007 27.2119 18.6168 27.5025C18.7583 27.3262 19.5091 26.4088 19.8947 25.5004L19.9264 25.5062C20.085 24.6463 20.2172 23.8084 20.3223 23.0153L20.3188 23.0148L19.6221 21.5117C19.5086 21.6746 19.3983 21.8366 19.2824 22.0008V22.0005Z" fill="#FAFAFA"/>
<path d="M12.8433 21.9768L12.8317 21.9844C13.3701 22.7865 14.0204 23.6582 15.9682 24.8728C15.9692 24.8733 15.9697 24.8741 15.9708 24.8744H16.0822C18.0513 23.6471 18.7288 22.8028 19.2822 22.0055V21.9213C19.2294 21.4344 19.1761 20.8047 19.2186 20.5117L19.2263 20.3814C17.344 21.7722 14.7533 21.7361 12.9051 20.2803L12.9135 20.5117C12.9576 20.8158 12.8982 21.483 12.8436 21.9765L12.8433 21.9768Z" fill="#FFD2B4"/>
<mask id="mask0_10856_29749" style="mask-type:luminance" maskUnits="userSpaceOnUse" x="12" y="20" width="8" height="5">
<path d="M12.8433 21.9768L12.8317 21.9844C13.3701 22.7865 14.0204 23.6582 15.9682 24.8728C15.9692 24.8733 15.9697 24.8741 15.9708 24.8744H16.0822C18.0513 23.6471 18.7288 22.8028 19.2822 22.0055V21.9213C19.2294 21.4344 19.1761 20.8047 19.2186 20.5117L19.2263 20.3814C17.344 21.7722 14.7533 21.7361 12.9051 20.2803L12.9135 20.5117C12.9576 20.8158 12.8982 21.483 12.8436 21.9765L12.8433 21.9768Z" fill="white"/>
</mask>
<g mask="url(#mask0_10856_29749)">
<path d="M16.1057 22.3442C13.7701 22.3442 11.8768 20.3143 11.8768 17.8103C11.8768 15.3063 13.7701 13.2764 16.1057 13.2764C18.4412 13.2764 20.3345 15.3063 20.3345 17.8103C20.3345 20.3143 18.4412 22.3442 16.1057 22.3442Z" fill="#F0AA8C"/>
</g>
<path d="M14.8842 28.547L14.8887 28.5586C14.6902 29.4116 14.4999 30.723 14.3086 31.9109C14.8644 31.9695 15.4287 31.9994 16.0001 31.9994C16.6211 31.9994 17.2339 31.964 17.8364 31.8951C17.8325 31.8708 17.8285 31.8463 17.8243 31.8217C17.8124 31.7492 17.8 31.6758 17.7873 31.6019C17.7799 31.5594 17.7726 31.5169 17.7652 31.4742C17.7557 31.4203 17.7462 31.3659 17.7367 31.3113C17.7287 31.2675 17.7208 31.2234 17.7132 31.1794C17.7079 31.1503 17.7026 31.1208 17.6973 31.0912C17.6929 31.0669 17.6884 31.0424 17.6839 31.0178C17.6749 30.969 17.6659 30.9197 17.657 30.8706C17.6522 30.846 17.6477 30.8215 17.6432 30.7969C17.625 30.699 17.6065 30.6014 17.5881 30.504C17.5796 30.4596 17.5712 30.4156 17.5627 30.3718C17.5619 30.3675 17.5612 30.363 17.5604 30.3588C17.5556 30.3348 17.5509 30.3108 17.5464 30.2868C17.5313 30.2092 17.5163 30.1321 17.5012 30.0558C17.4939 30.0192 17.4867 29.9827 17.4796 29.9466C17.4704 29.9001 17.4611 29.8542 17.4519 29.8085C17.4429 29.7629 17.4337 29.7178 17.4247 29.6732C17.411 29.6059 17.3975 29.5396 17.3841 29.4747C17.3751 29.4314 17.3661 29.3886 17.3574 29.3464C17.3564 29.3411 17.355 29.3356 17.354 29.3301C17.3463 29.2936 17.3389 29.2575 17.3313 29.2216C17.3228 29.1807 17.3141 29.1403 17.3057 29.1007C17.2972 29.0609 17.2888 29.0218 17.2806 28.9835C17.264 28.907 17.2479 28.8331 17.2326 28.7629C17.2233 28.7217 17.2146 28.6819 17.2059 28.6433C17.1996 28.6156 17.1935 28.5884 17.1874 28.5618L17.1962 28.547C17.5242 27.9442 17.7245 27.2775 17.7815 26.5998L17.7947 26.4615L17.8019 26.4557C17.2057 25.7336 16.5152 25.0099 16.0433 24.8906H16.0193C15.5538 25.0083 14.8768 25.713 14.2861 26.4251L14.2893 26.4277L14.2888 26.4562C14.3281 27.1831 14.5327 27.9017 14.8842 28.547Z" fill="#0284C7"/>
<path d="M12.4797 21.4622C12.5951 21.6274 12.7054 21.7934 12.8212 21.9623L12.8165 21.9449L12.8479 21.937L12.8429 21.9937C13.3924 22.7931 14.0778 23.6636 16.0197 24.8739H16.0337L16.0435 24.8908H16.0197C15.5541 25.0085 14.8769 25.7132 14.2865 26.425C13.9648 26.8129 13.6687 27.203 13.4467 27.5015C13.3047 27.3244 12.565 26.4527 12.1791 25.5424L12.173 25.5437C11.9843 24.6596 11.835 23.8111 11.7347 23.0138L12.4802 21.4619L12.4797 21.4622Z" fill="#FAFAFA"/>
<path d="M4.18436 26.7872C5.80484 28.5613 7.81962 29.9691 10.0899 30.8719C10.2282 30.9271 10.3675 30.9802 10.5077 31.0316C11.5987 31.4304 12.7455 31.7136 13.9331 31.8667C13.2203 29.6988 12.5969 27.5315 12.1727 25.5436C11.984 24.6595 11.8347 23.811 11.7346 23.0137L10.2424 23.7695C8.81117 24.4835 6.63118 25.4391 5.90091 25.7783C5.13342 26.1348 4.58447 26.4336 4.18436 26.7872Z" fill="#0284C7"/>
<path d="M22.1672 30.7679C24.3433 29.8581 26.2752 28.4815 27.8384 26.7634C27.4406 26.4203 26.8996 26.1271 26.1498 25.7787C25.4195 25.4396 23.2393 24.4594 21.808 23.7457L20.3221 23.0146C20.2171 23.808 20.0849 24.6457 19.9263 25.5055C19.5409 27.5937 19.001 29.8114 18.3214 31.8325C19.5087 31.6599 20.6536 31.357 21.7415 30.9386C21.8846 30.8837 22.0266 30.8267 22.1672 30.7679Z" fill="#0284C7"/>
<path d="M21.6575 13.8785C21.6771 12.0941 21.0283 9.20203 19.5372 8.27276C19.5372 8.27276 19.4028 8.17036 19.1579 8.0289C18.6712 7.74782 17.7475 7.31156 16.5704 7.21496C15.9864 7.16667 15.3398 7.20203 14.6536 7.38124L14.638 7.37041C13.9357 8.35405 13.5456 9.41818 12.5741 10.2519C12.2564 10.5744 11.7934 10.8492 11.3068 11.0007L11.3089 11.007L11.2957 11.0302C10.7895 11.8885 10.7269 13.2258 10.6731 13.8761C10.4226 13.2596 9.96051 13.0347 9.57439 13.1456C9.23604 13.2427 8.95602 13.6 8.92725 14.1841C8.74778 15.5715 9.53322 17.1297 10.9212 17.5457L11.0991 17.5995C12.7802 22.685 19.4176 22.7143 21.1294 17.6407L21.315 17.5876C22.7462 17.1791 23.5923 15.6198 23.4028 14.1838C23.372 13.5544 23.0492 13.1883 22.6763 13.1276C22.3081 13.0674 21.8911 13.3044 21.6578 13.8785H21.6575Z" fill="#FFD2B4"/>
<path d="M9.61677 7.37429C10.5117 5.76569 12.0573 4.5403 13.8039 3.85674C14.2264 3.69126 14.6619 3.54795 15.1119 3.47828C17.6059 3.0919 19.7614 4.25869 20.5307 5.61446C23.246 7.10483 23.4273 9.67939 22.6891 13.0322L22.6759 13.1275C22.308 13.0674 21.8907 13.3044 21.6574 13.8786C21.6769 12.0943 21.0285 9.20222 19.5371 8.27295C19.5371 8.27295 19.4027 8.17054 19.1578 8.02882C18.6711 7.74801 17.7474 7.31174 16.5701 7.21488C15.9863 7.16632 15.3396 7.20195 14.6532 7.38115L14.6376 7.37007C13.9353 8.35371 13.5455 9.41784 12.5737 10.2516C12.256 10.5741 11.7933 10.8488 11.3064 11.0003L11.3085 11.0066L11.2953 11.0301C10.7891 11.8881 10.7266 13.2257 10.6727 13.876C10.6653 13.8578 10.6577 13.8401 10.65 13.8227C10.6424 13.805 10.6345 13.7879 10.6263 13.7712C10.6184 13.7543 10.6099 13.738 10.6015 13.7219C10.5943 13.7076 10.5867 13.6936 10.579 13.6802C10.5727 13.6686 10.5661 13.6572 10.5595 13.6461C10.5537 13.6358 10.5474 13.6258 10.5413 13.616C10.535 13.6058 10.5284 13.5957 10.5218 13.5857C10.5133 13.5728 10.5046 13.5598 10.4956 13.5474C10.4547 13.4896 10.4114 13.4376 10.3663 13.3922C10.3597 13.3851 10.3531 13.3785 10.3465 13.3724C10.3423 13.3682 10.3378 13.364 10.3336 13.36C10.3283 13.355 10.3233 13.3503 10.318 13.3461C10.3122 13.3405 10.3061 13.3352 10.3003 13.3305C10.2977 13.3278 10.295 13.3255 10.2921 13.3234C10.285 13.3173 10.2779 13.3112 10.2705 13.3057C10.2613 13.298 10.2518 13.2906 10.242 13.2838C10.2309 13.2753 10.2196 13.2674 10.2082 13.2597C10.1879 13.2463 10.1676 13.2336 10.147 13.222C10.1264 13.2104 10.1056 13.1998 10.0847 13.1901C10.0639 13.1803 10.043 13.1719 10.0219 13.1642C10.0113 13.1603 10.0008 13.1566 9.99022 13.1534C9.97755 13.1492 9.96488 13.1457 9.95221 13.1423C9.95037 13.1418 9.94825 13.1412 9.94641 13.141C9.93875 13.1389 9.9311 13.137 9.92345 13.1354C9.91395 13.1333 9.90418 13.1312 9.89468 13.1296C9.85219 13.122 9.8097 13.1183 9.76747 13.1183C9.70175 13.1183 9.63683 13.1275 9.57401 13.1455L9.56187 13.1035C9.08497 10.3759 8.72207 8.98263 9.61677 7.37429Z" fill="#4E4E4E"/>
<path d="M8.81504 27.7786C9.12778 28.6385 9.47616 29.4851 9.84433 30.3228C9.92509 30.5065 10.0066 30.6897 10.0895 30.8726C10.2278 30.9277 10.3672 30.9808 10.5073 31.0323C10.0175 29.9737 9.56246 28.8982 9.16051 27.804C9.73533 27.4551 10.3191 27.1252 10.8715 26.7401C10.9905 26.6572 10.9612 26.5039 10.8338 26.4506C10.3431 26.2452 9.84354 26.0631 9.34816 25.8699C9.46217 25.5949 9.58094 25.3218 9.71026 25.0534C9.79841 24.8705 9.52525 24.71 9.43684 24.8937C9.27532 25.2289 9.12989 25.5717 8.98922 25.9161C8.95386 26.0022 9.02776 26.0824 9.09981 26.1109C9.55164 26.2898 10.0082 26.4566 10.4595 26.6374C9.94647 26.976 9.41229 27.2777 8.88788 27.5997C8.8314 27.6343 8.79102 27.7124 8.81504 27.7786Z" fill="#0054F0"/>
<path d="M21.3359 26.7396C21.8883 27.1246 22.4721 27.4545 23.0467 27.8037C22.7556 28.5965 22.4344 29.378 22.0947 30.1515C21.9791 30.4147 21.8616 30.677 21.7416 30.9383C21.8846 30.8834 22.0266 30.8264 22.1673 30.7675C22.6114 29.786 23.0245 28.7897 23.3924 27.7781C23.4164 27.7118 23.3755 27.6335 23.3198 27.5992C22.7954 27.2772 22.2612 26.9755 21.7482 26.6369C22.1992 26.4561 22.6558 26.2893 23.1079 26.1104C23.1791 26.0821 23.2533 26.0006 23.2185 25.9156C23.0749 25.5664 22.9152 25.2252 22.7358 24.8932C22.6386 24.7134 22.3652 24.8736 22.4623 25.0528C22.6062 25.3191 22.7389 25.5915 22.8585 25.8697C22.3631 26.0629 21.864 26.245 21.3737 26.45C21.247 26.5031 21.2164 26.6562 21.3359 26.7396Z" fill="#0054F0"/>
<path d="M13.8605 27.0566C13.704 27.2511 13.5501 27.4478 13.3986 27.646C13.2764 27.8056 13.0012 27.6481 13.1252 27.486C13.2933 27.2664 13.4633 27.0482 13.6367 26.8326C13.7644 26.6737 13.9875 26.8991 13.8608 27.0566H13.8605Z" fill="#DCE1E6"/>
<path d="M18.4423 26.8197C18.6194 27.0393 18.7928 27.2621 18.9643 27.4861C19.0166 27.5545 18.9744 27.6627 18.9076 27.7028C18.8266 27.7514 18.7427 27.7136 18.6909 27.6461C18.536 27.4434 18.3787 27.2425 18.2185 27.0438C18.0918 26.8865 18.3146 26.6611 18.4426 26.8197H18.4423Z" fill="#DCE1E6"/>
<path d="M15.0751 6.82371C15.1841 6.70125 15.3232 6.5751 15.4841 6.45686C16.4042 5.78201 18.0455 5.3666 18.9523 7.41516C18.9523 7.41516 19.0822 7.69809 19.1582 8.02746L19.1571 8.02931C18.6705 7.74823 17.7467 7.31197 16.5697 7.21537C15.9856 7.16708 15.339 7.20244 14.6528 7.38164L14.6372 7.37082C14.77 7.18476 14.9135 7.00186 15.0748 6.82398L15.0751 6.82371Z" fill="#3F3F3F"/>
<path d="M18.0264 13.8547C18.2652 13.5271 18.6366 13.6058 18.8145 13.8763C19.0153 14.1774 18.9892 14.7113 18.7881 15.0096C18.7194 15.1067 18.6226 15.1661 18.5102 15.1861C18.0676 15.2648 17.8847 14.856 17.8865 14.5189C17.8876 14.3141 17.9016 14.0254 18.0261 13.8544L18.0264 13.8547Z" fill="#4E4E4E"/>
<path d="M13.4722 13.8547C13.711 13.5271 14.0824 13.6058 14.2603 13.8763C14.4611 14.1774 14.435 14.7113 14.2339 15.0096C14.1652 15.1067 14.0684 15.1661 13.956 15.1861C13.5134 15.2648 13.3305 14.856 13.3323 14.5189C13.3334 14.3141 13.3474 14.0254 13.4719 13.8544L13.4722 13.8547Z" fill="#4E4E4E"/>
<path d="M17.3925 18.2802C16.5759 18.7046 15.5429 18.6864 14.7322 18.2591C14.4617 18.1166 14.7013 17.7065 14.9718 17.849C15.6266 18.1939 16.4917 18.2134 17.1526 17.8701C17.4237 17.7292 17.6641 18.139 17.3922 18.2802H17.3925Z" fill="#4E4E4E"/>
<path d="M12.0042 8.04353C11.8889 8.50011 11.6841 8.9435 11.4291 9.33859C11.1826 9.72049 10.872 10.0884 10.4442 10.2679C10.3647 10.3011 10.2708 10.232 10.2494 10.1573C10.2233 10.0662 10.2816 9.99549 10.36 9.9625C10.7253 9.80917 10.995 9.43888 11.1966 9.11399C11.4181 8.75691 11.5957 8.36736 11.6989 7.95934C11.7488 7.76192 12.0544 7.84559 12.0042 8.04353Z" fill="#3F3F3F"/>
</g>
<defs>
<clipPath id="clip0_10856_29749">
<rect width="32" height="32" rx="16" transform="matrix(-1 0 0 1 32 0)" fill="white"/>
</clipPath>
</defs>
</svg>
