<svg width="32" height="33" viewBox="0 0 32 33" fill="none" xmlns="http://www.w3.org/2000/svg">
<path d="M9.30775 25C8.81058 25 8.385 24.823 8.031 24.469C7.677 24.115 7.5 23.6894 7.5 23.1923V9.80775C7.5 9.31058 7.677 8.885 8.031 8.531C8.385 8.177 8.81058 8 9.30775 8H22.6923C23.1894 8 23.615 8.177 23.969 8.531C24.323 8.885 24.5 9.31058 24.5 9.80775V23.1923C24.5 23.6894 24.323 24.115 23.969 24.469C23.615 24.823 23.1894 25 22.6923 25H9.30775ZM9.30775 23.5H22.6923C22.7821 23.5 22.8558 23.4712 22.9135 23.4135C22.9712 23.3558 23 23.2821 23 23.1923V11.5H9V23.1923C9 23.2821 9.02883 23.3558 9.0865 23.4135C9.14417 23.4712 9.21792 23.5 9.30775 23.5ZM16 21C14.7743 21 13.6753 20.6757 12.703 20.027C11.7305 19.3782 11.0122 18.5358 10.548 17.5C11.0122 16.4642 11.7305 15.6218 12.703 14.973C13.6753 14.3243 14.7743 14 16 14C17.2257 14 18.3247 14.3243 19.297 14.973C20.2695 15.6218 20.9878 16.4642 21.452 17.5C20.9878 18.5358 20.2695 19.3782 19.297 20.027C18.3247 20.6757 17.2257 21 16 21ZM16 19.8077C16.8628 19.8077 17.6568 19.6045 18.3818 19.198C19.1068 18.7917 19.6955 18.2257 20.148 17.5C19.6955 16.7743 19.1068 16.2083 18.3818 15.802C17.6568 15.3955 16.8628 15.1923 16 15.1923C15.1372 15.1923 14.3433 15.3955 13.6183 15.802C12.8933 16.2083 12.3045 16.7743 11.852 17.5C12.3045 18.2257 12.8933 18.7917 13.6183 19.198C14.3433 19.6045 15.1372 19.8077 16 19.8077ZM16.0022 18.8077C16.3661 18.8077 16.6746 18.6803 16.9277 18.4255C17.1811 18.1708 17.3077 17.8616 17.3077 17.4978C17.3077 17.1339 17.1803 16.8254 16.9255 16.5723C16.6708 16.3189 16.3616 16.1923 15.9978 16.1923C15.6339 16.1923 15.3254 16.3197 15.0723 16.5745C14.8189 16.8292 14.6923 17.1384 14.6923 17.5022C14.6923 17.8661 14.8197 18.1746 15.0745 18.4277C15.3292 18.6811 15.6384 18.8077 16.0022 18.8077Z" fill="#171717"/>
</svg>
