<svg width="32" height="32" viewBox="0 0 32 32" fill="none" xmlns="http://www.w3.org/2000/svg">
<g clip-path="url(#clip0_11008_6198)">
<rect width="32" height="32" rx="16" transform="matrix(-1 0 0 1 32 0)" fill="#BAE6FD"/>
<path d="M19.6218 21.5114C19.6218 21.5114 19.5519 21.3163 19.1396 21.2913L19.2626 22.1867L19.6216 21.5114H19.6218Z" fill="#FAFAFA"/>
<path d="M12.4794 21.463C12.4794 21.463 12.5494 21.2869 12.9561 21.283L12.8386 22.1383L12.4797 21.463H12.4794Z" fill="#FAFAFA"/>
<path d="M12.1721 25.5445C12.5963 27.5324 13.2196 29.6997 13.9325 31.8676C14.0573 31.8839 14.1824 31.8985 14.3083 31.9116C14.4997 30.7237 14.69 29.4123 14.8884 28.5593L14.8839 28.5477C14.5324 27.9024 14.3279 27.1838 14.2885 26.4569L14.2891 26.4284L14.2859 26.4258C14.1489 26.5907 14.0167 26.7562 13.8929 26.9148C13.7256 27.1291 13.5736 27.3308 13.4461 27.5023C13.4147 27.4632 13.3542 27.3904 13.2751 27.2909C12.9951 26.9391 12.4791 26.2529 12.1782 25.5432L12.1721 25.5445Z" fill="#FAFAFA"/>
<path d="M17.1839 28.5467C17.1849 28.552 17.1863 28.557 17.1873 28.5623C17.1936 28.5892 17.1997 28.6164 17.2058 28.6441C17.2145 28.6826 17.2232 28.7225 17.2324 28.7636C17.248 28.8338 17.2641 28.9077 17.2805 28.9843C17.2889 29.0225 17.2971 29.0616 17.3055 29.1015C17.314 29.141 17.3227 29.1814 17.3311 29.2223C17.3388 29.258 17.3465 29.2941 17.3538 29.3308C17.3549 29.3363 17.3562 29.3419 17.3573 29.3472C17.3662 29.3894 17.375 29.4322 17.3839 29.4754C17.3974 29.5404 17.4108 29.6066 17.4246 29.6739C17.4335 29.7185 17.4428 29.7636 17.4518 29.8093C17.461 29.855 17.4702 29.9009 17.4795 29.9473C17.4866 29.9835 17.494 30.0199 17.5011 30.0566C17.5162 30.1329 17.5312 30.2099 17.5462 30.2875C17.551 30.3115 17.5555 30.3356 17.5602 30.3596C17.561 30.3638 17.5618 30.3683 17.5626 30.3725L17.5879 30.5047C17.6064 30.6021 17.6249 30.6998 17.6431 30.7977C17.6479 30.8222 17.6523 30.8468 17.6568 30.8713C17.6658 30.9204 17.6748 30.9698 17.6837 31.0186C17.6882 31.0431 17.6927 31.0674 17.6972 31.092C17.7025 31.1215 17.7078 31.1511 17.713 31.1801C17.721 31.2242 17.7289 31.2683 17.7365 31.3121C17.746 31.3667 17.7555 31.4211 17.765 31.4749C17.7727 31.5177 17.7798 31.5602 17.7872 31.6026C17.7999 31.6765 17.8123 31.7499 17.8242 31.8225C17.8284 31.847 17.8326 31.8716 17.8366 31.8959C17.9989 31.8774 18.1604 31.8563 18.3211 31.833C19.0007 29.8119 19.5407 27.5942 19.926 25.506L19.8944 25.5002C19.5974 26.1996 19.0839 26.9046 18.7988 27.2722C18.7136 27.382 18.6489 27.4617 18.6164 27.5024C18.4919 27.3348 18.3438 27.1384 18.1812 26.9296C18.0617 26.7763 17.9339 26.6164 17.8017 26.4564L17.7946 26.4622L17.7814 26.6005C17.7244 27.2783 17.5241 27.945 17.196 28.5478C17.1918 28.5478 17.1881 28.547 17.1839 28.5467Z" fill="#FAFAFA"/>
<path d="M19.2822 22.0005C18.7163 22.7994 18.0069 23.6445 16.0336 24.8746L16.0433 24.8915C16.5155 25.0108 17.2056 25.7342 17.8018 26.4566C18.1141 26.8342 18.4004 27.2119 18.6166 27.5025C18.758 27.3262 19.5089 26.4088 19.8945 25.5004L19.9261 25.5062C20.0848 24.6463 20.217 23.8084 20.322 23.0153L20.3186 23.0148L19.6218 21.5117C19.5084 21.6746 19.398 21.8366 19.2822 22.0008V22.0005Z" fill="#FAFAFA"/>
<path d="M12.8431 21.9768L12.8315 21.9844C13.3699 22.7865 14.0202 23.6582 15.9679 24.8728C15.969 24.8733 15.9695 24.8741 15.9706 24.8744H16.0819C18.0511 23.6471 18.7285 22.8028 19.282 22.0055V21.9213C19.2292 21.4344 19.1759 20.8047 19.2184 20.5117L19.226 20.3814C17.3437 21.7722 14.7531 21.7361 12.9048 20.2803L12.9133 20.5117C12.9574 20.8158 12.898 21.483 12.8433 21.9765L12.8431 21.9768Z" fill="#FFD2B4"/>
<mask id="mask0_11008_6198" style="mask-type:luminance" maskUnits="userSpaceOnUse" x="12" y="20" width="8" height="5">
<path d="M12.8431 21.9768L12.8315 21.9844C13.3699 22.7865 14.0202 23.6582 15.9679 24.8728C15.969 24.8733 15.9695 24.8741 15.9706 24.8744H16.0819C18.0511 23.6471 18.7285 22.8028 19.282 22.0055V21.9213C19.2292 21.4344 19.1759 20.8047 19.2184 20.5117L19.226 20.3814C17.3437 21.7722 14.7531 21.7361 12.9048 20.2803L12.9133 20.5117C12.9574 20.8158 12.898 21.483 12.8433 21.9765L12.8431 21.9768Z" fill="white"/>
</mask>
<g mask="url(#mask0_11008_6198)">
<path d="M16.1054 22.3442C13.7699 22.3442 11.8766 20.3143 11.8766 17.8103C11.8766 15.3063 13.7699 13.2764 16.1054 13.2764C18.4409 13.2764 20.3342 15.3063 20.3342 17.8103C20.3342 20.3143 18.4409 22.3442 16.1054 22.3442Z" fill="#F0AA8C"/>
</g>
<path d="M14.8839 28.5477L14.8884 28.5593C14.69 29.4123 14.4997 30.7238 14.3083 31.9117C14.8642 31.9703 15.4284 32.0001 15.9998 32.0001C16.6208 32.0001 17.2336 31.9647 17.8362 31.8958C17.8322 31.8716 17.8283 31.847 17.824 31.8225C17.8122 31.7499 17.7998 31.6765 17.7871 31.6026C17.7797 31.5601 17.7723 31.5176 17.7649 31.4749C17.7554 31.421 17.7459 31.3667 17.7364 31.3121C17.7285 31.2682 17.7206 31.2242 17.7129 31.1801C17.7077 31.1511 17.7024 31.1215 17.6971 31.0919C17.6926 31.0677 17.6881 31.0431 17.6836 31.0186C17.6747 30.9697 17.6657 30.9204 17.6567 30.8713C17.652 30.8468 17.6475 30.8222 17.643 30.7977C17.6248 30.6998 17.6063 30.6021 17.5878 30.5047C17.5794 30.4604 17.5709 30.4163 17.5625 30.3725C17.5617 30.3683 17.5609 30.3638 17.5601 30.3596C17.5554 30.3355 17.5506 30.3115 17.5461 30.2875C17.5311 30.2099 17.516 30.1328 17.501 30.0566C17.4936 30.0199 17.4865 29.9835 17.4794 29.9473C17.4701 29.9009 17.4609 29.8549 17.4516 29.8093C17.4427 29.7636 17.4334 29.7185 17.4245 29.6739C17.4107 29.6066 17.3973 29.5403 17.3838 29.4754C17.3748 29.4321 17.3659 29.3894 17.3572 29.3471C17.3561 29.3419 17.3548 29.3363 17.3537 29.3308C17.3461 29.2944 17.3387 29.2582 17.331 29.2223C17.3226 29.1814 17.3139 29.141 17.3054 29.1014C17.297 29.0616 17.2885 29.0225 17.2804 28.9843C17.2637 28.9077 17.2476 28.8338 17.2323 28.7636C17.2231 28.7224 17.2144 28.6826 17.2057 28.6441C17.1993 28.6163 17.1933 28.5892 17.1872 28.5625L17.1959 28.5477C17.524 27.9449 17.7243 27.2783 17.7813 26.6005L17.7945 26.4622L17.8016 26.4564C17.2054 25.7343 16.515 25.0107 16.0431 24.8914H16.0191C15.5535 25.0091 14.8766 25.7137 14.2859 26.4258L14.2891 26.4284L14.2885 26.4569C14.3279 27.1838 14.5324 27.9024 14.8839 28.5477Z" fill="#0284C7"/>
<path d="M12.4795 21.4629C12.5948 21.6281 12.7051 21.7941 12.821 21.963L12.8162 21.9456L12.8476 21.9377L12.8426 21.9944C13.3921 22.7939 14.0775 23.6643 16.0195 24.8746H16.0334L16.0432 24.8915H16.0195C15.5539 25.0092 14.8767 25.7139 14.2863 26.4257C13.9646 26.8137 13.6684 27.2037 13.4465 27.5022C13.3045 27.3251 12.5647 26.4534 12.1789 25.5431L12.1728 25.5445C11.9841 24.6603 11.8347 23.8118 11.7344 23.0145L12.48 21.4626L12.4795 21.4629Z" fill="#FAFAFA"/>
<path d="M4.18387 26.7882C5.80435 28.5623 7.81913 29.97 10.0894 30.8729C10.2277 30.9281 10.367 30.9811 10.5072 31.0326C11.5982 31.4314 12.745 31.7146 13.9326 31.8676C13.2198 29.6998 12.5964 27.5325 12.1723 25.5446C11.9836 24.6605 11.8342 23.812 11.7341 23.0146L10.2419 23.7705C8.81069 24.4844 6.63069 25.4401 5.90042 25.7792C5.13293 26.1358 4.58398 26.4345 4.18387 26.7882Z" fill="#0284C7"/>
<path d="M22.167 30.7684C24.343 29.8586 26.2749 28.482 27.8381 26.7639C27.4404 26.4208 26.8994 26.1276 26.1496 25.7792C25.4193 25.4401 23.239 24.4598 21.8078 23.7462L20.3219 23.0151C20.2169 23.8085 20.0846 24.6462 19.926 25.506C19.5407 27.5942 19.0007 29.8119 18.3211 31.833C19.5085 31.6604 20.6534 31.3574 21.7413 30.9391C21.8843 30.8842 22.0263 30.8272 22.167 30.7684Z" fill="#0284C7"/>
<path d="M21.657 13.8792C21.6766 12.0948 21.0278 9.20276 19.5367 8.2735C19.5367 8.2735 19.4023 8.17109 19.1574 8.02963C18.6708 7.74855 17.747 7.31229 16.5699 7.2157C15.9859 7.1674 15.3393 7.20276 14.6531 7.38197L14.6375 7.37115C13.9352 8.35478 13.5451 9.41892 12.5736 10.2526C12.2559 10.5752 11.793 10.8499 11.3063 11.0014L11.3084 11.0077L11.2952 11.031C10.789 11.8892 10.7264 13.2265 10.6726 13.8768C10.4221 13.2603 9.96002 13.0354 9.5739 13.1463C9.23555 13.2434 8.95553 13.6008 8.92676 14.1848C8.7473 15.5723 9.53273 17.1305 10.9207 17.5464L11.0986 17.6002C12.7798 22.6857 19.4171 22.715 21.1289 17.6414L21.3145 17.5884C22.7457 17.1798 23.5918 15.6206 23.4024 14.1846C23.3715 13.5551 23.0487 13.189 22.6758 13.1283C22.3076 13.0682 21.8906 13.3052 21.6573 13.8792H21.657Z" fill="#FFD2B4"/>
<path d="M9.61653 7.37478C10.5115 5.76618 12.057 4.54079 13.8036 3.85723C14.2262 3.69175 14.6617 3.54844 15.1116 3.47877C17.6057 3.09238 19.7612 4.25918 20.5305 5.61495C23.2457 7.10532 23.427 9.67987 22.6888 13.0327L22.6756 13.128C22.3077 13.0678 21.8905 13.3048 21.6572 13.8791C21.6767 12.0948 21.0282 9.2027 19.5368 8.27343C19.5368 8.27343 19.4025 8.17103 19.1576 8.02931C18.6709 7.74849 17.7472 7.31223 16.5698 7.21537C15.986 7.16681 15.3394 7.20244 14.6529 7.38164L14.6374 7.37056C13.9351 8.35419 13.5453 9.41833 12.5735 10.2521C12.2557 10.5746 11.7931 10.8493 11.3062 11.0008L11.3083 11.0071L11.2951 11.0306C10.7889 11.8886 10.7263 13.2262 10.6725 13.8765C10.6651 13.8583 10.6574 13.8406 10.6498 13.8232C10.6421 13.8055 10.6342 13.7883 10.626 13.7717C10.6181 13.7548 10.6097 13.7385 10.6012 13.7224C10.5941 13.7081 10.5864 13.6941 10.5788 13.6807C10.5724 13.6691 10.5659 13.6577 10.5593 13.6466C10.5534 13.6363 10.5471 13.6263 10.541 13.6165C10.5347 13.6062 10.5281 13.5962 10.5215 13.5862C10.5131 13.5733 10.5044 13.5603 10.4954 13.5479C10.4545 13.4901 10.4112 13.4381 10.3661 13.3927C10.3595 13.3856 10.3529 13.379 10.3463 13.3729C10.342 13.3687 10.3376 13.3645 10.3333 13.3605C10.3281 13.3555 10.323 13.3508 10.3178 13.3465C10.312 13.341 10.3059 13.3357 10.3001 13.331C10.2974 13.3283 10.2948 13.326 10.2919 13.3238C10.2848 13.3178 10.2776 13.3117 10.2703 13.3062C10.261 13.2985 10.2515 13.2911 10.2418 13.2843C10.2307 13.2758 10.2193 13.2679 10.208 13.2602C10.1877 13.2468 10.1673 13.2341 10.1467 13.2225C10.1262 13.2109 10.1053 13.2003 10.0845 13.1906C10.0636 13.1808 10.0428 13.1724 10.0216 13.1647C10.0111 13.1607 10.0005 13.157 9.98997 13.1539C9.97731 13.1497 9.96464 13.1462 9.95197 13.1428C9.95012 13.1423 9.94801 13.1417 9.94616 13.1415C9.93851 13.1394 9.93086 13.1375 9.9232 13.1359C9.9137 13.1338 9.90394 13.1317 9.89443 13.1301C9.85194 13.1225 9.80945 13.1188 9.76722 13.1188C9.70151 13.1188 9.63658 13.128 9.57377 13.146L9.56163 13.104C9.08472 10.3764 8.72183 8.98312 9.61653 7.37478Z" fill="#4E4E4E"/>
<path d="M8.81479 27.7789C9.12754 28.6387 9.47592 29.4854 9.84409 30.3231C9.92485 30.5068 10.0064 30.6899 10.0893 30.8728C10.2276 30.928 10.3669 30.981 10.5071 31.0325C10.0172 29.9739 9.56222 28.8984 9.16027 27.8042C9.73509 27.4553 10.3189 27.1254 10.8713 26.7403C10.9903 26.6575 10.961 26.5041 10.8335 26.4508C10.3429 26.2455 9.84329 26.0634 9.34791 25.8702C9.46193 25.5952 9.58069 25.322 9.71001 25.0536C9.79816 24.8707 9.52501 24.7103 9.43659 24.8939C9.27507 25.2291 9.12965 25.572 8.98898 25.9164C8.95361 26.0024 9.02751 26.0826 9.09956 26.1112C9.5514 26.2901 10.008 26.4569 10.4593 26.6377C9.94623 26.9763 9.41205 27.278 8.88763 27.5999C8.83116 27.6345 8.79078 27.7126 8.81479 27.7789Z" fill="#0054F0"/>
<path d="M21.3357 26.7403C21.8881 27.1254 22.4719 27.4553 23.0464 27.8044C22.7553 28.5972 22.4341 29.3787 22.0944 30.1523C21.9788 30.4154 21.8614 30.6777 21.7413 30.939C21.8844 30.8841 22.0264 30.8271 22.167 30.7683C22.6112 29.7867 23.0242 28.7904 23.3921 27.7788C23.4162 27.7126 23.3753 27.6342 23.3196 27.5999C22.7952 27.2779 22.261 26.9762 21.7479 26.6376C22.199 26.4568 22.6555 26.29 23.1076 26.1111C23.1789 26.0829 23.2531 26.0013 23.2182 25.9163C23.0747 25.5672 22.915 25.2259 22.7355 24.8939C22.6384 24.7142 22.365 24.8744 22.4621 25.0536C22.6059 25.3199 22.7387 25.5922 22.8582 25.8704C22.3629 26.0636 21.8638 26.2457 21.3734 26.4508C21.2467 26.5038 21.2161 26.6569 21.3357 26.7403Z" fill="#0054F0"/>
<path d="M13.86 27.0571C13.7035 27.2516 13.5496 27.4483 13.3982 27.6465C13.276 27.8061 13.0007 27.6486 13.1247 27.4865C13.2929 27.2669 13.4628 27.0487 13.6362 26.8331C13.764 26.6742 13.987 26.8996 13.8603 27.0571H13.86Z" fill="#DCE1E6"/>
<path d="M18.4423 26.8202C18.6194 27.0398 18.7928 27.2625 18.9643 27.4866C19.0166 27.555 18.9744 27.6632 18.9076 27.7033C18.8266 27.7519 18.7427 27.7141 18.6909 27.6466C18.536 27.4439 18.3787 27.243 18.2185 27.0443C18.0918 26.887 18.3146 26.6616 18.4426 26.8202H18.4423Z" fill="#DCE1E6"/>
<path d="M15.0748 6.82396C15.1838 6.7015 15.3229 6.57534 15.4839 6.45711C16.4039 5.78226 18.0453 5.36684 18.9521 7.41541C18.9521 7.41541 19.0819 7.69833 19.158 8.02771L19.1569 8.02955C18.6702 7.74848 17.7465 7.31221 16.5694 7.21562C15.9854 7.16732 15.3387 7.20269 14.6525 7.38189L14.637 7.37107C14.7697 7.185 14.9133 7.0021 15.0746 6.82422L15.0748 6.82396Z" fill="#3F3F3F"/>
<path d="M18.0261 13.8554C18.265 13.5279 18.6363 13.6065 18.8142 13.877C19.0151 14.1782 18.9889 14.7121 18.7878 15.0103C18.7192 15.1074 18.6223 15.1668 18.5099 15.1869C18.0673 15.2655 17.8844 14.8567 17.8863 14.5197C17.8873 14.3149 17.9013 14.0261 18.0259 13.8551L18.0261 13.8554Z" fill="#4E4E4E"/>
<path d="M13.4722 13.8554C13.711 13.5279 14.0824 13.6065 14.2603 13.877C14.4611 14.1782 14.435 14.7121 14.2339 15.0103C14.1652 15.1074 14.0684 15.1668 13.956 15.1869C13.5134 15.2655 13.3305 14.8567 13.3323 14.5197C13.3334 14.3149 13.3474 14.0261 13.4719 13.8551L13.4722 13.8554Z" fill="#4E4E4E"/>
<path d="M17.392 18.2807C16.5754 18.7051 15.5425 18.6869 14.7317 18.2596C14.4612 18.1171 14.7008 17.7069 14.9713 17.8495C15.6261 18.1944 16.4913 18.2139 17.1521 17.8706C17.4232 17.7296 17.6636 18.1395 17.3918 18.2807H17.392Z" fill="#4E4E4E"/>
<path d="M12.0042 8.04353C11.8889 8.50011 11.6841 8.9435 11.4291 9.33859C11.1826 9.72049 10.872 10.0884 10.4442 10.2679C10.3647 10.3011 10.2708 10.232 10.2494 10.1573C10.2233 10.0662 10.2816 9.99549 10.36 9.9625C10.7253 9.80917 10.995 9.43888 11.1966 9.11399C11.4181 8.75691 11.5957 8.36736 11.6989 7.95934C11.7488 7.76192 12.0544 7.84559 12.0042 8.04353Z" fill="#3F3F3F"/>
</g>
<defs>
<clipPath id="clip0_11008_6198">
<rect width="32" height="32" rx="16" transform="matrix(-1 0 0 1 32 0)" fill="white"/>
</clipPath>
</defs>
</svg>
