<svg width="48" height="48" viewBox="0 0 48 48" fill="none" xmlns="http://www.w3.org/2000/svg">
<path d="M35 8.96094C36.5152 8.96094 38.0068 9.11895 39.4746 9.43555C40.9425 9.75218 42.3535 10.2405 43.707 10.8994C44.125 11.0661 44.4453 11.3385 44.667 11.7168C44.889 12.0948 45 12.4997 45 12.9307V34.6455C45 35.4378 44.6653 36.0436 43.9961 36.4629C43.3268 36.8818 42.623 36.9275 41.8848 36.5996C40.8055 36.0866 39.6869 35.6976 38.5293 35.4336C37.3716 35.1696 36.195 35.0381 35 35.0381C33.0127 35.0381 31.0854 35.3621 29.2188 36.0107C27.3521 36.6594 25.6126 37.5789 24 38.7686C22.3874 37.5789 20.6479 36.6594 18.7812 36.0107C16.9146 35.3621 14.9873 35.0381 13 35.0381C11.7798 35.0381 10.5812 35.1731 9.4043 35.4434C8.22733 35.714 7.0923 36.1121 6 36.6377C5.2875 36.9656 4.60935 36.9141 3.96582 36.4824C3.32217 36.0504 3.00002 35.4378 3 34.6455V12.9307C3 12.4997 3.11101 12.0948 3.33301 11.7168C3.55467 11.3385 3.87501 11.0661 4.29297 10.8994C5.64652 10.2405 7.05753 9.75218 8.52539 9.43555C9.99324 9.11895 11.4848 8.96094 13 8.96094C14.946 8.96094 16.8474 9.22679 18.7041 9.75879C20.5604 10.2911 22.3257 11.0769 24 12.1152C25.6743 11.0769 27.4396 10.2911 29.2959 9.75879C31.1526 9.22679 33.054 8.96094 35 8.96094ZM13 11.9609C11.8001 11.9609 10.679 12.0549 9.63672 12.2432C8.59439 12.4318 7.52284 12.74 6.42285 13.168C6.26922 13.2193 6.16004 13.2933 6.0957 13.3896C6.0317 13.4856 6 13.5917 6 13.707V32.6221C6 32.8016 6.06421 32.9333 6.19238 33.0166C6.32028 33.0999 6.46139 33.1101 6.61523 33.0459C7.5639 32.7229 8.56547 32.4741 9.61914 32.2998C10.6731 32.1255 11.8 32.0381 13 32.0381C14.6563 32.0381 16.2683 32.2259 17.835 32.6016C19.4015 32.9772 20.9565 33.5666 22.5 34.3691V14.707C21.095 13.7917 19.5745 13.1051 17.9385 12.6475C16.3025 12.1898 14.6563 11.9609 13 11.9609ZM35 11.9609C33.3437 11.9609 31.6975 12.1898 30.0615 12.6475C28.4255 13.1051 26.905 13.7917 25.5 14.707V34.3691C27.0435 33.5666 28.5985 32.9772 30.165 32.6016C31.7317 32.2259 33.3437 32.0381 35 32.0381C36.2 32.0381 37.3269 32.1255 38.3809 32.2998C39.4345 32.4741 40.4361 32.7229 41.3848 33.0459C41.5386 33.1101 41.6797 33.0999 41.8076 33.0166C41.9358 32.9333 42 32.8016 42 32.6221V13.707C42 13.5918 41.9682 13.4891 41.9043 13.3994C41.84 13.3097 41.7308 13.2323 41.5771 13.168C40.4772 12.74 39.4056 12.4318 38.3633 12.2432C37.321 12.0549 36.1999 11.9609 35 11.9609ZM35 26.2686C35.8027 26.2686 36.5825 26.3255 37.3389 26.4395C38.095 26.5534 38.8538 26.7043 39.6152 26.8916V29.3994C38.8668 29.1378 38.1226 28.9481 37.3828 28.8301C36.6431 28.7124 35.8487 28.6533 35 28.6533C33.7207 28.6533 32.4812 28.8069 31.2822 29.1133C30.0838 29.4196 28.9512 29.8659 27.8848 30.4531V27.7842C28.9463 27.2793 30.0806 26.9001 31.2881 26.6475C32.4958 26.3951 33.7333 26.2686 35 26.2686ZM35 20.8066C35.8027 20.8066 36.5825 20.8642 37.3389 20.9785C38.095 21.0925 38.8538 21.2434 39.6152 21.4307V23.9375C38.8668 23.6759 38.1226 23.4861 37.3828 23.3682C36.6431 23.2505 35.8487 23.1924 35 23.1924C33.7207 23.1924 32.4812 23.3503 31.2822 23.667C30.0837 23.9836 28.9513 24.4256 27.8848 24.9922V22.3223C28.972 21.8173 30.1096 21.4382 31.2979 21.1855C32.4865 20.9329 33.7207 20.8066 35 20.8066ZM35 15.3457C35.8027 15.3457 36.5825 15.4023 37.3389 15.5166C38.095 15.6306 38.8538 15.7815 39.6152 15.9688V18.4766C38.8668 18.215 38.1226 18.0252 37.3828 17.9072C36.6431 17.7892 35.8487 17.7295 35 17.7295C33.7207 17.7295 32.4812 17.8815 31.2822 18.1855C30.0837 18.4895 28.9514 18.9256 27.8848 19.4922V16.8613C28.972 16.3564 30.1096 15.9773 31.2979 15.7246C32.4865 15.4719 33.7207 15.3457 35 15.3457Z" fill="#525252"/>
</svg>
