<svg width="48" height="48" viewBox="0 0 48 48" fill="none" xmlns="http://www.w3.org/2000/svg">
<path d="M13 39C10.236 39 7.87833 38.0412 5.927 36.1235C3.97567 34.2058 3 31.8622 3 29.0925C3 26.6078 3.79933 24.4225 5.398 22.5365C6.99667 20.6505 8.97933 19.5332 11.346 19.1845C11.987 16.1948 13.4903 13.75 15.856 11.85C18.2213 9.95 20.936 9 24 9C27.6213 9 30.6933 10.2613 33.216 12.784C35.7387 15.3067 37 18.3787 37 22V23H37.6155C39.7232 23.164 41.4808 24.0115 42.8885 25.5425C44.2962 27.0732 45 28.8923 45 31C45 33.2307 44.2308 35.1217 42.6925 36.673C41.1538 38.2243 39.2692 39 37.0385 39H26.1155C25.1052 39 24.25 38.65 23.55 37.95C22.85 37.25 22.5 36.3948 22.5 35.3845V24.4305L18.8 28.069L16.6925 25.981L24 18.673L31.3075 25.981L29.2 28.069L25.5 24.4305V35.3845C25.5 35.5385 25.5642 35.6795 25.6925 35.8075C25.8205 35.9358 25.9615 36 26.1155 36H37C38.4 36 39.5833 35.5167 40.55 34.55C41.5167 33.5833 42 32.4 42 31C42 29.6 41.5167 28.4167 40.55 27.45C39.5833 26.4833 38.4 26 37 26H34V22C34 19.2333 33.025 16.875 31.075 14.925C29.125 12.975 26.7667 12 24 12C21.2333 12 18.875 12.975 16.925 14.925C14.975 16.875 14 19.2333 14 22H12.9615C11.0665 22 9.4325 22.6833 8.0595 24.05C6.6865 25.4167 6 27.0667 6 29C6 30.9333 6.68333 32.5833 8.05 33.95C9.41667 35.3167 11.0667 36 13 36H18V39H13Z" fill="white"/>
</svg>
