<svg width="49" height="48" viewBox="0 0 49 48" fill="none" xmlns="http://www.w3.org/2000/svg">
<path d="M13.0771 39C10.3131 39 7.95548 38.0412 6.00415 36.1235C4.05282 34.2058 3.07715 31.8622 3.07715 29.0925C3.07715 26.6078 3.87648 24.4225 5.47515 22.5365C7.07382 20.6505 9.05648 19.5332 11.4231 19.1845C12.0641 16.1948 13.5675 13.75 15.9331 11.85C18.2985 9.95 21.0131 9 24.0771 9C27.6985 9 30.7705 10.2613 33.2931 12.784C35.8158 15.3067 37.0771 18.3787 37.0771 22V23H37.6926C39.8003 23.164 41.558 24.0115 42.9656 25.5425C44.3733 27.0732 45.0771 28.8923 45.0771 31C45.0771 33.2307 44.308 35.1217 42.7696 36.673C41.231 38.2243 39.3463 39 37.1157 39H26.1926C25.1823 39 24.3271 38.65 23.6271 37.95C22.9271 37.25 22.5771 36.3948 22.5771 35.3845V24.4305L18.8771 28.069L16.7696 25.981L24.0771 18.673L31.3846 25.981L29.2771 28.069L25.5771 24.4305V35.3845C25.5771 35.5385 25.6413 35.6795 25.7696 35.8075C25.8976 35.9358 26.0386 36 26.1926 36H37.0771C38.4771 36 39.6605 35.5167 40.6271 34.55C41.5938 33.5833 42.0771 32.4 42.0771 31C42.0771 29.6 41.5938 28.4167 40.6271 27.45C39.6605 26.4833 38.4771 26 37.0771 26H34.0771V22C34.0771 19.2333 33.1021 16.875 31.1521 14.925C29.2021 12.975 26.8438 12 24.0771 12C21.3105 12 18.9521 12.975 17.0021 14.925C15.0521 16.875 14.0771 19.2333 14.0771 22H13.0386C11.1436 22 9.50965 22.6833 8.13665 24.05C6.76365 25.4167 6.07715 27.0667 6.07715 29C6.07715 30.9333 6.76048 32.5833 8.12715 33.95C9.49382 35.3167 11.1438 36 13.0771 36H18.0771V39H13.0771Z" fill="#171717"/>
</svg>
