<svg width="50" height="49" viewBox="0 0 50 49" fill="none" xmlns="http://www.w3.org/2000/svg">
<path d="M24.9993 48.8665C24.18 48.8665 23.4555 48.6506 22.826 48.2187C22.1965 47.7866 21.7562 47.2199 21.505 46.5185H20.916C20.081 46.5185 19.3618 46.2169 18.7585 45.6136C18.1552 45.0103 17.8535 44.2911 17.8535 43.456V36.7579C15.7935 35.5094 14.1726 33.8355 12.9908 31.7364C11.809 29.6369 11.2181 27.3897 11.2181 24.9948C11.2181 21.1524 12.5544 17.8949 15.2269 15.2223C17.8995 12.5498 21.1569 11.2135 24.9993 11.2135C28.8418 11.2135 32.0992 12.5498 34.7718 15.2223C37.4443 17.8949 38.7806 21.1524 38.7806 24.9948C38.7806 27.4315 38.1897 29.6891 37.0079 31.7675C35.8261 33.8459 34.2052 35.5094 32.1452 36.7579V43.456C32.1452 44.2911 31.8435 45.0103 31.2402 45.6136C30.6369 46.2169 29.9177 46.5185 29.0827 46.5185H28.4937C28.2425 47.2199 27.8022 47.7866 27.1727 48.2187C26.5432 48.6506 25.8187 48.8665 24.9993 48.8665ZM20.916 43.456H29.0827V41.5399H20.916V43.456ZM20.916 39.7341H29.0827V37.7552H20.916V39.7341ZM20.5077 34.6927H23.782V28.7484L19.4082 24.3746L21.1202 22.6627L24.9993 26.5419L28.8785 22.6627L30.5905 24.3746L26.2167 28.7484V34.6927H29.491C31.3285 33.808 32.8257 32.5064 33.9827 30.788C35.1396 29.0696 35.7181 27.1385 35.7181 24.9948C35.7181 22.0003 34.6803 19.4653 32.6046 17.3896C30.5289 15.3139 27.9938 14.276 24.9993 14.276C22.0049 14.276 19.4698 15.3139 17.3941 17.3896C15.3184 19.4653 14.2806 22.0003 14.2806 24.9948C14.2806 27.1385 14.8591 29.0696 16.016 30.788C17.173 32.5064 18.6702 33.808 20.5077 34.6927Z" fill="#525252"/>
<path d="M8.11914 26.6536H0.462891V23.5911H8.11914V26.6536ZM49.3171 26.9818H41.6608V23.9193H49.3171V26.9818ZM23.4681 7.80469V0.148438H26.5306V7.80469H23.4681ZM11.8776 14.0504L7.09546 9.43321L9.25912 7.16747L13.8646 11.8985L11.8776 14.0504ZM36.0713 12.0006L40.6885 7.21851L42.9543 9.38216L38.2232 13.9877L36.0713 12.0006Z" fill="#525252"/>
</svg>
