<svg width="48" height="48" viewBox="0 0 48 48" fill="none" xmlns="http://www.w3.org/2000/svg">
<path d="M37 15.5V20.8311C36.5203 20.6821 36.0334 20.5704 35.54 20.4961C35.0465 20.4218 34.5332 20.3779 34 20.3652V17H25V8H10.6152C10.4613 8.00007 10.3203 8.06412 10.1924 8.19238C10.0641 8.32031 10.0001 8.46134 10 8.61523V39.3848C10.0001 39.5387 10.0641 39.6797 10.1924 39.8076C10.3203 39.9359 10.4613 39.9999 10.6152 40H21.5234C21.8131 40.5742 22.1418 41.108 22.5098 41.6016C22.8778 42.0949 23.2845 42.5613 23.7305 43H10.6152C9.60502 42.9999 8.74974 42.6501 8.0498 41.9502C7.34987 41.2503 7.00006 40.395 7 39.3848V8.61523C7.00006 7.60502 7.34987 6.74974 8.0498 6.0498C8.74974 5.34987 9.60502 5.00006 10.6152 5H26.5L37 15.5ZM33.3076 24.6924C35.8052 24.6924 37.9297 25.568 39.6807 27.3193C41.432 29.0703 42.3076 31.1948 42.3076 33.6924C42.3076 36.1897 41.4319 38.3141 39.6807 40.0654C37.9297 41.8164 35.8052 42.6924 33.3076 42.6924C30.8103 42.6924 28.6859 41.8164 26.9346 40.0654C25.1832 38.3141 24.3076 36.1897 24.3076 33.6924C24.3076 31.1948 25.1833 29.0703 26.9346 27.3193C28.6859 25.5681 30.8103 24.6924 33.3076 24.6924ZM33.3076 37.1689C32.9796 37.1689 32.6998 37.2846 32.4688 37.5156C32.2383 37.7461 32.1232 38.0255 32.123 38.3535C32.123 38.6814 32.2382 38.9614 32.4688 39.1924C32.6998 39.423 32.9796 39.5381 33.3076 39.5381C33.6359 39.5381 33.9158 39.423 34.1465 39.1924C34.377 38.9614 34.4922 38.6814 34.4922 38.3535C34.4921 38.0255 34.3768 37.7461 34.1465 37.5156C33.9158 37.2847 33.6359 37.169 33.3076 37.1689ZM33.3076 27.7686C32.5667 27.7686 31.8881 27.9944 31.2715 28.4443C30.6549 28.8943 30.213 29.4895 29.9463 30.2305L31.4307 30.8535C31.5564 30.4537 31.7837 30.1036 32.1133 29.8037C32.4426 29.5037 32.841 29.3535 33.3076 29.3535C33.8331 29.3535 34.2437 29.4855 34.54 29.748C34.836 30.011 34.9844 30.4053 34.9844 30.9307C34.9843 31.3103 34.8777 31.6285 34.665 31.8848C34.4522 32.1409 34.2128 32.4025 33.9463 32.6689C33.7464 32.8688 33.5444 33.0752 33.3408 33.2881C33.1368 33.5007 32.9508 33.7278 32.7842 33.9688C32.6842 34.1561 32.6096 34.3532 32.5596 34.5596C32.5096 34.7659 32.4844 34.9895 32.4844 35.2305V35.8535H34.1309V35.4307C34.1309 35.0514 34.2307 34.7298 34.4307 34.4658C34.6307 34.2015 34.8642 33.9356 35.1309 33.6689C35.5974 33.269 35.9638 32.8727 36.2305 32.4805C36.4971 32.0885 36.6308 31.5719 36.6309 30.9307C36.6309 29.9897 36.3239 29.2269 35.71 28.6436C35.096 28.0602 34.2949 27.7686 33.3076 27.7686ZM20.0156 32.5C19.954 33 19.9263 33.5 19.9326 34C19.9393 34.5 19.9794 35 20.0537 35.5H14.5V32.5H20.0156ZM23.6348 24.5C23.2014 24.9383 22.8037 25.4048 22.4424 25.8984C22.0808 26.392 21.7554 26.9258 21.4658 27.5H14.5V24.5H23.6348Z" fill="#525252"/>
</svg>
