<svg width="48" height="48" viewBox="0 0 48 48" fill="none" xmlns="http://www.w3.org/2000/svg">
<path d="M24 5C26.6382 5 29.1132 5.49602 31.4248 6.48828C33.7365 7.48061 35.747 8.83264 37.457 10.543C39.1674 12.253 40.5194 14.2635 41.5117 16.5752C42.504 18.8868 43 21.3618 43 24C43 26.6382 42.504 29.1132 41.5117 31.4248C40.5194 33.7365 39.1674 35.747 37.457 37.457C35.747 39.1674 33.7365 40.5194 31.4248 41.5117C29.1132 42.504 26.6382 43 24 43C21.3618 43 18.8868 42.504 16.5752 41.5117C14.2635 40.5194 12.253 39.1674 10.543 37.457C8.83264 35.747 7.48061 33.7365 6.48828 31.4248C5.49602 29.1132 5 26.6382 5 24C5 21.3618 5.49602 18.8868 6.48828 16.5752C7.48061 14.2635 8.83264 12.253 10.543 10.543C12.253 8.83264 14.2635 7.48061 16.5752 6.48828C18.8868 5.49602 21.3618 5 24 5ZM24 33.5C22.1182 33.5 20.3554 33.7771 18.7119 34.332C17.0683 34.8874 15.6024 35.6744 14.3154 36.6924C15.6154 37.7357 17.1036 38.5479 18.7793 39.1289C20.4549 39.7095 22.1951 40 24 40C25.8049 40 27.5451 39.7095 29.2207 39.1289C30.8964 38.5479 32.3846 37.7357 33.6846 36.6924C32.3847 35.6871 30.9162 34.9041 29.2793 34.3428C27.642 33.7811 25.882 33.5 24 33.5ZM24 8C19.5667 8 15.7915 9.55814 12.6748 12.6748C9.55814 15.7915 8 19.5667 8 24C8 26.095 8.36382 28.0415 9.09082 29.8389C9.8178 31.636 10.8027 33.2184 12.0459 34.585C13.7458 33.3237 15.5977 32.3267 17.6016 31.5957C19.6052 30.865 21.7383 30.5 24 30.5C26.2617 30.5 28.3948 30.865 30.3984 31.5957C32.4023 32.3267 34.2542 33.3237 35.9541 34.585C37.1973 33.2184 38.1822 31.636 38.9092 29.8389C39.6362 28.0415 40 26.095 40 24C40 19.5667 38.4419 15.7915 35.3252 12.6748C32.2085 9.55814 28.4333 8 24 8ZM23.999 12.5C25.825 12.5 27.3655 13.1265 28.6191 14.3799C29.873 15.6334 30.4999 17.1732 30.5 18.999C30.5 20.825 29.8735 22.3655 28.6201 23.6191C27.3666 24.873 25.8268 25.4999 24.001 25.5C22.175 25.5 20.6345 24.8735 19.3809 23.6201C18.127 22.3666 17.5001 20.8268 17.5 19.001C17.5 17.175 18.1265 15.6345 19.3799 14.3809C20.6334 13.127 22.1732 12.5001 23.999 12.5ZM24 15.5C23.005 15.5 22.1729 15.8346 21.5039 16.5039C20.8346 17.1729 20.5 18.005 20.5 19C20.5 19.995 20.8346 20.8271 21.5039 21.4961C22.1729 22.1654 23.005 22.5 24 22.5C24.995 22.5 25.8271 22.1654 26.4961 21.4961C27.1654 20.8271 27.5 19.995 27.5 19C27.5 18.005 27.1654 17.1729 26.4961 16.5039C25.8271 15.8346 24.995 15.5 24 15.5Z" fill="#525252"/>
</svg>
