<svg width="48" height="49" viewBox="0 0 48 49" fill="none" xmlns="http://www.w3.org/2000/svg">
<path fill-rule="evenodd" clip-rule="evenodd" d="M19.6608 11.1709C21.8534 7.36425 27.3466 7.36425 29.5393 11.1709L43.3541 35.1551C45.5429 38.9551 42.8002 43.7001 38.4149 43.7001H10.7851C6.39986 43.7001 3.65712 38.9551 5.84592 35.1551L19.6608 11.1709ZM27.4596 12.3688C26.1902 10.165 23.0099 10.165 21.7405 12.3688L7.92559 36.353C6.65839 38.553 8.24629 41.3001 10.7851 41.3001H38.4149C40.9538 41.3001 42.5417 38.553 41.2745 36.353L27.4596 12.3688Z" fill="#A3A3A3"/>
<path d="M23.6743 31.9063L22.8188 23.1876V19.1563H26.3813V23.1876L25.5376 31.9063H23.6743ZM22.9594 36.336V33.0431H26.2524V36.336H22.9594Z" fill="#A3A3A3"/>
</svg>
