<svg width="48" height="48" viewBox="0 0 48 48" fill="none" xmlns="http://www.w3.org/2000/svg">
    <path fill-rule="evenodd" clip-rule="evenodd" d="M19.6608 11.1714C21.8534 7.36474 27.3466 7.36474 29.5393 11.1714L43.3541 35.1556C45.5429 38.9556 42.8002 43.7006 38.4149 43.7006H10.7851C6.39986 43.7006 3.65712 38.9556 5.84592 35.1556L19.6608 11.1714ZM27.4596 12.3693C26.1902 10.1654 23.0099 10.1654 21.7405 12.3693L7.92559 36.3535C6.65839 38.5535 8.24629 41.3006 10.7851 41.3006H38.4149C40.9538 41.3006 42.5417 38.5535 41.2745 36.3535L27.4596 12.3693Z" fill="#A3A3A3"/>
    <path d="M23.6743 31.9068L22.8188 23.1881V19.1568H26.3813V23.1881L25.5376 31.9068H23.6743ZM22.9594 36.3365V33.0435H26.2524V36.3365H22.9594Z" fill="#A3A3A3"/>
    </svg>
    