<svg width="48" height="49" viewBox="0 0 48 49" fill="none" xmlns="http://www.w3.org/2000/svg">
<path fill-rule="evenodd" clip-rule="evenodd" d="M19.6603 11.1709C21.853 7.36425 27.3461 7.36425 29.5388 11.1709L43.3537 35.1551C45.5425 38.9551 42.7997 43.7001 38.4144 43.7001H10.7847C6.39937 43.7001 3.65663 38.9551 5.84543 35.1551L19.6603 11.1709ZM27.4591 12.3688C26.1897 10.165 23.0094 10.165 21.74 12.3688L7.9251 36.353C6.6579 38.553 8.2458 41.3001 10.7847 41.3001H38.4144C40.9533 41.3001 42.5412 38.553 41.274 36.353L27.4591 12.3688Z" fill="currentColor"/>
<path d="M23.6738 31.9063L22.8183 23.1876V19.1563H26.3808V23.1876L25.5371 31.9063H23.6738ZM22.959 36.336V33.0431H26.2519V36.336H22.959Z" fill="currentColor"/>
</svg>
