<svg width="45" height="23" viewBox="0 0 45 23" fill="none" xmlns="http://www.w3.org/2000/svg">
<path d="M0.488 7.728H21.608V9.576H0.488V7.728ZM12.176 8.472C12.72 10.408 13.432 12.216 14.312 13.896C15.208 15.56 16.296 17.016 17.576 18.264C18.872 19.512 20.344 20.488 21.992 21.192C21.848 21.32 21.688 21.48 21.512 21.672C21.352 21.88 21.192 22.088 21.032 22.296C20.872 22.504 20.744 22.696 20.648 22.872C18.92 22.04 17.392 20.944 16.064 19.584C14.752 18.224 13.632 16.64 12.704 14.832C11.776 13.024 11.008 11.048 10.4 8.904L12.176 8.472ZM10.064 0.863999H12.008C12.008 1.904 11.976 3.064 11.912 4.344C11.864 5.608 11.744 6.928 11.552 8.304C11.36 9.664 11.04 11.04 10.592 12.432C10.16 13.808 9.552 15.144 8.768 16.44C8 17.72 7.016 18.912 5.816 20.016C4.616 21.12 3.144 22.072 1.4 22.872C1.256 22.632 1.048 22.368 0.776 22.08C0.52 21.808 0.272 21.576 0.032 21.384C1.728 20.648 3.152 19.768 4.304 18.744C5.472 17.72 6.424 16.6 7.16 15.384C7.896 14.168 8.464 12.912 8.864 11.616C9.264 10.32 9.544 9.032 9.704 7.752C9.864 6.456 9.96 5.224 9.992 4.056C10.04 2.888 10.064 1.824 10.064 0.863999ZM33.632 2.112C33.552 2.384 33.472 2.712 33.392 3.096C33.312 3.48 33.248 3.792 33.2 4.032C33.088 4.608 32.952 5.28 32.792 6.048C32.648 6.8 32.48 7.592 32.288 8.424C32.112 9.256 31.912 10.072 31.688 10.872C31.48 11.72 31.224 12.648 30.92 13.656C30.616 14.648 30.296 15.648 29.96 16.656C29.624 17.664 29.28 18.616 28.928 19.512C28.576 20.408 28.248 21.192 27.944 21.864L25.832 21.144C26.2 20.52 26.568 19.776 26.936 18.912C27.32 18.032 27.688 17.096 28.04 16.104C28.408 15.112 28.744 14.128 29.048 13.152C29.368 12.16 29.64 11.248 29.864 10.416C30.024 9.856 30.176 9.264 30.32 8.64C30.464 8.016 30.6 7.408 30.728 6.816C30.856 6.208 30.96 5.656 31.04 5.16C31.136 4.648 31.208 4.232 31.256 3.912C31.304 3.576 31.336 3.224 31.352 2.856C31.368 2.488 31.36 2.176 31.328 1.92L33.632 2.112ZM28.304 6.12C29.2 6.12 30.16 6.08 31.184 6C32.224 5.904 33.28 5.768 34.352 5.592C35.424 5.416 36.456 5.2 37.448 4.944V6.84C36.456 7.064 35.416 7.256 34.328 7.416C33.24 7.576 32.168 7.704 31.112 7.8C30.072 7.88 29.128 7.92 28.28 7.92C27.752 7.92 27.264 7.912 26.816 7.896C26.368 7.864 25.928 7.84 25.496 7.824L25.424 5.952C26 6.016 26.512 6.064 26.96 6.096C27.424 6.112 27.872 6.12 28.304 6.12ZM35.888 9.432C36.528 9.368 37.224 9.32 37.976 9.288C38.744 9.24 39.512 9.216 40.28 9.216C40.984 9.216 41.688 9.232 42.392 9.264C43.112 9.296 43.792 9.352 44.432 9.432L44.384 11.256C43.776 11.176 43.128 11.112 42.44 11.064C41.752 11 41.056 10.968 40.352 10.968C39.6 10.968 38.848 10.992 38.096 11.04C37.36 11.072 36.624 11.128 35.888 11.208V9.432ZM36.392 15.264C36.296 15.648 36.216 16.024 36.152 16.392C36.088 16.76 36.056 17.104 36.056 17.424C36.056 17.712 36.104 17.992 36.2 18.264C36.312 18.52 36.512 18.752 36.8 18.96C37.088 19.168 37.496 19.336 38.024 19.464C38.568 19.592 39.264 19.656 40.112 19.656C40.896 19.656 41.688 19.616 42.488 19.536C43.288 19.456 44.056 19.336 44.792 19.176L44.72 21.12C44.08 21.216 43.368 21.296 42.584 21.36C41.8 21.424 40.968 21.456 40.088 21.456C38.2 21.456 36.752 21.168 35.744 20.592C34.736 20 34.232 19.112 34.232 17.928C34.232 17.464 34.264 17 34.328 16.536C34.408 16.072 34.496 15.592 34.592 15.096L36.392 15.264Z" fill="white"/>
</svg>
