<svg width="24" height="24" viewBox="0 0 24 24" fill="none" xmlns="http://www.w3.org/2000/svg">
<g clip-path="url(#clip0_4388_63089)">
<path d="M12 24C5.37258 24 0 18.6274 0 12C0 5.37258 5.37258 0 12 0C18.6274 0 24 5.37258 24 12C24 18.6274 18.6274 24 12 24Z" fill="#F2F2F7"/>
<path d="M14.7163 16.1338C14.7163 16.1338 14.6639 15.9876 14.3547 15.9688L14.4469 16.6404L14.7161 16.1338H14.7163Z" fill="#FAFAFA"/>
<path d="M9.35968 16.0969C9.35968 16.0969 9.41214 15.9649 9.71716 15.9619L9.62908 16.6034L9.35988 16.0969H9.35968Z" fill="#FAFAFA"/>
<path d="M9.12929 19.1582C9.44738 20.6491 9.91492 22.2746 10.4496 23.9005C10.5432 23.9128 10.637 23.9237 10.7314 23.9336C10.8749 23.0426 11.0177 22.059 11.1665 21.4193L11.1631 21.4106C10.8995 20.9266 10.7461 20.3876 10.7166 19.8425L10.717 19.8211L10.7146 19.8191C10.6119 19.9429 10.5127 20.067 10.4199 20.1859C10.2944 20.3467 10.1804 20.4979 10.0848 20.6265C10.0612 20.5973 10.0159 20.5426 9.95649 20.468C9.74647 20.2041 9.3595 19.6895 9.13384 19.1572L9.12929 19.1582Z" fill="#FAFAFA"/>
<path d="M12.888 21.4098C12.8888 21.4138 12.8898 21.4176 12.8905 21.4215C12.8953 21.4417 12.8998 21.4621 12.9044 21.4829C12.9109 21.5118 12.9175 21.5417 12.9244 21.5725C12.9361 21.6252 12.9481 21.6806 12.9604 21.738C12.9668 21.7667 12.9729 21.796 12.9792 21.8259C12.9856 21.8556 12.9921 21.8859 12.9984 21.9166C13.0042 21.9433 13.0099 21.9704 13.0154 21.9979C13.0162 22.0021 13.0172 22.0062 13.018 22.0102C13.0247 22.0419 13.0313 22.0739 13.038 22.1064C13.0481 22.1551 13.0582 22.2048 13.0685 22.2552C13.0752 22.2887 13.0822 22.3225 13.0889 22.3568C13.0958 22.391 13.1027 22.4255 13.1097 22.4603C13.115 22.4874 13.1206 22.5147 13.1259 22.5423C13.1372 22.5995 13.1485 22.6573 13.1597 22.7155C13.1633 22.7335 13.1667 22.7515 13.1702 22.7695C13.1708 22.7727 13.1714 22.776 13.172 22.7792L13.191 22.8784C13.2049 22.9514 13.2187 23.0246 13.2324 23.0981C13.236 23.1165 13.2393 23.1349 13.2427 23.1533C13.2494 23.1901 13.2561 23.2271 13.2629 23.2638C13.2662 23.2822 13.2696 23.3004 13.273 23.3188C13.2769 23.341 13.2809 23.3631 13.2848 23.3849C13.2908 23.418 13.2967 23.451 13.3025 23.4839C13.3096 23.5248 13.3167 23.5656 13.3238 23.606C13.3296 23.6381 13.3349 23.6699 13.3405 23.7018C13.35 23.7572 13.3593 23.8123 13.3682 23.8667C13.3713 23.8851 13.3745 23.9035 13.3775 23.9217C13.4992 23.9079 13.6204 23.892 13.7409 23.8746C14.2506 22.3588 14.6556 20.6955 14.9446 19.1294L14.9208 19.125C14.6981 19.6495 14.3129 20.1782 14.0992 20.454C14.0352 20.5363 13.9867 20.5961 13.9624 20.6266C13.869 20.5009 13.7579 20.3536 13.636 20.1971C13.5463 20.082 13.4505 19.9621 13.3514 19.8421L13.346 19.8465L13.3361 19.9502C13.2934 20.4585 13.1431 20.9585 12.8971 21.4106C12.8939 21.4106 12.8911 21.41 12.888 21.4098Z" fill="#FAFAFA"/>
<path d="M14.4616 16.5004C14.0372 17.0995 13.5051 17.7334 12.0251 18.656L12.0324 18.6686C12.3865 18.7581 12.9042 19.3007 13.3513 19.8424C13.5855 20.1257 13.8002 20.4089 13.9624 20.6269C14.0685 20.4946 14.6316 19.8066 14.9208 19.1253L14.9445 19.1296C15.0635 18.4847 15.1627 17.8563 15.2415 17.2615L15.2389 17.2611L14.7163 16.1338C14.6312 16.2559 14.5485 16.3775 14.4616 16.5006V16.5004Z" fill="#FAFAFA"/>
<path d="M9.63237 16.4823L9.62366 16.4881C10.0275 17.0896 10.5152 17.7434 11.976 18.6543C11.9768 18.6547 11.9772 18.6553 11.978 18.6555H12.0615C13.5383 17.7351 14.0465 17.1019 14.4615 16.5039V16.4408C14.422 16.0756 14.382 15.6033 14.4138 15.3836L14.4196 15.2858C13.0079 16.3289 11.0649 16.3018 9.67869 15.21L9.68502 15.3836C9.71808 15.6116 9.67354 16.112 9.63257 16.4821L9.63237 16.4823Z" fill="#FFD2B4"/>
<mask id="mask0_4388_63089" style="mask-type:luminance" maskUnits="userSpaceOnUse" x="9" y="15" width="6" height="4">
<path d="M9.63237 16.4823L9.62366 16.4881C10.0275 17.0896 10.5152 17.7434 11.976 18.6543C11.9768 18.6547 11.9772 18.6553 11.978 18.6555H12.0615C13.5383 17.7351 14.0465 17.1019 14.4615 16.5039V16.4408C14.422 16.0756 14.382 15.6033 14.4138 15.3836L14.4196 15.2858C13.0079 16.3289 11.0649 16.3018 9.67869 15.21L9.68502 15.3836C9.71808 15.6116 9.67354 16.112 9.63257 16.4821L9.63237 16.4823Z" fill="white"/>
</mask>
<g mask="url(#mask0_4388_63089)">
<path d="M12.0791 16.7579C10.3275 16.7579 8.9075 15.2355 8.9075 13.3575C8.9075 11.4795 10.3275 9.95703 12.0791 9.95703C13.8308 9.95703 15.2507 11.4795 15.2507 13.3575C15.2507 15.2355 13.8308 16.7579 12.0791 16.7579Z" fill="#F0AA8C"/>
</g>
<path d="M11.1631 21.4102L11.1665 21.419C11.0177 22.0587 10.8749 23.0423 10.7314 23.9332C11.1483 23.9772 11.5715 23.9995 12 23.9995C12.4658 23.9995 12.9254 23.973 13.3773 23.9213C13.3744 23.9031 13.3714 23.8847 13.3682 23.8663C13.3593 23.8119 13.35 23.7568 13.3405 23.7014C13.335 23.6696 13.3294 23.6377 13.3239 23.6056C13.3167 23.5652 13.3096 23.5245 13.3025 23.4835C13.2966 23.4506 13.2906 23.4176 13.2849 23.3845C13.2809 23.3627 13.277 23.3406 13.273 23.3184C13.2696 23.3002 13.2663 23.2818 13.2629 23.2634C13.2562 23.2268 13.2494 23.1897 13.2427 23.1529C13.2392 23.1345 13.2358 23.1161 13.2324 23.0977C13.2188 23.0243 13.2049 22.951 13.1911 22.878C13.1847 22.8447 13.1784 22.8117 13.1721 22.7788C13.1715 22.7757 13.1709 22.7723 13.1703 22.7691C13.1667 22.7511 13.1631 22.7331 13.1598 22.7151C13.1485 22.6569 13.1372 22.5991 13.1259 22.5419C13.1204 22.5144 13.115 22.487 13.1097 22.4599C13.1028 22.4251 13.0958 22.3907 13.0889 22.3564C13.0822 22.3222 13.0753 22.2883 13.0685 22.2549C13.0582 22.2044 13.0481 22.1547 13.038 22.106C13.0313 22.0735 13.0246 22.0415 13.0181 22.0098C13.0173 22.0059 13.0163 22.0017 13.0155 21.9975C13.0097 21.9702 13.0042 21.9431 12.9985 21.9162C12.9921 21.8855 12.9856 21.8552 12.9793 21.8255C12.9729 21.7956 12.9666 21.7663 12.9605 21.7376C12.948 21.6802 12.9359 21.6248 12.9244 21.5722C12.9175 21.5413 12.911 21.5114 12.9044 21.4825C12.8997 21.4617 12.8951 21.4413 12.8906 21.4213L12.8971 21.4102C13.1432 20.9582 13.2934 20.4582 13.3361 19.9498L13.346 19.8461L13.3514 19.8418C12.9042 19.3002 12.3864 18.7574 12.0325 18.668H12.0145C11.6653 18.7563 11.1576 19.2848 10.7146 19.8188L10.717 19.8208L10.7166 19.8422C10.7461 20.3873 10.8995 20.9263 11.1631 21.4102Z" fill="#02A199"/>
<path d="M9.35967 16.0969C9.44617 16.2208 9.52891 16.3453 9.6158 16.472L9.61224 16.4589L9.6358 16.453L9.63203 16.4955C10.0441 17.0951 10.5582 17.7479 12.0147 18.6557H12.0251L12.0325 18.6683H12.0147C11.6655 18.7566 11.1576 19.2851 10.7148 19.819C10.4735 20.1099 10.2514 20.4025 10.0849 20.6264C9.97843 20.4936 9.4236 19.8398 9.13421 19.1571L9.12966 19.158C8.98813 18.4949 8.8761 17.8586 8.80088 17.2606L9.36006 16.0967L9.35967 16.0969Z" fill="#FAFAFA"/>
<path d="M3.13803 20.0909C4.35339 21.4215 5.86447 22.4773 7.56716 23.1544C7.67088 23.1958 7.7754 23.2356 7.8805 23.2742C8.69879 23.5733 9.55885 23.7857 10.4496 23.9005C9.91495 22.2746 9.44741 20.6491 9.12932 19.1582C8.98779 18.4951 8.87575 17.8587 8.80073 17.2607L7.68157 17.8276C6.60814 18.3631 4.97314 19.0798 4.42544 19.3342C3.84982 19.6016 3.43811 19.8257 3.13803 20.0909Z" fill="#02A199"/>
<path d="M16.6253 23.0766C18.2573 22.3943 19.7063 21.3619 20.8787 20.0733C20.5804 19.816 20.1746 19.596 19.6122 19.3348C19.0645 19.0804 17.4293 18.3453 16.3559 17.81L15.2415 17.2617C15.1627 17.8567 15.0635 18.485 14.9446 19.1299C14.6556 20.696 14.2506 22.3593 13.7409 23.8751C14.6314 23.7457 15.4901 23.5185 16.306 23.2047C16.4133 23.1635 16.5198 23.1208 16.6253 23.0766Z" fill="#02A199"/>
<path d="M16.2429 10.4098C16.2575 9.07154 15.771 6.9025 14.6526 6.20555C14.6526 6.20555 14.5519 6.12875 14.3682 6.02265C14.0032 5.81184 13.3104 5.48465 12.4276 5.4122C11.9895 5.37598 11.5046 5.4025 10.9899 5.5369L10.9783 5.52879C10.4515 6.26652 10.159 7.06461 9.43035 7.68991C9.19203 7.9318 8.84484 8.13785 8.47983 8.25147L8.48142 8.25622L8.47152 8.27364C8.09187 8.91735 8.04496 9.92032 8.00458 10.408C7.81673 9.94565 7.47014 9.77701 7.18055 9.86014C6.92679 9.93298 6.71677 10.201 6.6952 10.639C6.56059 11.6796 7.14967 12.8483 8.19064 13.1602L8.32405 13.2006C9.58494 17.0147 14.563 17.0367 15.8468 13.2315L15.986 13.1917C17.0594 12.8853 17.694 11.7158 17.5519 10.6388C17.5287 10.1668 17.2866 9.89221 17.007 9.84668C16.7308 9.80155 16.4181 9.9793 16.2431 10.4098H16.2429Z" fill="#FFD2B4"/>
<path d="M7.21233 5.53096C7.88355 4.32451 9.0427 3.40547 10.3527 2.8928C10.6696 2.76869 10.9962 2.66121 11.3337 2.60895C13.2042 2.31917 14.8208 3.19426 15.3978 4.21109C17.4342 5.32886 17.5702 7.25978 17.0166 9.77443L17.0067 9.84589C16.7307 9.80076 16.4178 9.97851 16.2428 10.4092C16.2575 9.07095 15.7711 6.90191 14.6526 6.20495C14.6526 6.20495 14.5518 6.12815 14.3681 6.02186C14.0031 5.81125 13.3103 5.48405 12.4273 5.41141C11.9894 5.37499 11.5045 5.40171 10.9896 5.53611L10.978 5.5278C10.4512 6.26552 10.1589 7.06362 9.43007 7.68892C9.19175 7.9308 8.84475 8.13686 8.47955 8.25048L8.48114 8.25523L8.47124 8.27285C8.09159 8.91636 8.04468 9.91952 8.0043 10.4072C7.99875 10.3936 7.99301 10.3803 7.98727 10.3673C7.98153 10.354 7.97559 10.3411 7.96946 10.3287C7.96352 10.316 7.95718 10.3037 7.95085 10.2917C7.94551 10.281 7.93977 10.2705 7.93403 10.2604C7.92927 10.2517 7.92433 10.2432 7.91938 10.2348C7.91502 10.2271 7.91027 10.2196 7.90572 10.2123C7.90097 10.2046 7.89602 10.197 7.89107 10.1895C7.88474 10.1798 7.87821 10.1701 7.87148 10.1608C7.8408 10.1175 7.80833 10.0785 7.77448 10.0444C7.76954 10.0391 7.76459 10.0341 7.75964 10.0296C7.75647 10.0264 7.75311 10.0232 7.74994 10.0203C7.74598 10.0165 7.74222 10.013 7.73826 10.0098C7.73391 10.0056 7.72935 10.0017 7.725 9.9981C7.72302 9.99612 7.72104 9.99434 7.71886 9.99276C7.71352 9.98821 7.70817 9.98365 7.70263 9.9795C7.6957 9.97376 7.68858 9.96822 7.68126 9.96307C7.67294 9.95673 7.66443 9.9508 7.65592 9.94506C7.64068 9.93496 7.62543 9.92546 7.60999 9.91675C7.59456 9.90804 7.57892 9.90012 7.56328 9.8928C7.54764 9.88548 7.53201 9.87914 7.51617 9.8734C7.50825 9.87043 7.50034 9.86766 7.49242 9.86529C7.48292 9.86212 7.47342 9.85955 7.46391 9.85697C7.46253 9.85658 7.46095 9.85618 7.45956 9.85598C7.45382 9.8544 7.44808 9.85301 7.44234 9.85183C7.43521 9.85024 7.42789 9.84866 7.42076 9.84747C7.3889 9.84173 7.35703 9.83896 7.32536 9.83896C7.27607 9.83896 7.22738 9.84589 7.18027 9.85935L7.17116 9.82788C6.81348 7.78215 6.54131 6.73722 7.21233 5.53096Z" fill="#4E4E4E"/>
<path d="M6.61128 20.834C6.84584 21.4789 7.10712 22.1139 7.38325 22.7421C7.44382 22.8799 7.50498 23.0173 7.56714 23.1544C7.67086 23.1958 7.77537 23.2356 7.88048 23.2742C7.5131 22.4803 7.17185 21.6736 6.87038 20.853C7.3015 20.5913 7.73935 20.3439 8.15364 20.0551C8.24291 19.9929 8.22094 19.8779 8.12533 19.8379C7.75736 19.6839 7.38265 19.5474 7.01112 19.4025C7.09663 19.1962 7.1857 18.9913 7.28269 18.79C7.34881 18.6529 7.14394 18.5325 7.07763 18.6703C6.95649 18.9217 6.84742 19.1788 6.74192 19.4371C6.71539 19.5016 6.77082 19.5618 6.82486 19.5832C7.16373 19.7174 7.50617 19.8425 7.84465 19.9781C7.45985 20.232 7.05922 20.4583 6.66591 20.6998C6.62355 20.7257 6.59326 20.7843 6.61128 20.834Z" fill="#3BB6B0"/>
<path d="M16.0018 20.0552C16.4161 20.344 16.854 20.5914 17.2849 20.8533C17.0665 21.4479 16.8256 22.034 16.5709 22.6141C16.4842 22.8115 16.3961 23.0082 16.306 23.2042C16.4133 23.163 16.5198 23.1203 16.6253 23.0761C16.9585 22.34 17.2682 21.5928 17.5442 20.8341C17.5622 20.7844 17.5315 20.7256 17.4897 20.6999C17.0964 20.4584 16.6958 20.2321 16.311 19.9782C16.6493 19.8426 16.9917 19.7175 17.3308 19.5833C17.3842 19.5621 17.4399 19.5009 17.4137 19.4372C17.306 19.1753 17.1863 18.9194 17.0517 18.6704C16.9789 18.5356 16.7738 18.6557 16.8466 18.7901C16.9545 18.9898 17.0541 19.1941 17.1437 19.4027C16.7722 19.5476 16.3979 19.6842 16.0301 19.838C15.9351 19.8778 15.9121 19.9926 16.0018 20.0552Z" fill="#3BB6B0"/>
<path d="M10.3951 20.2927C10.2778 20.4386 10.1624 20.5861 10.0487 20.7347C9.95709 20.8545 9.75064 20.7363 9.84367 20.6148C9.96976 20.4501 10.0972 20.2864 10.2273 20.1247C10.3231 20.0055 10.4903 20.1745 10.3953 20.2927H10.3951Z" fill="#DCE1E6"/>
<path d="M13.8317 20.1148C13.9646 20.2795 14.0946 20.4465 14.2233 20.6146C14.2625 20.6659 14.2308 20.747 14.1807 20.7771C14.1199 20.8135 14.057 20.7852 14.0182 20.7345C13.902 20.5825 13.784 20.4319 13.6639 20.2828C13.5689 20.1649 13.7359 19.9958 13.8319 20.1148H13.8317Z" fill="#DCE1E6"/>
<path d="M11.3062 5.11827C11.3879 5.02643 11.4922 4.93181 11.613 4.84313C12.303 4.337 13.534 4.02544 14.2141 5.56186C14.2141 5.56186 14.3115 5.77405 14.3685 6.02108L14.3677 6.02247C14.0027 5.81166 13.3099 5.48446 12.4271 5.41202C11.9891 5.37579 11.5041 5.40232 10.9895 5.53672L10.9778 5.52861C11.0774 5.38906 11.185 5.25188 11.306 5.11847L11.3062 5.11827Z" fill="#3F3F3F"/>
<path d="M13.5195 10.3917C13.6987 10.1461 13.9772 10.2051 14.1106 10.408C14.2612 10.6338 14.2416 11.0342 14.0908 11.2579C14.0393 11.3308 13.9667 11.3753 13.8824 11.3903C13.5504 11.4493 13.4133 11.1427 13.4146 10.8899C13.4154 10.7363 13.4259 10.5198 13.5193 10.3915L13.5195 10.3917Z" fill="#4E4E4E"/>
<path d="M10.1041 10.3917C10.2833 10.1461 10.5618 10.2051 10.6952 10.408C10.8458 10.6338 10.8262 11.0342 10.6754 11.2579C10.6239 11.3308 10.5513 11.3753 10.467 11.3903C10.135 11.4493 9.99785 11.1427 9.99923 10.8899C10 10.7363 10.0105 10.5198 10.1039 10.3915L10.1041 10.3917Z" fill="#4E4E4E"/>
<path d="M13.0441 13.7109C12.4317 14.0292 11.657 14.0155 11.0489 13.6951C10.846 13.5882 11.0257 13.2806 11.2286 13.3875C11.7197 13.6462 12.3686 13.6608 12.8642 13.4033C13.0675 13.2976 13.2478 13.605 13.0439 13.7109H13.0441Z" fill="#4E4E4E"/>
<path d="M9.00317 6.0324C8.91667 6.37484 8.76307 6.70738 8.57186 7.0037C8.38698 7.29012 8.154 7.56605 7.83314 7.70065C7.77356 7.72559 7.70309 7.67373 7.68706 7.61771C7.66746 7.54942 7.71121 7.49638 7.77 7.47163C8.04395 7.35663 8.24624 7.07892 8.39747 6.83525C8.56354 6.56744 8.69676 6.27528 8.77415 5.96926C8.81156 5.8212 9.04078 5.88395 9.00317 6.0324Z" fill="#3F3F3F"/>
</g>
<defs>
<clipPath id="clip0_4388_63089">
<rect width="24" height="24" fill="white" transform="matrix(-1 0 0 1 24 0)"/>
</clipPath>
</defs>
</svg>
