<svg width="48" height="58" viewBox="0 0 48 58" fill="none" xmlns="http://www.w3.org/2000/svg">
<path d="M31.2437 36.523C31.2437 36.523 31.1038 36.1329 30.2793 36.0828L30.5253 37.8737L31.2431 36.523H31.2437Z" fill="#FAFAFA"/>
<path d="M16.9588 36.4259C16.9588 36.4259 17.0987 36.0738 17.9121 36.0659L17.6772 37.7767L16.9594 36.4259H16.9588Z" fill="#FAFAFA"/>
<path d="M16.3443 44.5889C17.1925 48.5647 18.4393 52.8993 19.865 57.235C20.1147 57.2677 20.3649 57.2968 20.6167 57.3232C20.9993 54.9473 21.3799 52.3245 21.7769 50.6185L21.7679 50.5953C21.0648 49.3047 20.6557 47.8674 20.5771 46.4137L20.5781 46.3567L20.5718 46.3514C20.2978 46.6813 20.0334 47.0123 19.7858 47.3295C19.4512 47.7581 19.1471 48.1614 18.8922 48.5045C18.8294 48.4264 18.7085 48.2807 18.5501 48.0817C17.9901 47.3781 16.9582 46.0057 16.3564 44.5863L16.3443 44.5889Z" fill="#FAFAFA"/>
<path d="M26.3678 50.5931C26.3699 50.6037 26.3725 50.6137 26.3746 50.6243C26.3873 50.6781 26.3994 50.7325 26.4116 50.7879C26.429 50.865 26.4464 50.9447 26.4649 51.027C26.496 51.1674 26.5282 51.3152 26.5609 51.4683C26.5778 51.5448 26.5942 51.623 26.6111 51.7027C26.628 51.7819 26.6454 51.8626 26.6623 51.9444C26.6776 52.0157 26.6929 52.088 26.7077 52.1614C26.7098 52.1725 26.7124 52.1835 26.7145 52.1941C26.7325 52.2785 26.7499 52.3641 26.7679 52.4506C26.7948 52.5805 26.8217 52.713 26.8491 52.8476C26.8671 52.9368 26.8856 53.027 26.9035 53.1183C26.922 53.2097 26.9405 53.3015 26.9589 53.3944C26.9732 53.4667 26.988 53.5396 27.0022 53.6129C27.0323 53.7655 27.0624 53.9196 27.0925 54.0748C27.102 54.1228 27.111 54.1709 27.1205 54.2189C27.122 54.2273 27.1236 54.2363 27.1252 54.2448L27.1759 54.5092C27.2128 54.704 27.2498 54.8993 27.2862 55.0951C27.2957 55.1442 27.3047 55.1933 27.3136 55.2424C27.3316 55.3406 27.3495 55.4393 27.3675 55.5369C27.3765 55.586 27.3854 55.6346 27.3944 55.6837C27.405 55.7428 27.4155 55.8019 27.4261 55.86C27.4419 55.9481 27.4578 56.0363 27.4731 56.1239C27.4921 56.2332 27.5111 56.3419 27.5301 56.4496C27.5454 56.5351 27.5596 56.6201 27.5744 56.7051C27.5997 56.8528 27.6246 56.9996 27.6483 57.1447C27.6567 57.1938 27.6652 57.2429 27.6731 57.2915C27.9977 57.2545 28.3208 57.2123 28.6422 57.1659C30.0014 53.1236 31.0814 48.6882 31.8521 44.5119L31.7887 44.5002C31.1949 45.899 30.1677 47.3089 29.5976 48.0442C29.4271 48.2638 29.2978 48.4232 29.2329 48.5045C28.9837 48.1693 28.6876 47.7766 28.3625 47.359C28.1234 47.0524 27.8679 46.7325 27.6034 46.4126L27.5892 46.4242L27.5628 46.7008C27.4488 48.0563 27.0481 49.3897 26.392 50.5953C26.3836 50.5953 26.3762 50.5937 26.3678 50.5931Z" fill="#FAFAFA"/>
<path d="M30.5643 37.5011C29.4326 39.0989 28.0138 40.7891 24.0671 43.2493L24.0866 43.2831C25.031 43.5217 26.4113 44.9685 27.6037 46.4132C28.2281 47.1686 28.8008 47.9239 29.2331 48.5051C29.516 48.1525 31.0178 46.3177 31.7889 44.5009L31.8523 44.5125C32.1695 42.7928 32.434 41.1169 32.644 39.5307L32.6372 39.5296L31.2437 36.5236C31.0167 36.8492 30.7961 37.1733 30.5643 37.5017V37.5011Z" fill="#FAFAFA"/>
<path d="M17.6862 37.4535L17.6629 37.4688C18.7397 39.073 20.0403 40.8164 23.9358 43.2456C23.9379 43.2466 23.939 43.2482 23.9411 43.2487H24.1639C28.1021 40.7942 29.4571 39.1057 30.564 37.5111V37.3427C30.4584 36.3688 30.3518 35.1094 30.4368 34.5235L30.4521 34.2627C26.6875 37.0444 21.5062 36.9721 17.8097 34.0605L17.8266 34.5235C17.9147 35.1315 17.796 36.4659 17.6867 37.453L17.6862 37.4535Z" fill="#FFD2B4"/>
<mask id="mask0_30821_1774" style="mask-type:luminance" maskUnits="userSpaceOnUse" x="17" y="34" width="14" height="10">
<path d="M17.6862 37.4535L17.6629 37.4688C18.7397 39.073 20.0403 40.8164 23.9358 43.2456C23.9379 43.2466 23.939 43.2482 23.9411 43.2487H24.1639C28.1021 40.7942 29.4571 39.1057 30.564 37.5111V37.3427C30.4584 36.3688 30.3518 35.1094 30.4368 34.5235L30.4521 34.2627C26.6875 37.0444 21.5062 36.9721 17.8097 34.0605L17.8266 34.5235C17.9147 35.1315 17.796 36.4659 17.6867 37.453L17.6862 37.4535Z" fill="white"/>
</mask>
<g mask="url(#mask0_30821_1774)">
<path d="M24.2108 38.1883C19.5398 38.1883 15.7532 34.1285 15.7532 29.1204C15.7532 24.1124 19.5398 20.0526 24.2108 20.0526C28.8818 20.0526 32.6685 24.1124 32.6685 29.1204C32.6685 34.1285 28.8818 38.1883 24.2108 38.1883Z" fill="#F0AA8C"/>
</g>
<path d="M21.7679 50.5953L21.7769 50.6186C21.3799 52.3246 20.9994 54.9474 20.6167 57.3232C21.7283 57.4404 22.8568 57.5001 23.9996 57.5001C25.2416 57.5001 26.4673 57.4293 27.6724 57.2916C27.6644 57.243 27.6565 57.1939 27.6481 57.1448C27.6243 56.9997 27.5995 56.8529 27.5742 56.7051C27.5594 56.6201 27.5446 56.5352 27.5298 56.4497C27.5108 56.342 27.4918 56.2332 27.4728 56.124C27.457 56.0364 27.4412 55.9482 27.4259 55.8601C27.4153 55.802 27.4047 55.7429 27.3942 55.6837C27.3852 55.6352 27.3762 55.5861 27.3673 55.537C27.3493 55.4394 27.3314 55.3407 27.3134 55.2425C27.3039 55.1934 27.295 55.1443 27.286 55.0952C27.2496 54.8994 27.2126 54.7041 27.1757 54.5093C27.1588 54.4206 27.1419 54.3325 27.125 54.2449C27.1234 54.2364 27.1218 54.2274 27.1202 54.219C27.1107 54.1709 27.1012 54.1229 27.0923 54.0749C27.0622 53.9197 27.0321 53.7656 27.002 53.613C26.9872 53.5396 26.973 53.4668 26.9587 53.3945C26.9402 53.3016 26.9218 53.2097 26.9033 53.1184C26.8853 53.0271 26.8669 52.9369 26.8489 52.8476C26.8215 52.713 26.7946 52.5806 26.7676 52.4507C26.7497 52.3641 26.7317 52.2786 26.7143 52.1942C26.7122 52.1836 26.7096 52.1725 26.7075 52.1614C26.6922 52.0886 26.6774 52.0163 26.6621 51.9445C26.6452 51.8627 26.6278 51.7819 26.6109 51.7028C26.594 51.6231 26.5771 51.5449 26.5607 51.4684C26.5275 51.3153 26.4953 51.1675 26.4647 51.0271C26.4462 50.9448 26.4288 50.8651 26.4113 50.788C26.3987 50.7326 26.3865 50.6782 26.3744 50.6249L26.3918 50.5953C27.0479 49.3897 27.4486 48.0564 27.5626 46.7009L27.589 46.4243L27.6032 46.4127C26.4108 44.9685 25.03 43.5212 24.0862 43.2826H24.0382C23.107 43.518 21.7531 44.9274 20.5718 46.3515L20.5781 46.3568L20.5771 46.4138C20.6557 47.8674 21.0648 49.3048 21.7679 50.5953Z" fill="#0284C7"/>
<path d="M16.959 36.4258C17.1896 36.7563 17.4103 37.0883 17.642 37.4261L17.6325 37.3912L17.6953 37.3754L17.6853 37.4889C18.7842 39.0877 20.155 40.8286 24.0389 43.2493H24.0669L24.0864 43.283H24.0389C23.1078 43.5185 21.7534 44.9278 20.5726 46.3514C19.9291 47.1273 19.3369 47.9075 18.893 48.5045C18.609 48.1503 17.1294 46.4068 16.3577 44.5863L16.3456 44.5889C15.9682 42.8207 15.6694 41.1236 15.4688 39.529L16.96 36.4253L16.959 36.4258Z" fill="#FAFAFA"/>
<path d="M0.367744 47.0762C3.60871 50.6243 7.63826 53.4398 12.1788 55.2456C12.4554 55.3559 12.7341 55.462 13.0144 55.5649C15.1965 56.3625 17.4899 56.9289 19.8652 57.235C18.4395 52.8993 17.1928 48.5647 16.3445 44.589C15.9671 42.8207 15.6683 41.1237 15.4683 39.5291L12.4839 41.0408C9.62137 42.4686 5.26138 44.3799 3.80084 45.0582C2.26587 45.7713 1.16796 46.3689 0.367744 47.0762Z" fill="#0284C7"/>
<path d="M36.334 55.0366C40.686 53.2171 44.5499 50.4639 47.6763 47.0276C46.8808 46.3414 45.7987 45.755 44.2991 45.0583C42.8386 44.38 38.4781 42.4196 35.6156 40.9923L32.6438 39.5302C32.4337 41.1168 32.1693 42.7922 31.852 44.5119C31.0814 48.6882 30.0014 53.1237 28.6422 57.1659C31.017 56.8207 33.3068 56.2148 35.4826 55.3781C35.7686 55.2683 36.0526 55.1543 36.334 55.0366Z" fill="#0284C7"/>
<path d="M35.3141 21.2583C35.3531 17.6895 34.0557 11.9054 31.0734 10.0469C31.0734 10.0469 30.8047 9.84207 30.3149 9.55914C29.3415 8.99699 27.4941 8.12446 25.1399 7.93127C23.9718 7.83468 22.6785 7.90541 21.3062 8.26381L21.275 8.24217C19.8704 10.2094 19.0903 12.3377 17.1473 14.0052C16.5117 14.6502 15.5859 15.1997 14.6126 15.5027L14.6168 15.5153L14.5904 15.5618C13.578 17.2783 13.4529 19.9529 13.3452 21.2535C12.8443 20.0205 11.92 19.5708 11.1478 19.7924C10.4711 19.9867 9.91106 20.7014 9.85353 21.8695C9.49459 24.6444 11.0655 27.7608 13.8414 28.5927L14.1972 28.7003C17.5595 38.8714 30.8343 38.93 34.2579 28.7827L34.6289 28.6766C37.4914 27.8595 39.1837 24.741 38.8047 21.869C38.7429 20.6101 38.0974 19.878 37.3515 19.7566C36.6152 19.6362 35.7812 20.1102 35.3146 21.2583H35.3141Z" fill="#FFD2B4"/>
<path d="M11.233 8.24956C13.023 5.03235 16.114 2.58157 19.6073 1.21446C20.4524 0.883501 21.3233 0.596882 22.2233 0.457531C27.2114 -0.315232 31.5223 2.01837 33.061 4.7299C38.4914 7.71063 38.8541 12.8597 37.3777 19.5655L37.3513 19.756C36.6155 19.6357 35.7809 20.1097 35.3143 21.2583C35.3534 17.6895 34.0565 11.9054 31.0736 10.0469C31.0736 10.0469 30.805 9.84207 30.3151 9.55861C29.3418 8.99699 27.4943 8.12446 25.1396 7.93074C23.972 7.83362 22.6788 7.90488 21.3059 8.26328L21.2747 8.24111C19.8702 10.2084 19.0905 12.3367 17.147 14.0041C16.5115 14.6491 15.5862 15.1986 14.6123 15.5016L14.6165 15.5143L14.5901 15.5613C13.5777 17.2773 13.4526 19.9524 13.345 21.253C13.3302 21.2166 13.3149 21.1812 13.2996 21.1464C13.2842 21.111 13.2684 21.0767 13.2521 21.0434C13.2362 21.0097 13.2193 20.9769 13.2024 20.9447C13.1882 20.9162 13.1729 20.8883 13.1576 20.8613C13.1449 20.8381 13.1317 20.8154 13.1185 20.7932C13.1069 20.7727 13.0942 20.7526 13.0821 20.7331C13.0694 20.7125 13.0562 20.6924 13.043 20.6724C13.0261 20.6465 13.0087 20.6206 12.9908 20.5958C12.909 20.4802 12.8224 20.3762 12.7321 20.2855C12.7189 20.2712 12.7057 20.258 12.6925 20.2459C12.6841 20.2374 12.6751 20.229 12.6667 20.2211C12.6561 20.211 12.6461 20.2015 12.6355 20.1931C12.6239 20.182 12.6118 20.1714 12.6002 20.1619C12.5949 20.1567 12.5896 20.1519 12.5838 20.1477C12.5695 20.1355 12.5553 20.1234 12.5405 20.1123C12.522 20.097 12.503 20.0822 12.4835 20.0685C12.4613 20.0516 12.4386 20.0358 12.4159 20.0205C12.3753 19.9936 12.3347 19.9682 12.2935 19.945C12.2523 19.9218 12.2106 19.9007 12.1689 19.8811C12.1272 19.8616 12.0855 19.8447 12.0433 19.8294C12.0222 19.8215 12.0011 19.8141 11.9799 19.8078C11.9546 19.7993 11.9293 19.7924 11.9039 19.7856C11.9002 19.7845 11.896 19.7835 11.8923 19.7829C11.877 19.7787 11.8617 19.775 11.8464 19.7719C11.8274 19.7676 11.8079 19.7634 11.7889 19.7603C11.7039 19.7449 11.6189 19.7376 11.5344 19.7376C11.403 19.7376 11.2732 19.756 11.1475 19.7919L11.1233 19.708C10.1694 14.2527 9.44366 11.4662 11.233 8.24956Z" fill="#4E4E4E"/>
<path d="M9.62959 49.0578C10.2551 50.7775 10.9518 52.4708 11.6882 54.1462C11.8497 54.5135 12.0128 54.8799 12.1785 55.2457C12.4551 55.356 12.7338 55.4621 13.0141 55.565C12.0344 53.4478 11.1244 51.2969 10.3205 49.1084C11.4702 48.4106 12.6378 47.7508 13.7425 46.9807C13.9806 46.8149 13.922 46.5083 13.6671 46.4016C12.6858 45.991 11.6866 45.6268 10.6958 45.2404C10.9239 44.6904 11.1614 44.1441 11.42 43.6072C11.5963 43.2414 11.05 42.9205 10.8732 43.2879C10.5501 43.9583 10.2593 44.6439 9.97796 45.3328C9.90723 45.5048 10.055 45.6653 10.1991 45.7223C11.1028 46.0802 12.016 46.4138 12.9186 46.7754C11.8925 47.4526 10.8241 48.0559 9.77527 48.6999C9.66231 48.769 9.58155 48.9253 9.62959 49.0578Z" fill="#0054F0"/>
<path d="M34.6713 46.9806C35.7761 47.7507 36.9437 48.4105 38.0928 49.1088C37.5106 50.6945 36.8682 52.2574 36.1889 53.8045C35.9577 54.3308 35.7228 54.8555 35.4826 55.3781C35.7687 55.2683 36.0527 55.1542 36.334 55.0365C37.2224 53.0735 38.0485 51.0809 38.7843 49.0577C38.8323 48.9252 38.7505 48.7684 38.6391 48.6998C37.5903 48.0558 36.522 47.4525 35.4958 46.7753C36.3979 46.4137 37.3111 46.0801 38.2153 45.7222C38.3578 45.6657 38.5061 45.5026 38.4365 45.3327C38.1493 44.6343 37.83 43.9518 37.471 43.2878C37.2768 42.9283 36.7299 43.2487 36.9242 43.6071C37.2119 44.1397 37.4774 44.6845 37.7165 45.2408C36.7257 45.6272 35.7276 45.9914 34.7468 46.4015C34.4935 46.5076 34.4322 46.8138 34.6713 46.9806Z" fill="#0054F0"/>
<path d="M19.72 47.614C19.407 48.003 19.0993 48.3963 18.7963 48.7927C18.5519 49.112 18.0014 48.7969 18.2495 48.4728C18.5857 48.0336 18.9256 47.5971 19.2724 47.1659C19.5279 46.8481 19.9739 47.2989 19.7206 47.614H19.72Z" fill="#DCE1E6"/>
<path d="M28.8846 47.1405C29.2388 47.5797 29.5856 48.0252 29.9287 48.4733C30.0332 48.6101 29.9488 48.8265 29.8152 48.9067C29.6532 49.0038 29.4853 48.9284 29.3819 48.7932C29.072 48.3878 28.7574 47.9861 28.437 47.5887C28.1836 47.2741 28.6291 46.8233 28.8852 47.1405H28.8846Z" fill="#DCE1E6"/>
<path d="M22.1497 7.14791C22.3677 6.903 22.6458 6.65069 22.9678 6.41421C24.8079 5.06452 28.0905 4.23369 29.9042 8.33081C29.9042 8.33081 30.1639 8.89666 30.3159 9.55541L30.3138 9.5591C29.3405 8.99695 27.493 8.12443 25.1388 7.93123C23.9707 7.83464 22.6775 7.90537 21.3051 8.26378L21.274 8.24214C21.5395 7.87001 21.8266 7.50421 22.1491 7.14844L22.1497 7.14791Z" fill="#3F3F3F"/>
<path d="M28.0523 21.2108C28.53 20.5557 29.2727 20.713 29.6284 21.2541C30.0301 21.8563 29.9779 22.9242 29.5756 23.5206C29.4384 23.7149 29.2447 23.8336 29.0198 23.8737C28.1346 24.031 27.7688 23.2134 27.7725 22.5394C27.7746 22.1298 27.8026 21.5523 28.0518 21.2102L28.0523 21.2108Z" fill="#4E4E4E"/>
<path d="M18.9444 21.2108C19.4221 20.5557 20.1648 20.713 20.5205 21.2541C20.9222 21.8563 20.87 22.9242 20.4677 23.5206C20.3305 23.7149 20.1368 23.8336 19.9119 23.8737C19.0267 24.031 18.6609 23.2134 18.6646 22.5394C18.6667 22.1298 18.6947 21.5523 18.9438 21.2102L18.9444 21.2108Z" fill="#4E4E4E"/>
<path d="M26.784 30.0617C25.1509 30.9104 23.0849 30.874 21.4634 30.0194C20.9223 29.7344 21.4016 28.9141 21.9427 29.1992C23.2522 29.8891 24.9825 29.9281 26.3042 29.2414C26.8463 28.9595 27.3272 29.7793 26.7835 30.0617H26.784Z" fill="#4E4E4E"/>
<path d="M16.0085 9.58718C15.7778 10.5003 15.3682 11.3871 14.8583 12.1773C14.3653 12.9411 13.744 13.6769 12.8884 14.0358C12.7295 14.1024 12.5416 13.9641 12.4988 13.8147C12.4466 13.6326 12.5632 13.4911 12.72 13.4251C13.4505 13.1185 13.99 12.3779 14.3933 11.7281C14.8361 11.0139 15.1914 10.2348 15.3977 9.41879C15.4975 9.02397 16.1087 9.19129 16.0085 9.58718Z" fill="#3F3F3F"/>
</svg>
