<svg width="32" height="32" viewBox="0 0 32 32" fill="none" xmlns="http://www.w3.org/2000/svg">
<g clip-path="url(#clip0_11003_12947)">
<rect width="32" height="32" rx="16" transform="matrix(-1 0 0 1 32 0)" fill="#BAE6FD"/>
<path d="M19.6218 21.5114C19.6218 21.5114 19.5519 21.3163 19.1396 21.2913L19.2626 22.1867L19.6216 21.5114H19.6218Z" fill="#FAFAFA"/>
<path d="M12.4795 21.463C12.4795 21.463 12.5495 21.2869 12.9562 21.283L12.8387 22.1383L12.4798 21.463H12.4795Z" fill="#FAFAFA"/>
<path d="M12.1724 25.5445C12.5965 27.5324 13.2199 29.6997 13.9327 31.8676C14.0576 31.8839 14.1827 31.8985 14.3086 31.9116C14.4999 30.7237 14.6902 29.4123 14.8887 28.5593L14.8842 28.5477C14.5326 27.9024 14.3281 27.1838 14.2888 26.4569L14.2893 26.4284L14.2861 26.4258C14.1492 26.5907 14.0169 26.7562 13.8932 26.9148C13.7258 27.1291 13.5738 27.3308 13.4463 27.5023C13.4149 27.4632 13.3545 27.3904 13.2753 27.2909C12.9953 26.9391 12.4793 26.2529 12.1785 25.5432L12.1724 25.5445Z" fill="#FAFAFA"/>
<path d="M17.184 28.5467C17.1851 28.552 17.1864 28.557 17.1874 28.5623C17.1938 28.5892 17.1998 28.6164 17.2059 28.6441C17.2146 28.6826 17.2233 28.7225 17.2326 28.7636C17.2481 28.8338 17.2642 28.9077 17.2806 28.9843C17.289 29.0225 17.2972 29.0616 17.3057 29.1015C17.3141 29.141 17.3228 29.1814 17.3313 29.2223C17.3389 29.258 17.3466 29.2941 17.354 29.3308C17.355 29.3363 17.3563 29.3419 17.3574 29.3472C17.3664 29.3894 17.3751 29.4322 17.3841 29.4754C17.3975 29.5404 17.411 29.6066 17.4247 29.6739C17.4337 29.7185 17.4429 29.7636 17.4519 29.8093C17.4611 29.855 17.4704 29.9009 17.4796 29.9473C17.4867 29.9835 17.4941 30.0199 17.5012 30.0566C17.5163 30.1329 17.5313 30.2099 17.5464 30.2875C17.5511 30.3115 17.5556 30.3356 17.5604 30.3596C17.5611 30.3638 17.5619 30.3683 17.5627 30.3725L17.5881 30.5047C17.6065 30.6021 17.625 30.6998 17.6432 30.7977C17.648 30.8222 17.6525 30.8468 17.6569 30.8713C17.6659 30.9204 17.6749 30.9698 17.6839 31.0186C17.6884 31.0431 17.6928 31.0674 17.6973 31.092C17.7026 31.1215 17.7079 31.1511 17.7132 31.1801C17.7211 31.2242 17.729 31.2683 17.7367 31.3121C17.7462 31.3667 17.7557 31.4211 17.7652 31.4749C17.7728 31.5177 17.7799 31.5602 17.7873 31.6026C17.8 31.6765 17.8124 31.7499 17.8243 31.8225C17.8285 31.847 17.8327 31.8716 17.8367 31.8959C17.999 31.8774 18.1605 31.8563 18.3212 31.833C19.0008 29.8119 19.5408 27.5942 19.9261 25.506L19.8945 25.5002C19.5976 26.1996 19.084 26.9046 18.7989 27.2722C18.7137 27.382 18.649 27.4617 18.6166 27.5024C18.492 27.3348 18.3439 27.1384 18.1814 26.9296C18.0618 26.7763 17.9341 26.6164 17.8018 26.4564L17.7947 26.4622L17.7815 26.6005C17.7245 27.2783 17.5242 27.945 17.1961 28.5478C17.1919 28.5478 17.1882 28.547 17.184 28.5467Z" fill="#FAFAFA"/>
<path d="M19.2822 22.0005C18.7163 22.7994 18.0069 23.6445 16.0336 24.8746L16.0433 24.8915C16.5155 25.0108 17.2056 25.7342 17.8018 26.4566C18.1141 26.8342 18.4004 27.2119 18.6166 27.5025C18.758 27.3262 19.5089 26.4088 19.8945 25.5004L19.9261 25.5062C20.0848 24.6463 20.217 23.8084 20.322 23.0153L20.3186 23.0148L19.6218 21.5117C19.5084 21.6746 19.398 21.8366 19.2822 22.0008V22.0005Z" fill="#FAFAFA"/>
<path d="M12.8433 21.9768L12.8317 21.9844C13.3701 22.7865 14.0204 23.6582 15.9682 24.8728C15.9692 24.8733 15.9697 24.8741 15.9708 24.8744H16.0822C18.0513 23.6471 18.7288 22.8028 19.2822 22.0055V21.9213C19.2294 21.4344 19.1761 20.8047 19.2186 20.5117L19.2263 20.3814C17.344 21.7722 14.7533 21.7361 12.9051 20.2803L12.9135 20.5117C12.9576 20.8158 12.8982 21.483 12.8436 21.9765L12.8433 21.9768Z" fill="#FFD2B4"/>
<mask id="mask0_11003_12947" style="mask-type:luminance" maskUnits="userSpaceOnUse" x="12" y="20" width="8" height="5">
<path d="M12.8433 21.9768L12.8317 21.9844C13.3701 22.7865 14.0204 23.6582 15.9682 24.8728C15.9692 24.8733 15.9697 24.8741 15.9708 24.8744H16.0822C18.0513 23.6471 18.7288 22.8028 19.2822 22.0055V21.9213C19.2294 21.4344 19.1761 20.8047 19.2186 20.5117L19.2263 20.3814C17.344 21.7722 14.7533 21.7361 12.9051 20.2803L12.9135 20.5117C12.9576 20.8158 12.8982 21.483 12.8436 21.9765L12.8433 21.9768Z" fill="white"/>
</mask>
<g mask="url(#mask0_11003_12947)">
<path d="M16.1057 22.3442C13.7701 22.3442 11.8768 20.3143 11.8768 17.8103C11.8768 15.3063 13.7701 13.2764 16.1057 13.2764C18.4412 13.2764 20.3345 15.3063 20.3345 17.8103C20.3345 20.3143 18.4412 22.3442 16.1057 22.3442Z" fill="#F0AA8C"/>
</g>
<path d="M14.8842 28.5477L14.8887 28.5593C14.6902 29.4123 14.4999 30.7238 14.3086 31.9117C14.8644 31.9703 15.4287 32.0001 16.0001 32.0001C16.6211 32.0001 17.2339 31.9647 17.8364 31.8958C17.8325 31.8716 17.8285 31.847 17.8243 31.8225C17.8124 31.7499 17.8 31.6765 17.7873 31.6026C17.7799 31.5601 17.7726 31.5176 17.7652 31.4749C17.7557 31.421 17.7462 31.3667 17.7367 31.3121C17.7287 31.2682 17.7208 31.2242 17.7132 31.1801C17.7079 31.1511 17.7026 31.1215 17.6973 31.0919C17.6929 31.0677 17.6884 31.0431 17.6839 31.0186C17.6749 30.9697 17.6659 30.9204 17.657 30.8713C17.6522 30.8468 17.6477 30.8222 17.6432 30.7977C17.625 30.6998 17.6065 30.6021 17.5881 30.5047C17.5796 30.4604 17.5712 30.4163 17.5627 30.3725C17.5619 30.3683 17.5612 30.3638 17.5604 30.3596C17.5556 30.3355 17.5509 30.3115 17.5464 30.2875C17.5313 30.2099 17.5163 30.1328 17.5012 30.0566C17.4939 30.0199 17.4867 29.9835 17.4796 29.9473C17.4704 29.9009 17.4611 29.8549 17.4519 29.8093C17.4429 29.7636 17.4337 29.7185 17.4247 29.6739C17.411 29.6066 17.3975 29.5403 17.3841 29.4754C17.3751 29.4321 17.3661 29.3894 17.3574 29.3471C17.3564 29.3419 17.355 29.3363 17.354 29.3308C17.3463 29.2944 17.3389 29.2582 17.3313 29.2223C17.3228 29.1814 17.3141 29.141 17.3057 29.1014C17.2972 29.0616 17.2888 29.0225 17.2806 28.9843C17.264 28.9077 17.2479 28.8338 17.2326 28.7636C17.2233 28.7224 17.2146 28.6826 17.2059 28.6441C17.1996 28.6163 17.1935 28.5892 17.1874 28.5625L17.1962 28.5477C17.5242 27.9449 17.7245 27.2783 17.7815 26.6005L17.7947 26.4622L17.8019 26.4564C17.2057 25.7343 16.5152 25.0107 16.0433 24.8914H16.0193C15.5538 25.0091 14.8768 25.7137 14.2861 26.4258L14.2893 26.4284L14.2888 26.4569C14.3281 27.1838 14.5327 27.9024 14.8842 28.5477Z" fill="#0284C7"/>
<path d="M12.4796 21.4629C12.5949 21.6281 12.7053 21.7941 12.8211 21.963L12.8164 21.9456L12.8478 21.9377L12.8428 21.9944C13.3922 22.7939 14.0776 23.6643 16.0196 24.8746H16.0336L16.0433 24.8915H16.0196C15.554 25.0092 14.8768 25.7139 14.2864 26.4257C13.9647 26.8137 13.6686 27.2037 13.4466 27.5022C13.3046 27.3251 12.5648 26.4534 12.179 25.5431L12.1729 25.5445C11.9842 24.6603 11.8348 23.8118 11.7345 23.0145L12.4801 21.4626L12.4796 21.4629Z" fill="#FAFAFA"/>
<path d="M4.18399 26.7882C5.80447 28.5623 7.81925 29.97 10.0895 30.8729C10.2278 30.9281 10.3672 30.9811 10.5073 31.0326C11.5984 31.4314 12.7451 31.7146 13.9327 31.8676C13.2199 29.6998 12.5965 27.5325 12.1724 25.5446C11.9837 24.6605 11.8343 23.812 11.7343 23.0146L10.2421 23.7705C8.81081 24.4844 6.63081 25.4401 5.90054 25.7792C5.13306 26.1358 4.5841 26.4345 4.18399 26.7882Z" fill="#0284C7"/>
<path d="M22.1671 30.7684C24.3431 29.8586 26.275 28.482 27.8383 26.7639C27.4405 26.4208 26.8995 26.1276 26.1497 25.7792C25.4194 25.4401 23.2392 24.4598 21.8079 23.7462L20.322 23.0151C20.217 23.8085 20.0848 24.6462 19.9261 25.506C19.5408 27.5942 19.0008 29.8119 18.3212 31.833C19.5086 31.6604 20.6535 31.3574 21.7414 30.9391C21.8844 30.8842 22.0264 30.8272 22.1671 30.7684Z" fill="#0284C7"/>
<path d="M21.6572 13.8792C21.6767 12.0948 21.028 9.20276 19.5368 8.2735C19.5368 8.2735 19.4025 8.17109 19.1576 8.02963C18.6709 7.74855 17.7472 7.31229 16.5701 7.2157C15.986 7.1674 15.3394 7.20276 14.6532 7.38197L14.6376 7.37115C13.9353 8.35478 13.5453 9.41892 12.5738 10.2526C12.256 10.5752 11.7931 10.8499 11.3064 11.0014L11.3085 11.0077L11.2953 11.031C10.7891 11.8892 10.7266 13.2265 10.6727 13.8768C10.4223 13.2603 9.96014 13.0354 9.57402 13.1463C9.23567 13.2434 8.95565 13.6008 8.92689 14.1848C8.74742 15.5723 9.53285 17.1305 10.9208 17.5464L11.0987 17.6002C12.7799 22.6857 19.4173 22.715 21.129 17.6414L21.3146 17.5884C22.7458 17.1798 23.592 15.6206 23.4025 14.1846C23.3716 13.5551 23.0488 13.189 22.6759 13.1283C22.3077 13.0682 21.8907 13.3052 21.6574 13.8792H21.6572Z" fill="#FFD2B4"/>
<path d="M9.61653 7.37478C10.5115 5.76618 12.057 4.54079 13.8036 3.85723C14.2262 3.69175 14.6617 3.54844 15.1116 3.47877C17.6057 3.09238 19.7612 4.25918 20.5305 5.61495C23.2457 7.10532 23.427 9.67987 22.6888 13.0327L22.6756 13.128C22.3077 13.0678 21.8905 13.3048 21.6572 13.8791C21.6767 12.0948 21.0282 9.2027 19.5368 8.27343C19.5368 8.27343 19.4025 8.17103 19.1576 8.02931C18.6709 7.74849 17.7472 7.31223 16.5698 7.21537C15.986 7.16681 15.3394 7.20244 14.6529 7.38164L14.6374 7.37056C13.9351 8.35419 13.5453 9.41833 12.5735 10.2521C12.2557 10.5746 11.7931 10.8493 11.3062 11.0008L11.3083 11.0071L11.2951 11.0306C10.7889 11.8886 10.7263 13.2262 10.6725 13.8765C10.6651 13.8583 10.6574 13.8406 10.6498 13.8232C10.6421 13.8055 10.6342 13.7883 10.626 13.7717C10.6181 13.7548 10.6097 13.7385 10.6012 13.7224C10.5941 13.7081 10.5864 13.6941 10.5788 13.6807C10.5724 13.6691 10.5659 13.6577 10.5593 13.6466C10.5534 13.6363 10.5471 13.6263 10.541 13.6165C10.5347 13.6062 10.5281 13.5962 10.5215 13.5862C10.5131 13.5733 10.5044 13.5603 10.4954 13.5479C10.4545 13.4901 10.4112 13.4381 10.3661 13.3927C10.3595 13.3856 10.3529 13.379 10.3463 13.3729C10.342 13.3687 10.3376 13.3645 10.3333 13.3605C10.3281 13.3555 10.323 13.3508 10.3178 13.3465C10.312 13.341 10.3059 13.3357 10.3001 13.331C10.2974 13.3283 10.2948 13.326 10.2919 13.3238C10.2848 13.3178 10.2776 13.3117 10.2703 13.3062C10.261 13.2985 10.2515 13.2911 10.2418 13.2843C10.2307 13.2758 10.2193 13.2679 10.208 13.2602C10.1877 13.2468 10.1673 13.2341 10.1467 13.2225C10.1262 13.2109 10.1053 13.2003 10.0845 13.1906C10.0636 13.1808 10.0428 13.1724 10.0216 13.1647C10.0111 13.1607 10.0005 13.157 9.98997 13.1539C9.97731 13.1497 9.96464 13.1462 9.95197 13.1428C9.95012 13.1423 9.94801 13.1417 9.94616 13.1415C9.93851 13.1394 9.93086 13.1375 9.9232 13.1359C9.9137 13.1338 9.90394 13.1317 9.89443 13.1301C9.85194 13.1225 9.80945 13.1188 9.76722 13.1188C9.70151 13.1188 9.63658 13.128 9.57377 13.146L9.56163 13.104C9.08472 10.3764 8.72183 8.98312 9.61653 7.37478Z" fill="#4E4E4E"/>
<path d="M8.81504 27.7789C9.12778 28.6387 9.47616 29.4854 9.84433 30.3231C9.92509 30.5068 10.0066 30.6899 10.0895 30.8728C10.2278 30.928 10.3672 30.981 10.5073 31.0325C10.0175 29.9739 9.56246 28.8984 9.16051 27.8042C9.73533 27.4553 10.3191 27.1254 10.8715 26.7403C10.9905 26.6575 10.9612 26.5041 10.8338 26.4508C10.3431 26.2455 9.84354 26.0634 9.34816 25.8702C9.46217 25.5952 9.58094 25.322 9.71026 25.0536C9.79841 24.8707 9.52525 24.7103 9.43684 24.8939C9.27532 25.2291 9.12989 25.572 8.98922 25.9164C8.95386 26.0024 9.02776 26.0826 9.09981 26.1112C9.55164 26.2901 10.0082 26.4569 10.4595 26.6377C9.94647 26.9763 9.41229 27.278 8.88788 27.5999C8.8314 27.6345 8.79102 27.7126 8.81504 27.7789Z" fill="#0054F0"/>
<path d="M21.3358 26.7403C21.8882 27.1254 22.472 27.4553 23.0465 27.8044C22.7554 28.5972 22.4342 29.3787 22.0946 30.1523C21.979 30.4154 21.8615 30.6777 21.7414 30.939C21.8845 30.8841 22.0265 30.8271 22.1671 30.7683C22.6113 29.7867 23.0244 28.7904 23.3923 27.7788C23.4163 27.7126 23.3754 27.6342 23.3197 27.5999C22.7953 27.2779 22.2611 26.9762 21.748 26.6376C22.1991 26.4568 22.6557 26.29 23.1078 26.1111C23.179 26.0829 23.2532 26.0013 23.2183 25.9163C23.0748 25.5672 22.9151 25.2259 22.7356 24.8939C22.6385 24.7142 22.3651 24.8744 22.4622 25.0536C22.606 25.3199 22.7388 25.5922 22.8584 25.8704C22.363 26.0636 21.8639 26.2457 21.3735 26.4508C21.2469 26.5038 21.2162 26.6569 21.3358 26.7403Z" fill="#0054F0"/>
<path d="M13.8601 27.0571C13.7036 27.2516 13.5498 27.4483 13.3983 27.6465C13.2761 27.8061 13.0008 27.6486 13.1249 27.4865C13.293 27.2669 13.4629 27.0487 13.6363 26.8331C13.7641 26.6742 13.9871 26.8996 13.8604 27.0571H13.8601Z" fill="#DCE1E6"/>
<path d="M18.4424 26.8202C18.6195 27.0398 18.7929 27.2625 18.9645 27.4866C19.0167 27.555 18.9745 27.6632 18.9077 27.7033C18.8267 27.7519 18.7428 27.7141 18.691 27.6466C18.5361 27.4439 18.3788 27.243 18.2186 27.0443C18.0919 26.887 18.3147 26.6616 18.4427 26.8202H18.4424Z" fill="#DCE1E6"/>
<path d="M15.0749 6.82396C15.1839 6.7015 15.323 6.57534 15.484 6.45711C16.4041 5.78226 18.0454 5.36684 18.9522 7.41541C18.9522 7.41541 19.0821 7.69833 19.1581 8.02771L19.157 8.02955C18.6704 7.74848 17.7466 7.31221 16.5695 7.21562C15.9855 7.16732 15.3389 7.20269 14.6527 7.38189L14.6371 7.37107C14.7699 7.185 14.9134 7.0021 15.0747 6.82422L15.0749 6.82396Z" fill="#3F3F3F"/>
<path d="M18.0261 13.8554C18.265 13.5279 18.6363 13.6065 18.8142 13.877C19.0151 14.1782 18.9889 14.7121 18.7878 15.0103C18.7192 15.1074 18.6223 15.1668 18.5099 15.1869C18.0673 15.2655 17.8844 14.8567 17.8863 14.5197C17.8873 14.3149 17.9013 14.0261 18.0259 13.8551L18.0261 13.8554Z" fill="#4E4E4E"/>
<path d="M13.4722 13.8554C13.711 13.5279 14.0824 13.6065 14.2603 13.877C14.4611 14.1782 14.435 14.7121 14.2339 15.0103C14.1652 15.1074 14.0684 15.1668 13.956 15.1869C13.5134 15.2655 13.3305 14.8567 13.3323 14.5197C13.3334 14.3149 13.3474 14.0261 13.4719 13.8551L13.4722 13.8554Z" fill="#4E4E4E"/>
<path d="M17.3923 18.2807C16.5757 18.7051 15.5427 18.6869 14.7319 18.2596C14.4614 18.1171 14.7011 17.7069 14.9716 17.8495C15.6264 18.1944 16.4915 18.2139 17.1524 17.8706C17.4234 17.7296 17.6638 18.1395 17.392 18.2807H17.3923Z" fill="#4E4E4E"/>
<path d="M12.0042 8.04353C11.8889 8.50011 11.6841 8.9435 11.4291 9.33859C11.1826 9.72049 10.872 10.0884 10.4442 10.2679C10.3647 10.3011 10.2708 10.232 10.2494 10.1573C10.2233 10.0662 10.2816 9.99549 10.36 9.9625C10.7253 9.80917 10.995 9.43888 11.1966 9.11399C11.4181 8.75691 11.5957 8.36736 11.6989 7.95934C11.7488 7.76192 12.0544 7.84559 12.0042 8.04353Z" fill="#3F3F3F"/>
</g>
<defs>
<clipPath id="clip0_11003_12947">
<rect width="32" height="32" rx="16" transform="matrix(-1 0 0 1 32 0)" fill="white"/>
</clipPath>
</defs>
</svg>
