<svg width="44" height="55" viewBox="0 0 44 55" fill="none" xmlns="http://www.w3.org/2000/svg">
<path d="M29.9745 42.1395C29.3923 46.0144 28.9014 49.9273 28.4522 53.8492C26.3677 54.2762 24.2099 54.5 21.9998 54.5C19.7897 54.5 17.5596 54.2683 15.4435 53.8276C15.0038 49.987 14.5234 46.1548 13.9565 42.3591H13.9571L14.4569 42.4531C19.3654 43.4787 24.5461 43.3958 29.3854 42.2773L29.974 42.1395H29.9745Z" fill="#FAFAFA"/>
<path d="M28.4573 37.5499C28.4573 37.5499 26.7017 36.2905 27.096 33.4143L27.1472 33.1593C23.9057 35.2385 19.8709 35.2464 16.6114 33.2485L16.7492 33.6713C17.1884 36.4578 15.4597 37.5499 15.4597 37.5499C15.1799 37.7832 14.3924 38.1612 13.3525 38.6045L13.371 38.6468C13.5769 39.8798 13.7711 41.1181 13.9569 42.3596L14.4568 42.4536C19.3652 43.4792 24.546 43.3963 29.3853 42.2773L29.9738 42.1395C30.1491 40.9714 30.3327 39.807 30.5265 38.6468L30.5481 38.5971C29.5156 38.1569 28.735 37.7822 28.4568 37.5499H28.4573Z" fill="#FFD2B4"/>
<mask id="mask0_30821_2224" style="mask-type:luminance" maskUnits="userSpaceOnUse" x="13" y="33" width="18" height="11">
<path d="M28.4573 37.5499C28.4573 37.5499 26.7017 36.2905 27.096 33.4143L27.1472 33.1593C23.9057 35.2385 19.8709 35.2464 16.6114 33.2485L16.7492 33.6713C17.1884 36.4578 15.4597 37.5499 15.4597 37.5499C15.1799 37.7832 14.3924 38.1612 13.3525 38.6045L13.371 38.6468C13.5769 39.8798 13.7711 41.1181 13.9569 42.3596L14.4568 42.4536C19.3652 43.4792 24.546 43.3963 29.3853 42.2773L29.9738 42.1395C30.1491 40.9714 30.3327 39.807 30.5265 38.6468L30.5481 38.5971C29.5156 38.1569 28.735 37.7822 28.4568 37.5499H28.4573Z" fill="white"/>
</mask>
<g mask="url(#mask0_30821_2224)">
<path d="M21.8529 36.4398C26.1475 36.4398 29.629 32.7042 29.629 28.0962C29.629 23.4881 26.1475 19.7526 21.8529 19.7526C17.5582 19.7526 14.0767 23.4881 14.0767 28.0962C14.0767 32.7042 17.5582 36.4398 21.8529 36.4398Z" fill="#F0AA8C"/>
</g>
<path d="M15.4435 53.8275C9.6261 52.6166 4.38778 49.8254 0.197754 45.9241C0.909287 43.9336 2.12597 43.0854 4.63903 42.0307C6.28696 41.3398 10.6628 39.751 13.3521 38.6045L13.3706 38.6467C13.5765 39.8798 13.7713 41.1181 13.9565 42.359C14.5234 46.1548 15.0038 49.9869 15.4435 53.8275Z" fill="#0284C7"/>
<path d="M43.7396 45.9822C39.5348 49.8767 34.2822 52.6558 28.4521 53.8492C28.9013 49.9273 29.3922 46.0144 29.9745 42.1395C30.1497 40.9714 30.3334 39.807 30.5271 38.6468L30.5487 38.5972C31.0259 38.8009 31.5564 39.0184 32.1159 39.2427C32.1787 39.2681 32.2426 39.2939 32.3065 39.3193C32.4981 39.3958 32.6928 39.4729 32.8897 39.5505C32.9605 39.5784 33.0312 39.6059 33.1019 39.6339C35.4751 40.5644 38.0879 41.532 39.2777 42.0308C41.8145 43.0955 43.0307 43.95 43.7396 45.9822Z" fill="#0284C7"/>
<path d="M32.8898 39.5505C30.7911 38.7233 28.922 37.9379 28.457 37.5494C28.457 37.5494 26.7019 36.29 27.0957 33.4143L27.1437 33.1736C28.6227 32.1992 29.9281 30.7793 30.9004 28.9081L31.0086 28.9873C35.3675 32.7012 31.3374 36.9989 32.7499 39.3346L32.8914 39.5447L32.8893 39.5505H32.8898Z" fill="#4E4E4E"/>
<path d="M31.8833 27.495L31.4858 27.6264C31.3074 28.0751 31.1121 28.5021 30.901 28.908C29.9287 30.7792 28.6233 32.1991 27.1443 33.1735C22.0527 36.529 14.8967 34.6109 12.1161 27.6882L11.6289 27.5061C10.4486 27.0622 9.4077 26.1157 8.74209 24.879C8.07648 23.6433 7.78986 22.1268 7.94768 20.6731C8.01419 20.063 8.18838 19.5061 8.49875 19.1155C8.76214 18.7835 9.12477 18.5713 9.603 18.5475C10.3789 18.5095 10.8471 19.353 10.9701 20.1991H10.9859C10.9859 17.9801 12.2834 12.8267 15.7497 9.85551L15.9276 9.72302C21.0034 15.5626 30.2723 12.3686 32.542 20.1875C32.665 19.3419 33.1332 18.4979 33.9091 18.5359C34.3927 18.5597 34.7579 18.7766 35.0218 19.1155C35.3275 19.5056 35.4985 20.0577 35.5645 20.6615C35.7228 22.1152 35.4362 23.6317 34.7701 24.8674C34.1045 26.1031 33.0641 27.0506 31.8833 27.4945V27.495Z" fill="#FFD2B4"/>
<path d="M15.9267 9.72358L15.7489 9.85607C12.2825 12.8268 10.9851 17.9806 10.9851 20.1997H10.9692C10.8463 19.3541 10.3781 18.5101 9.60212 18.5481C9.1239 18.5718 8.76127 18.784 8.49788 19.116L8.44615 19.0173C7.40524 13.3863 8.85311 8.67423 11.7436 4.9619C14.7285 1.12712 21.7605 -1.68101 28.6019 1.86346C34.4018 5.22424 36.7697 12.1131 35.145 18.7091L35.022 19.116C34.7581 18.7777 34.3928 18.5607 33.9093 18.537C33.1334 18.499 32.6652 19.3425 32.5422 20.1886C30.272 12.3697 21.0036 15.5636 15.9278 9.72411L15.9267 9.72358Z" fill="#4E4E4E"/>
<path d="M19.5877 28.5513C20.987 29.4243 22.8614 29.3842 24.247 28.5074C24.7622 28.1812 24.2861 27.3589 23.7672 27.6872C22.6556 28.3903 21.1919 28.433 20.067 27.731C19.5466 27.4064 19.0694 28.2282 19.5877 28.5513Z" fill="#4E4E4E"/>
<path d="M17.9365 20.168C17.4588 19.4876 16.7161 19.6507 16.3603 20.2134C15.9587 20.8389 16.0109 21.9479 16.4131 22.5676C16.5504 22.7692 16.7441 22.8927 16.9689 22.9344C17.8541 23.0981 18.2199 22.2488 18.2162 21.5489C18.2141 21.1234 18.1862 20.5238 17.937 20.1685L17.9365 20.168Z" fill="#4E4E4E"/>
<path d="M27.0424 20.168C26.5647 19.4876 25.8221 19.6507 25.4663 20.2134C25.0646 20.8389 25.1169 21.9479 25.5191 22.5676C25.6563 22.7692 25.85 22.8927 26.0749 22.9344C26.9601 23.0981 27.3259 22.2488 27.3222 21.5489C27.3201 21.1234 27.2921 20.5238 27.043 20.1685L27.0424 20.168Z" fill="#4E4E4E"/>
<path d="M25.6113 6.80404C28.1693 7.99063 30.2395 10.0672 31.5021 12.5818C31.8584 13.2912 32.1418 14.0318 32.3582 14.7956C32.4696 15.1873 33.0808 15.0205 32.9689 14.6272C32.1671 11.8038 30.4311 9.28227 28.0748 7.53141C27.4055 7.03418 26.6871 6.60821 25.9307 6.25719C25.5633 6.0867 25.2413 6.63249 25.6108 6.80404H25.6113Z" fill="#3F3F3F"/>
</svg>
