<svg width="48" height="58" viewBox="0 0 48 58" fill="none" xmlns="http://www.w3.org/2000/svg">
<path d="M16.9707 36.4907C16.9707 36.4907 17.1333 36.135 17.9008 36.059L17.771 38.5667L16.9702 36.4902L16.9707 36.4907Z" fill="#FAFAFA"/>
<path d="M31.255 36.3937C31.255 36.3937 31.0681 35.9619 30.2573 36.0917L30.5814 38.6539L31.255 36.3937Z" fill="#FAFAFA"/>
<path d="M21.8168 50.563C21.4684 52.0922 21.0335 54.5863 20.6561 56.8787C18.8793 52.7736 17.394 48.8074 16.4111 44.4158L16.4254 44.4453C17.1966 46.2616 18.6983 48.097 18.9812 48.4496C19.4151 47.8663 19.9931 47.1067 20.6228 46.3466L20.6508 46.6459C20.7653 48.0019 21.1601 49.358 21.8163 50.5636L21.8168 50.563Z" fill="#FAFAFA"/>
<path d="M29.3217 48.4491C29.5904 48.1144 30.9258 46.5399 31.7228 44.8318C30.7252 48.8767 29.2858 52.8703 27.7371 56.8149C27.3724 54.5547 26.8102 52.1704 26.437 50.5636L26.446 50.5404C27.1491 49.2498 27.5582 47.813 27.6368 46.3588V46.296C28.2845 47.073 28.8783 47.8537 29.3217 48.4496V48.4491Z" fill="#FAFAFA"/>
<path d="M32.7464 39.4742L32.7548 39.4752C32.5152 41.2715 32.162 43.0566 31.7234 44.8323C30.9264 46.5404 29.5909 48.115 29.3222 48.4496C28.8783 47.8537 28.2845 47.073 27.6374 46.296C26.4487 44.8672 25.0815 43.4509 24.1499 43.2155C28.0554 40.7811 29.4378 39.0202 30.5458 37.4092C30.7875 37.0577 31.0166 36.7362 31.2552 36.3937L32.7464 39.4742Z" fill="#FAFAFA"/>
<path d="M30.3887 34.4686C30.3005 35.0767 30.4182 36.4095 30.528 37.3966L30.5459 37.4087C29.438 39.0197 28.0551 40.7811 24.1501 43.215C20.3417 40.8418 18.8854 39.1701 17.7716 37.6161C17.8534 36.6016 17.8555 35.0038 17.7785 34.4681C17.7785 34.4681 17.7632 34.3472 17.7505 34.2633C21.5124 37.14 26.7824 37.0535 30.4594 34.0178C30.4282 34.1661 30.3887 34.4681 30.3887 34.4681V34.4686Z" fill="#FFD2B4"/>
<mask id="mask0_30821_852" style="mask-type:luminance" maskUnits="userSpaceOnUse" x="17" y="34" width="14" height="10">
<path d="M30.3887 34.4686C30.3005 35.0767 30.4182 36.4095 30.528 37.3966L30.5459 37.4087C29.438 39.0197 28.0551 40.7811 24.1501 43.215C20.3417 40.8418 18.8854 39.1701 17.7716 37.6161C17.8534 36.6016 17.8555 35.0038 17.7785 34.4681C17.7785 34.4681 17.7632 34.3472 17.7505 34.2633C21.5124 37.14 26.7824 37.0535 30.4594 34.0178C30.4282 34.1661 30.3887 34.4681 30.3887 34.4681V34.4686Z" fill="white"/>
</mask>
<g mask="url(#mask0_30821_852)">
<path d="M24.004 38.1805C28.6751 38.1805 32.4617 34.1206 32.4617 29.1126C32.4617 24.1046 28.6751 20.0448 24.004 20.0448C19.333 20.0448 15.5464 24.1046 15.5464 29.1126C15.5464 34.1206 19.333 38.1805 24.004 38.1805Z" fill="#F0AA8C"/>
</g>
<path d="M33.9972 28.6998C33.2424 30.9822 31.9887 32.7552 30.4585 34.0183C26.7821 37.0545 21.5116 37.1411 17.7496 34.2638C16.1022 33.0049 14.7451 31.1775 13.937 28.7816L13.5659 28.676C10.7029 27.8595 9.01064 24.7399 9.38964 21.8684C9.45931 20.4644 10.2527 19.7159 11.1025 19.7386C11.7665 19.755 12.4649 20.2437 12.8771 21.2588C12.705 19.1648 12.5921 16.6676 13.1753 14.4306C15.472 13.6953 17.3353 11.6388 18.7626 9.76023C19.5343 8.74466 20.4274 7.74862 21.3479 6.79956C22.609 6.31025 24.1418 6.28122 25.5728 6.43957C27.0898 6.60637 28.4928 6.98325 29.3369 7.24453C29.8494 7.40341 30.1561 7.51954 30.1561 7.51954C34.2558 9.3786 35.2107 16.7895 34.8438 21.2588C35.2318 20.3044 35.8737 19.8157 36.5034 19.747C37.3991 19.6478 38.2685 20.3995 38.3413 21.8684C38.6997 24.6433 37.1289 27.7597 34.354 28.5916L33.9977 28.6993L33.9972 28.6998Z" fill="#FFD2B4"/>
<path d="M27.7374 56.8148C27.673 56.9785 27.6086 57.1421 27.5442 57.3057C26.3803 57.434 25.1979 57.5 23.9997 57.5C22.9403 57.5 21.8926 57.4482 20.8596 57.3479C20.7915 57.1917 20.7234 57.0355 20.6558 56.8792C21.0332 54.5857 21.4682 52.0917 21.8165 50.563C21.1604 49.3574 20.7651 48.0009 20.6511 46.6454L20.6226 46.3461C21.8202 44.9009 23.2064 43.4535 24.1491 43.2155C25.0807 43.4509 26.4478 44.8671 27.6365 46.2954V46.3582C27.5579 47.8124 27.1488 49.2492 26.4457 50.5398L26.4368 50.563C26.8105 52.1698 27.3726 54.5546 27.7374 56.8148Z" fill="#0284C7"/>
<path d="M24.1494 43.2154C23.2067 43.454 21.8206 44.9009 20.6229 46.3461C19.9932 47.1062 19.4152 47.8658 18.9813 48.449C18.6984 48.0964 17.1967 46.2616 16.4255 44.4448L16.4112 44.4152C16.0581 42.837 15.7699 41.2044 15.5566 39.4894L16.9707 36.4907C17.2368 36.8724 17.4933 37.2297 17.7709 37.6166C18.8847 39.1706 20.341 40.8417 24.1494 43.2154Z" fill="#FAFAFA"/>
<path d="M31.9672 4.08801C30.4734 -0.457252 23.6125 -0.583934 19.0957 1.32264C15.6025 2.68923 12.9675 5.42187 11.1786 8.63855C9.38869 11.8552 10.0047 15.2699 11.1021 19.7391C11.7661 19.756 12.4644 20.2443 12.8767 21.2593C12.7046 19.1653 12.5916 16.6681 13.1749 14.4316C15.4716 13.6964 17.3343 11.6399 18.7616 9.76075C19.5333 8.74518 20.4264 7.74966 21.3475 6.80007C22.608 6.31076 24.1409 6.28226 25.5724 6.44008C27.0894 6.60741 28.4924 6.98429 29.3364 7.24557C29.849 7.40445 30.1556 7.52005 30.1556 7.52005C34.2554 9.37965 35.2103 16.79 34.8434 21.2593C35.2309 20.305 35.8733 19.8162 36.503 19.7476L36.5014 19.7349C38.6946 11.5829 37.9266 6.18566 31.9672 4.08801Z" fill="#4E4E4E"/>
<path d="M20.6561 56.8792C18.8793 52.7731 17.394 48.8069 16.4111 44.4152C16.058 42.8375 15.7703 41.2044 15.5566 39.4894L12.5009 40.9853C9.6389 42.4131 5.3755 44.3244 3.91496 45.0032C2.32193 45.7438 1.1992 46.3587 0.391602 47.1025C2.91206 49.8552 5.90757 52.1656 9.24776 53.9043C9.50007 54.0352 9.75397 54.1634 10.01 54.288C12.1039 55.3073 14.3256 56.1054 16.645 56.6506C16.8593 56.7013 17.0746 56.7494 17.291 56.7958C18.4581 57.0444 19.6489 57.2297 20.8598 57.3479C20.7917 57.1917 20.7236 57.0354 20.6561 56.8792ZM44.4132 45.0032C42.9532 44.3244 38.5927 42.4131 35.7302 40.9853L32.7542 39.4746C32.5146 41.2709 32.1615 43.056 31.7228 44.8317C30.7252 48.8766 29.2858 52.8702 27.7376 56.8148C27.6732 56.9784 27.6088 57.1421 27.5444 57.3057C28.7368 57.1743 29.9092 56.9779 31.0583 56.7187C31.2742 56.6702 31.489 56.6195 31.7033 56.5667C34.0342 55.9908 36.2644 55.159 38.3626 54.1033C38.6175 53.975 38.8704 53.8436 39.1216 53.709C42.3779 51.9597 45.2969 49.6625 47.7545 46.9415C46.9627 46.2685 45.8901 45.6894 44.4132 45.0032Z" fill="#0284C7"/>
<path d="M28.8964 6.04633C28.4804 4.95159 27.0336 3.84734 25.7393 3.98405C24.6472 4.09859 23.6718 4.6333 22.8689 5.3121C22.7201 5.43773 22.5775 5.56864 22.4408 5.70218C22.0761 6.05953 21.7092 6.42585 21.3477 6.80009C22.6087 6.31078 24.1415 6.28228 25.5725 6.4401C27.0895 6.6069 28.4926 6.98378 29.3366 7.24507C29.2537 6.77212 28.8964 6.04581 28.8964 6.04581V6.04633Z" fill="#3F3F3F"/>
<path d="M21.4098 30.0617C23.043 30.9104 25.1089 30.874 26.7305 30.0194C27.2715 29.7344 26.7922 28.9141 26.2512 29.1992C24.9416 29.8891 23.2113 29.9281 21.8896 29.2414C21.3475 28.9595 20.8667 29.7793 21.4103 30.0617H21.4098Z" fill="#4E4E4E"/>
<path d="M16.4041 7.28722C15.9628 8.27851 15.4234 9.22915 14.7398 10.0748C13.9829 11.0112 13.0829 11.8209 12.118 12.5382C11.7944 12.7789 12.1101 13.3289 12.4379 13.0851C13.4466 12.335 14.3951 11.5031 15.1874 10.5229C15.9069 9.63295 16.4854 8.65169 16.9504 7.60709C17.1146 7.23813 16.5693 6.91509 16.4036 7.28722H16.4041Z" fill="#3F3F3F"/>
<path d="M12.2225 47.3554C11.0396 47.8922 9.8382 48.371 8.62785 48.8386C9.01265 50.4865 9.4307 52.1276 9.86829 53.7623C9.91526 53.9376 9.96224 54.1128 10.0097 54.2881C9.75374 54.1635 9.49985 54.0352 9.24754 53.9043C8.78726 52.1862 8.35285 50.4612 7.95168 48.7283C7.90946 48.5473 8.00764 48.4021 8.17285 48.3388C9.2581 47.9207 10.3365 47.4984 11.4001 47.0323C10.5708 46.5066 9.72577 46.0067 8.89441 45.4847C8.75454 45.3971 8.68486 45.1981 8.7804 45.0513C9.22168 44.3731 9.70254 43.7228 10.2051 43.0893C10.4584 42.77 10.9039 43.2208 10.6532 43.537C10.2478 44.0479 9.8609 44.5726 9.49721 45.1142C10.4062 45.6784 11.3272 46.2226 12.2225 46.8085C12.4025 46.9262 12.4531 47.2503 12.2225 47.3554Z" fill="#0054F0"/>
<path d="M40.3684 48.7283C39.9821 50.3957 39.5624 52.0553 39.1217 53.709C38.8704 53.8436 38.6176 53.975 38.3626 54.1033C38.8345 52.3556 39.2806 50.601 39.6923 48.8386C38.4819 48.3709 37.2806 47.8921 36.0977 47.3553C35.8665 47.2503 35.9177 46.9262 36.0977 46.8085C36.9924 46.2226 37.9134 45.6784 38.8224 45.1146C38.4281 44.5303 37.999 43.9703 37.5498 43.4271C37.2916 43.1152 37.7377 42.6649 37.9979 42.9795C38.5463 43.643 39.07 44.3287 39.5397 45.0513C39.6353 45.1986 39.5656 45.3965 39.4257 45.4847C38.5944 46.0067 37.7488 46.5066 36.9195 47.0323C37.9836 47.4984 39.0615 47.9207 40.1473 48.3387C40.313 48.4026 40.4101 48.5488 40.3684 48.7283Z" fill="#0054F0"/>
<path d="M17.291 56.7958C17.0746 56.7494 16.8592 56.7013 16.6449 56.6507C16.4602 54.5514 16.276 52.4527 16.0918 50.3535C16.0564 49.9471 16.6898 49.9507 16.7252 50.3535C16.778 50.9563 16.8313 51.5596 16.8841 52.1624C17.0197 53.7069 17.1554 55.2514 17.291 56.7958Z" fill="#0054F0"/>
<path d="M32.1697 50.5446C32.1228 51.148 32.0758 51.7513 32.0288 52.3546C31.9195 53.7587 31.8113 55.1627 31.7031 56.5668C31.4888 56.6196 31.274 56.6703 31.0581 56.7188C31.217 54.6608 31.3753 52.6027 31.5363 50.5446C31.5685 50.1403 32.2019 50.1382 32.1697 50.5446Z" fill="#0054F0"/>
<path d="M28.59 47.168C28.903 47.557 29.2108 47.9502 29.5137 48.3466C29.7581 48.666 30.3087 48.3509 30.0606 48.0268C29.7244 47.5876 29.3844 47.1511 29.0376 46.7198C28.7822 46.4021 28.3361 46.8528 28.5895 47.168H28.59Z" fill="#DCE1E6"/>
<path d="M19.2931 46.694C18.9389 47.1332 18.5921 47.5787 18.249 48.0268C18.1445 48.1635 18.229 48.3799 18.3625 48.4602C18.5246 48.5573 18.6924 48.4818 18.7959 48.3467C19.1057 47.9413 19.4203 47.5396 19.7407 47.1422C19.9941 46.8276 19.5486 46.3768 19.2926 46.694H19.2931Z" fill="#DCE1E6"/>
<path d="M27.0166 27.8721C27.2816 28.2258 27.5893 28.5209 27.8981 28.8344C28.2121 29.1527 28.3906 29.5195 28.5151 29.9471C28.6291 30.3377 29.2404 30.1714 29.1258 29.7787C28.9881 29.3063 28.7885 28.8719 28.4571 28.504C28.1641 28.1794 27.8268 27.9049 27.5629 27.5523C27.3211 27.2298 26.7711 27.5454 27.0161 27.8721H27.0166Z" fill="#4E4E4E"/>
<path d="M35.3796 20.2823C34.6258 20.1762 33.872 20.0696 33.1183 19.9635C32.8813 19.9302 32.6422 20.0215 32.573 20.2733C32.516 20.4808 32.6443 20.7853 32.8829 20.8186C33.6366 20.9247 34.3904 21.0313 35.1441 21.1374C35.3811 21.1707 35.6203 21.0793 35.6894 20.8276C35.7464 20.6201 35.6181 20.3156 35.3796 20.2823Z" fill="#4E4E4E"/>
<path d="M25.226 21.2197C25.2291 18.9879 28.7145 18.8016 30.5582 19.1795C32.2173 19.6018 32.4226 19.9549 32.6036 20.3793C33.0138 21.3432 32.7488 23.008 31.8604 24.0579C29.3094 26.4596 24.9916 24.6765 25.2265 21.2191L25.226 21.2197Z" fill="#FFDCC8"/>
<path d="M22.6988 21.2197C22.6957 18.9879 19.2103 18.8016 17.3666 19.1795C15.7075 19.6018 15.5022 19.9549 15.3212 20.3793C14.911 21.3432 15.176 23.008 16.0644 24.0579C18.6154 26.4596 22.9332 24.6765 22.6983 21.2191L22.6988 21.2197Z" fill="#FFDCC8"/>
<path d="M33.595 19.7396C33.1179 19.5617 32.5879 19.5179 32.0991 19.3712C32.0881 19.368 32.0775 19.3654 32.0669 19.3632C31.7091 19.1711 31.2979 19.0534 30.931 18.951C30.1767 18.7404 29.3686 18.6834 28.5879 18.7151C27.2931 18.7673 25.6077 19.1579 25.0767 20.3968C24.3826 20.1059 23.546 20.1334 22.8497 20.41C22.3921 19.3369 21.0646 18.8903 19.9075 18.7583C19.1496 18.6718 18.38 18.6982 17.6267 18.8127C17.1543 18.8845 16.6861 19.0207 16.2422 19.198C16.1203 19.2466 15.9983 19.2994 15.8801 19.359C15.8627 19.3617 15.8442 19.3648 15.8257 19.3706C15.3369 19.5174 14.807 19.5607 14.3298 19.7391C14.21 19.7839 14.0812 19.9001 14.097 20.0447C14.1234 20.2859 14.1181 20.6385 14.2707 20.8338C14.3942 20.9922 14.7347 21.0624 14.7991 21.2492C14.8043 21.2651 14.8107 21.2793 14.8181 21.293C14.8154 21.3727 14.8154 21.4514 14.8175 21.5285C14.8423 22.4791 15.1733 23.5786 15.8405 24.2822C16.9379 25.4393 18.807 25.7475 20.2733 25.2329C21.9814 24.6338 23.1247 23.0465 23.0155 21.2197C23.0144 21.1532 23.0102 21.0893 23.0039 21.0265C23.6035 20.7853 24.333 20.7314 24.9205 21.0201C24.9141 21.0851 24.9104 21.1511 24.9094 21.2197C24.8133 22.8238 25.6901 24.3102 27.1332 25.0159C28.5547 25.7111 30.2987 25.6145 31.5935 24.6829C31.9878 24.3989 32.2871 24.0732 32.5251 23.6472C32.7753 23.1991 32.9506 22.7019 33.0371 22.1957C33.0862 21.9069 33.1152 21.5981 33.1068 21.2909C33.1137 21.2777 33.1195 21.2635 33.1247 21.2487C33.1886 21.0634 33.5312 20.9895 33.6531 20.8333C33.8072 20.6359 33.7999 20.287 33.8268 20.0442C33.8426 19.8985 33.7154 19.7839 33.5945 19.7385L33.595 19.7396ZM20.5473 24.4316C19.367 25.0386 17.9191 24.9663 16.8075 24.2437C16.0838 23.7734 15.6975 23.0091 15.5264 22.1767C15.4003 21.5644 15.3876 20.8402 15.7212 20.2875C15.7988 20.1592 15.9498 20.0421 16.1245 19.9455C16.4892 19.7444 16.903 19.6303 17.3032 19.5237C17.9292 19.3569 18.6022 19.3263 19.2467 19.3453C20.4301 19.3807 22.3599 19.6932 22.3821 21.2197C22.4639 22.5868 21.765 23.8045 20.5473 24.4311V24.4316ZM32.4739 21.5285C32.4523 22.3371 32.1651 23.3696 31.5386 23.9238C30.5167 24.828 29.0693 25.0708 27.793 24.6132C26.353 24.097 25.4515 22.7441 25.5428 21.2202C25.5623 19.8884 27.082 19.4783 28.1667 19.377C28.817 19.3163 29.4831 19.3274 30.1298 19.4245C30.5357 19.4852 30.9337 19.5992 31.3206 19.7364C31.5771 19.8277 31.8679 19.9465 32.0622 20.1218C32.1773 20.2257 32.2475 20.3371 32.3192 20.5134C32.4491 20.8338 32.4834 21.1854 32.4744 21.5285H32.4739Z" fill="#4E4E4E"/>
<path d="M12.5383 21.186C13.3733 21.0635 14.2078 20.941 15.0429 20.8186C15.2799 20.7837 15.4103 20.4834 15.3527 20.2733C15.2831 20.0189 15.045 19.9286 14.8075 19.9635C13.9724 20.0859 13.1379 20.2084 12.3029 20.3309C12.0659 20.3657 11.9355 20.666 11.993 20.8761C12.0627 21.1305 12.3007 21.2208 12.5383 21.186Z" fill="#4E4E4E"/>
<path d="M34.8433 21.2593C35.2803 20.1847 36.0388 19.7001 36.7388 19.7402C37.5464 19.7867 38.2742 20.5299 38.3408 21.869L34.8433 21.2593Z" fill="#FFD2B4"/>
<path d="M9.38916 21.869C9.4525 20.5963 10.1107 19.8616 10.8661 19.7528C11.595 19.6467 12.4148 20.1234 12.8766 21.2593L9.38916 21.869Z" fill="#FFD2B4"/>
<path d="M20.0942 20.7215C19.6165 20.1007 18.8738 20.2501 18.5181 20.7626C18.1164 21.3332 18.1686 22.3446 18.5708 22.9094C18.7081 23.0931 18.9018 23.206 19.1267 23.2435C20.0119 23.3923 20.3776 22.618 20.374 21.9798C20.3718 21.5919 20.3439 21.045 20.0947 20.7215H20.0942Z" fill="#4E4E4E"/>
<path d="M29.25 20.7215C28.7723 20.1007 28.0296 20.2501 27.6738 20.7626C27.2721 21.3332 27.3244 22.3446 27.7266 22.9094C27.8638 23.0931 28.0576 23.206 28.2824 23.2435C29.1676 23.3923 29.5334 22.618 29.5297 21.9798C29.5276 21.5919 29.4996 21.045 29.2505 20.7215H29.25Z" fill="#4E4E4E"/>
</svg>
