<svg width="18" height="18" viewBox="0 0 18 18" fill="none" xmlns="http://www.w3.org/2000/svg">
    <path d="M12.6142 6.50195C13.0881 6.50195 13.4586 6.67104 13.7255 7.00923C14.0437 7.40971 14.2028 8.07384 14.2028 9.00162C14.2028 9.92717 14.0426 10.5924 13.7222 10.9973C13.4574 11.3311 13.0881 11.4979 12.6142 11.4979C12.1381 11.4979 11.7543 11.3155 11.4628 10.9506C11.1714 10.5835 11.0256 9.93051 11.0256 8.99161C11.0256 8.0705 11.1858 7.40748 11.5062 7.00255C11.771 6.66882 12.1403 6.50195 12.6142 6.50195ZM12.6142 7.27955C12.5007 7.27955 12.3995 7.31626 12.3105 7.38968C12.2215 7.46088 12.1525 7.58992 12.1036 7.77682C12.0391 8.01933 12.0068 8.4276 12.0068 9.00162C12.0068 9.57564 12.0357 9.97056 12.0936 10.1864C12.1514 10.4 12.2237 10.5424 12.3105 10.6136C12.3995 10.6847 12.5007 10.7203 12.6142 10.7203C12.7277 10.7203 12.8289 10.6847 12.9179 10.6136C13.0069 10.5401 13.0759 10.41 13.1248 10.2231C13.1893 9.98279 13.2216 9.57564 13.2216 9.00162C13.2216 8.4276 13.1927 8.03379 13.1348 7.8202C13.077 7.60439 13.0036 7.46088 12.9146 7.38968C12.8278 7.31626 12.7277 7.27955 12.6142 7.27955Z" fill="white"/>
    <path d="M8.80952 6.50195C9.28342 6.50195 9.65386 6.67104 9.92085 7.00923C10.239 7.40971 10.3981 8.07384 10.3981 9.00162C10.3981 9.92717 10.2379 10.5924 9.91751 10.9973C9.65275 11.3311 9.28342 11.4979 8.80952 11.4979C8.33339 11.4979 7.9496 11.3155 7.65814 10.9506C7.36668 10.5835 7.22095 9.93051 7.22095 8.99161C7.22095 8.0705 7.38114 7.40748 7.70152 7.00255C7.96629 6.66882 8.33562 6.50195 8.80952 6.50195ZM8.80952 7.27955C8.69605 7.27955 8.59482 7.31626 8.50582 7.38968C8.41683 7.46088 8.34785 7.58992 8.29891 7.77682C8.23438 8.01933 8.20212 8.4276 8.20212 9.00162C8.20212 9.57564 8.23105 9.97056 8.28889 10.1864C8.34674 10.4 8.41905 10.5424 8.50582 10.6136C8.59482 10.6847 8.69605 10.7203 8.80952 10.7203C8.92299 10.7203 9.02422 10.6847 9.11322 10.6136C9.20221 10.5401 9.27118 10.41 9.32013 10.2231C9.38465 9.98279 9.41691 9.57564 9.41691 9.00162C9.41691 8.4276 9.38799 8.03379 9.33014 7.8202C9.2723 7.60439 9.19887 7.46088 9.10988 7.38968C9.02311 7.31626 8.92299 7.27955 8.80952 7.27955Z" fill="white"/>
    <path d="M6.59334 11.4145H5.65554V7.88027C5.31291 8.20066 4.90909 8.43761 4.44409 8.59113V7.7401C4.68883 7.66001 4.9547 7.50872 5.24172 7.28623C5.52873 7.06151 5.72563 6.80009 5.83242 6.50195H6.59334V11.4145Z" fill="white"/>
    <path d="M3.03124 15.9007C3.03124 15.9901 3.0685 16.072 3.14302 16.1463C3.21734 16.2208 3.29921 16.2581 3.38863 16.2581H14.8674C14.9568 16.2581 15.0387 16.2208 15.113 16.1463C15.1875 16.072 15.2248 15.9901 15.2248 15.9007V2.09932C15.2248 2.0099 15.1875 1.92803 15.113 1.85371C15.0387 1.77919 14.9568 1.74194 14.8674 1.74194H3.38863C3.29921 1.74194 3.21734 1.77919 3.14302 1.85371C3.0685 1.92803 3.03124 2.0099 3.03124 2.09932V15.9007ZM3.38863 18C2.80198 18 2.30544 17.7968 1.89898 17.3903C1.49253 16.9839 1.28931 16.4873 1.28931 15.9007V2.09932C1.28931 1.51268 1.49253 1.01613 1.89898 0.609677C2.30544 0.203226 2.80198 0 3.38863 0H14.8674C15.454 0 15.9506 0.203226 16.357 0.609677C16.7635 1.01613 16.9667 1.51268 16.9667 2.09932V15.9007C16.9667 16.4873 16.7635 16.9839 16.357 17.3903C15.9506 17.7968 15.454 18 14.8674 18H3.38863ZM3.03124 15.9007V1.74194V16.2581V15.9007Z" fill="white"/>
    </svg>
    