<svg width="18" height="19" viewBox="0 0 18 19" fill="none" xmlns="http://www.w3.org/2000/svg">
    <path d="M3.98081 16.6245C3.60194 16.6245 3.28125 16.4933 3.01875 16.2308C2.75625 15.9683 2.625 15.6476 2.625 15.2687L2.625 5.23034C2.625 4.85146 2.75625 4.53077 3.01875 4.26827C3.28125 4.00577 3.60194 3.87452 3.98081 3.87452H5.01919V2.28809H6.17306V3.87452L11.8558 3.87452V2.28809H12.9808V3.87452H14.0192C14.3981 3.87452 14.7188 4.00577 14.9813 4.26827C15.2438 4.53077 15.375 4.85146 15.375 5.23034L15.375 15.2687C15.375 15.6476 15.2438 15.9683 14.9813 16.2308C14.7188 16.4933 14.3981 16.6245 14.0192 16.6245H3.98081ZM3.98081 15.4995L14.0192 15.4995C14.0769 15.4995 14.1298 15.4755 14.1778 15.4273C14.2259 15.3793 14.25 15.3265 14.25 15.2687L14.25 8.23034L3.75 8.23034L3.75 15.2687C3.75 15.3265 3.77406 15.3793 3.82219 15.4273C3.87019 15.4755 3.92306 15.4995 3.98081 15.4995ZM3.75 7.10534L14.25 7.10534V5.23034C14.25 5.17259 14.2259 5.11971 14.1778 5.07171C14.1298 5.02359 14.0769 4.99952 14.0192 4.99952L3.98081 4.99952C3.92306 4.99952 3.87019 5.02359 3.82219 5.07171C3.77406 5.11971 3.75 5.17259 3.75 5.23034L3.75 7.10534ZM9 11.0573C8.81638 11.0573 8.65987 10.9926 8.5305 10.8632C8.40125 10.734 8.33663 10.5775 8.33663 10.3937C8.33663 10.2101 8.40125 10.0536 8.5305 9.92421C8.65987 9.79496 8.81638 9.73034 9 9.73034C9.18363 9.73034 9.34013 9.79496 9.4695 9.92421C9.59875 10.0536 9.66338 10.2101 9.66338 10.3937C9.66338 10.5775 9.59875 10.734 9.4695 10.8632C9.34013 10.9926 9.18363 11.0573 9 11.0573ZM6 11.0573C5.81638 11.0573 5.65987 10.9926 5.5305 10.8632C5.40125 10.734 5.33663 10.5775 5.33663 10.3937C5.33663 10.2101 5.40125 10.0536 5.5305 9.92421C5.65987 9.79496 5.81638 9.73034 6 9.73034C6.18363 9.73034 6.34013 9.79496 6.4695 9.92421C6.59875 10.0536 6.66338 10.2101 6.66338 10.3937C6.66338 10.5775 6.59875 10.734 6.4695 10.8632C6.34013 10.9926 6.18363 11.0573 6 11.0573ZM12 11.0573C11.8164 11.0573 11.6599 10.9926 11.5305 10.8632C11.4013 10.734 11.3366 10.5775 11.3366 10.3937C11.3366 10.2101 11.4013 10.0536 11.5305 9.92421C11.6599 9.79496 11.8164 9.73034 12 9.73034C12.1836 9.73034 12.3401 9.79496 12.4695 9.92421C12.5988 10.0536 12.6634 10.2101 12.6634 10.3937C12.6634 10.5775 12.5988 10.734 12.4695 10.8632C12.3401 10.9926 12.1836 11.0573 12 11.0573ZM9 13.9995C8.81638 13.9995 8.65987 13.9348 8.5305 13.8055C8.40125 13.6762 8.33663 13.5198 8.33663 13.3361C8.33663 13.1524 8.40125 12.9959 8.5305 12.8666C8.65987 12.7373 8.81638 12.6726 9 12.6726C9.18363 12.6726 9.34013 12.7373 9.4695 12.8666C9.59875 12.9959 9.66338 13.1524 9.66338 13.3361C9.66338 13.5198 9.59875 13.6762 9.4695 13.8055C9.34013 13.9348 9.18363 13.9995 9 13.9995ZM6 13.9995C5.81638 13.9995 5.65987 13.9348 5.5305 13.8055C5.40125 13.6762 5.33663 13.5198 5.33663 13.3361C5.33663 13.1524 5.40125 12.9959 5.5305 12.8666C5.65987 12.7373 5.81638 12.6726 6 12.6726C6.18363 12.6726 6.34013 12.7373 6.4695 12.8666C6.59875 12.9959 6.66338 13.1524 6.66338 13.3361C6.66338 13.5198 6.59875 13.6762 6.4695 13.8055C6.34013 13.9348 6.18363 13.9995 6 13.9995ZM12 13.9995C11.8164 13.9995 11.6599 13.9348 11.5305 13.8055C11.4013 13.6762 11.3366 13.5198 11.3366 13.3361C11.3366 13.1524 11.4013 12.9959 11.5305 12.8666C11.6599 12.7373 11.8164 12.6726 12 12.6726C12.1836 12.6726 12.3401 12.7373 12.4695 12.8666C12.5988 12.9959 12.6634 13.1524 12.6634 13.3361C12.6634 13.5198 12.5988 13.6762 12.4695 13.8055C12.3401 13.9348 12.1836 13.9995 12 13.9995Z" fill="currentColor"/>
</svg>
