<svg width="18" height="19" viewBox="0 0 18 19" fill="none" xmlns="http://www.w3.org/2000/svg">
<path d="M1.77441 15.8086L1.77441 2.68359L8.89923 2.68359V5.68359L16.2262 5.68359V11.7989H15.1014L15.1014 6.80859L8.89923 6.80859V8.68359H10.5436V9.80859H8.89923V11.6836L10.5436 11.6836V12.8086L8.89923 12.8086L8.89923 14.6836L12.1878 14.6836V15.8086L1.77441 15.8086ZM2.89923 14.6836H4.77441V12.8086H2.89923L2.89923 14.6836ZM2.89923 11.6836H4.77441V9.80859H2.89923V11.6836ZM2.89923 8.68359H4.77441L4.77441 6.80859H2.89923L2.89923 8.68359ZM2.89923 5.68359H4.77441V3.80859L2.89923 3.80859L2.89923 5.68359ZM5.89923 14.6836H7.77442L7.77442 12.8086H5.89923L5.89923 14.6836ZM5.89923 11.6836H7.77442V9.80859H5.89923V11.6836ZM5.89923 8.68359H7.77442V6.80859H5.89923V8.68359ZM5.89923 5.68359L7.77442 5.68359V3.80859L5.89923 3.80859V5.68359ZM15.1014 17.3086V15.8086H13.6014V14.6836H15.1014V13.1836H16.2262V14.6836H17.7262V15.8086H16.2262V17.3086H15.1014ZM12.1878 9.80859V8.68359L13.3128 8.68359V9.80859L12.1878 9.80859ZM12.1878 12.8086V11.6836H13.3128V12.8086H12.1878Z" fill="currentColor"/>
</svg>
