<svg width="18" height="18" viewBox="0 0 18 18" fill="none" xmlns="http://www.w3.org/2000/svg">
<path d="M4.875 14.625C3.8385 14.625 2.95438 14.2649 2.22263 13.5446C1.49088 12.8245 1.125 11.9462 1.125 10.9097C1.125 9.9923 1.41875 9.17642 2.00625 8.46205C2.59375 7.74755 3.34325 7.32492 4.25475 7.19417C4.424 6.2798 4.92281 5.4248 5.75119 4.62917C6.57956 3.83342 7.475 3.43555 8.4375 3.43555C8.74425 3.43555 9.00844 3.54636 9.23006 3.76799C9.45169 3.98961 9.5625 4.2538 9.5625 4.56055V9.55967L10.9356 8.20967L11.7259 8.99998L9 11.7259L6.27413 8.99998L7.06444 8.20967L8.4375 9.55967V4.56055C7.49238 4.6683 6.72481 5.10242 6.13481 5.86292C5.54494 6.62355 5.25 7.41923 5.25 8.24998H4.875C4.15 8.24998 3.53125 8.50624 3.01875 9.01873C2.50625 9.53124 2.25 10.15 2.25 10.875C2.25 11.6 2.50625 12.2187 3.01875 12.7312C3.53125 13.2437 4.15 13.5 4.875 13.5L13.875 13.5C14.4 13.5 14.8438 13.3187 15.2063 12.9562C15.5688 12.5937 15.75 12.15 15.75 11.625C15.75 11.1 15.5688 10.6562 15.2063 10.2937C14.8438 9.93123 14.4 9.74999 13.875 9.74999H12.75V8.24998C12.75 7.64036 12.6125 7.07617 12.3375 6.55742C12.0625 6.03867 11.7 5.60286 11.25 5.24998V3.93167C12.0644 4.34517 12.7055 4.94036 13.1734 5.71723C13.6411 6.49423 13.875 7.33848 13.875 8.24998V8.62498H14.1058C14.8962 8.68648 15.5553 9.0043 16.0832 9.57842C16.6111 10.1524 16.875 10.8346 16.875 11.625C16.875 12.4615 16.5841 13.1706 16.0024 13.7524C15.4206 14.3341 14.7115 14.625 13.875 14.625L4.875 14.625Z" fill="currentColor"/>
</svg>
