<svg width="18" height="18" viewBox="0 0 18 18" fill="none" xmlns="http://www.w3.org/2000/svg">
    <path d="M6.75 10.6875C6.4875 10.6875 6.26562 10.5969 6.08438 10.4156C5.90313 10.2344 5.8125 10.0125 5.8125 9.75C5.8125 9.4875 5.90313 9.26563 6.08438 9.08438C6.26562 8.90313 6.4875 8.8125 6.75 8.8125C7.0125 8.8125 7.23438 8.90313 7.41563 9.08438C7.59688 9.26563 7.6875 9.4875 7.6875 9.75C7.6875 10.0125 7.59688 10.2344 7.41563 10.4156C7.23438 10.5969 7.0125 10.6875 6.75 10.6875ZM11.25 10.6875C10.9875 10.6875 10.7656 10.5969 10.5844 10.4156C10.4031 10.2344 10.3125 10.0125 10.3125 9.75C10.3125 9.4875 10.4031 9.26563 10.5844 9.08438C10.7656 8.90313 10.9875 8.8125 11.25 8.8125C11.5125 8.8125 11.7344 8.90313 11.9156 9.08438C12.0969 9.26563 12.1875 9.4875 12.1875 9.75C12.1875 10.0125 12.0969 10.2344 11.9156 10.4156C11.7344 10.5969 11.5125 10.6875 11.25 10.6875ZM9 15C10.675 15 12.0938 14.4188 13.2563 13.2563C14.4188 12.0938 15 10.675 15 9C15 8.7 14.9813 8.40938 14.9438 8.12813C14.9063 7.84688 14.8375 7.575 14.7375 7.3125C14.475 7.375 14.2125 7.42188 13.95 7.45312C13.6875 7.48438 13.4125 7.5 13.125 7.5C11.9875 7.5 10.9125 7.25625 9.9 6.76875C8.8875 6.28125 8.025 5.6 7.3125 4.725C6.9125 5.7 6.34063 6.54688 5.59688 7.26562C4.85313 7.98438 3.9875 8.525 3 8.8875V9C3 10.675 3.58125 12.0938 4.74375 13.2563C5.90625 14.4188 7.325 15 9 15ZM9 16.5C7.9625 16.5 6.9875 16.3031 6.075 15.9094C5.1625 15.5156 4.36875 14.9813 3.69375 14.3063C3.01875 13.6313 2.48438 12.8375 2.09063 11.925C1.69688 11.0125 1.5 10.0375 1.5 9C1.5 7.9625 1.69688 6.9875 2.09063 6.075C2.48438 5.1625 3.01875 4.36875 3.69375 3.69375C4.36875 3.01875 5.1625 2.48438 6.075 2.09063C6.9875 1.69688 7.9625 1.5 9 1.5C10.0375 1.5 11.0125 1.69688 11.925 2.09063C12.8375 2.48438 13.6313 3.01875 14.3063 3.69375C14.9813 4.36875 15.5156 5.1625 15.9094 6.075C16.3031 6.9875 16.5 7.9625 16.5 9C16.5 10.0375 16.3031 11.0125 15.9094 11.925C15.5156 12.8375 14.9813 13.6313 14.3063 14.3063C13.6313 14.9813 12.8375 15.5156 11.925 15.9094C11.0125 16.3031 10.0375 16.5 9 16.5ZM7.9875 3.09375C8.5125 3.96875 9.225 4.67188 10.125 5.20313C11.025 5.73438 12.025 6 13.125 6C13.3 6 13.4688 5.99063 13.6313 5.97188C13.7938 5.95312 13.9625 5.93125 14.1375 5.90625C13.6125 5.03125 12.9 4.32813 12 3.79688C11.1 3.26562 10.1 3 9 3C8.825 3 8.65625 3.00938 8.49375 3.02813C8.33125 3.04688 8.1625 3.06875 7.9875 3.09375ZM3.31875 7.10625C3.95625 6.74375 4.5125 6.275 4.9875 5.7C5.4625 5.125 5.81875 4.48125 6.05625 3.76875C5.41875 4.13125 4.8625 4.6 4.3875 5.175C3.9125 5.75 3.55625 6.39375 3.31875 7.10625Z" fill="white"/>
    </svg>
    