<svg width="18" height="19" viewBox="0 0 18 19" fill="none" xmlns="http://www.w3.org/2000/svg">
    <path d="M5.25 13.7881C4.10413 13.7881 3.13019 13.3872 2.32819 12.5855C1.52606 11.7837 1.125 10.8101 1.125 9.66477C1.125 8.5194 1.52606 7.54527 2.32819 6.7424C3.13019 5.93952 4.10413 5.53809 5.25 5.53809C6.02688 5.53809 6.74706 5.74434 7.41056 6.15684C8.07406 6.56934 8.57694 7.11309 8.91919 7.78809H16.875V11.5381H15.375V13.7881H11.625V11.5381H8.91919C8.57694 12.2131 8.07406 12.7568 7.41056 13.1693C6.74706 13.5818 6.02688 13.7881 5.25 13.7881ZM5.25 12.6631C6.075 12.6631 6.7375 12.41 7.2375 11.9037C7.7375 11.3975 8.0375 10.9006 8.1375 10.4131H12.75V12.6631H14.25V10.4131H15.75V8.91309H8.1375C8.0375 8.42559 7.7375 7.92871 7.2375 7.42246C6.7375 6.91621 6.075 6.66309 5.25 6.66309C4.425 6.66309 3.71875 6.95684 3.13125 7.54434C2.54375 8.13184 2.25 8.83809 2.25 9.66309C2.25 10.4881 2.54375 11.1943 3.13125 11.7818C3.71875 12.3693 4.425 12.6631 5.25 12.6631ZM5.25 10.8745C5.58313 10.8745 5.86831 10.7559 6.10556 10.5186C6.34281 10.2814 6.46144 9.99621 6.46144 9.66309C6.46144 9.32996 6.34281 9.04477 6.10556 8.80752C5.86831 8.57027 5.58313 8.45165 5.25 8.45165C4.91688 8.45165 4.63169 8.57027 4.39444 8.80752C4.15719 9.04477 4.03856 9.32996 4.03856 9.66309C4.03856 9.99621 4.15719 10.2814 4.39444 10.5186C4.63169 10.7559 4.91688 10.8745 5.25 10.8745Z" fill="currentColor"/>
</svg>
