<svg width="18" height="18" viewBox="0 0 18 18" fill="none" xmlns="http://www.w3.org/2000/svg">
<path d="M2.33333 16.0833V13.2708L13.3285 2.2885C13.4578 2.15919 13.5999 2.06489 13.7548 2.00558C13.9098 1.94628 14.0647 1.91663 14.2196 1.91663C14.3831 1.91663 14.5415 1.94628 14.6948 2.00558C14.848 2.06489 14.9823 2.15919 15.0977 2.2885L16.1281 3.31892C16.2574 3.43433 16.3517 3.56864 16.411 3.72184C16.4703 3.87517 16.5 4.03357 16.5 4.19704C16.5 4.3519 16.4703 4.50683 16.411 4.66183C16.3517 4.8167 16.2574 4.95878 16.1281 5.08808L5.14583 16.0833H2.33333ZM3.58333 14.8333H4.61375L13.1058 6.35413L12.5946 5.82204L12.0625 5.31079L3.58333 13.8029V14.8333ZM12.5946 5.82204L12.0625 5.31079L13.1058 6.35413L12.5946 5.82204ZM10.3623 16.0833C11.3366 16.0833 12.2399 15.845 13.0721 15.3685C13.9043 14.892 14.3204 14.2275 14.3204 13.375C14.3204 12.8857 14.1738 12.4577 13.8806 12.0912C13.5873 11.7248 13.1757 11.415 12.6458 11.1618L11.7131 12.0945C12.1394 12.2548 12.4722 12.4436 12.7115 12.661C12.9509 12.8784 13.0706 13.1163 13.0706 13.375C13.0706 13.7691 12.7998 14.1107 12.2581 14.3998C11.7165 14.6888 11.0845 14.8333 10.3623 14.8333C10.1849 14.8333 10.0364 14.8932 9.91667 15.0129C9.79708 15.1325 9.73729 15.2809 9.73729 15.4583C9.73729 15.6357 9.79708 15.7841 9.91667 15.9037C10.0364 16.0234 10.1849 16.0833 10.3623 16.0833ZM2.82854 10.197L3.75813 9.25954C3.43215 9.12177 3.18264 8.97913 3.00958 8.83163C2.83653 8.68427 2.75 8.53204 2.75 8.37496C2.75 8.16552 2.88972 7.95878 3.16917 7.75475C3.44847 7.55072 4.00424 7.26975 4.83646 6.91184C5.99465 6.41614 6.76979 5.96767 7.16187 5.56642C7.55396 5.16531 7.75 4.7126 7.75 4.20829C7.75 3.52454 7.46181 2.9717 6.88542 2.54975C6.30903 2.12767 5.55556 1.91663 4.625 1.91663C4.05347 1.91663 3.52785 2.01975 3.04813 2.226C2.5684 2.43211 2.20993 2.68426 1.97271 2.98246C1.85743 3.12024 1.80965 3.27218 1.82937 3.43829C1.8491 3.6044 1.92792 3.74086 2.06583 3.84767C2.20361 3.95781 2.35424 4.00295 2.51771 3.98308C2.68118 3.96336 2.82056 3.89579 2.93583 3.78038C3.14639 3.56996 3.3884 3.41503 3.66188 3.31559C3.93535 3.21628 4.25639 3.16663 4.625 3.16663C5.23722 3.16663 5.70278 3.26996 6.02167 3.47663C6.34056 3.68343 6.5 3.92732 6.5 4.20829C6.5 4.45079 6.36243 4.67065 6.08729 4.86788C5.81229 5.06496 5.22924 5.36489 4.33813 5.76767C3.26438 6.23767 2.52292 6.65857 2.11375 7.03038C1.70458 7.40218 1.5 7.85038 1.5 8.37496C1.5 8.76593 1.61674 9.10968 1.85021 9.40621C2.08368 9.70274 2.40979 9.96635 2.82854 10.197Z" fill="#171717"/>
</svg>
