<svg width="20" height="21" viewBox="0 0 20 21" fill="none" xmlns="http://www.w3.org/2000/svg">
    <path d="M5.07413 18.101C4.6764 18.101 4.33593 17.9594 4.05273 17.6762C3.76953 17.393 3.62793 17.0525 3.62793 16.6548V9.14718C3.62793 8.74944 3.76953 8.40898 4.05273 8.12578C4.33593 7.84258 4.6764 7.70098 5.07413 7.70098H6.02793V6.10098C6.02793 5.10204 6.3782 4.25231 7.07873 3.55178C7.77926 2.85124 8.629 2.50098 9.62793 2.50098C10.6269 2.50098 11.4766 2.85124 12.1771 3.55178C12.8777 4.25231 13.2279 5.10204 13.2279 6.10098V7.70098H14.1817C14.5795 7.70098 14.9199 7.84258 15.2031 8.12578C15.4863 8.40898 15.6279 8.74944 15.6279 9.14718V16.6548C15.6279 17.0525 15.4863 17.393 15.2031 17.6762C14.9199 17.9594 14.5795 18.101 14.1817 18.101H5.07413ZM9.62793 14.301C10.0166 14.301 10.3471 14.1648 10.6195 13.8926C10.8918 13.6202 11.0279 13.2896 11.0279 12.901C11.0279 12.5123 10.8918 12.1818 10.6195 11.9094C10.3471 11.6371 10.0166 11.501 9.62793 11.501C9.23926 11.501 8.90873 11.6371 8.63633 11.9094C8.36406 12.1818 8.22793 12.5123 8.22793 12.901C8.22793 13.2896 8.36406 13.6202 8.63633 13.8926C8.90873 14.1648 9.23926 14.301 9.62793 14.301ZM7.22793 7.70098H12.0279V6.10098C12.0279 5.43431 11.7946 4.86764 11.3279 4.40098C10.8613 3.93431 10.2946 3.70098 9.62793 3.70098C8.96126 3.70098 8.3946 3.93431 7.92793 4.40098C7.46126 4.86764 7.22793 5.43431 7.22793 6.10098V7.70098Z" fill="currentColor"/>
</svg>
