<svg width="19" height="18" viewBox="0 0 19 18" fill="none" xmlns="http://www.w3.org/2000/svg">
<path d="M11.4711 15.7285V14.2868H7.56342C6.5603 14.2868 5.69711 13.9556 4.97385 13.2932C4.25043 12.631 3.88871 11.8131 3.88871 10.8396C3.88871 9.86616 4.25043 9.04975 4.97385 8.3904C5.69711 7.73121 6.5603 7.40162 7.56342 7.40162H14.3116L11.6372 10.0763L12.65 11.0891L17.0583 6.68076L12.65 2.27246L11.6372 3.28527L14.3116 5.9599H7.56342C6.15742 5.9599 4.95319 6.4291 3.95071 7.3675C2.94823 8.3059 2.44699 9.46328 2.44699 10.8396C2.44699 12.216 2.94823 13.3749 3.95071 14.3164C4.95319 15.2578 6.15742 15.7285 7.56342 15.7285H11.4711Z" fill="currentColor"/>
</svg>
