<svg xmlns="http://www.w3.org/2000/svg" width="18" height="18" viewBox="0 0 18 18" fill="none">
<path d="M6.89419 6.51919V5.39419H13.3558V6.51919H6.89419ZM6.89419 8.68275V7.55775H13.3558V8.68275H6.89419ZM8.94225 16.125H4.5C3.976 16.125 3.5325 15.9435 3.1695 15.5805C2.8065 15.2175 2.625 14.774 2.625 14.25V12.0866H4.875V1.875H15.375V8.21831C15.1826 8.20769 14.992 8.21944 14.8031 8.25356C14.6141 8.28769 14.4298 8.34419 14.25 8.42306V3H6V12.0866H10.2547L9.12975 13.2114H3.75V14.25C3.75 14.4625 3.82188 14.6406 3.96563 14.7844C4.10938 14.9281 4.2875 15 4.5 15H8.94225V16.125ZM10.5866 16.125V14.1433L14.6582 10.0903C14.7514 9.99706 14.8524 9.93144 14.961 9.89344C15.0696 9.85556 15.1783 9.83663 15.2871 9.83663C15.4033 9.83663 15.517 9.85869 15.6281 9.90281C15.7391 9.94706 15.8389 10.0134 15.9274 10.1019L16.6211 10.8028C16.7019 10.8962 16.7644 10.9972 16.8086 11.1058C16.8529 11.2144 16.875 11.3231 16.875 11.4317C16.875 11.5403 16.8548 11.6509 16.8144 11.7634C16.7741 11.8759 16.7096 11.9788 16.6211 12.072L12.5683 16.125H10.5866ZM11.4808 15.2308H12.1933L14.6278 12.7845L14.2832 12.4282L13.9341 12.0765L11.4808 14.5183V15.2308ZM14.2832 12.4282L13.9341 12.0765L14.6278 12.7845L14.2832 12.4282Z" fill="white"/>
</svg>