<svg width="18" height="19" viewBox="0 0 18 19" fill="none" xmlns="http://www.w3.org/2000/svg">
<path d="M8.96521 15.875C10.8497 15.875 12.4457 15.2212 13.7534 13.9137C15.0613 12.6061 15.7152 11.0104 15.7152 9.12635C15.7152 7.24235 15.0613 5.64612 13.7534 4.33767C12.4457 3.02922 10.8497 2.375 8.96521 2.375C7.91296 2.375 6.91718 2.60893 5.97788 3.07678C5.03873 3.54478 4.25761 4.20507 3.63451 5.05767V2.375H2.28451V7.87873H7.78823V6.52895H4.23323C4.70753 5.66 5.36528 4.97547 6.20648 4.47537C7.04753 3.97512 7.96711 3.725 8.96521 3.725C10.4652 3.725 11.7402 4.25 12.7902 5.3C13.8402 6.35 14.3652 7.625 14.3652 9.125C14.3652 10.625 13.8402 11.9 12.7902 12.95C11.7402 14 10.4652 14.525 8.96521 14.525C7.81021 14.525 6.76771 14.195 5.83771 13.535C4.90771 12.875 4.25521 12.005 3.88021 10.925H2.45753C2.86598 12.3938 3.67051 13.586 4.87111 14.5016C6.07171 15.4172 7.43641 15.875 8.96521 15.875Z" fill="currentColor"/>
</svg>
