<svg width="18" height="19" viewBox="0 0 18 19" fill="none" xmlns="http://www.w3.org/2000/svg">
<path d="M9.03479 15.875C7.15034 15.875 5.55427 15.2212 4.24657 13.9137C2.93872 12.6061 2.28479 11.0104 2.28479 9.12635C2.28479 7.24235 2.93872 5.64612 4.24657 4.33767C5.55427 3.02922 7.15034 2.375 9.03479 2.375C10.087 2.375 11.0828 2.60893 12.0221 3.07678C12.9613 3.54478 13.7424 4.20507 14.3655 5.05767V2.375H15.7155V7.87873H10.2118V6.52895H13.7668C13.2925 5.66 12.6347 4.97547 11.7935 4.47537C10.9525 3.97512 10.0329 3.725 9.03479 3.725C7.53479 3.725 6.25979 4.25 5.20979 5.3C4.15979 6.35 3.63479 7.625 3.63479 9.125C3.63479 10.625 4.15979 11.9 5.20979 12.95C6.25979 14 7.53479 14.525 9.03479 14.525C10.1898 14.525 11.2323 14.195 12.1623 13.535C13.0923 12.875 13.7448 12.005 14.1198 10.925H15.5425C15.134 12.3938 14.3295 13.586 13.1289 14.5016C11.9283 15.4172 10.5636 15.875 9.03479 15.875Z" fill="currentColor"/>
</svg>
