<svg width="18" height="19" viewBox="0 0 18 19" fill="none" xmlns="http://www.w3.org/2000/svg">
    <path d="M15.375 6.13909L15.375 14.7497C15.375 15.1285 15.2438 15.4492 14.9813 15.7117C14.7188 15.9742 14.3981 16.1055 14.0192 16.1055H3.98081C3.60194 16.1055 3.28125 15.9742 3.01875 15.7117C2.75625 15.4492 2.625 15.1285 2.625 14.7497L2.625 4.71128C2.625 4.33241 2.75625 4.01172 3.01875 3.74922C3.28125 3.48672 3.60194 3.35547 3.98081 3.35547L12.5914 3.35547L15.375 6.13909ZM14.25 6.61797L12.1125 4.48047L3.98081 4.48047C3.91344 4.48047 3.85813 4.50209 3.81488 4.54534C3.77163 4.58859 3.75 4.64391 3.75 4.71128L3.75 14.7497C3.75 14.817 3.77163 14.8723 3.81488 14.9156C3.85813 14.9588 3.91344 14.9805 3.98081 14.9805L14.0192 14.9805C14.0866 14.9805 14.1419 14.9588 14.1851 14.9156C14.2284 14.8723 14.25 14.817 14.25 14.7497L14.25 6.61797ZM9 13.6824C9.51925 13.6824 9.96156 13.4997 10.3269 13.1343C10.6923 12.769 10.875 12.3267 10.875 11.8074C10.875 11.2882 10.6923 10.8458 10.3269 10.4805C9.96156 10.1151 9.51925 9.93241 9 9.93241C8.48075 9.93241 8.03844 10.1151 7.67306 10.4805C7.30769 10.8458 7.125 11.2882 7.125 11.8074C7.125 12.3267 7.30769 12.769 7.67306 13.1343C8.03844 13.4997 8.48075 13.6824 9 13.6824ZM4.78856 8.14384H10.947V5.51903L4.78856 5.51903V8.14384ZM3.75 6.61797L3.75 14.9805L3.75 4.48047L3.75 6.61797Z" fill="currentColor"/>
</svg>
