<svg width="18" height="19" viewBox="0 0 18 19" fill="none" xmlns="http://www.w3.org/2000/svg">
<path d="M15.375 6.28363L15.375 14.8942C15.375 15.2731 15.2438 15.5938 14.9813 15.8563C14.7188 16.1188 14.3981 16.25 14.0192 16.25H3.98081C3.60194 16.25 3.28125 16.1188 3.01875 15.8563C2.75625 15.5938 2.625 15.2731 2.625 14.8942L2.625 4.85581C2.625 4.47694 2.75625 4.15625 3.01875 3.89375C3.28125 3.63125 3.60194 3.5 3.98081 3.5L12.5914 3.5L15.375 6.28363ZM14.25 6.7625L12.1125 4.625L3.98081 4.625C3.91344 4.625 3.85813 4.64663 3.81488 4.68988C3.77163 4.73313 3.75 4.78844 3.75 4.85581L3.75 14.8942C3.75 14.9616 3.77163 15.0169 3.81488 15.0601C3.85813 15.1034 3.91344 15.125 3.98081 15.125L14.0192 15.125C14.0866 15.125 14.1419 15.1034 14.1851 15.0601C14.2284 15.0169 14.25 14.9616 14.25 14.8942L14.25 6.7625ZM9 13.8269C9.51925 13.8269 9.96156 13.6443 10.3269 13.2789C10.6923 12.9135 10.875 12.4712 10.875 11.9519C10.875 11.4327 10.6923 10.9904 10.3269 10.625C9.96156 10.2596 9.51925 10.0769 9 10.0769C8.48075 10.0769 8.03844 10.2596 7.67306 10.625C7.30769 10.9904 7.125 11.4327 7.125 11.9519C7.125 12.4712 7.30769 12.9135 7.67306 13.2789C8.03844 13.6443 8.48075 13.8269 9 13.8269ZM4.78856 8.28838H10.947V5.66356L4.78856 5.66356V8.28838ZM3.75 6.7625L3.75 15.125L3.75 4.625L3.75 6.7625Z" fill="white"/>
</svg>
