<svg width="18" height="19" viewBox="0 0 18 19" fill="none" xmlns="http://www.w3.org/2000/svg">
    <path d="M7.26931 16.5581L6.98375 14.2734C6.78288 14.2062 6.57688 14.112 6.36575 13.9909C6.15475 13.8696 5.96606 13.7398 5.79969 13.6014L3.68375 14.4956L1.95312 11.4956L3.78331 10.1124C3.76606 10.0009 3.75381 9.88892 3.74656 9.77642C3.73931 9.66392 3.73569 9.55186 3.73569 9.44023C3.73569 9.33361 3.73931 9.22523 3.74656 9.11511C3.75381 9.00498 3.76606 8.88454 3.78331 8.75379L1.95312 7.37061L3.68375 4.38504L5.79238 5.27211C5.97325 5.12886 6.16631 4.99786 6.37156 4.87911C6.57681 4.76036 6.7785 4.66492 6.97662 4.59279L7.26931 2.30811H10.7309L11.0165 4.59992C11.2415 4.68167 11.4451 4.77711 11.6272 4.88623C11.8094 4.99536 11.9934 5.12398 12.179 5.27211L14.3165 4.38504L16.0471 7.37061L14.1881 8.77536C14.2149 8.89648 14.2296 9.00973 14.2321 9.11511C14.2345 9.22036 14.2357 9.32636 14.2357 9.43311C14.2357 9.53498 14.2333 9.63861 14.2284 9.74398C14.2236 9.84923 14.2064 9.96967 14.1766 10.1053L16.0213 11.4956L14.2904 14.4956L12.179 13.5941C11.9934 13.7422 11.8039 13.8732 11.6107 13.9871C11.4174 14.1011 11.2194 14.1942 11.0165 14.2663L10.7309 16.5581H7.26931ZM8.25013 15.4331H9.72425L9.99388 13.424C10.3766 13.324 10.7264 13.182 11.0431 12.9979C11.36 12.8136 11.6656 12.5768 11.9598 12.2874L13.8232 13.0706L14.5617 11.7956L12.9348 10.5697C12.9973 10.3755 13.0398 10.185 13.0623 9.99842C13.0849 9.81192 13.0963 9.62348 13.0963 9.43311C13.0963 9.23786 13.0849 9.04942 13.0623 8.86779C13.0398 8.68604 12.9973 8.50042 12.9348 8.31092L14.576 7.07061L13.8376 5.79561L11.9525 6.59023C11.7015 6.32198 11.4008 6.08498 11.0504 5.87923C10.6999 5.67348 10.3454 5.52779 9.98675 5.44217L9.75013 3.43311H8.26175L8.0135 5.43504C7.63088 5.52542 7.27756 5.66386 6.95356 5.85036C6.62944 6.03698 6.32025 6.27736 6.026 6.57148L4.16263 5.79561L3.42425 7.07061L5.04387 8.27773C4.98137 8.45573 4.93763 8.64086 4.91263 8.83311C4.88762 9.02536 4.87512 9.22773 4.87512 9.44023C4.87512 9.63548 4.88762 9.82686 4.91263 10.0144C4.93763 10.2019 4.979 10.387 5.03675 10.5697L3.42425 11.7956L4.16263 13.0706L6.01888 12.2831C6.3035 12.5754 6.60781 12.8148 6.93181 13.0014C7.25594 13.1879 7.61413 13.3312 8.00638 13.4312L8.25013 15.4331ZM9.00875 11.6831C9.63275 11.6831 10.1637 11.4641 10.6018 11.0261C11.0398 10.5881 11.2588 10.0571 11.2588 9.43311C11.2588 8.80911 11.0398 8.27811 10.6018 7.84011C10.1637 7.40211 9.63275 7.18311 9.00875 7.18311C8.377 7.18311 7.84406 7.40211 7.40994 7.84011C6.97581 8.27811 6.75875 8.80911 6.75875 9.43311C6.75875 10.0571 6.97581 10.5881 7.40994 11.0261C7.84406 11.4641 8.377 11.6831 9.00875 11.6831Z" fill="currentColor"/>
</svg>
