<svg width="18" height="19" viewBox="0 0 18 19" fill="none" xmlns="http://www.w3.org/2000/svg">
<g clip-path="url(#clip0_11217_24041)">
<path fill-rule="evenodd" clip-rule="evenodd" d="M4.21965 14.9039C5.53275 16.1917 7.1262 16.8356 9 16.8356C9.51961 16.8356 10.0177 16.7861 10.4942 16.687V12.8514H12.7442V10.9856H3.65355C3.48855 9.90557 3.59963 8.98022 3.98678 8.20952C4.37393 7.43867 4.77 6.85824 5.175 6.46824L9 2.68824L12.825 6.46824C13.23 6.85824 13.6252 7.43867 14.0105 8.20952C14.3516 8.89157 14.4712 9.69473 14.3694 10.619H15.7373C15.7458 10.4731 15.75 10.3252 15.75 10.1756C15.75 9.26987 15.5726 8.41922 15.2177 7.62362C14.8629 6.82802 14.3815 6.11754 13.7734 5.49219L9 0.808594L4.22663 5.49219C3.61853 6.11754 3.1371 6.82802 2.78235 7.62362C2.42745 8.41922 2.25 9.26987 2.25 10.1756C2.25 12.0402 2.90655 13.6163 4.21965 14.9039Z" fill="currentColor"/>
<path d="M14.2441 18.125V15.8926H11.9941V14.3516H14.2441V12.1191H15.7441V14.3516H18V15.8926H15.7441V18.125H14.2441Z" fill="currentColor"/>
</g>
<defs>
<clipPath id="clip0_11217_24041">
<rect width="18" height="18" fill="white" transform="translate(0 0.125)"/>
</clipPath>
</defs>
</svg>
