<svg xmlns="http://www.w3.org/2000/svg" width="18" height="18" viewBox="0 0 18 18" fill="none">
<path d="M15.7183 10.6515L10.6515 15.7183C10.5153 15.8538 10.3619 15.9555 10.1916 16.0234C10.0212 16.0911 9.85131 16.125 9.68194 16.125C9.51244 16.125 9.34294 16.0911 9.17344 16.0234C9.00394 15.9555 8.85144 15.8538 8.71594 15.7183L2.27025 9.27975C2.14238 9.15675 2.0445 9.01238 1.97662 8.84663C1.90887 8.68088 1.875 8.5065 1.875 8.3235L1.875 3.23794C1.875 2.86319 2.00744 2.54231 2.27231 2.27531C2.53731 2.00844 2.85919 1.875 3.23794 1.875L8.3235 1.875C8.50463 1.875 8.68006 1.91175 8.84981 1.98525C9.01969 2.05863 9.16688 2.15744 9.29138 2.28169L15.7183 8.72025C15.8557 8.8565 15.9559 9.00975 16.0189 9.18C16.0819 9.35038 16.1134 9.52119 16.1134 9.69244C16.1134 9.86369 16.0819 10.0321 16.0189 10.1976C15.9559 10.3632 15.8557 10.5145 15.7183 10.6515ZM9.84956 14.9278L14.9164 9.861C14.9644 9.813 14.9884 9.7565 14.9884 9.6915C14.9884 9.62663 14.9644 9.57019 14.9164 9.52219L8.40581 3.00713L3.23794 3.00713C3.17069 3.00713 3.11419 3.02881 3.06844 3.07219C3.02281 3.11544 3 3.17069 3 3.23794L3 8.31206C3 8.34094 3.00481 8.36975 3.01444 8.3985C3.02406 8.42737 3.04088 8.45381 3.06488 8.47781L9.51056 14.9278C9.55869 14.9759 9.61519 15 9.68006 15C9.74494 15 9.80144 14.9759 9.84956 14.9278ZM4.89375 5.83406C5.15525 5.83406 5.37738 5.74294 5.56013 5.56069C5.74275 5.37844 5.83406 5.15706 5.83406 4.89656C5.83406 4.63419 5.74294 4.41119 5.56069 4.22756C5.37844 4.04381 5.15706 3.95194 4.89656 3.95194C4.63419 3.95194 4.41119 4.0435 4.22756 4.22662C4.04381 4.40975 3.95194 4.63213 3.95194 4.89375C3.95194 5.15525 4.0435 5.37737 4.22663 5.56012C4.40975 5.74275 4.63213 5.83406 4.89375 5.83406Z" fill="white"/>
</svg>