<svg width="19" height="18" viewBox="0 0 19 18" fill="none" xmlns="http://www.w3.org/2000/svg">
<path d="M8.1644 15.7285V14.2868H12.0721C13.0752 14.2868 13.9384 13.9556 14.6616 13.2932C15.3851 12.631 15.7468 11.8131 15.7468 10.8396C15.7468 9.86616 15.3851 9.04975 14.6616 8.3904C13.9384 7.73121 13.0752 7.40162 12.0721 7.40162H5.32387L7.99826 10.0763L6.98545 11.0891L2.57715 6.68076L6.98545 2.27246L7.99826 3.28527L5.32387 5.9599H12.0721C13.4781 5.9599 14.6823 6.4291 15.6848 7.3675C16.6873 8.3059 17.1885 9.46328 17.1885 10.8396C17.1885 12.216 16.6873 13.3749 15.6848 14.3164C14.6823 15.2578 13.4781 15.7285 12.0721 15.7285H8.1644Z" fill="currentColor"/>
</svg>
