<svg width="18" height="18" viewBox="0 0 18 18" fill="none" xmlns="http://www.w3.org/2000/svg">
<path d="M8.4375 13.7884H9.5625V10.4625L10.95 11.85L11.7403 11.0481L9 8.30775L6.25969 11.0481L7.06163 11.8384L8.4375 10.4625V13.7884ZM4.73081 16.125C4.35194 16.125 4.03125 15.9938 3.76875 15.7313C3.50625 15.4688 3.375 15.1481 3.375 14.7692V3.23081C3.375 2.85194 3.50625 2.53125 3.76875 2.26875C4.03125 2.00625 4.35194 1.875 4.73081 1.875H10.6875L14.625 5.8125V14.7692C14.625 15.1481 14.4938 15.4688 14.2313 15.7313C13.9688 15.9938 13.6481 16.125 13.2692 16.125H4.73081ZM10.125 6.375V3H4.73081C4.67306 3 4.62019 3.02406 4.57219 3.07219C4.52406 3.12019 4.5 3.17306 4.5 3.23081V14.7692C4.5 14.8269 4.52406 14.8798 4.57219 14.9278C4.62019 14.9759 4.67306 15 4.73081 15H13.2692C13.3269 15 13.3798 14.9759 13.4278 14.9278C13.4759 14.8798 13.5 14.8269 13.5 14.7692V6.375H10.125Z" fill="white"/>
</svg>
