<svg width="80" height="81" viewBox="0 0 80 81" fill="none" xmlns="http://www.w3.org/2000/svg">
    <path d="M21.6667 65.4673C17.06 65.4673 13.1306 63.8692 9.87833 60.6731C6.62611 57.477 5 53.5709 5 48.9548C5 44.8137 6.33222 41.1715 8.99667 38.0281C11.6611 34.8848 14.9656 33.0226 18.91 32.4415C19.9783 27.4587 22.4839 23.384 26.4267 20.2173C30.3689 17.0506 34.8933 15.4673 40 15.4673C46.0356 15.4673 51.1556 17.5695 55.36 21.774C59.5644 25.9784 61.6667 31.0984 61.6667 37.134V38.8006H62.6925C66.2053 39.074 69.1347 40.4865 71.4808 43.0381C73.827 45.5892 75 48.6212 75 52.134C75 55.8517 73.7181 59.0034 71.1542 61.589C68.5897 64.1745 65.4486 65.4673 61.7308 65.4673H43.5258C41.8419 65.4673 40.4167 64.884 39.25 63.7173C38.0833 62.5506 37.5 61.1253 37.5 59.4415V41.1848L31.3333 47.249L27.8208 43.769L40 31.589L52.1792 43.769L48.6667 47.249L42.5 41.1848V59.4415C42.5 59.6981 42.6069 59.9331 42.8208 60.1465C43.0342 60.3603 43.2692 60.4673 43.5258 60.4673H61.6667C64 60.4673 65.9722 59.6617 67.5833 58.0506C69.1944 56.4395 70 54.4673 70 52.134C70 49.8006 69.1944 47.8284 67.5833 46.2173C65.9722 44.6062 64 43.8006 61.6667 43.8006H56.6667V37.134C56.6667 32.5228 55.0417 28.5923 51.7917 25.3423C48.5417 22.0923 44.6111 20.4673 40 20.4673C35.3889 20.4673 31.4583 22.0923 28.2083 25.3423C24.9583 28.5923 23.3333 32.5228 23.3333 37.134H21.6025C18.4442 37.134 15.7208 38.2728 13.4325 40.5506C11.1442 42.8284 10 45.5784 10 48.8006C10 52.0228 11.1389 54.7728 13.4167 57.0506C15.6944 59.3284 18.4444 60.4673 21.6667 60.4673H30V65.4673H21.6667Z" fill="currentColor"/>
</svg>
