<svg width="16" height="17" viewBox="0 0 16 17" fill="none" xmlns="http://www.w3.org/2000/svg">
<path d="M13.0379 12.6382L13.0291 12.7593C12.9868 13.0361 12.8012 13.274 12.5359 13.3804C12.2704 13.4869 11.9717 13.4431 11.7498 13.272L11.6599 13.191L4.83084 6.0484L4.83084 11.0142L5.8636 9.98146C6.17592 9.66935 6.68208 9.66945 6.99446 9.98146C7.30688 10.2939 7.30688 10.8009 6.99446 11.1133L4.59647 13.5113C4.2841 13.8237 3.77804 13.8236 3.46561 13.5113L1.19646 11.1133C0.884042 10.8009 0.884042 10.2939 1.19646 9.98146C1.50889 9.6691 2.0159 9.66906 2.3283 9.98146L3.23123 11.0142L3.23123 4.05426C3.23123 3.72742 3.42984 3.43375 3.73318 3.31207C4.03652 3.19042 4.38331 3.2653 4.60916 3.50153L11.4383 10.6441L11.4383 4.05426C11.4383 3.61243 11.7962 3.25446 12.2381 3.25446C12.6799 3.25446 13.0379 3.61243 13.0379 4.05426L13.0379 12.6382Z" fill="white"/>
</svg>
