<svg width="16" height="17" viewBox="0 0 16 17" fill="none" xmlns="http://www.w3.org/2000/svg">
<path d="M12.1382 3.46216L12.2593 3.47095C12.5361 3.5132 12.774 3.69883 12.8804 3.96411C12.9869 4.22959 12.9431 4.52838 12.772 4.75024L12.691 4.84009L5.5484 11.6692H10.5142L9.48146 10.6364C9.16935 10.3241 9.16945 9.81795 9.48146 9.50557C9.79388 9.19315 10.3009 9.19315 10.6133 9.50557L13.0113 11.9036C13.3237 12.2159 13.3236 12.722 13.0113 13.0344L10.6133 15.3036C10.3009 15.616 9.79388 15.616 9.48146 15.3036C9.1691 14.9911 9.16906 14.4841 9.48146 14.1717L10.5142 13.2688H3.55426C3.22742 13.2688 2.93375 13.0702 2.81207 12.7668C2.69042 12.4635 2.7653 12.1167 3.00153 11.8909L10.1441 5.06177H3.55426C3.11243 5.06177 2.75446 4.70379 2.75446 4.26196C2.75446 3.82014 3.11243 3.46216 3.55426 3.46216H12.1382Z" fill="white"/>
</svg>
