<svg width="16" height="17" viewBox="0 0 16 17" fill="none" xmlns="http://www.w3.org/2000/svg">
<path d="M3.86176 3.4621L3.74066 3.47089C3.46391 3.51314 3.22605 3.69877 3.11957 3.96405C3.01308 4.22953 3.05691 4.52832 3.22797 4.75018L3.30902 4.84003L10.4516 11.6691L5.48578 11.6691L6.51854 10.6364C6.83065 10.324 6.83055 9.81789 6.51854 9.50551C6.20612 9.19309 5.69912 9.19309 5.3867 9.50551L2.98871 11.9035C2.67634 12.2159 2.67644 12.7219 2.98871 13.0344L5.3867 15.3035C5.69912 15.6159 6.20612 15.6159 6.51854 15.3035C6.8309 14.9911 6.83094 14.4841 6.51854 14.1717L5.48578 13.2687L12.4457 13.2687C12.7726 13.2687 13.0662 13.0701 13.1879 12.7668C13.3096 12.4635 13.2347 12.1167 12.9985 11.8908L5.8559 5.06171L12.4457 5.06171C12.8876 5.06171 13.2455 4.70373 13.2455 4.2619C13.2455 3.82007 12.8876 3.4621 12.4457 3.4621L3.86176 3.4621Z" fill="white"/>
</svg>
