<svg width="16" height="17" viewBox="0 0 16 17" fill="none" xmlns="http://www.w3.org/2000/svg">
<path d="M2.96213 12.6382L2.97092 12.7593C3.01317 13.0361 3.1988 13.274 3.46408 13.3804C3.72956 13.4869 4.02835 13.4431 4.25021 13.272L4.34006 13.191L11.1692 6.0484L11.1692 11.0142L10.1364 9.98146C9.82408 9.66935 9.31792 9.66945 9.00554 9.98146C8.69312 10.2939 8.69312 10.8009 9.00554 11.1133L11.4035 13.5113C11.7159 13.8237 12.222 13.8236 12.5344 13.5113L14.8035 11.1133C15.116 10.8009 15.116 10.2939 14.8035 9.98146C14.4911 9.6691 13.9841 9.66906 13.6717 9.98146L12.7688 11.0142L12.7688 4.05426C12.7688 3.72742 12.5702 3.43375 12.2668 3.31207C11.9635 3.19042 11.6167 3.2653 11.3908 3.50153L4.56174 10.6441L4.56174 4.05426C4.56174 3.61243 4.20376 3.25446 3.76193 3.25446C3.3201 3.25446 2.96213 3.61243 2.96213 4.05426L2.96213 12.6382Z" fill="white"/>
</svg>
