<svg width="22" height="22" viewBox="0 0 22 22" fill="none" xmlns="http://www.w3.org/2000/svg">
<rect x="0.666748" y="1" width="20" height="20" rx="2" stroke="white"/>
<path d="M13.4941 13.124C13.4941 13.628 13.3701 14.068 13.1221 14.444C12.8741 14.82 12.5141 15.112 12.0421 15.32C11.5781 15.52 11.0101 15.62 10.3381 15.62C10.0421 15.62 9.75006 15.6 9.46206 15.56C9.18206 15.52 8.91006 15.464 8.64606 15.392C8.39006 15.312 8.14606 15.216 7.91406 15.104V13.412C8.32206 13.588 8.74206 13.752 9.17406 13.904C9.61406 14.048 10.0501 14.12 10.4821 14.12C10.7781 14.12 11.0141 14.08 11.1901 14C11.3741 13.92 11.5061 13.812 11.5861 13.676C11.6741 13.54 11.7181 13.384 11.7181 13.208C11.7181 12.992 11.6421 12.808 11.4901 12.656C11.3461 12.504 11.1501 12.364 10.9021 12.236C10.6541 12.1 10.3701 11.956 10.0501 11.804C9.85006 11.708 9.63406 11.596 9.40206 11.468C9.17006 11.332 8.94606 11.168 8.73006 10.976C8.52206 10.776 8.35006 10.536 8.21406 10.256C8.07806 9.976 8.01006 9.64 8.01006 9.248C8.01006 8.736 8.12606 8.3 8.35806 7.94C8.59806 7.572 8.93406 7.292 9.36606 7.1C9.80606 6.908 10.3221 6.812 10.9141 6.812C11.3621 6.812 11.7861 6.864 12.1861 6.968C12.5941 7.072 13.0181 7.22 13.4581 7.412L12.8701 8.828C12.4781 8.668 12.1261 8.544 11.8141 8.456C11.5021 8.368 11.1821 8.324 10.8541 8.324C10.6301 8.324 10.4381 8.36 10.2781 8.432C10.1181 8.504 9.99406 8.604 9.90606 8.732C9.82606 8.86 9.78606 9.012 9.78606 9.188C9.78606 9.388 9.84606 9.56 9.96606 9.704C10.0861 9.84 10.2661 9.972 10.5061 10.1C10.7461 10.228 11.0461 10.38 11.4061 10.556C11.8461 10.764 12.2181 10.98 12.5221 11.204C12.8341 11.428 13.0741 11.692 13.2421 11.996C13.4101 12.3 13.4941 12.676 13.4941 13.124Z" fill="white"/>
</svg>
