<svg width="22" height="22" viewBox="0 0 22 22" fill="none" xmlns="http://www.w3.org/2000/svg">
<rect x="1" y="1" width="20" height="20" rx="2" stroke="white"/>
<path d="M10.0438 15.5L7.97984 8.78H7.93184C7.93984 8.94 7.95184 9.18 7.96784 9.5C7.98384 9.82 7.99984 10.164 8.01584 10.532C8.03184 10.892 8.03984 11.22 8.03984 11.516V15.5H6.41984V6.932H8.89184L10.9198 13.484H10.9558L13.1038 6.932H15.5758V15.5H13.8838V11.444C13.8838 11.172 13.8878 10.86 13.8958 10.508C13.9118 10.156 13.9238 9.824 13.9318 9.512C13.9478 9.192 13.9598 8.952 13.9678 8.792H13.9198L11.7118 15.5H10.0438Z" fill="white"/>
</svg>
