<svg width="22" height="22" viewBox="0 0 22 22" fill="none" xmlns="http://www.w3.org/2000/svg">
    <rect x="0.666748" y="1" width="20" height="20" rx="2" stroke="white" />
    <path
        d="M5.33875 8.54H16.0187V10.028H5.33875V8.54ZM11.5067 9.14C11.7467 10.052 12.0787 10.904 12.5027 11.696C12.9267 12.488 13.4507 13.18 14.0747 13.772C14.7067 14.364 15.4427 14.832 16.2827 15.176C16.1627 15.28 16.0347 15.412 15.8987 15.572C15.7707 15.732 15.6427 15.896 15.5147 16.064C15.3947 16.24 15.2947 16.396 15.2147 16.532C14.2947 16.1 13.5027 15.544 12.8387 14.864C12.1827 14.184 11.6307 13.392 11.1827 12.488C10.7347 11.576 10.3587 10.572 10.0547 9.476L11.5067 9.14ZM9.85075 5.312H11.4227C11.4147 5.92 11.3947 6.564 11.3627 7.244C11.3387 7.916 11.2787 8.6 11.1827 9.296C11.0867 9.992 10.9307 10.684 10.7147 11.372C10.5067 12.052 10.2107 12.708 9.82675 13.34C9.45075 13.964 8.96275 14.548 8.36275 15.092C7.77075 15.636 7.04675 16.116 6.19075 16.532C6.07875 16.34 5.92275 16.128 5.72275 15.896C5.52275 15.664 5.31875 15.472 5.11075 15.32C5.92675 14.952 6.61075 14.528 7.16275 14.048C7.71475 13.56 8.16275 13.036 8.50675 12.476C8.85875 11.908 9.12675 11.32 9.31075 10.712C9.49475 10.096 9.61875 9.476 9.68275 8.852C9.75475 8.228 9.79875 7.616 9.81475 7.016C9.83075 6.416 9.84275 5.848 9.85075 5.312Z"
        fill="white" />
</svg>