<svg width="22" height="22" viewBox="0 0 22 22" fill="none" xmlns="http://www.w3.org/2000/svg">
<rect x="1" y="1" width="20" height="20" rx="2" stroke="white"/>
<path d="M10.256 5.468H11.828V14.768C11.828 15.216 11.772 15.552 11.66 15.776C11.548 16 11.356 16.172 11.084 16.292C10.804 16.404 10.452 16.476 10.028 16.508C9.612 16.548 9.112 16.564 8.528 16.556C8.504 16.42 8.46 16.26 8.396 16.076C8.332 15.9 8.26 15.72 8.18 15.536C8.108 15.352 8.032 15.196 7.952 15.068C8.216 15.076 8.48 15.084 8.744 15.092C9.008 15.1 9.244 15.104 9.452 15.104C9.66 15.096 9.808 15.092 9.896 15.092C10.024 15.092 10.116 15.068 10.172 15.02C10.228 14.972 10.256 14.888 10.256 14.768V5.468ZM13.136 8.624L14.552 8.096C14.88 8.664 15.196 9.272 15.5 9.92C15.812 10.56 16.084 11.192 16.316 11.816C16.556 12.432 16.728 12.992 16.832 13.496L15.248 14.12C15.168 13.632 15.02 13.076 14.804 12.452C14.596 11.82 14.344 11.172 14.048 10.508C13.76 9.836 13.456 9.208 13.136 8.624ZM7.112 8.228L8.744 8.504C8.608 9.096 8.444 9.728 8.252 10.4C8.06 11.064 7.832 11.7 7.568 12.308C7.312 12.908 7.016 13.432 6.68 13.88C6.56 13.792 6.412 13.7 6.236 13.604C6.068 13.508 5.896 13.42 5.72 13.34C5.552 13.252 5.4 13.18 5.264 13.124C5.592 12.716 5.876 12.232 6.116 11.672C6.364 11.104 6.572 10.52 6.74 9.92C6.908 9.312 7.032 8.748 7.112 8.228Z" fill="white"/>
</svg>
